<?xml version="1.0" encoding="utf-8"?>
<!-- Generator: Adobe Illustrator 23.0.1, SVG Export Plug-In . SVG Version: 6.00 Build 0)  -->
<svg version="1.1"
	 id="Layer_1" xmlns:cc="http://creativecommons.org/ns#" xmlns:dc="http://purl.org/dc/elements/1.1/" xmlns:rdf="http://www.w3.org/1999/02/22-rdf-syntax-ns#"
	 xmlns="http://www.w3.org/2000/svg" xmlns:xlink="http://www.w3.org/1999/xlink" x="0px" y="0px" viewBox="0 0 225 200"
	 style="enable-background:new 0 0 225 200;" xml:space="preserve">
<style type="text/css">
	.st0{fill:#F5C025;}
</style>
<g transform="matrix(.98482 0 0 .98482 0 -.0051636)">
	<g transform="matrix(.23588 0 0 -.23588 0 202.36)">
		<path d="M896.4,159.4c-0.2,0-0.5-0.2-0.5-0.5v-4.7c0-0.3,0.3-0.5,0.5-0.5h8.6v-29.4c0-0.3,0.2-0.5,0.5-0.5h4.8
			c0.3,0,0.6,0.2,0.6,0.5v29.4h8.6c0.3,0,0.5,0.2,0.5,0.5v4.7c0,0.3-0.2,0.5-0.5,0.5"/>
		<path d="M539.1,203.5c0-9.5,7.5-16.9,17-16.9c9.5,0,17,7.4,17,16.9c0,9.4-7.5,16.9-17,16.9C546.5,220.5,539.1,213,539.1,203.5"/>
		<path d="M628,147.9l-1.1-0.6l-2.2,6.1c-0.7,2.1-2.7,3.4-4.8,3.4H609c-2.8,0-5.1-2.3-5.1-5.2V11.4c0-2.8,2.3-5.2,5.1-5.2h19.6
			c2.8,0,5.2,2.3,5.2,5.2v113.5l0.5,0.2c8.1,4.2,16.2,6.8,32.1,6.8c19.1,0,22.9-7.1,22.9-18.7V11.4c0-2.8,2.3-5.1,5.1-5.1h19.7
			c2.8,0,5.1,2.3,5.1,5.1v100.9c0,30.9-18.2,47.2-52.8,47.2C653.7,159.6,640.7,155.6,628,147.9"/>
		<path d="M570.7,151.6c0,2.9-2.3,5.2-5.1,5.2h-19.1c-2.8,0-5.1-2.3-5.1-5.2V11.4c0-2.8,2.3-5.1,5.1-5.1h19.1c2.9,0,5.2,2.3,5.2,5.1
			"/>
		<path d="M505.5,221.7c0,2.9-2.3,5.2-5.2,5.2h-19c-2.9,0-5.2-2.3-5.2-5.2V11.4c0-2.8,2.3-5.1,5.2-5.1h19c2.9,0,5.2,2.3,5.2,5.1"/>
		<path d="M211.6,94.8c1.4,19.3,6.5,37.1,33.7,37.1c23.3,0,27.9-12.5,28.4-37.2l0-1.1h-62.2L211.6,94.8z M181.2,81.5
			c0-19.3,0-78,64-78c19.2,0,31.8,1.2,48.4,6.5c1.9,0.6,3,2.7,3,4.7v15.8c0,1.8-0.9,3.4-2.3,4.3c-1.4,1-3.1,0.8-4.8,0.4
			c-14.3-3-25.8-4-44.3-4c-26.6,0-31.9,16.9-33.5,35.2l-0.1,1.1h86.9c2.9,0,5.2,2.3,5.2,5.1v9c0,37.8-4.5,78-58.4,78
			C181.2,159.6,181.2,100.8,181.2,81.5"/>
		<path d="M357.1,94.8c1.4,19.3,6.5,37.1,33.7,37.1c23.3,0,27.8-12.5,28.3-37.2l0-1.1H357L357.1,94.8z M326.7,81.5
			c0-19.3,0-78,64.1-78c19.2,0,31.8,1.2,48.4,6.5c1.9,0.6,3.1,2.7,3.1,4.7v15.8c0,1.8-0.9,3.4-2.3,4.3c-1.4,1-3.2,0.8-4.8,0.4
			c-14.4-3-25.8-4-44.3-4c-26.7,0-31.9,16.9-33.6,35.2l-0.1,1.1h87c2.8,0,5.1,2.3,5.1,5.1v9c0,37.8-4.5,78-58.4,78
			C326.7,159.6,326.7,100.8,326.7,81.5"/>
		<path d="M775.5,94.8c1.4,19.3,6.5,37.1,33.7,37.1c23.3,0,27.8-12.5,28.4-37.2l0-1.1h-62.1L775.5,94.8z M745.2,81.5
			c0-19.3,0-78,64-78c19.2,0,31.8,1.2,48.4,6.5c1.9,0.6,3,2.7,3,4.7v15.8c0,1.8-0.9,3.4-2.3,4.3c-1.4,1-3.2,0.8-4.8,0.4
			c-14.4-3-25.7-4-44.3-4c-26.7,0-31.9,16.9-33.6,35.2l-0.1,1.1h87c2.8,0,5.1,2.3,5.1,5.1v9c0,37.8-4.5,78-58.4,78
			C745.1,159.6,745.2,100.8,745.2,81.5"/>
		<path d="M86.4,106.1c30.3,0,41.1-9.2,41.1-35.2c0-17.4-5-35.2-41.6-35.2H41.7v70.4L86.4,106.1L86.4,106.1z M84.1,198.1
			c31.9,0,36.3-15.2,36.3-31.5c0-20.8-11.1-31-34-31H41.7v62.5H84.1z M16.3,227.6c-3.1,0-5.5-2.5-5.5-5.5V11.8
			c0-3.1,2.5-5.6,5.5-5.6h68.5c48.9,0,75.9,23,75.9,64.7c0,22.7-10.9,42.1-29.2,51.8c0,0-0.5,0.2-0.9,0.5c0.4,0.2,0.8,0.5,0.8,0.5
			c14.2,10.3,22.3,25.9,22.3,42.8c0,22.8-9.2,61-70.9,61"/>
		<path d="M951.4,159.4c-0.2,0-0.4-0.2-0.5-0.3c0,0-8.8-20.6-9.7-22.6c-0.9,2-9.7,22.6-9.7,22.6c-0.1,0.1-0.3,0.3-0.5,0.3h-5.8
			c-0.3,0-0.5-0.2-0.5-0.5v-34.6c0-0.3,0.2-0.5,0.5-0.5h4.7c0.1,0,0.3,0,0.4,0.2c0.1,0.1,0.1,0.2,0.1,0.4c0,0-0.1,20-0.2,24.3
			c1.6-3.7,8.7-19.9,8.7-19.9c0-0.2,0.2-0.3,0.5-0.3h3.7c0.2,0,0.4,0.1,0.4,0.3c0,0,7,16.1,8.6,19.9c0-4.2-0.2-24.3-0.2-24.3
			c0-0.2,0-0.3,0.1-0.4c0.1-0.1,0.2-0.2,0.4-0.2h4.7c0.3,0,0.5,0.2,0.5,0.5v34.6c0,0.3-0.2,0.5-0.5,0.5"/>
	</g>
	<g>
		<path class="st0" d="M114.4,1.5c-20.3,0-38.5,9.2-50.7,23.6h101.4C152.9,10.7,134.7,1.5,114.4,1.5z"/>
		<path class="st0" d="M114.4,134.1c19.4,0,36.9-8.4,49-21.7H65.3C77.5,125.7,95,134.1,114.4,134.1z"/>
		<path class="st0" d="M179.4,55.2c-2.2-11.3-7.2-21.6-14.4-30H63.7C54,36.7,48.1,51.6,48.1,67.8v0c0,17.2,6.5,32.8,17.2,44.6h98.1
			c8-8.8,13.7-19.8,16-32V55.2z"/>
	</g>
	<g>
		<path d="M114.8,1.5H114c-20.3,0.1-38.4,9.3-50.5,23.8h101.7C153.2,10.9,135,1.7,114.8,1.5z"/>
		<path d="M180.7,68.2v-0.7c0-4.7-0.6-9.3-1.5-13.8H49.6c-1,4.6-1.5,9.3-1.5,14.1v0c0,4.9,0.5,9.6,1.5,14.2h129.5
			C180.1,77.6,180.6,72.9,180.7,68.2z"/>
		<path d="M165.1,110.4H63.6c12,14.3,30,23.5,50.1,23.7h1.3C135.2,133.9,153.1,124.7,165.1,110.4z"/>
	</g>
</g>
</svg>
