<?xml version="1.0" encoding="utf-8"?>
<!-- Generator: Adobe Illustrator 23.0.1, SVG Export Plug-In . SVG Version: 6.00 Build 0)  -->
<svg version="1.1"
	 id="Layer_1" xmlns:cc="http://creativecommons.org/ns#" xmlns:dc="http://purl.org/dc/elements/1.1/" xmlns:rdf="http://www.w3.org/1999/02/22-rdf-syntax-ns#"
	 xmlns="http://www.w3.org/2000/svg" xmlns:xlink="http://www.w3.org/1999/xlink" x="0px" y="0px" viewBox="0 0 300 200"
	 style="enable-background:new 0 0 300 200;" xml:space="preserve">
<style type="text/css">
	.st0{fill:#A0A0A0;}
	.st1{fill:#F1F1F1;}
</style>
<g transform="matrix(.98482 0 0 .98482 0 -.0051636)">
	<g transform="matrix(.23588 0 0 -.23588 0 202.36)">
		<path class="st0" d="M1057.8,159.4c-0.2,0-0.5-0.2-0.5-0.5v-4.7c0-0.3,0.3-0.5,0.5-0.5h8.6v-29.4c0-0.3,0.2-0.5,0.5-0.5h4.8
			c0.3,0,0.6,0.2,0.6,0.5v29.4h8.6c0.3,0,0.5,0.2,0.5,0.5v4.7c0,0.3-0.2,0.5-0.5,0.5"/>
		<path class="st0" d="M700.5,203.5c0-9.5,7.5-16.9,17-16.9s17,7.4,17,16.9c0,9.4-7.5,16.9-17,16.9
			C707.9,220.5,700.5,213,700.5,203.5"/>
		<path class="st0" d="M789.4,147.9l-1.1-0.6l-2.2,6.1c-0.7,2.1-2.7,3.4-4.8,3.4h-10.9c-2.8,0-5.1-2.3-5.1-5.2V11.4
			c0-2.8,2.3-5.2,5.1-5.2H790c2.8,0,5.2,2.3,5.2,5.2v113.5l0.5,0.2c8.1,4.2,16.2,6.8,32.1,6.8c19.1,0,22.9-7.1,22.9-18.7V11.4
			c0-2.8,2.3-5.1,5.1-5.1h19.7c2.8,0,5.1,2.3,5.1,5.1v100.9c0,30.9-18.2,47.2-52.8,47.2C815.1,159.6,802.1,155.6,789.4,147.9"/>
		<path class="st0" d="M732.1,151.6c0,2.9-2.3,5.2-5.1,5.2h-19.1c-2.8,0-5.1-2.3-5.1-5.2V11.4c0-2.8,2.3-5.1,5.1-5.1H727
			c2.9,0,5.2,2.3,5.2,5.1"/>
		<path class="st0" d="M666.9,221.7c0,2.9-2.3,5.2-5.2,5.2h-19c-2.9,0-5.2-2.3-5.2-5.2V11.4c0-2.8,2.3-5.1,5.2-5.1h19
			c2.9,0,5.2,2.3,5.2,5.1"/>
		<path class="st0" d="M373,94.8c1.4,19.3,6.5,37.1,33.7,37.1c23.3,0,27.9-12.5,28.4-37.2v-1.1h-62.2L373,94.8z M342.6,81.5
			c0-19.3,0-78,64-78c19.2,0,31.8,1.2,48.4,6.5c1.9,0.6,3,2.7,3,4.7v15.8c0,1.8-0.9,3.4-2.3,4.3c-1.4,1-3.1,0.8-4.8,0.4
			c-14.3-3-25.8-4-44.3-4c-26.6,0-31.9,16.9-33.5,35.2l-0.1,1.1h86.9c2.9,0,5.2,2.3,5.2,5.1v9c0,37.8-4.5,78-58.4,78
			C342.6,159.6,342.6,100.8,342.6,81.5"/>
		<path class="st0" d="M518.5,94.8c1.4,19.3,6.5,37.1,33.7,37.1c23.3,0,27.8-12.5,28.3-37.2v-1.1h-62.1L518.5,94.8z M488.1,81.5
			c0-19.3,0-78,64.1-78c19.2,0,31.8,1.2,48.4,6.5c1.9,0.6,3.1,2.7,3.1,4.7v15.8c0,1.8-0.9,3.4-2.3,4.3c-1.4,1-3.2,0.8-4.8,0.4
			c-14.4-3-25.8-4-44.3-4c-26.7,0-31.9,16.9-33.6,35.2l-0.1,1.1h87c2.8,0,5.1,2.3,5.1,5.1v9c0,37.8-4.5,78-58.4,78
			C488.1,159.6,488.1,100.8,488.1,81.5"/>
		<path class="st0" d="M936.9,94.8c1.4,19.3,6.5,37.1,33.7,37.1c23.3,0,27.8-12.5,28.4-37.2v-1.1h-62.1L936.9,94.8z M906.6,81.5
			c0-19.3,0-78,64-78c19.2,0,31.8,1.2,48.4,6.5c1.9,0.6,3,2.7,3,4.7v15.8c0,1.8-0.9,3.4-2.3,4.3c-1.4,1-3.2,0.8-4.8,0.4
			c-14.4-3-25.7-4-44.3-4c-26.7,0-31.9,16.9-33.6,35.2l-0.1,1.1h87c2.8,0,5.1,2.3,5.1,5.1v9c0,37.8-4.5,78-58.4,78
			C906.5,159.6,906.6,100.8,906.6,81.5"/>
		<path class="st0" d="M247.8,106.1c30.3,0,41.1-9.2,41.1-35.2c0-17.4-5-35.2-41.6-35.2h-44.2v70.4L247.8,106.1L247.8,106.1z
			 M245.5,198.1c31.9,0,36.3-15.2,36.3-31.5c0-20.8-11.1-31-34-31h-44.7v62.5H245.5z M177.7,227.6c-3.1,0-5.5-2.5-5.5-5.5V11.8
			c0-3.1,2.5-5.6,5.5-5.6h68.5c48.9,0,75.9,23,75.9,64.7c0,22.7-10.9,42.1-29.2,51.8c0,0-0.5,0.2-0.9,0.5c0.4,0.2,0.8,0.5,0.8,0.5
			c14.2,10.3,22.3,25.9,22.3,42.8c0,22.8-9.2,61-70.9,61"/>
		<path class="st0" d="M1112.8,159.4c-0.2,0-0.4-0.2-0.5-0.3c0,0-8.8-20.6-9.7-22.6c-0.9,2-9.7,22.6-9.7,22.6
			c-0.1,0.1-0.3,0.3-0.5,0.3h-5.8c-0.3,0-0.5-0.2-0.5-0.5v-34.6c0-0.3,0.2-0.5,0.5-0.5h4.7c0.1,0,0.3,0,0.4,0.2
			c0.1,0.1,0.1,0.2,0.1,0.4c0,0-0.1,20-0.2,24.3c1.6-3.7,8.7-19.9,8.7-19.9c0-0.2,0.2-0.3,0.5-0.3h3.7c0.2,0,0.4,0.1,0.4,0.3
			c0,0,7,16.1,8.6,19.9c0-4.2-0.2-24.3-0.2-24.3c0-0.2,0-0.3,0.1-0.4s0.2-0.2,0.4-0.2h4.7c0.3,0,0.5,0.2,0.5,0.5v34.6
			c0,0.3-0.2,0.5-0.5,0.5"/>
	</g>
	<g>
		<path class="st1" d="M152.5,1.5c-20.3,0-38.5,9.2-50.7,23.6h101.4C191,10.7,172.8,1.5,152.5,1.5z"/>
		<path class="st1" d="M152.5,134.1c19.4,0,36.9-8.4,49-21.7h-98.1C115.6,125.7,133.1,134.1,152.5,134.1z"/>
		<path class="st1" d="M217.5,55.2c-2.2-11.3-7.2-21.6-14.4-30H101.8c-9.7,11.5-15.6,26.4-15.6,42.6l0,0c0,17.2,6.5,32.8,17.2,44.6
			h98.1c8-8.8,13.7-19.8,16-32V55.2z"/>
	</g>
	<g>
		<path class="st0" d="M152.9,1.5h-0.8c-20.3,0.1-38.4,9.3-50.5,23.8h101.7C191.3,10.9,173.1,1.7,152.9,1.5z"/>
		<path class="st0" d="M218.8,68.2v-0.7c0-4.7-0.6-9.3-1.5-13.8H87.7c-1,4.6-1.5,9.3-1.5,14.1l0,0c0,4.9,0.5,9.6,1.5,14.2h129.5
			C218.2,77.6,218.7,72.9,218.8,68.2z"/>
		<path class="st0" d="M203.2,110.4H101.7c12,14.3,30,23.5,50.1,23.7h1.3C173.3,133.9,191.2,124.7,203.2,110.4z"/>
	</g>
</g>
</svg>
