<?xml version="1.0" encoding="utf-8"?>
<!-- Generator: Adobe Illustrator 23.0.1, SVG Export Plug-In . SVG Version: 6.00 Build 0)  -->
<svg version="1.1" id="Layer_1" xmlns="http://www.w3.org/2000/svg" xmlns:xlink="http://www.w3.org/1999/xlink" x="0px" y="0px"
	 viewBox="0 0 340 340" style="enable-background:new 0 0 340 340;" xml:space="preserve">
<style type="text/css">
	.st0{fill:#A0A0A0;}
	.st1{fill:#FEFEFE;}
</style>
<g>
	<circle class="st0" cx="170" cy="170" r="165"/>
	<path class="st1" d="M98.3,145.5c2.6-0.5,3.5-2.3,4.8-3.4c12-10.5,25.5-13,40.4-7.7c10.5,3.7,16.4,11.4,18.6,22.2
		c1.3,6.6,1.3,13.2,1.3,19.9c0.1,18.3-0.2,36.5,0.1,54.8c0.1,5-1.5,6.3-6.2,6c-5.3-0.4-10.6-0.3-15.9,0c-3.8,0.2-4.8-1.2-4.8-4.8
		c0.1-19.1,0-38.2-0.1-57.3c0-1.8-0.1-3.7-0.2-5.5c-0.6-9.8-4-14.6-11.6-16.3c-8.8-2-18.1,1.8-22.3,9.3c-3.2,5.9-3.9,12.3-3.9,18.8
		c-0.2,16.4-0.1,32.9-0.1,49.3c0,6.3,0,6.3-6.6,6.4c-5.1,0-10.3-0.2-15.4,0.1c-3.7,0.2-4.8-1.1-4.8-4.8c0.2-20.4,0.1-40.8,0.1-61.3
		c0-24.9,0.1-49.8-0.1-74.7c0-4.2,0.8-6,5.5-5.7c5.6,0.4,11.3,0.3,16.9,0c3.5-0.2,4.6,1.1,4.5,4.5c-0.2,14.9-0.1,29.9-0.1,44.8
		C98.3,141.8,98.3,143.5,98.3,145.5z"/>
	<path class="st1" d="M204.6,145.5c6.9-7.1,14.5-12,24.2-13.4c21.7-3.1,37.5,8.8,39.1,30.6c1.7,23.5,0.3,47.1,0.7,70.7
		c0,2.9-1.1,3.8-3.8,3.7c-5.8-0.1-11.6-0.3-17.4,0.1c-4.3,0.3-5.7-1-5.6-5.5c0.3-16.8,0.1-33.5,0.1-50.3c0-5.3,0-10.6-0.9-15.9
		c-1.1-6.9-5-11-11.8-12.4c-11-2.2-21,4.1-24,15.1c-1.6,5.8-1.7,11.8-1.7,17.8c0,15.4-0.1,30.9,0,46.3c0,3.6-0.9,5.1-4.7,4.9
		c-5.1-0.3-10.3-0.1-15.4-0.1c-6.6,0-6.6,0-6.6-6.4c0-32,0-64.1,0-96.1c0-13.1,0.1-26.2-0.1-39.3c0-3.4,1-4.7,4.5-4.6
		c5.6,0.2,11.3,0.3,16.9,0c4.1-0.2,5.5,1,5.4,5.2c-0.2,14.6-0.1,29.2-0.1,43.8C203.5,141.4,203,143.3,204.6,145.5z"/>
</g>
</svg>
