<?xml version="1.0" encoding="utf-8"?>
<!-- Generator: Adobe Illustrator 23.0.1, SVG Export Plug-In . SVG Version: 6.00 Build 0)  -->
<svg version="1.1" id="Layer_1" xmlns="http://www.w3.org/2000/svg" xmlns:xlink="http://www.w3.org/1999/xlink" x="0px" y="0px"
	 viewBox="0 0 190 45" enable-background="new 0 0 190 45" xml:space="preserve">
<g>
	<path fill-rule="evenodd" clip-rule="evenodd" fill="#E15754" d="M61.6,42.6l-0.9-0.2c-2-0.7-3.8-6.3-3-6.8
		c0.6-0.7,3.8-4.1,4.7-5.1c-0.4-0.6-1.3-2.9-1.2-5.4c-1.6,2.5-2.9,6.3-8.3,8.5c-0.4,0-1,0.2-1.6,0.2c-1.1,2.3-0.7,6.6-4,7.2
		c-3.3,0-6.4-3.2-6.1-4.3c-0.4-2.8,1.3-5,5.7-17.9c-0.5-1.4-1-3.6-0.5-5c0.4-1.5,1.5-2.3,2.3-3.1c0.2-1,0-1,0.2-1.7
		c0.2-0.5,0.4-1,0.8-1.7c0.4-0.4,1.3-1.1,2.1-1.2h0.8c0.8,0.1,1.7,0.3,2.4,0.7c0.6,0.4,1.6,1,1.7,1.9c0.6,0.1,1.2,0.2,1.6,0.3
		c2,0.2,3.5,2.5,4.1,4c0-0.8,1-3,1.6-3.4c1-0.9,2.1-0.8,2.4-0.8c1.3,0.2,2.7,0.7,3.7,1.8c0.7,0.5,1,1.3,1.3,1.5
		c0.4-1.3,1.2-2.5,2.2-3.3c1.1-0.6,1.4-0.5,2.1-0.2l0.8,0.4c1,0.6,1.8,1.8,2.6,3.1c0.5-0.9,0.5-1.3,1.1-1.9c0.4-0.4,0.9-0.7,1.8-1.2
		c0.7-0.2,1.5-0.3,2-0.1c1.1,0.2,2.4,1.5,3.1,2.3c0.8-0.8,1.2-2,2.8-2.6c0.7-0.2,1.5-0.2,2.1,0.2c1.6,0.8,2.6,2.8,3,4.1
		c0.6,1.9-1.9,5.8-3,7.1c-1,0.9-2.3,2.1-3.3,2.8c0,0,2.2,6.8,2.2,8.6c0.3,2.6-4.1,3.5-6.2,2.8c-1.5-0.4-2-1.6-2.6-2.6
		c-1,1.8-2.3,2.6-4.1,2.5c-3-0.5-4.4-3-4.4-5.5h-0.4c-1.3,3.7-7,11.8-10.6,13.4C62.6,42.3,62.2,42.6,61.6,42.6L61.6,42.6z"/>
	<path fill-rule="evenodd" clip-rule="evenodd" fill="#E15754" d="M136.5,42.1c-0.5-0.7-0.9-2.3-1.6-3.9c0-1.8,0-2.1,1-3.4
		c1-1.3,1.9-2.4,3.4-4.2c-1-1.4-1.2-2.6-1.2-4.5c-2.8,6.5-4.7,7.6-9.4,7.8c-0.9,2.4-2.2,5.6-3.3,7.6c-0.5,0.9-1.1,0.9-1.9,0.6
		c-6.8-4.8-5.8-5.1-4.6-8.8c1.6-4.6,5.4-14.2,5-14.6c-1.7-5.2-0.4-6.6,1.3-7.2c1.3-6.6,4.7-7,8.7-2.5c2.1-0.1,4.8,2.3,5.3,4.4
		c1.6-4.4,3.8-8.6,8.9-0.8c1.9-4.9,4.2-5.5,7.8,0.1c1-2,3.8-6.2,7.9-1c1.9-3,5.6-5,7.6,1.8c1.1-2.3,2.2-4.5,5.2-4.5
		c1.3,0.2,2.7,1.2,3.6,2.2c2.1-1.9,2.9-2.2,4-1.8c0.2,0,0.7,0.2,1.1,0.6c1,0.6,1.8,1.7,2.6,3c0.2,0.9,0.3,1.3,0.2,2.5
		c-1.3,3.4-2.5,4.6-3.8,10.1c-0.7,2.1-0.3,5.6-1.8,8.2c-0.3,0.4-0.8,0.8-1.8,1.1c-1.3,0.1-4-0.5-5.1-1.9c-5.2,2.3-6.4-1.1-7.4-3.2
		c-0.9-1.7-0.6-4.7,0.6-9.2c-1.7,1.6-2.1,2-3.5,2.6c0,2.2,1.5,5.9,2.4,7.8c0.4,2.8-0.2,2.9-3.5,3.7c-3.8,0.9-3.4-1.2-5.5-2.4
		c-0.4,2.3-5.7,4.2-8.3-2.9c-0.7,2.9-7.6,11.6-10.8,13.3C138.4,43,137.4,43.1,136.5,42.1L136.5,42.1z"/>
	<path fill-rule="evenodd" clip-rule="evenodd" fill="#FFFFFF" d="M60.3,36.8c0.4-1,4.7-5.1,5.6-6.6c-0.8-0.1-1.7-0.6-1.8-1
		c-2.6-7.8,0.8-16,1.3-16.6c1-2,4.2,0.5,4.3,1.8c-1.2,3.6-2.8,8.9-2,12.4c1.9-2,5.4-13.4,7.1-15.5c1.2-0.6,3.6,3.1,2.9,4.3
		c-2.1,7.4-8.8,19.2-14.4,24.3c-0.4,0.3-0.7,0.6-1.6,0.6C61.2,40.5,59.6,37.1,60.3,36.8L60.3,36.8z"/>
	<path fill-rule="evenodd" clip-rule="evenodd" fill="#FFFFFF" d="M138,40.5c0-0.6-1-2.8-0.9-3.2c0-0.6,4.4-5.7,5.2-7.3
		c-1.7-0.8-2-2.1-2-2.1c-0.1-5.8,0.1-9.5,1.8-16c0.4-0.5,1-0.6,1.7-0.2c0.8,0.2,2.2,1.3,2.4,2.2c-0.5,3.6-1.4,7.5-1.4,11.8
		c3.1-4.3,4.1-9.4,6.3-14.1c0.5-0.5,1-0.3,1.5,0c0.7,0.7,1.8,1.8,1.6,2.4c-2.5,9.4-8.3,20.4-15.4,26.4
		C138.6,40.5,138.4,40.5,138,40.5L138,40.5z"/>
	<path fill-rule="evenodd" clip-rule="evenodd" fill="#FFFFFF" d="M43.9,35.4c0-1,5-13.5,5.4-16.6c-0.5-1-1-2.2-1-3.5
		c0-1.8,1.5-2.8,2.3-3c0-1.1,0.4-3.4,1.3-3.6c1.1-0.1,3.3,0.3,3.3,2.7c2-1.1,5,1.7,5.2,2.9c1.3,2,0.8,8.4-5,15
		c-1.1,0.6-1.6,1.7-3.3,2.3c-1,0-1.3-0.6-1.8-1.2c-0.4,0.1-2.4,8-2.9,8C46.4,38.4,43.9,36.7,43.9,35.4L43.9,35.4z"/>
	<path fill-rule="evenodd" clip-rule="evenodd" fill="#FFFFFF" d="M122.9,38.8c-1.2-0.4-1.4-1.3-2.6-2.5c-0.2-0.4-0.2-0.5,0-1.2
		c2.1-5.1,4.2-10.8,5.6-16c0-2-2.5-5.5,1.2-6.1c0.3-1.8,0.1-2.6,1.3-4.2c1.2-0.5,3.6,1,3.4,3c3.3-0.9,4.2,0.6,5.6,3.3
		c1.1,5.5-1.3,11.9-5.3,15.3c-1,0.9-2.8,2.5-4.5-0.2c-0.4,1.1-2.8,7.2-4.1,8.6C123.4,38.8,123.1,38.8,122.9,38.8L122.9,38.8z"/>
	<path fill-rule="evenodd" clip-rule="evenodd" fill="#E15754" d="M98.4,29.8c-1.2-4.8,0-7.3,1.8-11.4c-0.4-3.7-0.3-6.7,3.7-7.9
		c0.3-1.4,1-3.4,2.9-4.2c0.5-0.3,1.2-0.2,1.8-0.1c2.3,0.4,2.5,1.5,3.9,3.2c2.3,0,5.3,2.2,5.9,4.6c1,2.7,0,6.8-3.4,9.4
		c0.6,2.1-0.1,4.3-1,6.5c-2.5,4.5-5.3,5.4-9.2,5.4C102.4,35.4,98.4,31.9,98.4,29.8L98.4,29.8z"/>
	<path fill-rule="evenodd" clip-rule="evenodd" fill="#E15754" d="M11.3,29.6H11c-1,2.2-2.7,4.3-5.4,4.3c-3.5-1.2-4.7-3.3-4.4-6.7
		c1.4-4.6,5.6-16.8,7.3-22c0.9-1.6,1.2-3,3.4-3.9c3.4,0,5.3,2.9,5.3,5.9c2.5-1.9,3.7-4.8,7.3-4.8c2.7,0,4.4,5,2.8,7.9L26.9,11
		c0.7-0.9,3.4-1.9,4.4-2c1.8-0.1,3.8,0,5.7,1.4c1,0.7,1.4,2.1,1.8,3.1c0.4,1.9,0,3.7-1.3,6.1c0,0.4,0.7,1,1,1.7
		c0.6,3.8-1.8,8.5-4.7,11c-3.2,1.9-6.4,2.5-10.7-1.4c-1.5-2.2-2.3-4.6,1.8-8c-0.4-1.8-1-2.5,0.5-4.5c-0.7-1.3-0.5-2.4-0.4-3.7h-0.5
		c-2.4,4.9-4.1,13.4-4.9,18.8C17.7,37.2,11.8,32.6,11.3,29.6L11.3,29.6z"/>
	<path fill-rule="evenodd" clip-rule="evenodd" fill="#FFFFFF" d="M102,31.4c-2.7-3.2-1.6-6.4-1.2-7.9c0.6-1.8,1.2-2.9,2-4.6
		c-0.6-1.8-0.2-6.5,2.5-6.1c0.5-1,0.7-2.6,1.8-3.7c1.7-1.6,3.5,1.5,3.8,2.6c2.8,0,4.1,0.4,5.4,3c1,4.2-1,5.5-3.7,7.9
		c1.5,4.6-1,8.5-4.8,10.1C105.3,32.9,103.6,32.8,102,31.4L102,31.4z"/>
	<path fill-rule="evenodd" clip-rule="evenodd" fill="#FFFFFF" d="M13.6,28.7c0.3-2.8,1.4-4.8,3-8.1c-4.3,5.1-5.8,5.1-8.7,10
		c-1.7,1.7-5.9,0.5-4-4c2.2-8.2,4.6-14.9,6.9-20.4c1-4,3.6-2.2,4.7,1.7c-1.2,4-2.8,7.1-3.7,10c5.1-7.4,7-9.3,11.3-13.4
		c2-0.2,2.7,2.1,2.7,3.7c-3.7,4.6-5.7,10-7.8,23.1c0,0-0.3,1-0.6,1.3C16.4,32.6,12.8,30.9,13.6,28.7L13.6,28.7z"/>
	<path fill-rule="evenodd" clip-rule="evenodd" fill="#FFFFFF" d="M85.6,32.6c-2.4-1.6-2.3-6.4-2.9-8.6c-0.5,2.2-2.9,8.6-3.4,8.3
		c-1.6,0.2-2.8-1.3-3.5-2.7c4-9.5,6.2-18.4,6.8-18c1.3-0.2,2.7,0.7,3,2c0.5,0.1-0.9,4-1.3,5.2c2.7-2.3,4.3-5.6,6.5-7.6
		c0.4-0.3,0.7,0.2,0.9,0.4c0.4,1,1.2,2,1.2,3.1c-0.1,1.5-3.5,4.9-6.4,6.8c-0.1,2.8,2.7,9.1,2.1,10.5C88.6,32.5,86.5,32.8,85.6,32.6
		L85.6,32.6L85.6,32.6z"/>
	<path fill-rule="evenodd" clip-rule="evenodd" fill="#FFFFFF" d="M162.2,32.9c-0.4-0.1-2.6-1.2-2.5-9.3c-1.5,2.9-3.8,8.9-4.3,8.3
		c-0.7,0.2-2.3-3.1-2.2-3.8c-0.1,0,0.5-0.8,6.3-15.9c0.5-0.9,1.5-0.4,1.5-0.3c0.4,0.2,1.5,1.3,1.2,2.1c-0.3,1.8-0.7,2.6-1.2,5.5
		c2.4-0.3,4.3-6.9,4.8-7.6c0.1,0,0.7-0.7,1.2-0.4c1.3,0.8,2.9,2.7,1.7,4c-0.4,0.8-1.3,4.5-5.8,7c0.2,3.1,1.3,6.2,2.6,9.5l-0.3,0.4
		C164.9,32.5,162.2,33.2,162.2,32.9L162.2,32.9z"/>
	<path fill-rule="evenodd" clip-rule="evenodd" fill="#FFFFFF" d="M178,32.1c-0.4-0.1-0.4-1.4-0.3-2c-1.4,0.9-2.2,1.6-4,1.3
		c-0.9-0.1-2.6-1.4-3-2.8c-0.2-5.7,2.4-14.6,4.8-16.8c0.7-0.7,1.5-0.4,2.2,0.1c0.6,0.6,1.5,1,1.3,2.1c-1.9,3.4-4.1,8.9-4.5,12.9
		c-0.1,2.2,2.3,0.5,3.3,0.1c0.4-0.2,0.4-1.4,0.6-1.8c0.9-5,1.9-7.3,4-12.5c0.3-0.3,0.6-0.6,0.9-0.7c0.5-0.1,0.8,0,1,0
		c0.4,0.2,0.6,0.4,1,0.6c0.3,0.1,0.8,1,1,1.5c0.1,0.2,0,0.7-0.2,1.4c-4.1,8.8-3.5,8.6-5,16.6c-0.1,0.3-0.1,0.5-0.5,0.5
		C180.3,32.6,178.4,32.6,178,32.1L178,32.1z"/>
	<path fill-rule="evenodd" clip-rule="evenodd" fill="#FFFFFF" d="M28.7,31.6c-1.3-0.4-3.2-1.7-4.2-3.3c-0.9-0.9,0.3-2,1.3-3.4
		c0.5-0.2,0.8-0.2,1-0.2c1,0.5,1.6,1.7,2.1,2.2c2,1.5,3.4-1,3.7-3c-0.1-0.7-0.7-1.3-1.8-1.7c-0.6-0.1-1.2,0-2.1,0.5
		c-0.3,0.1-0.3,0.7-1.3-0.3c0-0.5,0-2,0-2.4c1-0.4,3.7-1,4.6-3.9l-0.5-0.6c-1.8,0.2-2.1,1.5-3.7,2.3c-0.4-2-1-2.7,0-4.2
		c1.4-3.2,7.7-3,9.2,0.4c0,2.4-0.4,4.3-2.4,5.5l0.7,0.6c2.7,1.7,0.9,6.1-1.1,8.6C31.6,31.3,31.3,31.6,28.7,31.6L28.7,31.6z"/>
	<path fill-rule="evenodd" clip-rule="evenodd" fill="#E15754" d="M105.9,23.4c0.5,0.3,0.7,1,2.1,0.6c0,1.8-0.5,3.4-2,3.3
		C104.1,26.4,105.3,24.9,105.9,23.4L105.9,23.4z"/>
	<path fill-rule="evenodd" clip-rule="evenodd" fill="#E15754" d="M52,25.3v-0.4c0.2-0.4,0-1.1,0.6-1.7v-0.4c0.2-0.4,0-1,0.6-1.7
		v-0.4l0.3-0.4V20l0.2-0.4v-0.4c0.2-0.3,0-1,0.5-1.6c0.3,0,0.7-0.2,1.3-0.6l0.8,0.4c0.2,3.1-1.8,6.1-4.1,8H52L52,25.3z"/>
	<path fill-rule="evenodd" clip-rule="evenodd" fill="#E15754" d="M128.8,25.3c1-3.7,1.2-5.9,2-7.8c2.7-1.3,2.7,0.4,2.2,2.4
		C132.7,21,129.7,25.3,128.8,25.3L128.8,25.3z"/>
	<path fill-rule="evenodd" clip-rule="evenodd" fill="#E15754" d="M108.2,19.5c0.3-0.9,2-3,2.9-3.4c0.6-0.1,0.9,0.1,1,0.4
		C112,18,109.4,19.5,108.2,19.5L108.2,19.5z"/>
</g>
</svg>
