<?xml version="1.0" encoding="utf-8"?>
<!-- Generator: Adobe Illustrator 23.0.1, SVG Export Plug-In . SVG Version: 6.00 Build 0)  -->
<svg version="1.1"
	 id="svg2" xmlns:cc="http://creativecommons.org/ns#" xmlns:dc="http://purl.org/dc/elements/1.1/" xmlns:inkscape="http://www.inkscape.org/namespaces/inkscape" xmlns:rdf="http://www.w3.org/1999/02/22-rdf-syntax-ns#" xmlns:svg="http://www.w3.org/2000/svg"
	 xmlns="http://www.w3.org/2000/svg" xmlns:xlink="http://www.w3.org/1999/xlink" x="0px" y="0px" viewBox="0 0 455.3 95.4"
	 style="enable-background:new 0 0 455.3 95.4;" xml:space="preserve">
<style type="text/css">
	.st0{fill:#254983;}
	.st1{fill:#EE9B23;}
</style>
<g>
	<g>
		<rect x="296.2" y="8.8" class="st0" width="9" height="61.4"/>
		<path class="st0" d="M320.5,59.1c-3.4,0-6.1,2.7-6.1,6.1s2.7,6.1,6.1,6.1s6.1-2.7,6.1-6.1S323.9,59.1,320.5,59.1z"/>
		<path class="st0" d="M344.2,48.8c0-7.3,4.4-13.6,12.9-13.6h5.4v-8.5h-5.4c-6.7,0-9.7,2.1-12.8,5.6l-0.1,0.1v-5.7h-8.9v43.5h8.9
			C344.2,70.1,344.2,51.8,344.2,48.8z"/>
		<rect x="277.4" y="26.7" class="st0" width="9" height="43.5"/>
		<path class="st0" d="M281.9,19.5c3.4,0,6.1-2.7,6.1-6.1s-2.7-6.1-6.1-6.1c-3.4,0-6.1,2.7-6.1,6.1
			C275.8,16.8,278.5,19.5,281.9,19.5z"/>
		<path class="st0" d="M258.7,31.1c-3.5-3.5-8.8-5.5-14.1-5.5c-12.6,0-22.9,10.2-22.9,22.9s10.2,22.9,22.9,22.9
			c5.3,0,10.9-2.3,14.1-5.9v4.8h8.9V26.7h-8.9V31.1z M245,62.2c-7.8,0-13.7-6-13.7-13.8s5.9-13.7,13.7-13.7l0,0
			c7.8,0,13.9,5.6,13.9,13.7S252.7,62.2,245,62.2z"/>
		<path class="st0" d="M387.5,71.3c4,0,9.2-2.2,12.4-5.9c0,1.6,0,3.1,0,4.8h8.9v-19V26.7h-8.9v23.9c0,6.2-4.7,12-11.8,12
			c-6.2,0-10.6-4.5-10.6-10.9V26.7h-8.9v25.6C368.6,63.8,374.8,71.3,387.5,71.3z"/>
		<path class="st0" d="M195.7,25.6c-5.9,0-11.7,2.7-15.2,6.9c-3.2-4.3-7.9-6.9-14.2-6.9c-5.1,0-8.8,2.3-10.8,4.2v-3h-8.9v43.5h8.9
			V44.7c0-5.7,4.6-10.3,10.3-10.3c5.6,0,10.3,4.6,10.3,10.3v25.4h8.9V44.7c0-5.7,4.6-10.3,10.3-10.3s10.3,4.6,10.3,10.3v25.4h8.9
			V44.7C214.4,33.1,206.9,25.6,195.7,25.6z"/>
	</g>
	<path class="st1" d="M86.9,47.7c0,7.9-6.4,14.3-14.3,14.3s-14.3-6.4-14.3-14.3s6.4-14.3,14.3-14.3S86.9,39.8,86.9,47.7 M72.5,0
		C46.2,0,24.8,21.4,24.8,47.7s21.4,47.7,47.7,47.7c9.6,0,18.9-2.9,26.9-8.3l0.1-0.1l-6.4-7.5L93,79.5c-6.1,3.9-13.2,6-20.5,6
		c-20.9,0-37.9-17-37.9-37.9s17-37.9,37.9-37.9s37.9,17,37.9,37.9c0,2.7-0.3,5.4-0.9,8.2c-1.2,4.9-4.6,6.4-7.2,6.2
		c-2.6-0.2-5.6-2.1-5.7-6.6v-7.8c0-13.3-10.8-24.1-24.1-24.1S48.4,34.4,48.4,47.7s10.8,24.1,24.1,24.1c6.5,0,12.5-2.5,17.1-7.1
		c2.7,4.1,7,6.7,11.9,7.1c0.4,0,0.9,0.1,1.3,0.1c3.5,0,6.9-1.2,9.7-3.3c2.9-2.2,5-5.3,6.2-9.1c0.2-0.6,0.5-2,0.5-2v-0.1
		c0.7-3,1-6,1-9.8C120.2,21.4,98.8,0,72.5,0"/>
</g>
</svg>
