<?xml version="1.0" encoding="utf-8"?>
<!-- Generator: Adobe Illustrator 23.0.1, SVG Export Plug-In . SVG Version: 6.00 Build 0)  -->
<svg version="1.1" id="Layer_1" xmlns="http://www.w3.org/2000/svg" xmlns:xlink="http://www.w3.org/1999/xlink" x="0px" y="0px"
	 viewBox="0 0 194.7 36.7" style="enable-background:new 0 0 194.7 36.7;" xml:space="preserve">
<style type="text/css">
	.st0{fill:#3B945F;}
</style>
<g>
	<g>
		<g>
			<g>
				<path class="st0" d="M20.8,1.4v17.5l0,0l0,0c0,0.8-0.6,1.4-1.4,1.4h-2.1l0,0c-0.1,0-0.2,0.1-0.2,0.2v14.7c0.5,0,1,0.1,1.6,0.1
					c9.4,0,17-7.6,17-17C35.7,9.6,29.2,2.4,20.8,1.4z M20.4,27.6c-1.2,0-2.1-1-2.1-2.1c0-1.2,1-2.1,2.1-2.1c1.2,0,2.1,1,2.1,2.1
					C22.6,26.6,21.6,27.6,20.4,27.6z M25.4,27.6c-1.2,0-2.1-1-2.1-2.1c0-1.2,1-2.1,2.1-2.1c1.2,0,2.1,1,2.1,2.1S26.6,27.6,25.4,27.6
					z M30.4,27.6c-1.2,0-2.1-1-2.1-2.1c0-1.2,1-2.1,2.1-2.1c1.2,0,2.1,1,2.1,2.1S31.6,27.6,30.4,27.6z"/>
				<path class="st0" d="M18.7,1.3c-9.4,0-17,7.6-17,17c0,8.2,5.7,15,13.4,16.6V19.6l0,0c0-0.7,0.6-1.3,1.3-1.4l0,0h0.7h1.4
					c0.1,0,0.2-0.1,0.2-0.2V1.3L18.7,1.3z M15.4,15.3c-1.2,0-2.1-1-2.1-2.1c0-1.2,1-2.1,2.1-2.1c1.2,0,2.1,1,2.1,2.1
					S16.6,15.3,15.4,15.3z"/>
			</g>
			<g>
				<polygon class="st0" points="188.9,10.6 188.9,17 180.3,17 180.3,10.6 176,10.6 176,27.6 180.3,27.6 180.3,20.7 188.9,20.7 
					188.9,27.6 193.1,27.6 193.1,10.6 				"/>
				<path class="st0" d="M118.1,12.5c-0.7-1.5-2.1-2.3-3.5-2.3l0,0l0,0l0,0c-1.4,0-2.8,0.8-3.5,2.3l-6.9,15.1h4.5l1.5-3.6h8.8
					l1.5,3.6h4.5L118.1,12.5z M111.6,20.6l2.6-6.2c0.1-0.2,0.2-0.2,0.3-0.2l0,0l0,0c0.1,0,0.3,0,0.3,0.2l2.6,6.2H111.6z"/>
				<path class="st0" d="M67.5,7.5c-2,0-3.3,1.1-4.2,3.2l-5.5,12.8l-5.5-12.8c-0.9-2.1-2.2-3.2-4.2-3.2c-1.9,0-3.8,1.3-3.8,4.2v15.8
					h4.2V12.2l5.6,12.7c0.7,1.8,2,2.9,3.7,2.9l0,0l0,0l0,0l0,0c1.8,0,3-1.1,3.7-2.9l5.6-12.7v15.4h4.2V11.8
					C71.3,8.9,69.4,7.5,67.5,7.5z"/>
				<path class="st0" d="M78.8,24c-0.2,0-0.4-0.2-0.4-0.4v-3H89v-3.5H78.4v-2.6c0-0.2,0.2-0.4,0.4-0.4h10.5v-3.6H76.7
					c-1.5,0-2.5,1.2-2.5,2.5v11.9c0,1.3,1.1,2.5,2.5,2.5h12.6v-3.6H78.8V24z"/>
				<path class="st0" d="M96.4,27.6v-13c0-0.2,0.2-0.4,0.4-0.4h10.5v-3.6H94.7c-1.5,0-2.5,1.2-2.5,2.5v14.4h4.2V27.6z"/>
				<path class="st0" d="M173.2,19.1c0-5.9-2.6-8.7-9-8.7h-1.5c-6.4,0-9,2.8-9,8.7l0,0c0,5.8,2.6,8.7,9,8.7h1.4
					C170.6,27.7,173.2,24.9,173.2,19.1L173.2,19.1z M164.1,24.2h-1.4c-3.5,0-4.9-1.6-4.9-5.1l0,0c0-3.4,1.2-5.1,4.9-5.1h1.4
					c3.6,0,4.9,1.7,4.9,5.1l0,0C169,22.6,167.7,24.2,164.1,24.2z"/>
				<path class="st0" d="M141.9,7.9h-8.4c-6.3,0-8.8,3.2-8.8,8.7c0,0.9,0.1,1.7,0.2,2.4c0.7,3.9,3,6.3,8.9,6.3h1.9v2.2h4.2v-2.2h1.8
					c5.9,0,8.2-2.4,8.9-6.3c0.1-0.7,0.2-1.5,0.2-2.4C150.7,11.1,148.1,7.9,141.9,7.9z M135.5,21.8h-1.9c-2.9,0-3.9-1.1-4.5-2.8
					c-0.2-0.6-0.2-1.5-0.2-2.4c0-3.6,1.7-5.1,4.1-5.1h2.6v10.3H135.5z M146.3,19.1c-0.6,1.7-1.7,2.8-4.5,2.8h-1.9V11.5h2.6
					c2.4,0,4.1,1.5,4.1,5.1C146.5,17.6,146.5,18.4,146.3,19.1z"/>
			</g>
		</g>
	</g>
</g>
</svg>
