<?xml version="1.0" encoding="utf-8"?>
<!-- Generator: Adobe Illustrator 23.0.1, SVG Export Plug-In . SVG Version: 6.00 Build 0)  -->
<svg version="1.1" id="Layer_1" xmlns="http://www.w3.org/2000/svg" xmlns:xlink="http://www.w3.org/1999/xlink" x="0px" y="0px"
	 viewBox="0 0 140 50.3" style="enable-background:new 0 0 140 50.3;" xml:space="preserve">
<style type="text/css">
	.st0{fill:#D42723;}
	.st1{fill:#FFFFFF;}
</style>
<path class="st0" d="M138.9,30.5c0,0-3,0.4-6.5,0.4c-4.3,0-5.1-1.4-5.1-4.7v-4.1c0-3.4,0.7-4.8,5.1-4.8c3.1,0,6.1,0.4,6.1,0.4
	l0.6-6.2c0,0-3.8-0.6-7.2-0.6c-8.9,0-12.1,3-12.1,10.1v6.2c0,7.8,4,10.1,12.1,10.1c3.3,0,7.7-0.6,7.7-0.6L138.9,30.5z"/>
<polygon class="st0" points="94.5,17.9 101.9,17.9 101.9,36.9 109.6,36.9 109.6,17.9 117,17.9 117.4,11.5 94.1,11.5 "/>
<polygon class="st0" points="78.9,34.4 83.1,24.7 83.5,24.7 84.3,36.9 91.7,36.9 90,11.5 82.9,11.5 76.8,26 76.4,26 69.9,11.5 
	62.9,11.5 61.2,36.9 68.4,36.9 69.1,24.7 69.6,24.7 74.1,34.4 "/>
<g id="XMLID_1_">
	<g>
		<path class="st0" d="M50.1,5.1v39.7c0,2.7-2.3,5-5,5H5.5c-2.7,0-5-2.3-5-5V5.1c0-2.7,2.3-5,5-5h39.7C47.9,0.2,50.1,2.4,50.1,5.1z
			 M25.3,43.3c9.2,0,13.5-7.4,13.5-14.8c0-10.4-7.1-22-13.5-22c-6.2,0-13.5,11.8-13.5,22.1C11.8,35.9,16,43.3,25.3,43.3z"/>
		<path class="st1" d="M38.8,28.5c0,7.4-4.3,14.8-13.5,14.8c-9.4,0-13.5-7.4-13.5-14.6c0-10.4,7.2-22.1,13.5-22.1
			C31.7,6.6,38.8,18.2,38.8,28.5z"/>
	</g>
</g>
</svg>
