<?xml version="1.0" encoding="utf-8"?>
<!-- Generator: Adobe Illustrator 23.0.1, SVG Export Plug-In . SVG Version: 6.00 Build 0)  -->
<svg version="1.1" id="Layer_1" xmlns="http://www.w3.org/2000/svg" xmlns:xlink="http://www.w3.org/1999/xlink" x="0px" y="0px"
	 viewBox="0 0 257.5 188.7" style="enable-background:new 0 0 257.5 188.7;" xml:space="preserve">
<style type="text/css">
	.st0{fill-rule:evenodd;clip-rule:evenodd;fill:#0071BC;}
	.st1{fill:none;stroke:#0071BC;stroke-width:1.6559;stroke-miterlimit:10;}
	.st2{fill:#0071BC;}
	.st3{fill:none;stroke:#0071BC;stroke-width:4.1398;stroke-miterlimit:10;}
	.st4{fill:none;stroke:#0071BC;stroke-width:1.2419;stroke-miterlimit:10;}
	.st5{fill:none;}
</style>
<g>
	<path class="st0" d="M151.9,68V52.1H149v16.6L151.9,68L151.9,68z M103.4,49h51.2v1.7h-51.2V49L103.4,49z M129,37.9L100.7,45v2.5
		h56.5V45L129,37.9L129,37.9z M116.1,54.1h4.8v13.5h-4.8V54.1L116.1,54.1z M137,54.1h4.9v13.5H137V54.1L137,54.1z M126.5,54.1h4.8
		v13.5h-4.8V54.1L126.5,54.1z M96.7,67.2L61.8,76v2h134.4v-2l-34.9-8.8L129,75.3L96.7,67.2L96.7,67.2z M82.1,107.9h3.8v10.4h-3.8
		V107.9L82.1,107.9z M172,107.9h3.8v10.4H172V107.9L172,107.9z M172,92.6h3.8v10.4H172V92.6L172,92.6z M149.6,107.9h3.8v10.4h-3.8
		V107.9L149.6,107.9z M149.6,92.6h3.8v10.4h-3.8V92.6L149.6,92.6z M127.1,107.9h3.8v10.4h-3.8V107.9L127.1,107.9z M127.1,92.6h3.8
		v10.4h-3.8V92.6L127.1,92.6z M104.6,107.9h3.8v10.4h-3.8V107.9L104.6,107.9z M104.6,92.6h3.8v10.4h-3.8V92.6L104.6,92.6z
		 M82.1,92.6h3.8v10.4h-3.8V92.6L82.1,92.6z M62.3,125.7h133.4v2.2H62.3V125.7L62.3,125.7z M56.8,130.3c48.1,0,96.2,0,144.3,0
		c0,0.7,0,1.5,0,2.2c-48.1,0-96.2,0-144.3,0C56.8,131.8,56.8,131.1,56.8,130.3L56.8,130.3z M51.3,135h155.3v2.2H51.3V135L51.3,135z
		 M143.8,89.7v33.9h-7.3V89.7c1.4,0,2.5-0.8,3-2c0.2,0,0.5,0,0.6,0s0.4,0,0.6,0C141.3,88.8,142.5,89.7,143.8,89.7L143.8,89.7z
		 M76.4,89.7v33.9h-7.3V89.7c1.4,0,2.5-0.8,3-2c0.2,0,0.5,0,0.6,0s0.4,0,0.6,0C73.9,88.8,75.1,89.7,76.4,89.7L76.4,89.7z M98.9,89.7
		v33.9h-7.3V89.7c1.4,0,2.5-0.8,3-2c0.2,0,0.5,0,0.6,0s0.4,0,0.6,0C96.4,88.8,97.6,89.7,98.9,89.7L98.9,89.7z M121.4,89.7v33.9h-7.3
		V89.7c1.4,0,2.5-0.8,3-2c0.2,0,0.5,0,0.6,0s0.4,0,0.6,0C118.8,88.8,120,89.7,121.4,89.7L121.4,89.7z M188.8,89.7v33.9h-7.3V89.7
		c1.4,0,2.5-0.8,3-2c0.2,0,0.5,0,0.6,0s0.4,0,0.6,0C186.3,88.8,187.4,89.7,188.8,89.7L188.8,89.7z M166.3,89.7v33.9H159V89.7
		c1.4,0,2.5-0.8,3-2c0.2,0,0.5,0,0.6,0s0.4,0,0.6,0C163.8,88.8,165,89.7,166.3,89.7L166.3,89.7z M66,81.2H192v-1.5H66V81.2L66,81.2z
		 M66,85.8H192v-3.1H66V85.8L66,85.8z M108.9,52.1h-2.9V68l2.9,0.7V52.1L108.9,52.1z"/>
	<path class="st0" d="M188.8,108.8c-2.4,0.2-4.8,0.3-7.3,0.5v14.3h7.3V108.8L188.8,108.8z M175.8,109.7L172,110v8.4h3.8V109.7
		L175.8,109.7z M166.3,110.4c-2.4,0.2-4.8,0.3-7.3,0.5v12.7h7.3V110.4L166.3,110.4z M153.3,111.3l-3.8,0.3v6.7h3.8V111.3
		L153.3,111.3z M143.8,112.1c-2.4,0.2-4.8,0.4-7.3,0.6v10.9h7.3V112.1L143.8,112.1z M130.9,113.1l-3.8,0.3v4.9h3.8V113.1
		L130.9,113.1z M121.4,113.9c-2.4,0.2-4.8,0.4-7.3,0.6v9.1h7.3V113.9L121.4,113.9z M108.4,115l-3.8,0.3v3h3.8V115L108.4,115z
		 M98.9,115.8c-2.4,0.2-4.8,0.4-7.3,0.7v7.1h7.3V115.8L98.9,115.8z M85.9,117l-3.8,0.3v1h3.8V117L85.9,117z M76.4,117.8
		c-2.4,0.2-4.8,0.5-7.3,0.7v5h7.3V117.8L76.4,117.8z M62.3,125.7h133.4v2.2H62.3V125.7L62.3,125.7z M56.8,130.3
		c48.1,0,96.2,0,144.3,0c0,0.7,0,1.5,0,2.2c-48.1,0-96.2,0-144.3,0C56.8,131.8,56.8,131.1,56.8,130.3L56.8,130.3z M51.3,135h155.3
		v2.2H51.3V135L51.3,135z"/>
</g>
<ellipse class="st1" cx="128.8" cy="94.4" rx="105.6" ry="69.9"/>
<g>
	<path class="st2" d="M10.2,99C10.2,99,10.1,99,10.2,99v-4c0,0,0-0.1,0.1-0.1h0.4c0,0,0.1,0,0.1,0.1l0.1,1.2c0,0,0,0.1,0.1,0.1
		l3.6,0.1c0,0,0,0,0,0l0.1-4.8h0l-3.6-0.1c0,0-0.1,0-0.1,0.1l-0.2,1.2c0,0,0,0.1-0.1,0.1h-0.4c0,0-0.1,0-0.1-0.1l0.1-3.9
		c0,0,0-0.1,0.1-0.1h0.4c0,0,0.1,0,0.1,0.1l0.1,1.3c0,0,0,0.1,0.1,0.1l8.6,0.1c0,0,0.1,0,0.1-0.1l0.2-1.3c0,0,0-0.1,0.1-0.1h0.4
		c0,0,0.1,0,0.1,0.1L20.4,93c0,0,0,0.1-0.1,0.1h-0.4c0,0-0.1,0-0.1-0.1l-0.1-1.2c0,0,0-0.1-0.1-0.1l-4.2-0.1c0,0-0.1,0-0.1,0.1
		l-0.1,4.7c0,0,0,0.1,0.1,0.1l4.2,0.1c0,0,0.1,0,0.1-0.1l0.2-1.2c0,0,0-0.1,0.1-0.1h0.4c0,0,0.1,0,0.1,0.1l-0.1,3.9
		c0,0,0,0.1-0.1,0.1h-0.4c0,0-0.1,0-0.1-0.1l-0.1-1.3c0,0,0-0.1-0.1-0.1L11,97.6c0,0-0.1,0-0.1,0.1l-0.2,1.3c0,0,0,0.1-0.1,0.1
		L10.2,99z"/>
	<path class="st2" d="M11.5,82.2C11.5,82.2,11.6,82.1,11.5,82.2l0.5,0c0,0,0.1,0,0,0.1l-0.1,1.1c0,0,0,0.1,0,0.1l2.4,0.5
		c0.4,0.1,0.7,0.1,0.9,0.1c0.2,0,0.5-0.1,0.6-0.3c0.2-0.2,0.3-0.4,0.4-0.6s0.2-0.6,0.3-1c0-0.1,0-0.2,0-0.2c0-0.1,0-0.2,0-0.4
		s0-0.2,0-0.4c0-0.1,0-0.3,0-0.4c0,0,0-0.1,0-0.1l-3.9-0.9c0,0-0.1,0-0.1,0.1L12.3,81c0,0,0,0.1-0.1,0L11.8,81c0,0-0.1,0,0-0.1
		l0.8-3.7c0,0,0-0.1,0.1,0l0.4,0.1c0,0,0.1,0,0,0.1L13,78.6c0,0,0,0.1,0,0.1l8.4,1.9c0,0,0.1,0,0.1,0l0.4-1.2c0,0,0-0.1,0.1,0
		l0.4,0.1c0,0,0.1,0,0,0.1l-0.9,4c0,0,0,0.1-0.1,0L21,83.4c0,0-0.1,0-0.1-0.1l0.2-1.4c0,0,0-0.1,0-0.1l-3.9-0.9c0,0.2,0,0.3,0.1,0.5
		c0,0.2,0,0.4,0,0.6c0,0.2,0,0.4,0,0.6c0,0.2,0,0.4-0.1,0.6c-0.1,0.5-0.2,0.9-0.4,1.2c-0.2,0.3-0.4,0.6-0.6,0.7
		c-0.2,0.2-0.5,0.3-0.8,0.3c-0.3,0-0.7,0-1.1-0.1l-2.6-0.6c0,0-0.1,0-0.1,0l-0.4,1.1c0,0,0,0.1-0.1,0L10.7,86c0,0-0.1,0,0-0.1
		L11.5,82.2z"/>
	<path class="st2" d="M15.2,70.3C15.2,70.3,15.3,70.3,15.2,70.3l0.5,0.1c0,0,0,0,0,0.1l-0.4,1.1v0c0,0,0,0,0.1,0l6-0.3l-4-4.3
		c0,0,0,0-0.1,0c0,0,0,0,0,0l-0.5,1c0,0,0,0-0.1,0L16.3,68c0,0,0,0,0-0.1l1.3-2.9c0,0,0,0,0.1,0l0.4,0.2c0,0,0,0,0,0.1l-0.4,1.2
		c0,0,0,0,0,0.1l4.8,5.2c0.5,0.5,0.8,0.9,1.1,1.3c0.2,0.4,0.5,0.7,0.6,1c0.1,0.3,0.2,0.6,0.2,0.9s-0.1,0.5-0.2,0.7
		c-0.1,0.2-0.2,0.4-0.4,0.6c-0.2,0.2-0.3,0.2-0.5,0.3c0,0,0,0-0.1,0s0,0-0.1,0l-0.6-1.1c0,0,0-0.1,0-0.1l0,0c0.2,0,0.3-0.1,0.4-0.2
		c0.1-0.1,0.2-0.2,0.3-0.4c0.1-0.3,0.1-0.6,0-0.9c-0.1-0.3-0.3-0.6-0.6-1l0,0c0,0,0,0-0.1,0l-7.7,0.5c0,0,0,0-0.1,0l-0.6,1
		c0,0,0,0-0.1,0L13.7,74c0,0,0,0,0-0.1L15.2,70.3z"/>
	<path class="st2" d="M21.2,59C21.2,59,21.2,58.9,21.2,59l2.4-3.2c0,0,0.1,0,0.1,0l0.3,0.2c0,0,0,0.1,0,0.1l-0.6,1c0,0,0,0.1,0,0.1
		l2.9,2.2c0,0,0,0,0,0l2.9-3.8c0,0,0,0,0,0l-2.9-2.2c0,0-0.1,0-0.1,0l-0.8,0.9c0,0-0.1,0-0.1,0L25,54.1c0,0,0-0.1,0-0.1l2.4-3.1
		c0,0,0.1,0,0.1,0l0.3,0.2c0,0,0,0.1,0,0.1L27,52.3c0,0,0,0.1,0,0.1l6.8,5.2c0,0,0.1,0,0.1,0l0.9-1c0,0,0.1,0,0.1,0l0.3,0.2
		c0,0,0,0.1,0,0.1l-2.4,3.1c0,0-0.1,0-0.1,0l-0.3-0.2c0,0,0-0.1,0-0.1l0.6-1c0,0,0-0.1,0-0.1L29.8,56c0,0-0.1,0-0.1,0l-2.9,3.7
		c0,0,0,0.1,0,0.1l3.3,2.5c0,0,0.1,0,0.1,0l0.8-0.9c0,0,0.1,0,0.1,0l0.3,0.2c0,0,0,0.1,0,0.1l-2.4,3.1c0,0-0.1,0-0.1,0l-0.2-0.2
		c0,0,0-0.1,0-0.1l0.7-1.1c0,0,0-0.1,0-0.1l-6.8-5.2c0,0-0.1,0-0.1,0l-0.9,0.9c0,0-0.1,0-0.1,0L21.2,59z"/>
	<path class="st2" d="M32.1,46.1C32.2,46,32.2,46,32.1,46.1l0.3,0.3c0,0,0,0.1,0,0.1l-0.8,0.9c0,0,0,0.1,0,0.1l4.6,4.8l-0.5-7.7
		c0,0,0,0,0-0.1L35.3,44c0,0-0.1,0-0.1,0l-1,0.7c0,0-0.1,0-0.1,0l-0.2-0.3c0,0,0-0.1,0-0.1l2.8-2.7c0,0,0.1,0,0.1,0l0.2,0.3
		c0,0,0,0.1,0,0.1l-0.8,1c0,0,0,0.1,0,0.1l5.9,6.2c0,0,0.1,0,0.1,0l1-0.8c0,0,0.1,0,0.1,0l0.2,0.3c0,0,0,0.1,0,0.1l-2.8,2.7
		c0,0-0.1,0-0.1,0l-0.2-0.3c0,0,0-0.1,0-0.1l0.8-0.9c0,0,0-0.1,0-0.1l-4.7-5l0.6,7.8c0,0,0,0,0,0.1l0.5,0.5c0,0,0.1,0,0.1,0l1-0.7
		c0,0,0.1,0,0.1,0l0.2,0.3c0,0,0,0.1,0,0.1l-2.8,2.7c0,0-0.1,0-0.1,0l-0.2-0.3c0,0,0-0.1,0-0.1l0.8-1c0,0,0-0.1,0-0.1l-5.9-6.2
		c0,0-0.1,0-0.1,0l-1,0.8c0,0-0.1,0-0.1,0l-0.2-0.3c0,0,0-0.1,0-0.1L32.1,46.1z"/>
	<path class="st2" d="M41.9,37.7C41.9,37.7,42,37.7,41.9,37.7l0.3,0.3c0,0,0,0.1,0,0.1l-0.9,0.8c0,0,0,0.1,0,0.1l3.9,5.4l0.4-7.8
		c0,0,0,0,0-0.1l-0.3-0.5c0,0-0.1,0-0.1,0l-1,0.6c0,0-0.1,0-0.1,0l-0.2-0.3c0,0,0-0.1,0-0.1l3.1-2.3c0,0,0.1,0,0.1,0l0.2,0.3
		c0,0,0,0.1,0,0.1l-1,0.8c0,0,0,0.1,0,0.1l5.1,6.9c0,0,0.1,0,0.1,0l1.1-0.7c0,0,0.1,0,0.1,0l0.2,0.3c0,0,0,0.1,0,0.1l-3.1,2.3
		c0,0-0.1,0-0.1,0L49.4,44c0,0,0-0.1,0-0.1l0.9-0.8c0,0,0-0.1,0-0.1l-4.1-5.5l-0.5,7.8c0,0,0,0,0,0.1l0.5,0.6c0,0,0.1,0,0.1,0l1-0.6
		c0,0,0.1,0,0.1,0l0.2,0.3c0,0,0,0.1,0,0.1L44.6,48c0,0-0.1,0-0.1,0l-0.2-0.3c0,0,0-0.1,0-0.1l1-0.8c0,0,0-0.1,0-0.1l-5.1-6.9
		c0,0-0.1,0-0.1,0l-1.1,0.7c0,0-0.1,0-0.1,0l-0.2-0.3c0,0,0-0.1,0-0.1L41.9,37.7z"/>
	<path class="st2" d="M56.2,37.1C56.1,37.1,56.2,37,56.2,37.1l0.5-0.4h0c0,0,0,0,0,0l1.1,1.4c0,0,0,0,0.1,0c0.1,0,0.2,0,0.3-0.1
		c0.1,0,0.3-0.1,0.4-0.1c0.2,0,0.3-0.1,0.5-0.2c0.2,0,0.3-0.1,0.4-0.2c0.6-0.3,1.1-0.7,1.4-1.1c0.4-0.4,0.6-0.8,0.8-1.3
		c0.1-0.5,0.2-1,0.1-1.5c-0.1-0.5-0.2-1.1-0.5-1.7l-0.1-0.2L57,34.1c0,0-0.1,0-0.1,0l-0.2-0.5c0,0,0-0.1,0-0.1l4.2-2.3
		c-0.3-0.5-0.7-0.9-1.2-1.2c-0.4-0.3-0.9-0.6-1.4-0.7c-0.5-0.2-1-0.2-1.5-0.2c-0.5,0-1,0.2-1.5,0.5c-0.1,0-0.2,0.1-0.2,0.2
		c-0.1,0.1-0.2,0.2-0.4,0.2c-0.1,0.1-0.2,0.2-0.4,0.3c-0.1,0.1-0.2,0.2-0.4,0.3c0,0,0,0.1,0,0.1l0.6,1.7v0c0,0,0,0,0,0l-0.5,0.3
		c0,0-0.1,0-0.1,0l-1.1-2.1c0,0,0-0.1,0-0.1c0.2-0.2,0.6-0.5,1-0.8c0.4-0.3,0.9-0.6,1.4-0.9c0.7-0.4,1.4-0.6,2.1-0.7
		c0.7-0.1,1.4,0,2,0.1c0.6,0.2,1.2,0.5,1.7,1c0.5,0.5,1,1,1.4,1.7c0.4,0.8,0.7,1.5,0.7,2.2c0,0.7,0,1.4-0.3,2
		c-0.2,0.6-0.6,1.2-1.1,1.7c-0.5,0.5-1.1,1-1.8,1.3c-0.2,0.1-0.4,0.2-0.6,0.2c-0.2,0.1-0.4,0.2-0.7,0.2c-0.2,0.1-0.5,0.2-0.7,0.2
		c-0.2,0.1-0.4,0.1-0.6,0.2c0,0-0.1,0-0.1,0L56.2,37.1z"/>
	<path class="st2" d="M65.6,24.1C65.6,24.1,65.7,24.1,65.6,24.1l0.2,0.4c0,0,0,0.1,0,0.1l-1.1,0.6c0,0,0,0,0,0.1l1.5,3.4
		c0,0,0,0,0.1,0c0.3-0.1,0.5-0.3,0.7-0.4c0.2-0.1,0.4-0.4,0.5-0.6s0.2-0.5,0.3-0.7c0-0.2,0.1-0.5,0.1-0.9l0.1-1.7
		c0-0.3,0-0.6,0.1-0.8c0-0.2,0.1-0.5,0.2-0.6c0.1-0.2,0.2-0.3,0.3-0.5c0.1-0.1,0.3-0.2,0.5-0.3c0.1,0,0.1,0,0.2-0.1
		c0.1,0,0.2,0,0.3,0s0.2,0,0.3,0c0.1,0,0.2,0,0.2,0.1l0,0c0,0,0,0,0,0.1l-0.3,1.2c0,0,0,0,0,0.1s0,0,0,0c-0.1,0-0.2-0.1-0.4-0.1
		c-0.1,0-0.2,0-0.3,0c-0.1,0-0.2,0.2-0.4,0.4c-0.1,0.2-0.2,0.5-0.2,0.8l0,0.9c0,0.2,0,0.5,0,0.8c0,0.3-0.1,0.5-0.1,0.7
		c0,0.2-0.1,0.5-0.2,0.6s-0.2,0.3-0.3,0.5c0.2,0,0.4,0,0.6,0c0.2,0,0.4,0,0.6,0.1c0.2,0.1,0.5,0.2,0.7,0.3c0.2,0.1,0.5,0.3,0.8,0.5
		l2.3,1.9c0,0,0.1,0,0.1,0l1-0.3c0,0,0.1,0,0.1,0l0.2,0.4c0,0,0,0.1,0,0.1l-2.2,0.9c0,0-0.1,0-0.1,0l-2.4-2.1
		c-0.4-0.3-0.7-0.5-1-0.7c-0.3-0.2-0.6-0.2-0.8-0.3s-0.5,0-0.7,0c-0.2,0-0.4,0.1-0.6,0.2c0,0,0,0,0,0.1l1.6,3.8c0,0,0,0,0.1,0
		l1.2-0.4c0,0,0.1,0,0.1,0l0.2,0.4c0,0,0,0.1,0,0.1l-3.7,1.6c0,0-0.1,0-0.1,0l-0.2-0.4c0,0,0-0.1,0-0.1l1.1-0.6c0,0,0,0,0-0.1
		l-3.4-7.9c0,0,0,0-0.1,0l-1.2,0.4c0,0-0.1,0-0.1,0l-0.2-0.4c0,0,0-0.1,0-0.1L65.6,24.1z"/>
	<path class="st2" d="M76.7,19.6c1.4-0.5,2.7-0.4,3.9,0.2c1.2,0.6,2,1.7,2.5,3.1c0.5,1.4,0.5,2.7-0.1,4c-0.6,1.3-1.5,2.2-2.9,2.6
		c-1.4,0.5-2.7,0.4-4-0.2s-2.1-1.7-2.6-3.1c-0.5-1.4-0.5-2.8,0.1-4C74.2,20.9,75.2,20,76.7,19.6z M76.7,20.2
		c-1.1,0.4-1.7,1.1-2.1,2.1c-0.3,1-0.2,1.9,0.1,3c0.2,0.8,0.7,1.4,1.2,2.1c0.5,0.7,1.2,1.1,1.9,1.3c0.7,0.2,1.4,0.2,2.2,0
		c1.1-0.4,1.7-1.1,2-2.1c0.2-0.9,0.2-1.9-0.2-3c-0.4-1.2-1.1-2.2-2-2.9C78.8,20.1,77.8,19.9,76.7,20.2z"/>
	<path class="st2" d="M83.4,17.7C83.4,17.6,83.4,17.6,83.4,17.7l3.9-1c0,0,0.1,0,0.1,0l0.1,0.4c0,0,0,0.1,0,0.1l-1.1,0.4
		c0,0-0.1,0,0,0.1l0.9,3.5c0,0,0,0,0,0l4.6-1.2v0l-0.9-3.5c0,0,0-0.1-0.1,0l-1.2,0.2c0,0-0.1,0-0.1,0l-0.1-0.4c0,0,0-0.1,0-0.1
		l3.8-1c0,0,0.1,0,0.1,0l0.1,0.4c0,0,0,0.1,0,0.1l-1.2,0.4c0,0-0.1,0,0,0.1l2.1,8.3c0,0,0,0.1,0.1,0l1.3-0.2c0,0,0.1,0,0.1,0
		l0.1,0.4c0,0,0,0.1,0,0.1l-3.8,1c0,0-0.1,0-0.1,0l-0.1-0.4c0,0,0-0.1,0-0.1l1.1-0.4c0,0,0.1,0,0-0.1l-1-4.1c0,0,0-0.1-0.1,0
		l-4.6,1.1c0,0-0.1,0,0,0.1l1,4.1c0,0,0,0.1,0.1,0l1.2-0.2c0,0,0.1,0,0.1,0l0.1,0.4c0,0,0,0.1,0,0.1l-3.8,1c0,0-0.1,0-0.1,0
		l-0.1-0.4c0,0,0-0.1,0-0.1l1.2-0.4c0,0,0.1,0,0-0.1l-2.1-8.3c0,0,0-0.1-0.1,0l-1.2,0.2c0,0-0.1,0-0.1,0L83.4,17.7z"/>
	<path class="st2" d="M100.2,13.7c1.5-0.2,2.8,0,3.9,0.9c1.1,0.8,1.7,1.9,2,3.4c0.2,1.5,0,2.8-0.7,3.9c-0.7,1.2-1.9,1.9-3.3,2.1
		c-1.5,0.2-2.8,0-3.9-0.8c-1.1-0.8-1.8-1.9-2-3.4c-0.2-1.5,0-2.8,0.8-3.9C97.6,14.6,98.7,13.9,100.2,13.7z M100.2,14.4
		c-1.1,0.2-1.9,0.8-2.4,1.7c-0.5,0.9-0.5,1.9-0.4,3c0.1,0.8,0.4,1.5,0.8,2.2c0.5,0.7,1,1.2,1.7,1.6c0.7,0.4,1.4,0.5,2.2,0.3
		c1.1-0.2,1.9-0.8,2.3-1.8c0.4-0.9,0.5-1.9,0.3-3c-0.2-1.3-0.7-2.4-1.5-3.1C102.3,14.5,101.3,14.2,100.2,14.4z"/>
	<path class="st2" d="M110.1,12.5C110.1,12.5,110.1,12.5,110.1,12.5l3.9,7.6l2.5-8.1c0,0,0,0,0,0l2.9-0.2c0,0,0.1,0,0.1,0.1l0,0.4
		c0,0,0,0.1-0.1,0.1l-1.2,0.2c0,0-0.1,0-0.1,0.1l0.8,8.5c0,0,0,0.1,0.1,0.1h1.3c0,0,0.1,0,0.1,0.1l0,0.4c0,0,0,0.1-0.1,0.1l-4.2,0.4
		c0,0-0.1,0-0.1-0.1l0-0.4c0,0,0-0.1,0.1-0.1l1.4-0.2c0,0,0.1,0,0.1-0.1l-0.7-8.2h0l-2.9,9.4c0,0,0,0-0.1,0h-0.2c0,0-0.1,0-0.1,0
		l-4.5-8.7h0l0.7,8.2c0,0,0,0.1,0.1,0.1h1.2c0,0,0.1,0,0.1,0.1l0,0.4c0,0,0,0.1-0.1,0.1l-3.4,0.3c0,0-0.1,0-0.1-0.1l0-0.4
		c0,0,0-0.1,0.1-0.1l1.3-0.2c0,0,0.1,0,0.1-0.1l-0.8-8.5c0,0,0-0.1-0.1-0.1h-1.3c0,0-0.1,0-0.1-0.1l0-0.4c0,0,0-0.1,0.1-0.1
		L110.1,12.5z"/>
	<path class="st2" d="M125.3,11.5C125.4,11.5,125.4,11.5,125.3,11.5l0.1,0.5c0,0,0,0.1-0.1,0.1l-1.2,0.1c0,0-0.1,0-0.1,0.1l0.1,6.7
		l4.8-6.1c0,0,0,0,0-0.1v-0.5c0,0,0-0.1-0.1-0.1l-1.2-0.1c0,0-0.1,0-0.1-0.1v-0.4c0,0,0-0.1,0.1-0.1l3.9,0c0,0,0.1,0,0.1,0.1v0.4
		c0,0,0,0.1-0.1,0.1l-1.3,0.1c0,0-0.1,0-0.1,0.1l0.1,8.6c0,0,0,0.1,0.1,0.1l1.3,0.1c0,0,0.1,0,0.1,0.1v0.4c0,0,0,0.1-0.1,0.1l-3.9,0
		c0,0-0.1,0-0.1-0.1V21c0,0,0-0.1,0.1-0.1l1.2-0.1c0,0,0.1,0,0.1-0.1l-0.1-6.9l-4.9,6.1c0,0,0,0,0,0.1v0.7c0,0,0,0.1,0.1,0.1
		l1.2,0.1c0,0,0.1,0,0.1,0.1v0.4c0,0,0,0.1-0.1,0.1l-3.9,0c0,0-0.1,0-0.1-0.1v-0.4c0,0,0-0.1,0.1-0.1l1.3-0.1c0,0,0.1,0,0.1-0.1
		l-0.1-8.5c0,0,0-0.1-0.1-0.1l-1.3-0.1c0,0-0.1,0-0.1-0.1v-0.4c0,0,0-0.1,0.1-0.1L125.3,11.5z"/>
	<path class="st2" d="M137.6,11.7C137.6,11.7,137.7,11.8,137.6,11.7l0.1,0.5c0,0,0,0.1-0.1,0.1l-1.3,0c0,0-0.1,0-0.1,0.1l-0.2,3.7
		c0,0,0,0.1,0,0.1c0.3,0,0.6,0,0.8-0.1c0.2,0,0.5-0.2,0.7-0.3c0.2-0.1,0.4-0.3,0.5-0.5c0.2-0.2,0.3-0.5,0.5-0.7l0.8-1.4
		c0.2-0.2,0.3-0.5,0.5-0.7c0.2-0.2,0.3-0.3,0.5-0.5c0.2-0.1,0.3-0.2,0.5-0.2c0.2,0,0.3-0.1,0.5,0c0.1,0,0.2,0,0.2,0
		c0.1,0,0.2,0,0.3,0.1c0.1,0,0.2,0.1,0.2,0.1c0.1,0,0.2,0.1,0.2,0.2c0,0,0,0,0,0.1c0,0,0,0,0,0.1l-0.8,1c0,0,0,0,0,0h0
		c-0.1-0.1-0.2-0.2-0.3-0.2c-0.1-0.1-0.2-0.1-0.3-0.1c-0.2,0-0.3,0-0.5,0.2c-0.2,0.1-0.3,0.3-0.5,0.6l-0.4,0.8
		c-0.1,0.2-0.2,0.5-0.4,0.7c-0.2,0.2-0.3,0.4-0.5,0.6c-0.2,0.2-0.3,0.3-0.5,0.5s-0.3,0.2-0.5,0.2c0.2,0.1,0.4,0.2,0.6,0.2
		c0.2,0.1,0.4,0.2,0.5,0.4c0.2,0.2,0.3,0.4,0.5,0.6c0.1,0.2,0.3,0.5,0.5,0.8l1.2,2.7c0,0,0,0,0.1,0.1l1.1,0.2c0,0,0.1,0,0.1,0.1v0.4
		c0,0,0,0.1-0.1,0.1l-2.3-0.1c0,0-0.1,0-0.1-0.1l-1.2-2.9c-0.2-0.5-0.4-0.8-0.6-1.1c-0.2-0.2-0.4-0.5-0.6-0.6
		c-0.2-0.2-0.4-0.2-0.6-0.3c-0.2,0-0.4-0.1-0.6-0.1c0,0-0.1,0-0.1,0.1l-0.2,4.1c0,0,0,0.1,0.1,0.1l1.2,0.2c0,0,0.1,0,0.1,0.1v0.4
		c0,0,0,0.1-0.1,0.1l-4-0.2c0,0-0.1,0-0.1-0.1v-0.4c0,0,0-0.1,0.1-0.1l1.3,0c0,0,0.1,0,0.1-0.1l0.5-8.6c0,0,0-0.1-0.1-0.1l-1.2-0.2
		c0,0-0.1,0-0.1-0.1v-0.4c0,0,0-0.1,0.1-0.1L137.6,11.7z"/>
	<path class="st2" d="M148.2,12.6C148.2,12.6,148.3,12.6,148.2,12.6l0,0.5c0,0,0,0.1-0.1,0.1h-1.2c0,0-0.1,0-0.1,0.1l-0.8,6.6
		l5.6-5.4c0,0,0,0,0-0.1l0.1-0.5c0,0,0-0.1-0.1-0.1l-1.2-0.2c0,0-0.1,0-0.1-0.1l0-0.4c0,0,0-0.1,0.1-0.1l3.9,0.5c0,0,0.1,0,0.1,0.1
		l0,0.4c0,0,0,0.1-0.1,0.1l-1.3,0c0,0-0.1,0-0.1,0.1l-1,8.5c0,0,0,0.1,0.1,0.1l1.2,0.2c0,0,0.1,0,0.1,0.1l0,0.4c0,0,0,0.1-0.1,0.1
		l-3.9-0.5c0,0-0.1,0-0.1-0.1l0-0.4c0,0,0-0.1,0.1-0.1l1.2,0c0,0,0.1,0,0.1-0.1l0.8-6.8l-5.6,5.4c0,0,0,0,0,0.1l-0.1,0.7
		c0,0,0,0.1,0.1,0.1l1.2,0.2c0,0,0.1,0,0.1,0.1l0,0.4c0,0,0,0.1-0.1,0.1l-3.9-0.5c0,0-0.1,0-0.1-0.1l0-0.4c0,0,0-0.1,0.1-0.1l1.3,0
		c0,0,0.1,0,0.1-0.1l1-8.5c0,0,0-0.1-0.1-0.1l-1.2-0.3c0,0-0.1,0-0.1-0.1l0-0.4c0,0,0-0.1,0.1-0.1L148.2,12.6z"/>
	<path class="st2" d="M164.3,15.2C164.3,15.2,164.3,15.3,164.3,15.2l0,0.5c0,0,0,0.1-0.1,0l-1.2-0.1c0,0-0.1,0-0.1,0l-1.4,6.5
		l6.1-4.8c0,0,0,0,0-0.1l0.1-0.5c0,0,0-0.1-0.1-0.1l-1.1-0.4c0,0-0.1,0,0-0.1l0.1-0.4c0,0,0-0.1,0.1,0l3.8,0.9c0,0,0.1,0,0,0.1
		l-0.1,0.4c0,0,0,0.1-0.1,0l-1.2-0.2c0,0-0.1,0-0.1,0l-1.9,8.4c0,0,0,0.1,0,0.1l1.2,0.4c0,0,0.1,0,0,0.1l-0.1,0.4c0,0,0,0.1-0.1,0
		l-3.8-0.9c0,0-0.1,0,0-0.1l0.1-0.4c0,0,0-0.1,0.1-0.1l1.2,0.2c0,0,0.1,0,0.1,0l1.5-6.7l-6.2,4.8c0,0,0,0,0,0.1l-0.2,0.7
		c0,0,0,0.1,0,0.1l1.2,0.4c0,0,0.1,0,0,0.1l-0.1,0.4c0,0,0,0.1-0.1,0l-3.8-0.9c0,0-0.1,0,0-0.1l0.1-0.4c0,0,0-0.1,0.1,0l1.2,0.2
		c0,0,0.1,0,0.1,0l1.9-8.4c0,0,0-0.1,0-0.1l-1.2-0.4c0,0-0.1,0,0-0.1l0.1-0.4c0,0,0-0.1,0.1,0L164.3,15.2z"/>
	<path class="st2" d="M180.1,19.5C180.1,19.5,180.1,19.6,180.1,19.5L180,20c0,0,0,0-0.1,0l-1.2-0.2h0c0,0,0,0,0,0.1l0.9,6l3.9-4.3
		c0,0,0,0,0-0.1c0,0,0,0,0,0l-1-0.5c0,0,0,0,0-0.1l0.1-0.4c0,0,0,0,0.1,0l3.1,1c0,0,0,0,0,0.1l-0.1,0.4c0,0,0,0-0.1,0l-1.2-0.3
		c0,0,0,0-0.1,0l-4.7,5.3c-0.5,0.5-0.8,0.9-1.2,1.2c-0.4,0.3-0.7,0.5-1,0.7c-0.3,0.1-0.6,0.2-0.8,0.2c-0.2,0-0.5,0-0.7-0.1
		c-0.2-0.1-0.5-0.2-0.6-0.3c-0.2-0.1-0.3-0.3-0.4-0.5c0,0,0,0,0-0.1s0,0,0-0.1l1-0.7c0,0,0.1,0,0.1,0c0,0,0,0,0,0
		c0.1,0.2,0.1,0.3,0.2,0.4c0.1,0.1,0.2,0.2,0.4,0.2c0.3,0.1,0.6,0.1,0.9,0c0.3-0.1,0.6-0.4,1-0.7l0,0c0,0,0,0,0-0.1l-1.1-7.5
		c0,0,0,0,0,0l-1.1-0.5c0,0,0,0,0-0.1l0.1-0.4c0,0,0,0,0.1,0L180.1,19.5z"/>
	<path class="st2" d="M196.2,25.9C196.3,25.9,196.3,26,196.2,25.9l-0.1,0.5c0,0,0,0-0.1,0l-1.2-0.4c0,0-0.1,0-0.1,0l-3.4,7.9
		c0,0,0,0.1,0,0.1l1.1,0.6c0,0,0,0,0,0.1l-0.2,0.4c0,0,0,0-0.1,0l-3.6-1.6c0,0,0,0,0-0.1l0.2-0.4c0,0,0-0.1,0.1,0l1.2,0.4
		c0,0,0.1,0,0.1,0l3.4-7.8c0,0,0-0.1,0-0.1l-4.1-1.8h0c0,0,0,0,0,0l-3.4,7.9c0,0,0,0.1,0,0.1l1,0.6c0,0,0,0,0,0.1l-0.2,0.4
		c0,0,0,0-0.1,0l-3.6-1.6c0,0,0,0,0-0.1l0.2-0.4c0,0,0-0.1,0.1,0l1.2,0.4c0,0,0.1,0,0.1,0l3.4-7.9c0,0,0-0.1,0-0.1l-1.1-0.6
		c0,0,0,0,0-0.1l0.2-0.4c0,0,0,0,0.1,0L196.2,25.9z"/>
	<path class="st2" d="M201.5,28.7c0.8,0.5,1.4,0.9,1.8,1.2c0.9,1,1,2,0.4,3.1c-0.4,0.8-1.1,1.2-2.1,1.3c-0.8,0.1-1.7,0-2.5-0.5
		l-1.2-0.9l-1.8,3.4c0,0,0,0.1,0,0.1l1.2,0.8c0,0,0,0.1,0,0.1l-0.2,0.3c0,0,0,0-0.1,0l-3.6-2c0,0,0,0,0-0.1l0.2-0.3c0,0,0,0,0.1,0
		l1.2,0.5c0,0,0.1,0,0.1,0l4.1-7.5c0,0,0-0.1,0-0.1l-1-0.7c0,0,0,0,0-0.1L198,27c0,0,0,0,0.1,0L201.5,28.7z M200.3,28.8
		C200.2,28.8,200.2,28.8,200.3,28.8l-2.1,3.8c0,0,0,0.1,0,0.1l0.7,0.4c1.5,0.8,2.7,0.6,3.4-0.8c0.4-0.7,0.4-1.3,0-1.8
		c-0.3-0.5-0.8-0.9-1.5-1.3L200.3,28.8z"/>
	<path class="st2" d="M206.1,43.2C206.1,43.2,206.1,43.2,206.1,43.2l0.2-0.4c0,0,0.1,0,0.1,0l1,0.5c0,0,0,0,0.1,0l0,0l0.7-3.1
		c0,0,0,0,0-0.1l-2.7-1.8c0,0,0,0-0.1,0l-2.6,1.8c0,0,0,0.1,0,0.1l0.9,0.7c0,0,0,0.1,0,0.1l-0.2,0.3c0,0,0,0-0.1,0l-2.7-1.8
		c0,0,0,0,0-0.1l0.2-0.3c0,0,0.1,0,0.1,0l1.1,0.6c0,0,0,0,0.1,0l8.4-5.8c0,0,0,0,0.1,0l0.3,0.2c0,0,0,0,0,0.1l-2.4,9.9
		c0,0,0,0,0,0.1l0.9,0.7c0,0,0,0,0,0.1l-0.2,0.3c0,0-0.1,0-0.1,0L206.1,43.2z M209.3,35.7C209.3,35.7,209.3,35.7,209.3,35.7
		c-0.1-0.1-0.1-0.1-0.1-0.1l-3.1,2.2c0,0-0.1,0.1,0,0.1l2.2,1.5c0.1,0,0.1,0,0.1,0L209.3,35.7z"/>
	<path class="st2" d="M219.1,40.4c1,0.8,1.5,1.4,1.7,2c0.2,0.4,0.2,0.7,0.2,1c0,0.4-0.2,0.8-0.5,1.1c-0.7,0.8-1.6,1-2.8,0.5
		c0.5,0.5,0.7,1.2,0.7,1.8c0.1,0.7-0.1,1.3-0.5,1.8c-0.3,0.4-0.8,0.7-1.3,0.9c-1,0.3-2.2-0.1-3.6-1.2l-2.9-2.4c0,0,0-0.1,0-0.1
		l0.2-0.3c0,0,0.1,0,0.1,0l1,0.7c0,0,0.1,0,0.1,0l5.5-6.6c0,0,0-0.1,0-0.1l-0.9-0.9c0,0,0-0.1,0-0.1l0.2-0.3c0,0,0.1,0,0.1,0
		L219.1,40.4z M212.5,47C212.5,47.1,212.5,47.1,212.5,47l0.7,0.7c1.4,1.1,2.5,1.2,3.4,0.2c1-1.2,0.7-2.5-0.8-3.7l-0.5-0.4
		c0,0-0.1,0-0.1,0L212.5,47z M215.7,43.2C215.6,43.2,215.6,43.3,215.7,43.2l0.4,0.4c0.6,0.5,1.2,0.8,1.7,0.9
		c0.6,0.1,1.2-0.1,1.6-0.7c0.4-0.5,0.5-0.9,0.4-1.4c-0.1-0.5-0.4-0.8-0.8-1.2l-0.4-0.4l-0.5-0.4c0,0-0.1,0-0.1,0L215.7,43.2z"/>
	<path class="st2" d="M230.7,51.5C230.7,51.5,230.7,51.6,230.7,51.5l-0.3,0.3c0,0-0.1,0-0.1,0l-1-0.8c0,0-0.1,0-0.1,0l-6.2,5.9
		c0,0,0,0.1,0,0.1l0.8,1c0,0,0,0.1,0,0.1l-0.3,0.2c0,0-0.1,0-0.1,0l-2.7-2.8c0,0,0-0.1,0-0.1l0.3-0.2c0,0,0.1,0,0.1,0l0.9,0.8
		c0,0,0.1,0,0.1,0l6.2-5.9c0,0,0-0.1,0-0.1l-1.6-1.7c0,0,0,0-0.1,0c-0.5,0.4-1,0.9-1.5,1.3c-0.5,0.4-1,0.8-1.5,1.2s-1,0.7-1.5,1
		c-0.5,0.3-1,0.6-1.4,0.8c-0.7,0.3-1.3,0.5-1.9,0.4c-0.5,0-1-0.2-1.3-0.6c-0.1-0.1-0.1-0.2-0.2-0.2c-0.1-0.1-0.1-0.2-0.2-0.3
		c0-0.1-0.1-0.2-0.1-0.4c0-0.1,0-0.3,0-0.5c0,0,0,0,0-0.1c0,0,0,0,0.1,0l1.3-0.2c0,0,0.1,0,0.1,0s0,0,0,0.1c0,0.2,0,0.4,0,0.5
		s0.1,0.2,0.2,0.3c0.1,0.1,0.1,0.1,0.2,0.2c0.1,0,0.2,0.1,0.3,0.1c0.1,0,0.2,0,0.4,0c0.1,0,0.3,0,0.5-0.1c0.2-0.1,0.6-0.2,0.9-0.4
		c0.3-0.2,0.7-0.4,1-0.6c0.4-0.2,0.7-0.5,1.1-0.7c0.4-0.2,0.7-0.5,1.1-0.8c0.4-0.3,0.7-0.6,1.1-0.9c0.3-0.3,0.7-0.6,1-0.9
		c0,0,0,0,0,0s0,0,0-0.1l-0.9-1.1c0,0,0-0.1,0-0.1l0.3-0.2c0,0,0.1,0,0.1,0L230.7,51.5z"/>
	<path class="st2" d="M236.5,59.4C236.5,59.4,236.5,59.4,236.5,59.4l-1.9,1.4c0,0-0.1,0-0.1,0l-0.3-0.5c0,0,0-0.1,0-0.1l1.2-1.2
		c0,0,0,0,0-0.1l-2-2.8c0,0-0.1,0-0.1,0l-3,2.2c0,0,0,0.1,0,0.1l1.2,1.7c0,0,0.1,0,0.1,0l1.1-0.6c0,0,0,0,0.1,0l0.2,0.3
		c0,0,0,0.1,0,0.1l-2.6,1.9c0,0-0.1,0-0.1,0l-0.2-0.3c0,0,0-0.1,0-0.1l1-0.9c0,0,0,0,0-0.1l-1.2-1.7c0,0-0.1,0-0.1,0l-3.3,2.4
		c0,0,0,0.1,0,0.1l2.1,2.9c0,0,0.1,0,0.1,0l1.5-0.7c0,0,0,0,0.1,0l0.3,0.5c0,0,0,0.1,0,0.1l-1.9,1.4c0,0-0.1,0-0.1,0l-4.4-6
		c0,0,0-0.1,0-0.1l0.3-0.2c0,0,0.1,0,0.1,0l0.8,1c0,0,0.1,0,0.1,0l7-5c0,0,0,0,0-0.1l-0.6-1.1c0,0,0-0.1,0-0.1l0.3-0.2
		c0,0,0.1,0,0.1,0L236.5,59.4z"/>
	<path class="st2" d="M238.2,62.1C238.3,62,238.3,62.1,238.2,62.1l1.8,3.5c0,0,0,0.1,0,0.1l-0.3,0.2c0,0-0.1,0-0.1,0l-0.7-1
		c0,0,0,0-0.1,0l-3.2,1.6c0,0,0,0,0,0l2.2,4.3h0l3.2-1.6c0,0,0,0,0-0.1l-0.4-1.1c0,0,0-0.1,0-0.1l0.3-0.2c0,0,0.1,0,0.1,0l1.7,3.5
		c0,0,0,0.1,0,0.1l-0.3,0.2c0,0-0.1,0-0.1,0l-0.7-1.1c0,0,0,0-0.1,0l-7.7,3.8c0,0,0,0,0,0.1l0.5,1.2c0,0,0,0.1,0,0.1l-0.3,0.2
		c0,0-0.1,0-0.1,0l-1.7-3.5c0,0,0-0.1,0-0.1l0.3-0.2c0,0,0.1,0,0.1,0l0.6,1c0,0,0,0,0.1,0l3.7-1.9c0,0,0,0,0-0.1l-2.1-4.2
		c0,0,0,0-0.1,0l-3.7,1.9c0,0,0,0,0,0.1l0.4,1.1c0,0,0,0.1,0,0.1l-0.3,0.2c0,0-0.1,0-0.1,0l-1.7-3.5c0,0,0-0.1,0-0.1l0.3-0.2
		c0,0,0.1,0,0.1,0l0.7,1.1c0,0,0,0,0.1,0l7.7-3.8c0,0,0,0,0-0.1l-0.5-1.2c0,0,0-0.1,0-0.1L238.2,62.1z"/>
	<path class="st2" d="M245.1,78.2C245.1,78.2,245.1,78.3,245.1,78.2l-0.4,0.2c0,0-0.1,0-0.1,0l-0.4-1.1c0,0,0-0.1-0.1,0l-6.5,1.7
		l7.1,3.3c0,0,0,0,0.1,0l0.5-0.1c0,0,0.1,0,0-0.1l-0.2-1.2c0,0,0-0.1,0-0.1l0.4-0.1c0,0,0.1,0,0.1,0l1,3.8c0,0,0,0.1,0,0.1l-0.4,0.1
		c0,0-0.1,0-0.1,0l-0.4-1.2c0,0,0-0.1-0.1,0l-8.3,2.1c0,0-0.1,0,0,0.1l0.2,1.2c0,0,0,0.1,0,0.1l-0.4,0.1c0,0-0.1,0-0.1,0l-1-3.8
		c0,0,0-0.1,0-0.1l0.4-0.1c0,0,0.1,0,0.1,0L237,84c0,0,0,0.1,0.1,0l6.6-1.7l-7.1-3.3c0,0,0,0-0.1,0l-0.7,0.2c0,0-0.1,0,0,0.1
		l0.2,1.2c0,0,0,0.1,0,0.1l-0.4,0.1c0,0-0.1,0-0.1,0l-1-3.8c0,0,0-0.1,0-0.1l0.4-0.1c0,0,0.1,0,0.1,0l0.4,1.2c0,0,0,0.1,0.1,0
		l8.3-2.1c0,0,0.1,0,0-0.1l-0.2-1.2c0,0,0-0.1,0-0.1l0.4-0.1c0,0,0.1,0,0.1,0L245.1,78.2z"/>
	<path class="st2" d="M247.4,96.4C247.4,96.4,247.4,96.4,247.4,96.4l-0.5,0.1c0,0-0.1,0-0.1-0.1l-0.2-1.3c0,0,0-0.1-0.1-0.1
		l-8.6,0.3c0,0-0.1,0-0.1,0.1l-0.1,1.3c0,0,0,0.1-0.1,0.1h-0.4c0,0-0.1,0-0.1-0.1l-0.2-4.1c0,0,0-0.1,0.1-0.1h0.4c0,0,0.1,0,0.1,0.1
		l0.2,1.4c0,0,0,0.1,0.1,0.1l3.9-0.2c0,0,0,0,0,0v0v-0.2c0-0.2,0-0.5-0.1-0.7c0-0.2-0.2-0.4-0.3-0.6c-0.2-0.2-0.3-0.4-0.6-0.5
		c-0.2-0.2-0.6-0.4-1-0.5l-2.7-1.2c0,0,0,0-0.1-0.1l-0.1-2.4c0,0,0-0.1,0.1-0.1h0.4c0,0,0.1,0,0.1,0.1l0.2,1.1c0,0,0,0.1,0,0.1
		l2.5,1.2c0.2,0.1,0.4,0.2,0.6,0.3s0.3,0.2,0.5,0.3c0.1,0.1,0.3,0.2,0.4,0.4c0.1,0.2,0.2,0.3,0.3,0.5c0-0.4,0.2-0.7,0.3-1.1
		c0.1-0.3,0.3-0.6,0.5-0.8c0.2-0.2,0.5-0.4,0.7-0.5c0.3-0.1,0.6-0.2,0.9-0.2c0.4,0,0.7,0,1.1,0.2c0.3,0.2,0.7,0.4,0.9,0.7
		c0.2,0.3,0.4,0.7,0.5,1.2c0.1,0.5,0.2,1,0.2,1.7L247.4,96.4z M244.6,90.4c-0.4,0-0.7,0.1-1,0.3c-0.2,0.2-0.5,0.4-0.6,0.6
		c-0.2,0.2-0.3,0.5-0.3,0.9c-0.1,0.3-0.1,0.6-0.1,1l0,0.7c0,0,0,0,0.1,0l3.9-0.2c0,0,0.1,0,0.1-0.1v-0.5c0-0.4,0-0.7-0.1-1.1
		c0-0.3-0.2-0.6-0.3-0.9c-0.2-0.2-0.3-0.5-0.6-0.6C245.3,90.5,245,90.4,244.6,90.4z"/>
</g>
<ellipse class="st3" cx="128.8" cy="94.4" rx="126.7" ry="92.3"/>
<ellipse class="st4" cx="128.8" cy="94.4" rx="121.7" ry="86.1"/>
<g>
	<path class="st2" d="M42.7,138.9c0.7,0.6,1.2,1.2,1.4,1.6c0.7,1.1,0.5,2.2-0.3,3.2c-0.6,0.7-1.3,1-2.3,0.9c-0.8-0.1-1.6-0.4-2.3-1
		l-0.9-1.1l-2.5,2.9c0,0,0,0.1,0,0.1l1,1c0,0,0,0.1,0,0.1l-0.2,0.3c0,0-0.1,0-0.1,0l-3.1-2.7c0,0,0-0.1,0-0.1l0.2-0.3
		c0,0,0.1,0,0.1,0l1,0.7c0,0,0.1,0,0.1,0l5.6-6.5c0,0,0-0.1,0-0.1l-0.9-0.9c0,0,0-0.1,0-0.1l0.2-0.3c0,0,0.1,0,0.1,0L42.7,138.9z
		 M41.6,138.7C41.5,138.7,41.5,138.7,41.6,138.7l-2.9,3.2c0,0,0,0.1,0,0.1l0.7,0.6c1.3,1.2,2.5,1.2,3.5,0c0.5-0.6,0.6-1.2,0.5-1.8
		c-0.2-0.5-0.5-1.1-1.2-1.6L41.6,138.7z"/>
	<path class="st2" d="M49.4,144.2c0,0,0,0.1,0,0.1l-0.2,0.3c0,0-0.1,0-0.1,0l-1.2-0.7c0,0-0.1,0-0.1,0l-1.9,2.7c0,0,0,0.1,0,0.1
		l0.4,0.3c0.3,0.2,0.6,0.4,0.8,0.6c0.2,0.2,0.5,0.4,0.7,0.6c0.2,0.2,0.4,0.5,0.5,0.7c0.1,0.2,0.2,0.5,0.3,0.8c0.1,0.4,0.1,0.7,0,1.1
		c-0.1,0.4-0.2,0.7-0.4,1c-0.1,0.1-0.2,0.2-0.3,0.3c-0.1,0.1-0.2,0.2-0.3,0.3c-0.1,0.1-0.2,0.2-0.4,0.3c-0.1,0.1-0.2,0.2-0.4,0.2
		c-0.2,0.1-0.5,0.1-0.7,0.2c-0.2,0-0.5,0-0.9-0.1c-0.3-0.1-0.7-0.2-1-0.4c-0.4-0.2-0.7-0.4-1.2-0.7l-2.8-1.9c0,0,0,0,0-0.1l0.2-0.3
		c0,0,0.1,0,0.1,0l1.1,0.6c0,0,0.1,0,0.1,0l4.9-7c0,0,0-0.1,0-0.1l-1-0.8c0,0,0,0,0-0.1l0.2-0.3c0,0,0,0,0.1,0L49.4,144.2z
		 M42.9,151l0.5,0.4c0.4,0.2,0.7,0.5,1.1,0.6c0.3,0.1,0.7,0.2,1,0.1c0.3,0,0.5-0.1,0.8-0.3c0.2-0.2,0.5-0.4,0.7-0.7
		c0.2-0.3,0.4-0.7,0.4-1c0-0.3,0-0.7-0.1-1c-0.1-0.3-0.3-0.6-0.5-0.9c-0.2-0.3-0.5-0.5-0.9-0.8l-0.3-0.2c0,0-0.1,0-0.1,0l-2.5,3.6
		C42.8,151,42.9,151,42.9,151z M55.6,148.5C55.6,148.5,55.6,148.5,55.6,148.5l-0.2,0.4c0,0,0,0-0.1,0l-1.1-0.6c0,0-0.1,0-0.1,0
		l-4.9,7c0,0,0,0.1,0,0.1l1,0.8c0,0,0,0.1,0,0.1l-0.2,0.3c0,0,0,0-0.1,0l-3.1-2.2c0,0,0-0.1,0-0.1l0.2-0.3c0,0,0.1,0,0.1,0l1,0.5
		c0,0,0.1,0,0.1,0l4.9-7c0,0,0-0.1,0-0.1l-0.8-0.7c0,0,0-0.1,0-0.1l0.2-0.3c0,0,0.1,0,0.1,0L55.6,148.5z"/>
	<path class="st2" d="M56,148.8C56.1,148.7,56.1,148.7,56,148.8l3.5,1.8c0,0,0,0,0,0.1l-0.2,0.3c0,0,0,0-0.1,0l-1.1-0.5
		c0,0-0.1,0-0.1,0l-1.7,3.1c0,0,0,0,0,0l4.2,2.3c0,0,0,0,0,0l1.7-3.1c0,0,0-0.1,0-0.1l-1-0.7c0,0,0,0,0-0.1l0.2-0.3c0,0,0,0,0.1,0
		l3.4,1.9c0,0,0,0,0,0.1l-0.2,0.3c0,0,0,0-0.1,0l-1.2-0.5c0,0-0.1,0-0.1,0l-4.1,7.5c0,0,0,0.1,0,0.1l1.1,0.7c0,0,0,0,0,0.1l-0.2,0.3
		c0,0,0,0-0.1,0l-3.4-1.9c0,0,0,0,0-0.1l0.2-0.3c0,0,0,0,0.1,0l1.1,0.5c0,0,0.1,0,0.1,0l2-3.6c0,0,0-0.1,0-0.1l-4.1-2.2
		c0,0-0.1,0-0.1,0l-2,3.6c0,0,0,0.1,0,0.1l1,0.7c0,0,0,0,0,0.1l-0.2,0.3c0,0,0,0-0.1,0l-3.4-1.9c0,0,0,0,0-0.1l0.2-0.3
		c0,0,0,0,0.1,0l1.2,0.5c0,0,0.1,0,0.1,0l4-7.6c0,0,0-0.1,0-0.1l-1-0.7c0,0,0,0,0-0.1L56,148.8z"/>
	<path class="st2" d="M69.3,155.5C69.4,155.5,69.4,155.5,69.3,155.5l-0.1,0.5c0,0,0,0-0.1,0l-1.2-0.4c0,0-0.1,0-0.1,0l-1.5,3.4
		c0,0,0,0.1,0,0.1c0.3,0.1,0.6,0.2,0.8,0.2s0.5,0,0.7,0c0.2,0,0.5-0.2,0.7-0.3c0.2-0.1,0.5-0.3,0.7-0.5l1.3-1.1
		c0.2-0.2,0.5-0.4,0.7-0.5c0.2-0.1,0.4-0.2,0.6-0.2s0.4-0.1,0.5,0s0.3,0,0.5,0.1c0,0,0.1,0.1,0.2,0.1s0.2,0.1,0.2,0.2
		c0.1,0.1,0.1,0.1,0.2,0.2c0,0.1,0.1,0.2,0.1,0.2c0,0,0,0,0,0.1c0,0,0,0,0,0l-1.1,0.6c0,0,0,0-0.1,0c0,0,0,0,0,0
		c0-0.1-0.1-0.2-0.2-0.3s-0.2-0.2-0.2-0.2c-0.1,0-0.3-0.1-0.5,0c-0.2,0-0.4,0.2-0.7,0.4l-0.7,0.6c-0.2,0.2-0.4,0.3-0.6,0.5
		s-0.4,0.3-0.6,0.4s-0.4,0.2-0.6,0.2c-0.2,0.1-0.4,0.1-0.5,0.1c0.2,0.1,0.3,0.3,0.5,0.5c0.1,0.2,0.2,0.3,0.3,0.5
		c0.1,0.2,0.2,0.5,0.2,0.7c0,0.2,0.1,0.6,0.1,0.9l0.2,3c0,0,0,0.1,0.1,0.1l1,0.5c0,0,0.1,0,0,0.1l-0.2,0.4c0,0,0,0-0.1,0l-2.2-1
		c0,0,0,0-0.1-0.1l-0.1-3.2c0-0.5-0.1-0.9-0.2-1.2c-0.1-0.3-0.2-0.6-0.4-0.8c-0.1-0.2-0.3-0.4-0.5-0.5c-0.2-0.1-0.4-0.2-0.5-0.3
		c0,0-0.1,0-0.1,0l-1.7,3.8c0,0,0,0.1,0,0.1l1.1,0.6c0,0,0,0,0,0.1l-0.2,0.4c0,0,0,0-0.1,0l-3.7-1.6c0,0,0,0,0-0.1l0.2-0.4
		c0,0,0-0.1,0.1,0l1.2,0.4c0,0,0.1,0,0.1,0l3.5-7.8c0,0,0-0.1,0-0.1l-1.1-0.6c0,0,0,0,0-0.1l0.2-0.4c0,0,0,0,0.1,0L69.3,155.5z"/>
	<path class="st2" d="M79.2,159.1c1.4,0.5,2.4,1.4,2.9,2.6c0.5,1.2,0.5,2.5,0,4c-0.5,1.4-1.3,2.4-2.5,3.1c-1.2,0.7-2.5,0.7-3.9,0.2
		c-1.4-0.5-2.4-1.4-3-2.6c-0.6-1.2-0.6-2.6-0.1-4c0.5-1.4,1.4-2.4,2.6-3.1C76.4,158.7,77.8,158.6,79.2,159.1z M78.8,159.7
		c-1-0.4-2-0.2-2.9,0.4c-0.8,0.5-1.4,1.4-1.8,2.5c-0.3,0.8-0.4,1.6-0.4,2.3c0,0.8,0.2,1.6,0.7,2.2c0.4,0.7,1,1.1,1.7,1.4
		c1.1,0.4,2,0.2,2.9-0.4c0.7-0.6,1.3-1.4,1.7-2.5c0.5-1.2,0.5-2.4,0.2-3.5C80.6,160.9,79.9,160.1,78.8,159.7z"/>
	<path class="st2" d="M87.2,162C87.3,162,87.3,162,87.2,162l1.2,8.4l5.1-6.8c0,0,0,0,0.1,0l2.9,0.7c0,0,0.1,0,0,0.1l-0.1,0.4
		c0,0,0,0.1-0.1,0l-1.2-0.2c0,0-0.1,0-0.1,0l-2.2,8.3c0,0,0,0.1,0,0.1l1.3,0.5c0,0,0.1,0,0,0.1l-0.1,0.4c0,0,0,0.1-0.1,0l-4.1-1
		c0,0-0.1,0,0-0.1l0.1-0.4c0,0,0-0.1,0.1,0l1.4,0.2c0,0,0.1,0,0.1,0l2.1-8h0l-5.8,7.9c0,0,0,0-0.1,0l-0.2,0c0,0,0,0-0.1,0l-1.3-9.6
		h0l-2,7.9c0,0,0,0.1,0,0.1l1.2,0.4c0,0,0.1,0,0,0.1l-0.1,0.4c0,0,0,0.1-0.1,0l-3.3-0.9c0,0-0.1,0,0-0.1l0.1-0.4c0,0,0-0.1,0.1,0
		l1.3,0.2c0,0,0.1,0,0.1,0l2.2-8.3c0,0,0-0.1,0-0.1l-1.2-0.5c0,0-0.1,0,0-0.1l0.1-0.4c0,0,0-0.1,0.1,0L87.2,162z"/>
	<path class="st2" d="M100.4,165.1C100.4,165.1,100.4,165.1,100.4,165.1l3.9,0.5c0,0,0.1,0,0,0.1l0,0.4c0,0,0,0.1-0.1,0l-1.2,0
		c0,0-0.1,0-0.1,0l-0.5,3.6c0,0,0,0,0,0l4.7,0.7c0,0,0,0,0,0l0.5-3.6c0,0,0-0.1,0-0.1l-1.2-0.3c0,0-0.1,0,0-0.1l0-0.4
		c0,0,0-0.1,0.1,0l3.9,0.6c0,0,0.1,0,0,0.1l0,0.4c0,0,0,0.1-0.1,0l-1.3-0.1c0,0-0.1,0-0.1,0l-1.2,8.5c0,0,0,0.1,0,0.1l1.2,0.3
		c0,0,0.1,0,0,0.1l0,0.4c0,0,0,0.1-0.1,0l-3.9-0.6c0,0-0.1,0,0-0.1l0-0.4c0,0,0-0.1,0.1-0.1l1.2,0c0,0,0.1,0,0.1,0l0.6-4.1
		c0,0,0-0.1,0-0.1l-4.6-0.7c0,0-0.1,0-0.1,0l-0.6,4.1c0,0,0,0.1,0,0.1l1.2,0.3c0,0,0.1,0,0,0.1l0,0.4c0,0,0,0.1-0.1,0l-3.9-0.6
		c0,0-0.1,0,0-0.1l0-0.4c0,0,0-0.1,0.1-0.1l1.3,0.1c0,0,0.1,0,0.1,0l1.2-8.5c0,0,0-0.1,0-0.1l-1.2-0.3c0,0-0.1,0,0-0.1L100.4,165.1z
		"/>
	<path class="st2" d="M118.4,167.3C118.5,167.3,118.5,167.3,118.4,167.3l-0.1,2.4c0,0,0,0.1-0.1,0.1l-0.5,0c0,0-0.1,0-0.1-0.1
		l-0.2-1.7c0,0,0,0-0.1-0.1l-3.4-0.3c0,0-0.1,0-0.1,0.1l-0.3,3.7c0,0,0,0.1,0.1,0.1l2,0.2c0,0,0.1,0,0.1,0l0.2-1.2c0,0,0,0,0.1,0
		l0.4,0c0,0,0.1,0,0.1,0.1l-0.3,3.2c0,0,0,0.1-0.1,0.1l-0.4,0c0,0-0.1,0-0.1-0.1l0-1.3c0,0,0-0.1-0.1-0.1l-2-0.2c0,0-0.1,0-0.1,0.1
		l-0.3,4c0,0,0,0.1,0.1,0.1l3.6,0.3c0,0,0.1,0,0.1,0l0.5-1.6c0,0,0,0,0.1,0l0.5,0c0,0,0.1,0,0.1,0.1l-0.2,2.3c0,0,0,0.1-0.1,0.1
		l-7.3-0.6c0,0-0.1,0-0.1-0.1l0-0.4c0,0,0-0.1,0.1-0.1h1.3c0,0,0.1,0,0.1-0.1l0.7-8.6c0,0,0,0-0.1,0l-1.2-0.2c0,0-0.1,0-0.1-0.1
		l0-0.4c0,0,0-0.1,0.1-0.1L118.4,167.3z"/>
	<path class="st2" d="M127.4,176.8C127.4,176.9,127.5,176.9,127.4,176.8l1.7,0.1c0,0,0,0,0,0l0,0l-0.1,3.4c0,0,0,0.1-0.1,0.1h-0.5h0
		c0,0,0,0,0,0l-0.4-2.7v0h0l-7.5-0.2h0l0,0l-0.6,2.7c0,0,0,0,0,0h0h-0.5c0,0-0.1,0-0.1-0.1l0.1-3.4c0,0,0,0,0,0l0,0l1.1,0
		c0,0,0.1,0,0.1-0.1c0.5-0.6,0.9-1.2,1.2-1.9c0.3-0.7,0.6-1.4,0.8-2.2c0.2-0.7,0.4-1.5,0.5-2.2c0.1-0.7,0.2-1.4,0.2-2.2
		c0,0,0-0.1-0.1-0.1l-1.5-0.2c0,0-0.1,0-0.1-0.1v-0.4c0,0,0-0.1,0.1-0.1l7.4,0.2c0,0,0.1,0,0.1,0.1v0.4c0,0,0,0.1-0.1,0.1l-1.3,0.1
		c0,0-0.1,0-0.1,0.1L127.4,176.8z M126.4,168.3C126.4,168.2,126.3,168.2,126.4,168.3l-2.3-0.1c0,0-0.1,0-0.1,0.1
		c0,0.7-0.1,1.4-0.2,2.2c-0.1,0.7-0.3,1.5-0.5,2.2c-0.2,0.7-0.5,1.4-0.7,2.2c-0.3,0.7-0.7,1.4-1.1,1.9c0,0,0,0,0,0s0,0,0.1,0
		l4.6,0.1c0,0,0.1,0,0.1-0.1L126.4,168.3z"/>
	<path class="st2" d="M133.4,167.5c1.2,0,2.1,0.1,2.6,0.3c0.4,0.2,0.6,0.4,0.8,0.7c0.2,0.3,0.3,0.7,0.3,1.2c0,1-0.5,1.8-1.7,2.3
		c0.7,0.1,1.3,0.4,1.7,0.9c0.5,0.5,0.8,1.1,0.8,1.7c0,0.5-0.1,1.1-0.4,1.5c-0.6,0.9-1.7,1.4-3.5,1.4l-3.8,0.1c0,0-0.1,0-0.1-0.1
		v-0.4c0,0,0-0.1,0.1-0.1l1.2-0.2c0,0,0.1,0,0.1-0.1l-0.2-8.6c0,0,0-0.1-0.1-0.1L130,168c0,0-0.1,0-0.1-0.1v-0.4c0,0,0-0.1,0.1-0.1
		L133.4,167.5z M132.7,171.8C132.7,171.9,132.8,171.9,132.7,171.8l0.5,0.1c0.8,0,1.4-0.2,1.8-0.4c0.5-0.3,0.8-0.9,0.8-1.6
		c0-0.6-0.2-1-0.6-1.3c-0.4-0.2-0.8-0.4-1.4-0.4h-0.6h-0.6c0,0-0.1,0-0.1,0.1L132.7,171.8z M132.9,176.8
		C132.9,176.8,133,176.9,132.9,176.8l1,0c1.8,0,2.6-0.7,2.6-2.1c0-1.6-1.1-2.4-3-2.3h-0.7c0,0-0.1,0-0.1,0.1L132.9,176.8z"/>
	<path class="st2" d="M142.4,167C142.5,167,142.5,167,142.4,167l0.1,0.5c0,0,0,0.1-0.1,0.1l-1.2,0.2c0,0-0.1,0-0.1,0.1l0.6,6.6
		l4.3-6.5c0,0,0,0,0-0.1l0-0.5c0,0,0-0.1-0.1-0.1h-1.2c0,0-0.1,0-0.1-0.1l0-0.4c0,0,0-0.1,0.1-0.1l3.9-0.4c0,0,0.1,0,0.1,0.1l0,0.4
		c0,0,0,0.1-0.1,0.1l-1.2,0.2c0,0-0.1,0-0.1,0.1l0.8,8.5c0,0,0,0.1,0.1,0.1h1.3c0,0,0.1,0,0.1,0.1l0,0.4c0,0,0,0.1-0.1,0.1l-3.9,0.4
		c0,0-0.1,0-0.1-0.1l0-0.4c0,0,0-0.1,0.1-0.1l1.2-0.2c0,0,0.1,0,0.1-0.1l-0.6-6.8l-4.3,6.5c0,0,0,0,0,0.1l0.1,0.7c0,0,0,0.1,0.1,0.1
		h1.2c0,0,0.1,0,0.1,0.1l0,0.4c0,0,0,0.1-0.1,0.1l-3.9,0.4c0,0-0.1,0-0.1-0.1l0-0.4c0,0,0-0.1,0.1-0.1l1.2-0.2c0,0,0.1,0,0.1-0.1
		L140,168c0,0,0-0.1-0.1-0.1h-1.3c0,0-0.1,0-0.1-0.1l0-0.4c0,0,0-0.1,0.1-0.1L142.4,167z"/>
	<path class="st2" d="M157.9,164.9C158,164.9,158,164.9,157.9,164.9l0.2,0.4c0,0,0,0.1,0,0.1l-1.2,0.3c0,0-0.1,0-0.1,0.1l0.7,3.7
		c0,0,0,0.1,0.1,0c0.3,0,0.5-0.1,0.7-0.2c0.2-0.1,0.4-0.2,0.5-0.5c0.2-0.2,0.3-0.4,0.4-0.6c0.1-0.2,0.2-0.5,0.3-0.8l0.5-1.6
		c0.1-0.3,0.2-0.5,0.3-0.8c0.1-0.2,0.2-0.4,0.4-0.5s0.3-0.2,0.4-0.3c0.2-0.1,0.3-0.1,0.5-0.2c0.1,0,0.2,0,0.2,0c0.1,0,0.2,0,0.3,0
		c0.1,0,0.2,0,0.3,0.1c0.1,0,0.2,0.1,0.2,0.1c0,0,0,0,0,0.1s0,0,0,0.1l-0.5,1.1c0,0,0,0.1-0.1,0c-0.1-0.1-0.2-0.1-0.3-0.2
		c-0.1,0-0.2,0-0.3,0c-0.2,0-0.3,0.1-0.5,0.2c-0.1,0.2-0.2,0.4-0.3,0.7l-0.2,0.9c-0.1,0.2-0.2,0.5-0.2,0.7c-0.1,0.2-0.2,0.5-0.3,0.7
		c-0.1,0.2-0.2,0.4-0.3,0.6s-0.2,0.3-0.4,0.4c0.2,0,0.4,0.1,0.6,0.1c0.2,0,0.4,0.2,0.6,0.2c0.2,0.1,0.4,0.3,0.6,0.5
		c0.2,0.2,0.4,0.4,0.6,0.7l1.8,2.4c0,0,0.1,0,0.1,0l1.1-0.1c0,0,0.1,0,0.1,0.1l0.1,0.4c0,0,0,0.1,0,0.1l-2.3,0.4c0,0-0.1,0-0.1,0
		l-1.8-2.6c-0.3-0.4-0.5-0.7-0.8-0.9c-0.3-0.2-0.5-0.4-0.7-0.5c-0.2-0.1-0.5-0.2-0.6-0.2c-0.2,0-0.4,0-0.5,0c0,0-0.1,0-0.1,0.1
		l0.7,4.1c0,0,0,0.1,0.1,0l1.3-0.1c0,0,0.1,0,0.1,0.1l0.1,0.4c0,0,0,0.1,0,0.1l-3.9,0.7c0,0-0.1,0-0.1,0l-0.1-0.4c0,0,0-0.1,0-0.1
		l1.2-0.3c0,0,0.1,0,0-0.1l-0.7-4.1c0,0,0-0.1-0.1,0c-0.2,0-0.3,0.1-0.5,0.2c-0.2,0.1-0.4,0.2-0.5,0.4s-0.4,0.4-0.5,0.7
		c-0.2,0.3-0.3,0.7-0.5,1.2l-0.8,3.1c0,0,0,0.1-0.1,0.1l-2.3,0.4c0,0-0.1,0-0.1,0l-0.1-0.4c0,0,0-0.1,0-0.1l1-0.3c0,0,0.1,0,0.1-0.1
		l0.9-2.9c0.1-0.3,0.2-0.6,0.4-0.9c0.1-0.2,0.3-0.5,0.4-0.6s0.3-0.3,0.5-0.5s0.3-0.2,0.5-0.3c-0.2,0-0.3-0.1-0.5-0.2
		c-0.2-0.1-0.3-0.2-0.5-0.4c-0.2-0.2-0.3-0.3-0.5-0.5c-0.2-0.2-0.3-0.4-0.5-0.6l-0.5-0.7c-0.2-0.3-0.4-0.5-0.6-0.6
		c-0.2-0.1-0.4-0.1-0.5-0.1c-0.1,0-0.2,0.1-0.3,0.2c-0.1,0.1-0.2,0.2-0.2,0.3c0,0-0.1,0-0.1,0l-0.9-0.9c0,0,0,0,0-0.1c0,0,0,0,0-0.1
		c0-0.1,0.1-0.1,0.2-0.2c0.1-0.1,0.2-0.1,0.2-0.2c0.1,0,0.2-0.1,0.3-0.1s0.2,0,0.2-0.1c0.2,0,0.3,0,0.5,0c0.2,0,0.3,0.1,0.5,0.2
		c0.2,0.1,0.3,0.2,0.5,0.4c0.2,0.2,0.4,0.4,0.5,0.6l1,1.4c0.2,0.2,0.4,0.5,0.5,0.7c0.2,0.2,0.4,0.3,0.6,0.5c0.2,0.1,0.4,0.2,0.7,0.2
		c0.2,0,0.5,0,0.8,0c0,0,0,0,0-0.1l-0.7-3.7c0,0,0-0.1-0.1,0l-1.3,0.1c0,0-0.1,0-0.1,0l-0.1-0.4c0,0,0-0.1,0-0.1L157.9,164.9z"/>
	<path class="st2" d="M166.9,162.9C166.9,162.9,167,162.9,166.9,162.9l0.2,0.4c0,0,0,0.1,0,0.1l-1.1,0.4c0,0-0.1,0,0,0.1l1.7,6.5
		l3.2-7.1c0,0,0,0,0-0.1l-0.1-0.5c0,0,0-0.1-0.1,0l-1.2,0.2c0,0-0.1,0-0.1,0l-0.1-0.4c0,0,0-0.1,0-0.1l3.8-1c0,0,0.1,0,0.1,0
		l0.1,0.4c0,0,0,0.1,0,0.1l-1.2,0.5c0,0-0.1,0,0,0.1l2.2,8.3c0,0,0,0.1,0.1,0l1.2-0.2c0,0,0.1,0,0.1,0l0.1,0.4c0,0,0,0.1,0,0.1
		l-3.8,1c0,0-0.1,0-0.1,0l-0.1-0.4c0,0,0-0.1,0-0.1l1.1-0.4c0,0,0.1,0,0-0.1l-1.7-6.6l-3.2,7.1c0,0,0,0,0,0.1l0.2,0.7
		c0,0,0,0.1,0.1,0l1.2-0.2c0,0,0.1,0,0.1,0l0.1,0.4c0,0,0,0.1,0,0.1l-3.8,1c0,0-0.1,0-0.1,0l-0.1-0.4c0,0,0-0.1,0-0.1l1.2-0.5
		c0,0,0.1,0,0-0.1l-2.2-8.3c0,0,0-0.1-0.1,0l-1.2,0.2c0,0-0.1,0-0.1,0l-0.1-0.4c0,0,0-0.1,0-0.1L166.9,162.9z"/>
	<path class="st2" d="M176.4,160.1C176.5,160.1,176.5,160.1,176.4,160.1l5.7,6.3l0.3-8.4c0,0,0,0,0,0l2.8-1c0,0,0.1,0,0.1,0l0.1,0.4
		c0,0,0,0.1,0,0.1l-1.2,0.5c0,0-0.1,0,0,0.1l2.9,8.1c0,0,0,0,0.1,0l1.3-0.3c0,0,0.1,0,0.1,0l0.1,0.4c0,0,0,0.1,0,0.1l-3.9,1.4
		c0,0-0.1,0-0.1,0l-0.1-0.4c0,0,0-0.1,0-0.1l1.3-0.6c0,0,0,0,0-0.1l-2.8-7.8h0l-0.4,9.8c0,0,0,0,0,0l-0.1,0c0,0-0.1,0-0.1,0
		l-6.5-7.2h0l2.8,7.7c0,0,0,0,0.1,0l1.2-0.3c0,0,0.1,0,0.1,0l0.1,0.4c0,0,0,0.1,0,0.1l-3.2,1.2c0,0-0.1,0-0.1,0l-0.1-0.4
		c0,0,0-0.1,0-0.1l1.2-0.6c0,0,0,0,0-0.1l-2.9-8.1c0,0,0,0-0.1,0l-1.2,0.3c0,0-0.1,0-0.1,0l-0.1-0.4c0,0,0-0.1,0-0.1L176.4,160.1z"
		/>
	<path class="st2" d="M190.3,154.3c1.4-0.6,2.7-0.7,3.9-0.2s2.2,1.4,2.8,2.8c0.6,1.4,0.7,2.7,0.3,4c-0.4,1.3-1.3,2.3-2.6,2.9
		c-1.4,0.6-2.7,0.7-4,0.2c-1.3-0.5-2.2-1.4-2.9-2.8c-0.6-1.4-0.7-2.7-0.3-4C188,155.9,188.9,155,190.3,154.3z M190.4,155
		c-1,0.5-1.6,1.2-1.8,2.3c-0.2,1,0,1.9,0.5,3c0.3,0.7,0.8,1.4,1.4,1.9c0.6,0.6,1.3,1,2.1,1.1c0.7,0.2,1.5,0.1,2.2-0.2
		c1-0.5,1.6-1.2,1.8-2.3c0.1-0.9,0-1.9-0.5-3c-0.5-1.2-1.3-2.1-2.3-2.6C192.5,154.6,191.5,154.5,190.4,155z"/>
	<path class="st2" d="M200.2,149.1c0.2-0.1,0.3-0.2,0.5-0.3c0.2-0.1,0.4-0.2,0.7-0.2c0.2-0.1,0.5-0.2,0.7-0.2
		c0.2-0.1,0.4-0.1,0.6-0.2c0,0,0.1,0,0.1,0l1.1,1.9c0,0,0,0.1,0,0.1l-0.5,0.3c0,0,0,0,0,0s0,0,0,0l-1.1-1.3c0,0,0,0-0.1,0
		c-0.1,0-0.2,0-0.3,0.1c-0.1,0-0.3,0.1-0.4,0.1s-0.3,0.1-0.4,0.2c-0.1,0-0.3,0.1-0.4,0.2c-0.6,0.3-1,0.7-1.4,1.2
		c-0.3,0.4-0.6,0.9-0.7,1.4s-0.1,1,0,1.6c0.1,0.5,0.3,1.1,0.6,1.6c0.3,0.6,0.7,1.1,1.2,1.4c0.5,0.4,1,0.7,1.5,0.9
		c0.5,0.2,1.1,0.3,1.7,0.2s1.1-0.2,1.7-0.5c0.1,0,0.2-0.1,0.3-0.2c0.1-0.1,0.2-0.2,0.4-0.2c0.1-0.1,0.2-0.2,0.4-0.3
		c0.1-0.1,0.2-0.2,0.2-0.3c0,0,0-0.1,0-0.1l-0.6-1.6v0c0,0,0,0,0,0l0.5-0.3c0,0,0.1,0,0.1,0l1.1,1.9c0,0,0,0,0,0.1
		c-0.1,0.1-0.2,0.2-0.4,0.4c-0.2,0.1-0.3,0.3-0.5,0.4c-0.2,0.2-0.4,0.3-0.6,0.5c-0.2,0.2-0.5,0.3-0.7,0.5c-0.5,0.3-1,0.5-1.4,0.6
		s-1,0.2-1.4,0.2s-0.9,0-1.3-0.2c-0.4-0.1-0.8-0.3-1.2-0.5c-0.4-0.2-0.7-0.5-1.1-0.8c-0.3-0.3-0.6-0.7-0.9-1.1
		c-0.3-0.5-0.5-1-0.6-1.4c-0.1-0.5-0.2-1-0.1-1.4c0-0.5,0.1-0.9,0.2-1.4c0.2-0.4,0.4-0.8,0.6-1.2c0.2-0.4,0.6-0.7,1-1.1
		C199.5,149.6,199.8,149.3,200.2,149.1z"/>
	<path class="st2" d="M209.9,143C209.9,142.9,210,142.9,209.9,143l1.4,1.9c0,0,0,0.1,0,0.1l-0.5,0.3c0,0-0.1,0-0.1,0l-1.2-1.2
		c0,0,0,0-0.1,0l-2,1.4c0,0,0,0,0,0.1l4.8,7c0,0,0,0,0.1,0l1.2-0.7c0,0,0.1,0,0.1,0l0.2,0.3c0,0,0,0.1,0,0.1l-3.5,2.4
		c0,0-0.1,0-0.1,0l-0.2-0.3c0,0,0-0.1,0-0.1l1.1-0.9c0,0,0-0.1,0-0.1l-4.8-7c0,0,0,0-0.1,0l-2,1.4c0,0,0,0,0,0.1l0.7,1.6
		c0,0,0,0,0,0.1l-0.5,0.3c0,0-0.1,0-0.1,0l-1.3-1.9c0,0,0-0.1,0-0.1L209.9,143z"/>
	<path class="st2" d="M213.2,140.3C213.2,140.2,213.2,140.2,213.2,140.3l0.3,0.3c0,0,0,0.1,0,0.1l-0.8,0.9c0,0,0,0.1,0,0.1l4.3,5.1
		l-0.2-7.8c0,0,0,0,0-0.1l-0.4-0.4c0,0-0.1,0-0.1,0l-1,0.7c0,0-0.1,0-0.1,0l-0.2-0.3c0,0,0-0.1,0-0.1l3-2.5c0,0,0.1,0,0.1,0l0.2,0.3
		c0,0,0,0.1,0,0.1l-0.9,0.9c0,0,0,0.1,0,0.1l5.5,6.5c0,0,0.1,0,0.1,0l1-0.7c0,0,0.1,0,0.1,0l0.2,0.3c0,0,0,0.1,0,0.1l-3,2.5
		c0,0-0.1,0-0.1,0l-0.2-0.3c0,0,0-0.1,0-0.1l0.8-0.9c0,0,0-0.1,0-0.1l-4.4-5.1l0.2,7.8c0,0,0,0,0,0.1l0.5,0.6c0,0,0.1,0,0.1,0l1-0.7
		c0,0,0.1,0,0.1,0l0.2,0.3c0,0,0,0.1,0,0.1l-3,2.5c0,0-0.1,0-0.1,0l-0.2-0.3c0,0,0-0.1,0-0.1l0.9-0.9c0,0,0-0.1,0-0.1l-5.5-6.5
		c0,0-0.1,0-0.1,0l-1,0.7c0,0-0.1,0-0.1,0l-0.2-0.3c0,0,0-0.1,0-0.1L213.2,140.3z"/>
</g>
<rect x="126.5" y="22.5" class="st5" width="2.2" height="0.3"/>
</svg>
