<?xml version="1.0" encoding="utf-8"?>
<!-- Generator: Adobe Illustrator 23.0.1, SVG Export Plug-In . SVG Version: 6.00 Build 0)  -->
<svg version="1.1" id="Layer_1" xmlns="http://www.w3.org/2000/svg" xmlns:xlink="http://www.w3.org/1999/xlink" x="0px" y="0px"
	 viewBox="0 0 257.5 188.7" style="enable-background:new 0 0 257.5 188.7;" xml:space="preserve">
<style type="text/css">
	.st0{fill-rule:evenodd;clip-rule:evenodd;fill:#A0A0A0;}
	.st1{fill:none;stroke:#A0A0A0;stroke-width:1.6559;stroke-miterlimit:10;}
	.st2{fill:#A0A0A0;}
	.st3{fill:none;stroke:#A0A0A0;stroke-width:4.1396;stroke-miterlimit:10;}
	.st4{fill:none;stroke:#A0A0A0;stroke-width:1.2419;stroke-miterlimit:10;}
</style>
<g>
	<path class="st0" d="M151.9,68V52.1H149v16.6L151.9,68L151.9,68z M103.4,49h51.2v1.7h-51.2L103.4,49L103.4,49z M129,37.9L100.8,45
		v2.5h56.5V45L129,37.9L129,37.9z M116.1,54.1h4.8v13.5h-4.8V54.1L116.1,54.1z M137,54.1h4.9v13.5H137V54.1L137,54.1z M126.6,54.1
		h4.8v13.5h-4.8V54.1L126.6,54.1z M96.8,67.2L61.9,76v2h134.4v-2l-35-8.8L129,75.4L96.8,67.2L96.8,67.2z M82.2,107.9H86v10.5h-3.8
		V107.9L82.2,107.9z M172.1,107.9h3.8v10.5h-3.8V107.9L172.1,107.9z M172.1,92.7h3.8v10.4h-3.8V92.7L172.1,92.7z M149.6,107.9h3.8
		v10.5h-3.8V107.9L149.6,107.9z M149.6,92.7h3.8v10.4h-3.8V92.7L149.6,92.7z M127.1,107.9h3.8v10.5h-3.8V107.9L127.1,107.9z
		 M127.1,92.7h3.8v10.4h-3.8V92.7L127.1,92.7z M104.7,107.9h3.8v10.5h-3.8V107.9L104.7,107.9z M104.7,92.7h3.8v10.4h-3.8V92.7
		L104.7,92.7z M82.2,92.7H86v10.4h-3.8V92.7L82.2,92.7z M62.3,125.7h133.4v2.2H62.3V125.7L62.3,125.7z M56.9,130.4
		c48.1,0,96.2,0,144.3,0c0,0.7,0,1.5,0,2.2c-48.1,0-96.2,0-144.3,0C56.9,131.9,56.9,131.1,56.9,130.4L56.9,130.4z M51.4,135h155.2
		v2.2H51.4V135L51.4,135z M143.9,89.7v33.9h-7.3V89.7c1.4,0,2.5-0.8,3-2c0.2,0,0.5,0,0.6,0c0.2,0,0.4,0,0.6,0
		C141.3,88.9,142.5,89.7,143.9,89.7L143.9,89.7z M76.5,89.7v33.9h-7.3V89.7c1.4,0,2.5-0.8,3-2c0.2,0,0.5,0,0.6,0s0.4,0,0.6,0
		C73.9,88.9,75.1,89.7,76.5,89.7L76.5,89.7z M99,89.7v33.9h-7.3V89.7c1.4,0,2.5-0.8,3-2c0.2,0,0.5,0,0.6,0s0.4,0,0.6,0
		C96.4,88.9,97.6,89.7,99,89.7L99,89.7z M121.4,89.7v33.9h-7.3V89.7c1.4,0,2.5-0.8,3-2c0.2,0,0.5,0,0.6,0s0.4,0,0.6,0
		C118.9,88.9,120.1,89.7,121.4,89.7L121.4,89.7z M188.8,89.7v33.9h-7.3V89.7c1.4,0,2.5-0.8,3-2c0.2,0,0.5,0,0.6,0s0.4,0,0.6,0
		C186.3,88.9,187.5,89.7,188.8,89.7L188.8,89.7z M166.3,89.7v33.9H159V89.7c1.4,0,2.5-0.8,3-2c0.2,0,0.5,0,0.6,0c0.2,0,0.4,0,0.6,0
		C163.8,88.9,165,89.7,166.3,89.7L166.3,89.7z M66,81.2h126.1v-1.5H66V81.2L66,81.2z M66,85.8h126.1v-3.1H66V85.8L66,85.8z
		 M109,52.1h-2.9V68l2.9,0.7V52.1L109,52.1z"/>
</g>
<ellipse class="st1" cx="128.8" cy="94.4" rx="105.6" ry="70"/>
<g>
	<path class="st2" d="M10.3,99.1C10.2,99.1,10.2,99,10.3,99.1v-4c0,0,0-0.1,0.1-0.1h0.4c0,0,0.1,0,0.1,0.1l0.1,1.2
		c0,0,0,0.1,0.1,0.1l3.6,0.1l0,0l0.1-4.8l0,0l-3.6-0.1c0,0-0.1,0-0.1,0.1l-0.2,1.2c0,0,0,0.1-0.1,0.1h-0.4c0,0-0.1,0-0.1-0.1
		l0.1-3.9c0,0,0-0.1,0.1-0.1h0.4c0,0,0.1,0,0.1,0.1l0.1,1.3c0,0,0,0.1,0.1,0.1l8.6,0.1c0,0,0.1,0,0.1-0.1l0.2-1.3c0,0,0-0.1,0.1-0.1
		h0.4c0,0,0.1,0,0.1,0.1L20.6,93c0,0,0,0.1-0.1,0.1h-0.4c0,0-0.1,0-0.1-0.1l-0.1-1.2c0,0,0-0.1-0.1-0.1l-4.2-0.1c0,0-0.1,0-0.1,0.1
		l-0.2,4.7c0,0,0,0.1,0.1,0.1l4.2,0.1c0,0,0.1,0,0.1-0.1l0.2-1.2c0,0,0-0.1,0.1-0.1h0.3c0,0,0.1,0,0.1,0.1l-0.1,3.9
		c0,0,0,0.1-0.1,0.1h-0.4c0,0-0.1,0-0.1-0.1l-0.1-1.3c0,0,0-0.1-0.1-0.1l-8.6-0.2c0,0-0.1,0-0.1,0.1L10.6,99c0,0,0,0.1-0.1,0.1
		L10.3,99.1z"/>
	<path class="st2" d="M11.6,82.2C11.6,82.2,11.6,82.1,11.6,82.2h0.5c0,0,0.1,0,0,0.1L12,83.4v0.1l2.4,0.5c0.4,0.1,0.7,0.1,0.9,0.1
		c0.2,0,0.5-0.1,0.6-0.3c0.2-0.2,0.3-0.4,0.4-0.6s0.2-0.6,0.3-1c0-0.1,0-0.2,0-0.2c0-0.1,0-0.2,0-0.4c0-0.1,0-0.2,0-0.4
		c0-0.1,0-0.3,0-0.4v-0.1l-3.9-0.9c0,0-0.1,0-0.1,0.1L12.2,81c0,0,0,0.1-0.1,0l-0.4-0.1c0,0-0.1,0,0-0.1l0.8-3.7c0,0,0-0.1,0.1,0
		l0.4,0.1c0,0,0.1,0,0,0.1l-0.2,1.3v0.1l8.4,1.9h0.1l0.4-1.2c0,0,0-0.1,0.1,0l0.4,0.1c0,0,0.1,0,0,0.1l-0.9,4c0,0,0,0.1-0.1,0
		L21,83.4c0,0-0.1,0-0.1-0.1l0.2-1.4v-0.1l-3.9-0.9c0,0.2,0,0.3,0.1,0.5c0,0.2,0,0.4,0,0.6s0,0.4,0,0.6s0,0.4-0.1,0.6
		c-0.1,0.5-0.2,0.9-0.4,1.2s-0.4,0.6-0.6,0.7c-0.2,0.2-0.5,0.3-0.8,0.3s-0.7,0-1.1-0.1l-2.6-0.6h-0.1l-0.4,1.1c0,0,0,0.1-0.1,0
		l-0.4-0.1c0,0-0.1,0,0-0.1L11.6,82.2z"/>
	<path class="st2" d="M15.3,70.3L15.3,70.3l0.5,0.1c0,0,0,0,0,0.1l-0.4,1.1l0,0c0,0,0,0,0.1,0l6-0.3l-4-4.3c0,0,0,0-0.1,0l0,0
		l-0.5,1c0,0,0,0-0.1,0l-0.4-0.2c0,0,0,0,0-0.1l1.3-2.9c0,0,0,0,0.1,0l0.4,0.2c0,0,0,0,0,0.1l-0.4,1.2c0,0,0,0,0,0.1l4.8,5.2
		c0.5,0.5,0.8,0.9,1.1,1.3c0.2,0.4,0.5,0.7,0.6,1s0.2,0.6,0.2,0.9s-0.1,0.5-0.2,0.7c-0.1,0.2-0.2,0.4-0.4,0.6s-0.3,0.2-0.5,0.3
		c0,0,0,0-0.1,0c0,0,0,0-0.1,0l-0.6-1.1v-0.1l0,0c0.2,0,0.3-0.1,0.4-0.2c0.1-0.1,0.2-0.2,0.3-0.4c0.1-0.3,0.1-0.6,0-0.9
		s-0.3-0.6-0.6-1l0,0c0,0,0,0-0.1,0l-7.7,0.5c0,0,0,0-0.1,0l-0.6,1c0,0,0,0-0.1,0L13.7,74c0,0,0,0,0-0.1L15.3,70.3z"/>
	<path class="st2" d="M21.3,59L21.3,59l2.4-3.2h0.1l0.3,0.2v0.1l-0.6,1v0.1l2.9,2.2l0,0l2.9-3.8l0,0l-3-2.1h-0.1l-0.8,0.9h-0.1
		L25,54.2v-0.1l2.4-3.1h0.1l0.3,0.2v0.1l-0.7,1.1v0.1l6.8,5.2H34l0.9-1H35l0.3,0.2V57l-2.4,3.1h-0.1l-0.3-0.2v-0.1l0.6-1v-0.1
		l-3.3-2.5h-0.1l-2.9,3.7V60l3.3,2.5h0.1l0.8-0.9h0.1l0.3,0.2v0.1L29,65h-0.1l-0.2-0.2v-0.1l0.7-1.1v-0.1l-6.8-5.2h-0.1l-0.9,0.9
		h-0.1L21.3,59z"/>
	<path class="st2" d="M32.2,46.1C32.2,46,32.3,46,32.2,46.1l0.3,0.3v0.1l-0.8,0.9v0.1l4.6,4.8l-0.5-7.7c0,0,0,0,0-0.1l-0.4-0.4h-0.1
		l-1,0.7h-0.1L34,44.5v-0.1l2.8-2.7h0.1l0.2,0.3v0.1l-0.8,1v0.1l5.9,6.2h0.1l1-0.8h0.1l0.2,0.3V49l-2.8,2.7h-0.1l-0.2-0.3v-0.1
		l0.8-0.9v-0.1l-4.7-5l0.6,7.8c0,0,0,0,0,0.1l0.5,0.5h0.1l1-0.7h0.1l0.2,0.3v0.1l-2.8,2.5h-0.1L36,55.6v-0.1l0.8-1v-0.1l-5.9-6.2
		h-0.1l-1,0.8h-0.1l-0.2-0.3v-0.1L32.2,46.1z"/>
	<path class="st2" d="M42,37.7L42,37.7l0.3,0.3v0.1l-1,0.8V39l4,5.4l0.4-7.8c0,0,0,0,0-0.1l-0.4-0.4h-0.1l-1,0.6h-0.1l-0.2-0.3v-0.1
		L47,34h0.1l0.2,0.3v0.1l-1,0.8v0.1l5.1,6.9h0.1l1.1-0.7h0.1l0.2,0.3v0.1l-3.1,2.3h-0.1l-0.2-0.3v-0.1l0.9-0.8v-0.1l-4-5.5l-0.5,7.8
		c0,0,0,0,0,0.1l0.5,0.6h0.1l1-0.6h0.1l0.2,0.3v0.1L44.7,48h-0.1l-0.2-0.3v-0.1l1-0.8v-0.1l-5.1-6.9h-0.1l-1.1,0.6H39l-0.2-0.3V40
		L42,37.7z"/>
	<path class="st2" d="M56.2,37.1L56.2,37.1l0.5-0.4l0,0l0,0l1.1,1.4c0,0,0,0,0.1,0s0.2,0,0.3-0.1c0.1,0,0.3-0.1,0.4-0.1
		c0.2,0,0.3-0.1,0.5-0.2s0.3-0.1,0.4-0.2c0.6-0.3,1.1-0.7,1.4-1.1c0.4-0.4,0.6-0.8,0.8-1.3c0.1-0.5,0.2-1,0.1-1.5s-0.2-1.1-0.5-1.7
		l0-0.1L57,34.1h-0.1l-0.2-0.5v-0.1l4.2-2.3c-0.3-0.5-0.7-0.9-1.2-1.2s-0.9-0.6-1.4-0.7c-0.5-0.2-1-0.2-1.5-0.2s-1,0.2-1.5,0.5
		c-0.1,0-0.2,0.1-0.2,0.2C55,29.9,54.9,30,54.7,30c-0.1,0.1-0.2,0.2-0.4,0.3c-0.1,0.1-0.2,0.2-0.4,0.3v0.1l0.6,1.7l0,0l0,0L54,32.7
		h-0.1l-1.1-2.1v-0.1c0.2-0.2,0.6-0.5,1-0.8s0.9-0.6,1.4-0.9c0.7-0.4,1.4-0.6,2.1-0.7c0.7-0.1,1.4,0,2,0.1c0.6,0.2,1.2,0.5,1.7,1
		s1,1,1.4,1.7c0.4,0.8,0.7,1.5,0.7,2.2s0,1.4-0.3,2c-0.2,0.6-0.6,1.2-1.1,1.7s-1.1,1-1.8,1.3c-0.2,0.1-0.4,0.2-0.6,0.2
		c-0.2,0.1-0.4,0.2-0.7,0.2c-0.2,0.1-0.5,0.2-0.7,0.2c-0.2,0.1-0.4,0.1-0.6,0.2h-0.1L56.2,37.1z"/>
	<path class="st2" d="M65.6,24.1C65.7,24.1,65.7,24.1,65.6,24.1l0.2,0.4v0.1l-1.1,0.6c0,0,0,0,0,0.1l1.5,3.4c0,0,0,0,0.1,0
		c0.3-0.1,0.5-0.3,0.7-0.4s0.4-0.4,0.5-0.6s0.2-0.5,0.3-0.7c0-0.2,0.1-0.5,0.1-0.9l0.1-1.7c0-0.3,0-0.6,0.1-0.8
		c0-0.2,0.1-0.5,0.2-0.6s0.2-0.3,0.3-0.5c0.1-0.1,0.3-0.2,0.5-0.3c0.1,0,0.1,0,0.2-0.1c0.1,0,0.2,0,0.3,0s0.2,0,0.3,0
		c0.1,0,0.2,0,0.2,0.1l0,0c0,0,0,0,0,0.1l-0.3,1.2c0,0,0,0,0,0.1l0,0c-0.1,0-0.2-0.1-0.4-0.1c-0.1,0-0.2,0-0.3,0
		c-0.1,0-0.2,0.2-0.4,0.4c-0.1,0.2-0.2,0.5-0.2,0.8v0.9c0,0.2,0,0.5,0,0.8s-0.1,0.5-0.1,0.7s-0.1,0.5-0.2,0.6
		c-0.1,0.2-0.2,0.3-0.3,0.5c0.2,0,0.4,0,0.6,0s0.4,0,0.6,0.1s0.5,0.2,0.7,0.3s0.5,0.3,0.8,0.5l2.3,1.9H73l1-0.3h0.1l0.2,0.4v0.1
		l-2.2,0.9H72L69.6,30c-0.4-0.3-0.7-0.5-1-0.7S68,29.1,67.8,29c-0.2,0-0.5,0-0.7,0s-0.4,0.1-0.6,0.2c0,0,0,0,0,0.1l1.6,3.8
		c0,0,0,0,0.1,0l1.2-0.4h0.1l0.2,0.4v0.1L66,34.8h-0.1l-0.2-0.4v-0.1l1.1-0.6c0,0,0,0,0-0.1l-3.4-7.9c0,0,0,0-0.1,0l-1.2,0.4H62
		l-0.2-0.4v-0.1L65.6,24.1z"/>
	<path class="st2" d="M76.7,19.6c1.4-0.5,2.7-0.4,3.9,0.2c1.2,0.6,2,1.7,2.5,3.1s0.5,2.7-0.1,4s-1.5,2.2-2.9,2.6
		c-1.4,0.5-2.7,0.4-4-0.2c-1.2-0.6-2.1-1.7-2.6-3.1c-0.5-1.4-0.5-2.8,0.1-4C74.3,20.9,75.3,20.1,76.7,19.6z M76.8,20.3
		c-1.1,0.4-1.7,1.1-2.1,2.1c-0.3,1-0.2,1.9,0.1,3c0.2,0.8,0.7,1.4,1.2,2.1c0.5,0.7,1.2,1.1,1.9,1.3c0.7,0.2,1.4,0.2,2.2,0
		c1.1-0.4,1.7-1.1,2-2.1c0.2-0.9,0.2-1.9-0.2-3c-0.4-1.2-1.1-2.2-2-2.9C78.9,20.1,77.8,19.9,76.8,20.3z"/>
	<path class="st2" d="M83.4,17.7C83.4,17.7,83.4,17.6,83.4,17.7l3.8-1h0.1l0.1,0.4v0.1l-1.1,0.4c0,0-0.1,0,0,0.1l0.9,3.5l0,0
		l4.6-1.2l0,0l-0.9-3.5c0,0,0-0.1-0.1,0l-1.2,0.2h-0.1l-0.1-0.4v-0.1l3.8-1h0.1l0.1,0.4v0.1l-1.2,0.4c0,0-0.1,0,0,0.1l2.1,8.3
		c0,0,0,0.1,0.1,0l1.3-0.2h0.1l0.1,0.4v0.1l-3.8,1H92l-0.1-0.4v-0.1l1.1-0.4c0,0,0.1,0,0-0.1l-1-4.1c0,0,0-0.1-0.1,0l-4.6,1.1
		c0,0-0.1,0,0,0.1l1,4.1c0,0,0,0.1,0.1,0l1.2-0.2h0.1l0.1,0.4v0.1l-3.8,1h-0.1l-0.1-0.4v-0.1l1.2-0.4c0,0,0.1,0,0-0.1L84.9,18
		c0,0,0-0.1-0.1,0l-1.2,0.2h-0.1L83.4,17.7z"/>
	<path class="st2" d="M100.2,13.7c1.5-0.2,2.8,0,3.8,0.9c1.1,0.8,1.7,1.9,2,3.4c0.2,1.5,0,2.8-0.7,3.9c-0.7,1.2-1.9,1.9-3.3,2.1
		c-1.5,0.2-2.8,0-3.9-0.8s-1.8-1.9-2-3.4s0-2.8,0.8-3.9C97.6,14.6,98.7,13.9,100.2,13.7z M100.2,14.4c-1.1,0.2-1.9,0.8-2.4,1.7
		c-0.5,0.9-0.5,1.9-0.4,3c0.1,0.8,0.4,1.5,0.8,2.2c0.5,0.7,1,1.2,1.7,1.6s1.4,0.5,2.2,0.3c1.1-0.2,1.9-0.8,2.3-1.8
		c0.4-0.9,0.5-1.9,0.3-3c-0.2-1.3-0.7-2.4-1.5-3.1C102.3,14.5,101.3,14.2,100.2,14.4z"/>
	<path class="st2" d="M110.1,12.5L110.1,12.5l3.9,7.6l2.5-8.1l0,0l2.9-0.2c0,0,0.1,0,0.1,0.1v0.4c0,0,0,0.1-0.1,0.1l-1.2,0.2
		c0,0-0.1,0-0.1,0.1l0.8,8.5c0,0,0,0.1,0.1,0.1h1.3c0,0,0.1,0,0.1,0.1v0.4c0,0,0,0.1-0.1,0.1l-4.2,0.4c0,0-0.1,0-0.1-0.1v-0.4
		c0,0,0-0.1,0.1-0.1l1.4-0.2c0,0,0.1,0,0.1-0.1l-0.7-8.2l0,0l-2.9,9.4c0,0,0,0-0.1,0h-0.2h-0.1l-4.5-8.7l0,0l0.7,8.2
		c0,0,0,0.1,0.1,0.1h1.2c0,0,0.1,0,0.1,0.1v0.4c0,0,0,0.1-0.1,0.1l-3.4,0.3c0,0-0.1,0-0.1-0.1v-0.4c0,0,0-0.1,0.1-0.1l1.3-0.2
		c0,0,0.1,0,0.1-0.1l-0.8-8.5c0,0,0-0.1-0.1-0.1h-1.3c0,0-0.1,0-0.1-0.1v-0.4c0,0,0-0.1,0.1-0.1L110.1,12.5z"/>
	<path class="st2" d="M125.4,11.5C125.4,11.5,125.4,11.6,125.4,11.5l0.1,0.5c0,0,0,0.1-0.1,0.1l-1.2,0.1c0,0-0.1,0-0.1,0.1l0.1,6.7
		l4.8-6.1c0,0,0,0,0-0.1v-0.5c0,0,0-0.1-0.1-0.1l-1.2-0.1c0,0-0.1,0-0.1-0.1v-0.4c0,0,0-0.1,0.1-0.1h3.9c0,0,0.1,0,0.1,0.1V12
		c0,0,0,0.1-0.1,0.1l-1.3,0.1c0,0-0.1,0-0.1,0.1l0.1,8.6c0,0,0,0.1,0.1,0.1l1.3,0.1c0,0,0.1,0,0.1,0.1v0.2c0,0,0,0.1-0.1,0.1h-3.9
		c0,0-0.1,0-0.1-0.1V21c0,0,0-0.1,0.1-0.1l1.2-0.1c0,0,0.1,0,0.1-0.1l-0.1-6.9l-4.9,6.1c0,0,0,0,0,0.1v0.7c0,0,0,0.1,0.1,0.1
		l1.2,0.1c0,0,0.1,0,0.1,0.1v0.4c0,0,0,0.1-0.1,0.1h-3.9c0,0-0.1,0-0.1-0.1V21c0,0,0-0.1,0.1-0.1l1.3-0.1c0,0,0.1,0,0.1-0.1
		l-0.1-8.5c0,0,0-0.1-0.1-0.1l-1.3-0.1c0,0-0.1,0-0.1-0.1v-0.4c0,0,0-0.1,0.1-0.1L125.4,11.5z"/>
	<path class="st2" d="M137.6,11.7C137.7,11.7,137.7,11.8,137.6,11.7l0.1,0.5c0,0,0,0.1-0.1,0.1h-1.3c0,0-0.1,0-0.1,0.1l-0.2,3.7v0.1
		c0.3,0,0.6,0,0.8-0.1c0.2,0,0.5-0.2,0.7-0.3c0.2-0.1,0.4-0.3,0.5-0.5c0.2-0.2,0.3-0.5,0.5-0.7l0.8-1.4c0.2-0.2,0.3-0.5,0.5-0.7
		s0.3-0.3,0.5-0.5c0.2-0.1,0.3-0.2,0.5-0.2s0.3-0.1,0.5,0c0.1,0,0.2,0,0.2,0c0.1,0,0.2,0,0.3,0.1c0.1,0,0.2,0.1,0.2,0.1
		c0.1,0,0.2,0.1,0.2,0.2c0,0,0,0,0,0.1c0,0,0,0,0,0.1l-0.8,1l0,0l0,0c-0.1-0.1-0.2-0.2-0.3-0.2c-0.1-0.1-0.2-0.1-0.3-0.1
		c-0.2,0-0.3,0-0.5,0.2c-0.2,0.1-0.3,0.3-0.5,0.6l-0.4,0.8c-0.1,0.2-0.2,0.5-0.4,0.7s-0.3,0.4-0.5,0.6s-0.3,0.3-0.5,0.5
		c-0.2,0.1-0.3,0.2-0.5,0.2c0.2,0.1,0.4,0.2,0.6,0.2c0.2,0.1,0.4,0.2,0.5,0.4s0.3,0.4,0.5,0.6c0.1,0.2,0.3,0.5,0.5,0.8l1.2,2.7
		c0,0,0,0,0.1,0.1l1.1,0.2c0,0,0.1,0,0.1,0.1v0.4c0,0,0,0.1-0.1,0.1l-2.3-0.1c0,0-0.1,0-0.1-0.1l-1.2-2.9c-0.2-0.5-0.4-0.8-0.6-1.1
		s-0.4-0.5-0.6-0.6c-0.2-0.2-0.4-0.2-0.6-0.3c-0.2,0-0.4-0.1-0.6-0.1c0,0-0.1,0-0.1,0.1l-0.2,4.1c0,0,0,0.1,0.1,0.1l1.2,0.2
		c0,0,0.1,0,0.1,0.1v0.4c0,0,0,0.1-0.1,0.1l-4-0.2c0,0-0.1,0-0.1-0.1v-0.4c0,0,0-0.1,0.1-0.1h1.3c0,0,0.1,0,0.1-0.1l0.5-8.6
		c0,0,0-0.1-0.1-0.1l-1.2-0.2c0,0-0.1,0-0.1-0.1v-0.4c0,0,0-0.1,0.1-0.1L137.6,11.7z"/>
	<path class="st2" d="M148.2,12.6C148.3,12.6,148.3,12.6,148.2,12.6v0.5c0,0,0,0.1-0.1,0.1h-1.2c0,0-0.1,0-0.1,0.1l-0.8,6.6l5.6-5.4
		c0,0,0,0,0-0.1l0.1-0.5c0,0,0-0.1-0.1-0.1l-1.2-0.2c0,0-0.1,0-0.1-0.1v-0.4c0,0,0-0.1,0.1-0.1l3.9,0.5c0,0,0.1,0,0.1,0.1V14
		c0,0,0,0.1-0.1,0.1H153c0,0-0.1,0-0.1,0.1l-1,8.5c0,0,0,0.1,0.1,0.1l1.2,0.2c0,0,0.1,0,0.1,0.1v0.4c0,0,0,0.1-0.1,0.1l-3.9-0.5
		c0,0-0.1,0-0.1-0.1v-0.4c0,0,0-0.1,0.1-0.1h1.2c0,0,0.1,0,0.1-0.1l0.8-6.8l-5.6,5.4c0,0,0,0,0,0.1l-0.1,0.7c0,0,0,0.1,0.1,0.1
		l1.2,0.2c0,0,0.1,0,0.1,0.1v0.4c0,0,0,0.1-0.1,0.1l-3.9-0.5c0,0-0.1,0-0.1-0.1v-0.4c0,0,0-0.1,0.1-0.1h1.3c0,0,0.1,0,0.1-0.1l1-8.5
		c0,0,0-0.1-0.1-0.1l-1.2-0.3c0,0-0.1,0-0.1-0.1v-0.4c0,0,0-0.1,0.1-0.1L148.2,12.6z"/>
	<path class="st2" d="M164.3,15.3C164.3,15.3,164.4,15.3,164.3,15.3v0.5c0,0,0,0.1-0.1,0l-1.2-0.1h-0.1l-1.4,6.5l6.1-4.8
		c0,0,0,0,0-0.1l0.1-0.5c0,0,0-0.1-0.1-0.1l-1.1-0.4c0,0-0.1,0,0-0.1l0.1-0.4c0,0,0-0.1,0.1,0l3.8,0.9c0,0,0.1,0,0,0.1l-0.1,0.4
		c0,0,0,0.1-0.1,0l-1.2-0.2H169l-1.9,8.4v0.1l1.2,0.4c0,0,0.1,0,0,0.1l-0.1,0.4c0,0,0,0.1-0.1,0l-3.8-0.9c0,0-0.1,0,0-0.1l0.1-0.4
		c0,0,0-0.1,0.1-0.1l1.2,0.2h0.1l1.5-6.7l-6.2,4.8c0,0,0,0,0,0.1l-0.2,0.7v0.1l1.2,0.4c0,0,0.1,0,0,0.1L162,25c0,0,0,0.1-0.1,0
		l-3.8-0.9c0,0-0.1,0,0-0.1l0.1-0.4c0,0,0-0.1,0.1,0l1.2,0.2h0.1l1.9-8.4v-0.1l-1.2-0.4c0,0-0.1,0,0-0.1v-0.4c0,0,0-0.1,0.1,0
		L164.3,15.3z"/>
	<path class="st2" d="M180.1,19.6L180.1,19.6l-0.1,0.5c0,0,0,0-0.1,0l-1.2-0.2l0,0c0,0,0,0,0,0.1l0.9,6l3.9-4.3c0,0,0,0,0-0.1l0,0
		l-1-0.5c0,0,0,0,0-0.1l0.1-0.4c0,0,0,0,0.1,0l3.1,1c0,0,0,0,0,0.1l-0.1,0.4c0,0,0,0-0.1,0l-1.2-0.3c0,0,0,0-0.1,0l-4.7,5.3
		c-0.5,0.5-0.8,0.9-1.2,1.2s-0.7,0.5-1,0.7c-0.3,0.1-0.6,0.2-0.8,0.2s-0.5,0-0.7-0.1s-0.5-0.2-0.6-0.3c-0.2-0.1-0.3-0.3-0.4-0.5
		c0,0,0,0,0-0.1s0,0,0-0.1l1-0.7h0.1l0,0c0.1,0.2,0.1,0.3,0.2,0.4c0.1,0.1,0.2,0.2,0.4,0.2c0.3,0.1,0.6,0.1,0.9,0
		c0.3-0.1,0.6-0.4,1-0.7l0,0c0,0,0,0,0-0.1l-1.2-7.8l0,0l-1.1-0.5c0,0,0,0,0-0.1l0.1-0.4c0,0,0,0,0.1,0L180.1,19.6z"/>
	<path class="st2" d="M196.2,25.9C196.3,25.9,196.3,26,196.2,25.9l-0.1,0.5c0,0,0,0-0.1,0l-1.2-0.4h-0.1l-3.4,7.9V34l1.1,0.6
		c0,0,0,0,0,0.1l-0.2,0.4c0,0,0,0-0.1,0l-3.6-1.6c0,0,0,0,0-0.1l0.2-0.4c0,0,0-0.1,0.1,0l1.2,0.4h0.1l3.4-7.8v-0.1l-4.1-1.8l0,0l0,0
		l-3.4,7.9v0.1l1,0.6c0,0,0,0,0,0.1l-0.2,0.4c0,0,0,0-0.1,0l-3.6-1.6c0,0,0,0,0-0.1l0.2-0.4c0,0,0-0.1,0.1,0l1.2,0.4h0.1l3.4-7.9
		v-0.1l-1.1-0.6c0,0,0,0,0-0.1l0.2-0.4c0,0,0,0,0.1,0L196.2,25.9z"/>
	<path class="st2" d="M201.5,28.7c0.8,0.5,1.4,0.9,1.8,1.2c0.9,1,1,2,0.4,3.1c-0.4,0.8-1.1,1.2-2.1,1.3c-0.8,0.1-1.7,0-2.5-0.5
		l-1.2-0.9l-1.8,3.4v0.1l1.2,0.8v0.1l-0.2,0.3c0,0,0,0-0.1,0l-3.6-2c0,0,0,0,0-0.1l0.2-0.3c0,0,0,0,0.1,0l1.2,0.5h0.1l4.1-7.5v-0.1
		l-1-0.7c0,0,0,0,0-0.1l0.2-0.3c0,0,0,0,0.1,0L201.5,28.7z M200.3,28.9C200.3,28.8,200.2,28.9,200.3,28.9l-2.1,3.8v0.1l0.7,0.4
		c1.5,0.8,2.7,0.6,3.4-0.8c0.4-0.7,0.4-1.3,0-1.8c-0.3-0.5-0.8-0.9-1.5-1.3L200.3,28.9z"/>
	<path class="st2" d="M206.1,43.2L206.1,43.2l0.2-0.4h0.1l1,0.5c0,0,0,0,0.1,0l0,0l0.7-3.1c0,0,0,0,0-0.1l-2.7-1.8c0,0,0,0-0.1,0
		l-2.6,1.8v0.1l0.9,0.7V41l-0.2,0.3c0,0,0,0-0.1,0l-2.7-1.8c0,0,0,0,0-0.1l0.2-0.3h0.1l1.1,0.6c0,0,0,0,0.1,0l8.4-5.8c0,0,0,0,0.1,0
		l0.3,0.2c0,0,0,0,0,0.1l-2.4,9.9c0,0,0,0,0,0.1l0.9,0.7c0,0,0,0,0,0.1l-0.2,0.3h-0.1L206.1,43.2z M209.4,35.7L209.4,35.7
		c-0.1-0.1-0.1-0.1-0.1-0.1l-3.1,2.2c0,0-0.1,0.1,0,0.1l2.2,1.5c0.1,0,0.1,0,0.1,0L209.4,35.7z"/>
	<path class="st2" d="M219.1,40.4c1,0.8,1.5,1.4,1.7,2c0.2,0.4,0.2,0.7,0.2,1c0,0.4-0.2,0.8-0.5,1.1c-0.7,0.8-1.6,1-2.8,0.5
		c0.5,0.5,0.7,1.2,0.7,1.8c0.1,0.7-0.1,1.3-0.5,1.8c-0.3,0.4-0.8,0.7-1.3,0.9c-1,0.3-2.2-0.1-3.6-1.2l-2.9-2.4v-0.1l0.2-0.3h0.1
		l1,0.7h0.1l5.5-6.6v-0.1l-0.9-0.9v-0.1l0.2-0.3h0.1L219.1,40.4z M212.5,47C212.5,47.1,212.5,47.1,212.5,47l0.7,0.7
		c1.4,1.1,2.5,1.2,3.4,0.2c1-1.2,0.7-2.5-0.8-3.7l-0.5-0.4h-0.1L212.5,47z M215.7,43.2C215.6,43.2,215.6,43.3,215.7,43.2l0.4,0.4
		c0.6,0.5,1.2,0.8,1.7,0.9c0.6,0.1,1.2-0.1,1.6-0.7c0.4-0.5,0.5-0.9,0.4-1.4s-0.4-0.8-0.8-1.2l-0.4-0.4l-0.5-0.4H218L215.7,43.2z"/>
	<path class="st2" d="M230.7,51.5C230.7,51.6,230.7,51.6,230.7,51.5l-0.3,0.3h-0.1l-1-0.8h-0.1l-6.2,5.9V57l0.8,1v0.1l-0.3,0.2h-0.1
		l-2.7-2.8v-0.1l0.3-0.2h0.1L222,56h0.1l6.2-5.9V50l-1.6-1.7c0,0,0,0-0.1,0c-0.5,0.4-1,0.9-1.5,1.3c-0.5,0.4-1,0.8-1.5,1.2
		s-1,0.7-1.5,1s-1,0.6-1.4,0.8c-0.7,0.3-1.3,0.5-1.9,0.4c-0.5,0-1-0.2-1.3-0.6c-0.1-0.1-0.1-0.2-0.2-0.2c-0.1-0.1-0.1-0.2-0.2-0.3
		c0-0.1-0.1-0.2-0.1-0.4c0-0.1,0-0.3,0-0.5c0,0,0,0,0-0.1c0,0,0,0,0.1,0l1.3-0.2h0.1c0,0,0,0,0,0.1c0,0.2,0,0.4,0,0.5
		s0.1,0.2,0.2,0.3c0.1,0.1,0.1,0.1,0.2,0.2c0.1,0,0.2,0.1,0.3,0.1s0.2,0,0.4,0c0.1,0,0.3,0,0.5-0.1s0.6-0.2,0.9-0.4
		c0.3-0.2,0.7-0.4,1-0.6c0.4-0.2,0.7-0.5,1.1-0.7c0.4-0.2,0.7-0.5,1.1-0.8c0.4-0.3,0.7-0.6,1.1-0.9c0.3-0.3,0.7-0.6,1-0.9l0,0
		c0,0,0,0,0-0.1l-0.9-1.1v-0.1l0.3-0.2h0.1L230.7,51.5z"/>
	<path class="st2" d="M236.5,59.4C236.6,59.4,236.6,59.5,236.5,59.4l-1.9,1.4h-0.1l-0.3-0.5v-0.1l1.2-1.2c0,0,0,0,0-0.1l-2-2.8h-0.1
		l-3,2.2v0.1l1.2,1.7h0.1l1.1-0.6c0,0,0,0,0.1,0l0.2,0.3v0.1l-2.6,1.9h-0.1l-0.2-0.3v-0.1l1-0.9c0,0,0,0,0-0.1l-1.2-1.7h-0.1
		l-3.3,2.4v0.1l2.1,2.9h0.1l1.5-0.7c0,0,0,0,0.1,0l0.3,0.5V64l-1.9,1.4h-0.1l-4.4-6v-0.1l0.3-0.2h0.1l0.8,1h0.1l7-5.1c0,0,0,0,0-0.1
		l-0.6-1.1v-0.1l0.3-0.2h0.1L236.5,59.4z"/>
	<path class="st2" d="M238.3,62.1L238.3,62.1l1.8,3.5v0.1l-0.3,0.2h-0.1l-0.7-1c0,0,0,0-0.1,0l-3.2,1.6l0,0l2.2,4.3l0,0l3.2-1.6
		c0,0,0,0,0-0.1l-0.4-1.1v-0.1l0.3-0.2h0.1l1.7,3.5v0.1l-0.3,0.2h-0.1l-0.7-1.1c0,0,0,0-0.1,0l-7.7,3.8c0,0,0,0,0,0.1l0.5,1.2v0.1
		l-0.3,0.2H234l-1.7-3.5v-0.1l0.3-0.2h0.1l0.6,1c0,0,0,0,0.1,0l3.7-1.9c0,0,0,0,0-0.1l-2.1-4.2c0,0,0,0-0.1,0l-3.7,1.9
		c0,0,0,0,0,0.1l0.4,1.1V70l-0.3,0.2h-0.1l-1.7-3.5v-0.1l0.3-0.2h0.1l0.7,1.1c0,0,0,0,0.1,0l7.7-3.8c0,0,0,0,0-0.1l-0.5-1.2v-0.1
		L238.3,62.1z"/>
	<path class="st2" d="M245.1,78.2C245.1,78.3,245.1,78.3,245.1,78.2l-0.4,0.2h-0.1l-0.4-1.1c0,0,0-0.1-0.1,0l-6.5,1.7l7.1,3.3
		c0,0,0,0,0.1,0l0.5-0.1c0,0,0.1,0,0-0.1l-0.2-1.2v-0.1l0.4-0.1h0.1l1,3.8v0.1l-0.4,0.1h-0.1l-0.4-1.2c0,0,0-0.1-0.1,0l-8.3,2.1
		c0,0-0.1,0,0,0.1l0.2,1.2V87l-0.4,0.1H237l-1-3.8v-0.1l0.4-0.1h0.1l0.4,1.1c0,0,0,0.1,0.1,0l6.6-1.7l-7.1-3.3c0,0,0,0-0.1,0
		l-0.7,0.2c0,0-0.1,0,0,0.1l0.2,1.2v0.1l-0.4,0.1h-0.1l-1-3.8V77l0.4-0.1h0.1l0.4,1.2c0,0,0,0.1,0.1,0l8.3-2.1c0,0,0.1,0,0-0.1
		l-0.2-1.2v-0.1l0.4-0.1h0.1L245.1,78.2z"/>
	<path class="st2" d="M247.4,96.4C247.4,96.4,247.4,96.5,247.4,96.4l-0.5,0.1c0,0-0.1,0-0.1-0.1l-0.2-1.3c0,0,0-0.1-0.1-0.1
		l-8.6,0.3c0,0-0.1,0-0.1,0.1l-0.1,1.3c0,0,0,0.1-0.1,0.1h-0.4c0,0-0.1,0-0.1-0.1l-0.2-4.1c0,0,0-0.1,0.1-0.1h0.4c0,0,0.1,0,0.1,0.1
		l0.2,1.4c0,0,0,0.1,0.1,0.1l3.9-0.2l0,0l0,0v-0.2c0-0.2,0-0.5-0.1-0.7c0-0.2-0.2-0.4-0.3-0.6c-0.2-0.2-0.3-0.4-0.6-0.5
		c-0.2-0.2-0.6-0.4-1-0.5l-2.7-1.2c0,0,0,0-0.1-0.1l-0.1-2.4c0,0,0-0.1,0.1-0.1h0.4c0,0,0.1,0,0.1,0.1l0.2,1.1v0.1l2.5,1.2
		c0.2,0.1,0.4,0.2,0.6,0.3c0.2,0.1,0.3,0.2,0.5,0.3c0.1,0.1,0.3,0.2,0.4,0.4c0.1,0.2,0.2,0.3,0.3,0.5c0-0.4,0.2-0.7,0.3-1.1
		c0.1-0.3,0.3-0.6,0.5-0.8c0.2-0.2,0.5-0.4,0.7-0.5s0.6-0.2,0.9-0.2c0.4,0,0.7,0,1.1,0.2c0.3,0.2,0.7,0.4,0.9,0.7
		c0.2,0.3,0.4,0.7,0.5,1.2s0.2,1,0.2,1.7L247.4,96.4z M244.6,90.5c-0.4,0-0.7,0.1-1,0.3c-0.2,0.2-0.5,0.4-0.6,0.6
		c-0.2,0.2-0.3,0.5-0.3,0.9c-0.1,0.3-0.1,0.6-0.1,1V94c0,0,0,0,0.1,0l3.9-0.2c0,0,0.1,0,0.1-0.1v-0.5c0-0.4,0-0.7-0.1-1.1
		c0-0.3-0.2-0.6-0.3-0.9c-0.2-0.2-0.3-0.5-0.6-0.6C245.3,90.5,245,90.4,244.6,90.5z"/>
</g>
<ellipse class="st3" cx="128.8" cy="94.4" rx="126.7" ry="92.3"/>
<ellipse class="st4" cx="128.8" cy="94.4" rx="121.7" ry="86.1"/>
<g>
	<path class="st2" d="M42.8,138.9c0.7,0.6,1.2,1.2,1.4,1.6c0.7,1.1,0.5,2.2-0.3,3.2c-0.6,0.7-1.3,1-2.3,0.9c-0.8-0.1-1.6-0.4-2.3-1
		l-1-1.2l-2.5,2.9v0.1l1,1v0.1l-0.2,0.3h-0.1l-3.1-2.7V144l0.2-0.3h0.1l1,0.7h0.1l5.6-6.5v-0.1l-0.9-0.9v-0.1l0.2-0.3h0.1
		L42.8,138.9z M41.6,138.8C41.6,138.7,41.5,138.7,41.6,138.8l-2.9,3.2v0.1l0.7,0.6c1.3,1.2,2.5,1.2,3.5,0c0.5-0.6,0.6-1.2,0.5-1.8
		c-0.2-0.5-0.5-1.1-1.2-1.6L41.6,138.8z"/>
	<path class="st2" d="M49.4,144.2v0.1l-0.2,0.3h-0.1l-1.2-0.7h-0.1l-1.9,2.7v0.1l0.4,0.3c0.3,0.2,0.6,0.4,0.8,0.6
		c0.2,0.2,0.5,0.4,0.7,0.6c0.2,0.2,0.4,0.5,0.5,0.7s0.2,0.5,0.3,0.8c0.1,0.4,0.1,0.7,0,1.1c-0.1,0.4-0.2,0.7-0.4,1
		c-0.1,0.1-0.2,0.2-0.3,0.3s-0.2,0.2-0.3,0.3s-0.2,0.2-0.4,0.3s-0.2,0.2-0.4,0.2c-0.2,0.1-0.5,0.1-0.7,0.2c-0.2,0-0.5,0-0.9-0.1
		s-0.7-0.2-1-0.4c-0.4-0.2-0.7-0.4-1.2-0.7l-2.8-1.9c0,0,0,0,0-0.1l0.2-0.3h0.1l1.1,0.6h0.1l4.9-7v-0.1l-1-0.8c0,0,0,0,0-0.1
		l0.2-0.3c0,0,0,0,0.1,0L49.4,144.2z M42.9,151.1l0.5,0.4c0.4,0.2,0.7,0.5,1.1,0.6c0.3,0.1,0.7,0.2,1,0.1s0.5-0.1,0.8-0.3
		c0.2-0.2,0.5-0.4,0.7-0.7s0.4-0.7,0.4-1s0-0.7-0.1-1s-0.3-0.6-0.5-0.9c-0.2-0.3-0.5-0.5-0.9-0.8l-0.3-0.2h-0.1l-2.5,3.6
		C42.9,151,42.9,151,42.9,151.1z M55.7,148.5C55.7,148.6,55.7,148.6,55.7,148.5l-0.2,0.4c0,0,0,0-0.1,0l-1.1-0.6h-0.1l-4.9,7v0.1
		l1,0.8v0.1l-0.2,0.3c0,0,0,0-0.1,0l-3.1-2.2v-0.1l0.2-0.3h0.1l1,0.5h0.1l4.9-7v-0.1l-0.8-0.7v-0.1l0.2-0.3h0.1L55.7,148.5z"/>
	<path class="st2" d="M56.1,148.8L56.1,148.8l3.5,1.8c0,0,0,0,0,0.1l-0.2,0.3c0,0,0,0-0.1,0l-1.1-0.5h-0.1l-1.7,3.1l0,0l4.2,2.3l0,0
		l1.7-3.1v-0.1l-1-0.7c0,0,0,0,0-0.1l0.2-0.3c0,0,0,0,0.1,0l3.4,1.9c0,0,0,0,0,0.1l-0.2,0.3c0,0,0,0-0.1,0l-1.2-0.5h-0.1l-4.1,7.5
		v0.1l1.1,0.7c0,0,0,0,0,0.1l-0.2,0.3c0,0,0,0-0.1,0l-3.4-1.9c0,0,0,0,0-0.1l0.2-0.3c0,0,0,0,0.1,0l1.1,0.5h0.1l2-3.6v-0.1l-4.1-2.2
		H56l-2,3.6v0.1l1,0.7c0,0,0,0,0,0.1l-0.2,0.3c0,0,0,0-0.1,0l-3.4-1.9c0,0,0,0,0-0.1l0.2-0.3c0,0,0,0,0.1,0l1.2,0.5h0.1l4-7.6v-0.1
		l-1-0.7c0,0,0,0,0-0.1L56.1,148.8z"/>
	<path class="st2" d="M69.4,155.5C69.4,155.5,69.4,155.6,69.4,155.5l-0.1,0.5c0,0,0,0-0.1,0l-1.2-0.4h-0.1l-1.5,3.4v0.1
		c0.3,0.1,0.6,0.2,0.8,0.2c0.2,0,0.5,0,0.7,0s0.5-0.2,0.7-0.3s0.5-0.3,0.7-0.5l1.3-1.1c0.2-0.2,0.5-0.4,0.7-0.5s0.4-0.2,0.6-0.2
		s0.4-0.1,0.5,0s0.3,0,0.5,0.1c0,0,0.1,0.1,0.2,0.1s0.2,0.1,0.2,0.2c0.1,0.1,0.1,0.1,0.2,0.2c0,0.1,0.1,0.2,0.1,0.2s0,0,0,0.1l0,0
		l-1.1,0.6c0,0,0,0-0.1,0l0,0c0-0.1-0.1-0.2-0.2-0.3s-0.2-0.2-0.2-0.2c-0.1,0-0.3-0.1-0.5,0c-0.2,0-0.4,0.2-0.7,0.4l-0.7,0.6
		c-0.2,0.2-0.4,0.3-0.6,0.5s-0.4,0.3-0.6,0.4c-0.2,0.1-0.4,0.2-0.6,0.2c-0.2,0.1-0.4,0.1-0.5,0.1c0.2,0.1,0.3,0.3,0.5,0.5
		c0.1,0.2,0.2,0.3,0.3,0.5c0.1,0.2,0.2,0.5,0.2,0.7s0.1,0.6,0.1,0.9l0.2,3c0,0,0,0.1,0.1,0.1l1,0.5c0,0,0.1,0,0,0.1l-0.2,0.4
		c0,0,0,0-0.1,0l-2.2-1c0,0,0,0-0.1-0.1l-0.1-3.2c0-0.5-0.1-0.9-0.2-1.2s-0.2-0.6-0.4-0.8c-0.1-0.2-0.3-0.4-0.5-0.5
		s-0.4-0.2-0.5-0.3h-0.1l-1.7,3.8v0.1l1.1,0.6c0,0,0,0,0,0.1l-0.2,0.4c0,0,0,0-0.1,0l-3.7-1.6c0,0,0,0,0-0.1l0.2-0.4
		c0,0,0-0.1,0.1,0l1.2,0.4h0.1l3.5-7.8v-0.1l-1.1-0.6c0,0,0,0,0-0.1l0.2-0.4c0,0,0,0,0.1,0L69.4,155.5z"/>
	<path class="st2" d="M79.2,159.2c1.4,0.5,2.4,1.4,2.9,2.6c0.5,1.2,0.5,2.5,0,4c-0.5,1.4-1.3,2.4-2.5,3.1c-1.2,0.7-2.5,0.7-3.9,0.2
		s-2.4-1.4-3-2.6c-0.6-1.2-0.6-2.6-0.1-4s1.4-2.4,2.6-3.1C76.5,158.8,77.8,158.7,79.2,159.2z M78.8,159.8c-1-0.4-2-0.2-2.9,0.4
		c-0.8,0.5-1.4,1.4-1.8,2.5c-0.3,0.8-0.4,1.6-0.4,2.3c0,0.8,0.2,1.6,0.7,2.2c0.4,0.7,1,1.1,1.7,1.4c1.1,0.4,2,0.2,2.9-0.4
		c0.7-0.6,1.3-1.4,1.7-2.5c0.5-1.2,0.5-2.4,0.2-3.5C80.6,160.9,79.9,160.1,78.8,159.8z"/>
	<path class="st2" d="M87.3,162L87.3,162l1.2,8.4l5.1-6.8c0,0,0,0,0.1,0l2.9,0.7c0,0,0.1,0,0,0.1l-0.1,0.4c0,0,0,0.1-0.1,0l-1.2-0.2
		h-0.1l-2.2,8.3v0.1l1.3,0.5c0,0,0.1,0,0,0.1l-0.1,0.4c0,0,0,0.1-0.1,0l-4.1-1c0,0-0.1,0,0-0.1l0.1-0.4c0,0,0-0.1,0.1,0l1.4,0.2h0.1
		l2.1-8l0,0l-5.8,7.9c0,0,0,0-0.1,0h-0.2c0,0,0,0-0.1,0l-1.3-9.6l0,0l-2,7.9v0.1l1.2,0.4c0,0,0.1,0,0,0.1l-0.1,0.4c0,0,0,0.1-0.1,0
		l-3.3-0.9c0,0-0.1,0,0-0.1l0.1-0.4c0,0,0-0.1,0.1,0l1.3,0.2h0.1l2.2-8.3v-0.1l-1.2-0.5c0,0-0.1,0,0-0.1l0.1-0.4c0,0,0-0.1,0.1,0
		L87.3,162z"/>
	<path class="st2" d="M100.4,165.2C100.4,165.1,100.5,165.1,100.4,165.2l3.9,0.5c0,0,0.1,0,0,0.1v0.4c0,0,0,0.1-0.1,0H103h-0.1
		l-0.5,3.6l0,0l4.7,0.7l0,0l0.5-3.6v-0.1l-1.2-0.3c0,0-0.1,0,0-0.1V166c0,0,0-0.1,0.1,0l3.8,0.6c0,0,0.1,0,0,0.1v0.4
		c0,0,0,0.1-0.1,0l-1.3-0.1h-0.1l-1.2,8.5v0.1l1.2,0.3c0,0,0.1,0,0,0.1v0.4c0,0,0,0.1-0.1,0l-3.8-0.6c0,0-0.1,0,0-0.1v-0.4
		c0,0,0-0.1,0.1-0.1h1.2h0.1l0.6-4.1V171l-4.6-0.7h-0.1l-0.6,4.1v0.1l1.2,0.3c0,0,0.1,0,0,0.1v0.4c0,0,0,0.1-0.1,0l-3.8-0.6
		c0,0-0.1,0,0-0.1v-0.4c0,0,0-0.1,0.1-0.1l1.3,0.1h0.1l1.2-8.5v-0.1L100.4,165.2C100.4,165.3,100.3,165.3,100.4,165.2L100.4,165.2z"
		/>
	<path class="st2" d="M118.5,167.3L118.5,167.3l-0.1,2.4c0,0,0,0.1-0.1,0.1h-0.5c0,0-0.1,0-0.1-0.1l-0.2-1.7c0,0,0,0-0.1-0.1
		l-3.4-0.3c0,0-0.1,0-0.1,0.1l-0.3,3.7c0,0,0,0.1,0.1,0.1l2,0.2h0.1l0.2-1.2c0,0,0,0,0.1,0h0.4c0,0,0.1,0,0.1,0.1l-0.3,3.2
		c0,0,0,0.1-0.1,0.1h-0.4c0,0-0.1,0-0.1-0.1v-1.3c0,0,0-0.1-0.1-0.1l-2-0.2c0,0-0.1,0-0.1,0.1l-0.3,4c0,0,0,0.1,0.1,0.1l3.6,0.3h0.1
		l0.5-1.6c0,0,0,0,0.1,0h0.5c0,0,0.1,0,0.1,0.1l-0.2,2.3c0,0,0,0.1-0.1,0.1l-7.3-0.6c0,0-0.1,0-0.1-0.1v-0.4c0,0,0-0.1,0.1-0.1h1.3
		c0,0,0.1,0,0.1-0.1l0.7-8.6c0,0,0,0-0.1,0l-1.2-0.2c0,0-0.1,0-0.1-0.1V167c0,0,0-0.1,0.1-0.1L118.5,167.3z"/>
	<path class="st2" d="M127.5,176.9L127.5,176.9l1.7,0.1l0,0l0,0l-0.1,3.4c0,0,0,0.1-0.1,0.1h-0.5l0,0l0,0l-0.4-2.7l0,0l0,0l-7.5-0.2
		l0,0l0,0l-0.6,2.7l0,0l0,0h-0.5c0,0-0.1,0-0.1-0.1l0.1-3.4l0,0l0,0h1.1c0,0,0.1,0,0.1-0.1c0.5-0.6,0.9-1.2,1.2-1.9s0.6-1.4,0.8-2.2
		c0.2-0.7,0.4-1.5,0.5-2.2s0.2-1.4,0.2-2.2c0,0,0-0.1-0.1-0.1l-1.5-0.2c0,0-0.1,0-0.1-0.1v-0.4c0,0,0-0.1,0.1-0.1l7.4,0.2
		c0,0,0.1,0,0.1,0.1v0.4c0,0,0,0.1-0.1,0.1l-1.3,0.1c0,0-0.1,0-0.1,0.1L127.5,176.9z M126.4,168.3
		C126.4,168.3,126.4,168.2,126.4,168.3l-2.3-0.1c0,0-0.1,0-0.1,0.1c0,0.7-0.1,1.4-0.2,2.2s-0.3,1.5-0.5,2.2s-0.5,1.4-0.7,2.2
		c-0.3,0.7-0.7,1.4-1.1,1.9l0,0c0,0,0,0,0.1,0l4.6,0.1c0,0,0.1,0,0.1-0.1L126.4,168.3z"/>
	<path class="st2" d="M133.5,167.5c1.2,0,2.1,0.1,2.6,0.3c0.4,0.2,0.6,0.4,0.8,0.7s0.3,0.7,0.3,1.2c0,1-0.5,1.8-1.7,2.3
		c0.7,0.1,1.3,0.4,1.7,0.9c0.5,0.5,0.8,1.1,0.8,1.7c0,0.5-0.1,1.1-0.4,1.5c-0.6,0.9-1.7,1.4-3.5,1.4l-3.8,0.1c0,0-0.1,0-0.1-0.1
		v-0.4c0,0,0-0.1,0.1-0.1l1.2-0.2c0,0,0.1,0,0.1-0.1l-0.2-8.6c0,0,0-0.1-0.1-0.1l-1.3-0.1c0,0-0.1,0-0.1-0.1v-0.4c0,0,0-0.1,0.1-0.1
		L133.5,167.5z M132.8,171.9L132.8,171.9l0.5,0.1c0.8,0,1.4-0.2,1.8-0.4c0.5-0.3,0.8-0.9,0.8-1.6c0-0.6-0.2-1-0.6-1.3
		c-0.4-0.2-0.8-0.4-1.4-0.4h-0.6h-0.6c0,0-0.1,0-0.1,0.1L132.8,171.9z M132.9,176.8C132.9,176.9,133,176.9,132.9,176.8h1
		c1.8,0,2.6-0.7,2.6-2.1c0-1.6-1.1-2.4-3-2.3h-0.7c0,0-0.1,0-0.1,0.1L132.9,176.8z"/>
	<path class="st2" d="M142.5,167L142.5,167l0.1,0.5c0,0,0,0.1-0.1,0.1l-1.2,0.2c0,0-0.1,0-0.1,0.1l0.6,6.6l4.3-6.5c0,0,0,0,0-0.1
		v-0.5c0,0,0-0.1-0.1-0.1h-1.2c0,0-0.1,0-0.1-0.1v-0.4c0,0,0-0.1,0.1-0.1l3.9-0.4c0,0,0.1,0,0.1,0.1v0.4c0,0,0,0.1-0.1,0.1l-1.2,0.2
		c0,0-0.1,0-0.1,0.1l0.8,8.5c0,0,0,0.1,0.1,0.1h1.3c0,0,0.1,0,0.1,0.1v0.4c0,0,0,0.1-0.1,0.1l-3.9,0.4c0,0-0.1,0-0.1-0.1v-0.4
		c0,0,0-0.1,0.1-0.1l1.2-0.2c0,0,0.1,0,0.1-0.1l-0.6-6.8l-4.3,6.5c0,0,0,0,0,0.1l0.1,0.7c0,0,0,0.1,0.1,0.1h1.2c0,0,0.1,0,0.1,0.1
		v0.4c0,0,0,0.1-0.1,0.1l-3.9,0.4c0,0-0.1,0-0.1-0.1V177c0,0,0-0.1,0.1-0.1l1.2-0.2c0,0,0.1,0,0.1-0.1l-0.8-8.5c0,0,0-0.1-0.1-0.1
		h-1.3c0,0-0.1,0-0.1-0.1v-0.4c0,0,0-0.1,0.1-0.1L142.5,167z"/>
	<path class="st2" d="M157.9,164.9C158,164.9,158,164.9,157.9,164.9l0.2,0.4v0.1l-1.2,0.3c0,0-0.1,0-0.1,0.1l0.7,3.7
		c0,0,0,0.1,0.1,0c0.3,0,0.5-0.1,0.7-0.2c0.2-0.1,0.4-0.2,0.5-0.5c0.2-0.2,0.3-0.4,0.4-0.6c0.1-0.2,0.2-0.5,0.3-0.8l0.5-1.6
		c0.1-0.3,0.2-0.5,0.3-0.8c0.1-0.2,0.2-0.4,0.4-0.5s0.3-0.2,0.4-0.3c0.2-0.1,0.3-0.1,0.5-0.2c0.1,0,0.2,0,0.2,0c0.1,0,0.2,0,0.3,0
		s0.2,0,0.3,0.1s0.2,0.1,0.2,0.1s0,0,0,0.1s0,0,0,0.1l-0.5,1.1c0,0,0,0.1-0.1,0s-0.2-0.1-0.3-0.2c-0.1,0-0.2,0-0.3,0
		c-0.2,0-0.3,0.1-0.5,0.2c-0.1,0.2-0.2,0.4-0.3,0.7l-0.2,0.9c-0.1,0.2-0.2,0.5-0.2,0.7s-0.2,0.5-0.3,0.7s-0.2,0.4-0.3,0.6
		c-0.1,0.2-0.2,0.3-0.4,0.4c0.2,0,0.4,0.1,0.6,0.1c0.2,0,0.4,0.2,0.6,0.2c0.2,0.1,0.4,0.3,0.6,0.5c0.2,0.2,0.4,0.4,0.6,0.7l1.8,2.4
		h0.1l1.1-0.1c0,0,0.1,0,0.1,0.1l0.1,0.4v0.1l-2.3,0.4h-0.1l-1.8-2.6c-0.3-0.4-0.5-0.7-0.8-0.9s-0.5-0.4-0.7-0.5s-0.5-0.2-0.6-0.2
		c-0.2,0-0.4,0-0.5,0c0,0-0.1,0-0.1,0.1l0.7,4.1c0,0,0,0.1,0.1,0l1.3-0.1c0,0,0.1,0,0.1,0.1l0.1,0.4v0.1l-3.9,0.7h-0.1l-0.1-0.4V175
		l1.2-0.3c0,0,0.1,0,0-0.1l-0.7-4.1c0,0,0-0.1-0.1,0c-0.2,0-0.3,0.1-0.5,0.2c-0.2,0.1-0.4,0.2-0.5,0.4c-0.2,0.2-0.4,0.4-0.5,0.7
		s-0.3,0.7-0.5,1.2l-0.8,3.1c0,0,0,0.1-0.1,0.1l-2.3,0.4h-0.1l-0.1-0.4v-0.1l1-0.3c0,0,0.1,0,0.1-0.1l0.9-2.9
		c0.1-0.3,0.2-0.6,0.4-0.9c0.1-0.2,0.3-0.5,0.4-0.6c0.1-0.2,0.3-0.3,0.5-0.5s0.3-0.2,0.5-0.3c-0.2,0-0.3-0.1-0.5-0.2
		c-0.2-0.1-0.3-0.2-0.5-0.4s-0.3-0.3-0.5-0.5s-0.3-0.4-0.5-0.6l-0.5-0.7c-0.2-0.3-0.4-0.5-0.6-0.6c-0.2-0.1-0.4-0.1-0.5-0.1
		s-0.2,0.1-0.3,0.2c-0.1,0.1-0.2,0.2-0.2,0.3h-0.1l-0.9-0.9c0,0,0,0,0-0.1s0,0,0-0.1s0.1-0.1,0.2-0.2s0.2-0.1,0.2-0.2
		c0.1,0,0.2-0.1,0.3-0.1s0.2,0,0.2-0.1c0.2,0,0.3,0,0.5,0s0.3,0.1,0.5,0.2c0.2,0.1,0.3,0.2,0.5,0.4s0.4,0.4,0.5,0.6l1,1.4
		c0.2,0.2,0.4,0.5,0.5,0.7c0.2,0.2,0.4,0.3,0.6,0.5c0.2,0.1,0.4,0.2,0.7,0.2c0.2,0,0.5,0,0.8,0c0,0,0,0,0-0.1l-0.7-3.7
		c0,0,0-0.1-0.1,0l-1.3,0.1h-0.1l-0.1-0.4V166L157.9,164.9z"/>
	<path class="st2" d="M166.9,162.9C167,162.9,167,162.9,166.9,162.9l0.2,0.4v0.1l-1.1,0.4c0,0-0.1,0,0,0.1l1.7,6.5l3.2-7.1
		c0,0,0,0,0-0.1l-0.1-0.5c0,0,0-0.1-0.1,0l-1.2,0.2h-0.1l-0.1-0.4v-0.1l3.8-1h0.1l0.1,0.4v0.1l-1.2,0.5c0,0-0.1,0,0,0.1l2.2,8.3
		c0,0,0,0.1,0.1,0l1.2-0.2h0.1l0.1,0.4v0.1l-3.8,1h-0.1l-0.1-0.4v-0.1l1.1-0.4c0,0,0.1,0,0-0.1l-1.7-6.6l-3.2,7.1c0,0,0,0,0,0.1
		l0.2,0.7c0,0,0,0.1,0.1,0l1.2-0.2h0.1l0.1,0.4v0.1l-3.8,1h-0.1l-0.1-0.4v-0.1l1.2-0.5c0,0,0.1,0,0-0.1l-2.2-8.3c0,0,0-0.1-0.1,0
		l-1.3,0.1h-0.1l-0.1-0.4v-0.1L166.9,162.9z"/>
	<path class="st2" d="M176.4,160.1C176.5,160.1,176.5,160.1,176.4,160.1l5.7,6.3l0.3-8.4l0,0l2.8-1h0.1l0.1,0.4v0.1l-1.2,0.5
		c0,0-0.1,0,0,0.1l2.9,8.1c0,0,0,0,0.1,0l1.3-0.3h0.1l0.1,0.4v0.1l-3.9,1.4h-0.1l-0.1-0.4v-0.1l1.3-0.6c0,0,0,0,0-0.1l-2.8-7.8l0,0
		l-0.4,9.8l0,0h-0.1h-0.1l-6.5-7.2l0,0l2.8,7.7c0,0,0,0,0.1,0l1.2-0.3h0.1l0.1,0.4v0.1l-3.2,1.2H177l-0.1-0.4V170l1.2-0.6
		c0,0,0,0,0-0.1l-2.9-8.1c0,0,0,0-0.1,0l-1.2,0.3h-0.1l-0.1-0.4V161L176.4,160.1z"/>
	<path class="st2" d="M190.3,154.3c1.4-0.6,2.7-0.7,3.9-0.2s2.2,1.4,2.8,2.8c0.6,1.4,0.7,2.7,0.3,4s-1.3,2.3-2.6,2.9
		c-1.4,0.6-2.7,0.7-4,0.2s-2.2-1.4-2.9-2.8c-0.6-1.4-0.7-2.7-0.3-4C188,156,188.9,155,190.3,154.3z M190.4,155
		c-1,0.5-1.6,1.2-1.8,2.3c-0.2,1,0,1.9,0.5,3c0.3,0.7,0.8,1.4,1.4,1.9c0.6,0.6,1.3,1,2.1,1.1c0.7,0.2,1.5,0.1,2.2-0.2
		c1-0.5,1.6-1.2,1.8-2.3c0.1-0.9,0-1.9-0.5-3c-0.5-1.2-1.3-2.1-2.3-2.6C192.5,154.6,191.5,154.5,190.4,155z"/>
	<path class="st2" d="M200.3,149.1c0.2-0.1,0.3-0.2,0.5-0.3s0.4-0.2,0.7-0.2c0.2-0.1,0.5-0.2,0.7-0.2s0.4-0.1,0.6-0.2h0.1l1.1,1.9
		v0.1l-0.5,0.3l0,0l0,0l-1.1-1.3c0,0,0,0-0.1,0s-0.2,0-0.3,0.1c-0.1,0-0.3,0.1-0.4,0.1c-0.1,0-0.3,0.1-0.4,0.2
		c-0.1,0-0.3,0.1-0.4,0.2c-0.6,0.3-1,0.7-1.4,1.2c-0.3,0.4-0.6,0.9-0.7,1.4c-0.1,0.5-0.1,1,0,1.6s0.3,1.1,0.6,1.6
		c0.3,0.6,0.7,1.1,1.2,1.4c0.5,0.4,1,0.7,1.5,0.9s1.1,0.3,1.7,0.2c0.6,0,1.1-0.2,1.7-0.5c0.1,0,0.2-0.1,0.3-0.2
		c0.1-0.1,0.2-0.2,0.4-0.2c0.1-0.1,0.2-0.2,0.4-0.3c0.1-0.1,0.2-0.2,0.2-0.3v-0.1l-0.6-1.6l0,0l0,0l0.5-0.3h0.1l1.1,1.9
		c0,0,0,0,0,0.1c-0.1,0.1-0.2,0.2-0.4,0.4c-0.2,0.1-0.3,0.3-0.5,0.4c-0.2,0.2-0.4,0.3-0.6,0.5c-0.2,0.2-0.5,0.3-0.7,0.5
		c-0.5,0.3-1,0.5-1.4,0.6c-0.5,0.2-1,0.2-1.4,0.2s-0.9,0-1.3-0.2c-0.4-0.1-0.8-0.3-1.2-0.5s-0.7-0.5-1.1-0.8
		c-0.3-0.3-0.6-0.7-0.9-1.1c-0.3-0.5-0.5-1-0.6-1.4c-0.1-0.5-0.2-1-0.1-1.4s0.1-0.9,0.2-1.4c0.2-0.4,0.4-0.8,0.6-1.2
		c0.2-0.4,0.6-0.7,1-1.1C199.5,149.6,199.8,149.4,200.3,149.1z"/>
	<path class="st2" d="M209.9,143C209.9,143,210,143,209.9,143l1.4,1.9v0.1l-0.5,0.3h-0.1l-1.2-1.2c0,0,0,0-0.1,0l-2,1.4
		c0,0,0,0,0,0.1l4.8,7c0,0,0,0,0.1,0l1.2-0.7h0.1l0.2,0.3v0.1l-3.5,2.4h-0.1l-0.2-0.3v-0.1l1.1-0.9v-0.1l-4.8-7c0,0,0,0-0.1,0
		l-2,1.4c0,0,0,0,0,0.1l0.7,1.6c0,0,0,0,0,0.1l-0.5,0.3h-0.1l-1.3-1.9v-0.1L209.9,143z"/>
	<path class="st2" d="M213.2,140.3L213.2,140.3l0.3,0.3v0.1l-0.8,0.9v0.1l4.3,5.1l-0.2-7.8c0,0,0,0,0-0.1l-0.4-0.4h-0.1l-1,0.7h-0.1
		l-0.2-0.3v-0.1l3-2.5h0.1l0.2,0.3v0.1l-0.9,0.9v0.1l5.5,6.5h0.1l1-0.7h0.1l0.2,0.3v0.1l-3,2.5h-0.1l-0.2-0.3V146l0.8-0.9V145
		l-4.4-5.1l0.2,7.8c0,0,0,0,0,0.1l0.5,0.6h0.1l1-0.7h0.1l0.2,0.3v0.1l-3,2.5h-0.1l-0.2-0.3v-0.1l0.9-0.9v-0.1l-5.5-6.5h-0.1l-1,0.7
		h-0.1l-0.2-0.3V143L213.2,140.3z"/>
</g>
</svg>
