<?xml version="1.0" encoding="utf-8"?>
<!-- Generator: Adobe Illustrator 23.0.1, SVG Export Plug-In . SVG Version: 6.00 Build 0)  -->
<svg version="1.1" id="svg2784" xmlns:svg="http://www.w3.org/2000/svg"
	 xmlns="http://www.w3.org/2000/svg" xmlns:xlink="http://www.w3.org/1999/xlink" x="0px" y="0px" viewBox="0 0 600 290.7"
	 style="enable-background:new 0 0 600 290.7;" xml:space="preserve">
<style type="text/css">
	.st0{fill:#0055A5;}
</style>
<g id="layer1" transform="translate(-14.61488,-346.27724)">
	<g id="g2984" transform="matrix(3.4750096,0,0,3.4750096,195.47168,-1407.9881)">
		<path class="st0" d="M118.1,504.8H37v83.6h83.6v-83.6H118.1z M115.6,583.5H42v-73.6h73.6V583.5z"/>
		<g>
			<path class="st0" d="M-52,504.8v83.6h83.6v-83.6H-52z M-44.4,525h10.5v17.6h-3.2v-14.7h-4v14.7h-3.2V525z M-37.3,562.3
				c-0.6,1-1.4,1.5-2.3,1.5c-0.7,0-1.3-0.3-1.8-0.8v5.1h-2.9v-17.4h3h0.2l0.2,0h0.2l0.2,0h0.2l0.2,0.1l0.2,0l0.2,0l0.2,0l0.2,0.1
				l0.2,0.1l0.2,0.1l0.2,0.1l0.1,0.1l0.1,0.1l0.2,0.1l0.1,0.1l0.1,0.1l0.1,0.1l0.1,0.1l0.1,0.1l0.1,0.1l0.1,0.1l0.1,0.1l0.1,0.1
				l0.1,0.1l0.1,0.2l0.1,0.2l0.1,0.1l0.1,0.2l0.1,0.2l0.1,0.2c0.5,1.2,0.8,2.5,0.8,4C-36.3,559.6-36.6,561.2-37.3,562.3z
				 M-25.6,565.8c-0.9,1.8-2.2,2.7-3.8,2.7c-1.6,0-2.8-0.9-3.7-2.5c-0.8-1.6-1.2-3.9-1.2-6.7c0-2.7,0.4-4.9,1.3-6.5
				c0.9-1.7,2.1-2.5,3.6-2.5v0h0.2h0.2l0.2,0l0.2,0h0.1l0.1,0l0.2,0l0.1,0l0.2,0.1l0.1,0l0.1,0.1l0.1,0.1l0.1,0.1l0.1,0.1l0.1,0.1
				l0.1,0.1l0.1,0.1l0.1,0.1l0.1,0.1l0.1,0.1l0.1,0.1l0.1,0.1l0.1,0.1l0.1,0.1l0.1,0.1l0.1,0.1l0.1,0.1l0.1,0.1l0.1,0.1l0.1,0.2
				l0.1,0.2l0.1,0.2c0.9,1.6,1.3,3.8,1.3,6.5C-24.3,562-24.7,564.2-25.6,565.8z M-28.1,540.4c-0.9-1.7-1.4-3.9-1.4-6.7
				c0-2.7,0.5-4.9,1.4-6.6c1-1.7,2.3-2.6,4.1-2.6v0h0.2l0.2,0h0.2h0.2l0.2,0l0.2,0l0.2,0l0.2,0l0.2,0.1l0.1,0l0.2,0.1l0.2,0.1
				l0.1,0.1l0.2,0.1l0.1,0.1l0.1,0.1l0.1,0.1l0.2,0.1l0.1,0.1l0.1,0.1l0.1,0.1l0.1,0.1l0.1,0.1l0.1,0.1l0.1,0.1l0.1,0.1l0.1,0.1
				l0.1,0.2l0.1,0.1l0.1,0.2l0.1,0.2l0.1,0.2c1,1.6,1.5,3.9,1.5,6.6c0,2.7-0.5,4.9-1.5,6.6c-1,1.8-2.5,2.7-4.3,2.7
				C-25.8,542.9-27.2,542.1-28.1,540.4z M-13.3,568.6h-0.1c-2.7,0-4.9-0.9-6.4-2.7c-1.5-1.7-2.2-3.9-2.2-6.5c0-2.8,0.7-5,2-6.6
				c1.5-1.8,3.7-2.6,6.5-2.6h0.1v3h-0.1c-1.8,0-3.2,0.6-4.2,1.8c-0.9,1.1-1.3,2.5-1.3,4.4v0.3l0,0.3l0,0.3l0,0.3l0,0.3l0.1,0.3
				l0.1,0.3l0.1,0.3l0.1,0.3l0.1,0.3l0.1,0.3l0.1,0.3l0.1,0.2l0.1,0.2l0.2,0.2l0.1,0.1l0.1,0.1c1,1.2,2.4,1.8,4.2,1.8h0.1V568.6z
				 M-14.7,530v-5h3.2v4.7c0,0.4,0.1,0.7,0.4,0.9c0.3,0.3,0.9,0.5,1.6,0.5h1.8V525h3.2v17.6h-3.2v-8.5H-10c-1.3,0-2.4-0.4-3.2-1.2
				C-14.2,532.2-14.7,531.2-14.7,530z M-2.5,568.6h-0.1c-2.7,0-4.8-0.9-6.4-2.7c-1.5-1.7-2.2-3.9-2.2-6.5c0-2.8,0.7-5,2-6.6
				c1.5-1.8,3.7-2.6,6.5-2.6h0.1v3h-0.1c-1.8,0-3.2,0.6-4.2,1.8c-0.9,1.1-1.3,2.5-1.3,4.4l0,0.3l0,0.3l0,0.3l0,0.3l0.1,0.3l0.1,0.3
				l0.1,0.3l0.1,0.3l0.1,0.3l0.1,0.3l0.1,0.3l0.1,0.3l0.1,0.2l0.2,0.2l0.1,0.2l0.2,0.2c1,1.2,2.4,1.8,4.2,1.8h0.1V568.6z M-0.6,525
				h8.7v2.9H5.3v14.7H2.1v-14.7h-2.7V525z M7.6,568.1c0,0-0.4-10.9-0.4-11.5c-0.4,0.4-4,4.3-4.1,4.3v7.2H0.3v-17.5h2.8v6.2l0,0l0,0
				l0,0l0.1,0l0.1,0l0.1-0.1l0.1-0.1l0.1-0.1l0.1-0.1l0.1-0.1l0.1-0.1l0.1-0.1l0.1-0.1l0.1-0.1l0.2-0.2l0.2-0.3l0.3-0.3l0.3-0.3
				l0.3-0.3l0.3-0.3l0.3-0.3l0.6-0.6l0.3-0.3l0.3-0.3l0.3-0.3l0.3-0.3l0.3-0.3l0.3-0.3l0.2-0.3l0.2-0.2l0.1-0.1l0.1-0.1l0.1-0.1
				l0.1-0.1l0.1-0.1l0.1-0.1l0.1-0.1l0.1-0.1l0.1-0.1l0,0l0.1,0l0,0l0,0l0,0l0,0l0.2-0.2l0.7,18.3H7.6z M12.3,525L12.3,525l4.8,0
				c1.4,0,2.5,0.3,3.3,0.9l0.1,0.1l0.1,0.1l0.1,0.1l0.1,0.1l0.1,0.1l0.1,0.1l0.1,0.1l0.1,0.1l0.1,0.1l0.1,0.1l0.1,0.1l0.1,0.1l0,0.1
				l0.1,0.1l0.1,0.1l0.1,0.1l0,0.1l0,0.1l0.1,0.1l0,0.1l0,0.1l0,0.1l0,0.1l0,0.2l0,0.1v0.2l0,0.1v0.2l0,0.2v0.2v0.2v0.2l1.5,12.8
				h-3.2c0,0-0.9-8.2-0.9-8.6h-4c0,0.4-0.3,8.6-0.3,8.6h-3.2L12.3,525z M21.1,568.1c0,0-0.4-10.9-0.4-11.5c-0.4,0.4-4,4.3-4.1,4.3
				v7.2h-2.8v-17.5h2.8v6.2C17,556.3,23,550,23,550l0.2-0.2l0.7,18.3H21.1z"/>
			<path class="st0" d="M-29.4,553c-0.7,0-1.2,0.6-1.6,1.7c-0.4,1.2-0.6,2.7-0.6,4.6c0,1.8,0.2,3.4,0.6,4.6c0.4,1.2,0.9,1.8,1.6,1.8
				h0.1h0.1h0.1l0.1,0h0.1l0.1,0l0.1,0h0.1l0.1,0l0,0l0.1,0l0.1,0l0.1-0.1l0.1,0l0.1-0.1l0-0.1l0.1,0l0-0.1l0.1-0.1l0.1-0.1l0-0.1
				l0-0.1l0.1-0.1l0-0.1l0.1-0.1l0-0.1l0.1-0.1l0-0.1l0-0.1l0-0.1l0-0.1l0.1-0.1c0.4-1.2,0.6-2.8,0.6-4.7c0-2-0.1-3.5-0.5-4.5
				C-28,553.6-28.6,553-29.4,553z"/>
			<path class="st0" d="M-41.4,553.1h-0.3v5.3c0,0.8,0.1,1.5,0.4,1.9c0.2,0.5,0.5,0.7,0.9,0.7c0.4,0,0.7-0.3,0.9-0.8
				c0.3-0.5,0.4-1.2,0.4-2.2c0-1.7-0.2-3-0.6-3.8C-40.1,553.5-40.7,553.1-41.4,553.1z"/>
			<path class="st0" d="M-23.9,527.5c-0.8,0-1.4,0.5-1.8,1.7c-0.4,1.2-0.7,2.7-0.7,4.5c0,1.8,0.2,3.3,0.7,4.6l0.1,0.1l0,0.1l0,0.1
				l0.1,0.1l0,0.1l0,0.1l0.1,0.1l0,0.1l0.1,0.1l0,0.1l0.1,0.1l0.1,0.1l0,0.1l0.1,0.1l0.1,0.1l0,0.1l0.1,0l0.1,0.1l0.1,0l0.1,0.1
				l0.1,0l0.1,0l0.1,0l0.1,0l0.1,0h0.1l0.1,0l0.1,0h0.1h0.1h0.1h0.1c0.8,0,1.4-0.5,1.8-1.7c0.4-1.2,0.7-2.7,0.7-4.6
				c0-2-0.2-3.4-0.6-4.5C-22.5,528.1-23.1,527.5-23.9,527.5z"/>
			<path class="st0" d="M18.3,528.7c-0.3-0.5-0.9-0.8-1.7-0.8h-1.2h0v0v0v0v0v0v0v0l0,0.1v0.1v0.1v0.1v0.1v0.1v0.1v0.1v0.1l0,0.1
				v0.3v0.3v0.1v0.1v0.1v0.1v0.1v0.1l0,0.1v0.1v0.1v0.1v0v0v0v0v0v0v0h3.6C18.8,530,18.6,529.1,18.3,528.7z"/>
		</g>
		<path id="path52" class="st0" d="M62.3,531.9l0.1,0.3l0.1,0.3l0.1,0.3l0.2,0.3L63,533l0.1,0.1l0.1,0.1l0.1,0.1l0.1,0.1l0.1,0.1
			l0.1,0.1l0.1,0.1l0.1,0.2l0.1,0.1l0.1,0.2l0.2,0.2l0.2,0.2l0.2,0.2l0.2,0.2l0.2,0.2l0.2,0.2l0.2,0.2l0.2,0.2l0.2,0.2L66,536
			l0.2,0.2l0.3,0.2l0.3,0.2c0.6,0.4,1.3,1.3,0.8,2.5c-0.5,1.3-1.5,3-0.9,3.7c0.6,0.7,2.7,1,4.4,0.4c0,0,0.4,1.1,1,1.8
			c0,0-0.3,0.6-1.3,0.3c0,0,0.4,0.9-0.1,1.8c0,0-1.1-0.2-1.6-1.3c0,0-0.4,0.8-1.4,1.1c0,0-0.8-0.4-0.6-1.9c0,0-0.6,1.3-2.3,1.6
			c0,0-1-1.2,0.3-2.9c0,0-0.9,0.8-2.6,0.4c0,0-0.3-0.8,1.2-2c0,0-1.7-0.1-2.3-1.5c0,0,0.7-0.9,2.5-0.7c0,0-1.6-0.4-2-2.3
			c0,0,1.2-0.8,3,0.5c0,0-0.3-0.6-1.1-1.3C62.9,536.1,62,534.4,62.3,531.9z"/>
		<path id="path54" class="st0" d="M69.1,551.5L69.1,551.5l-0.1-0.1l-0.1-0.1l0-0.1l0-0.1l0-0.1l0,0l0-0.1l0-0.1l0-0.1l0-0.1l0-0.1
			l0,0l0-0.1l0-0.1l0-0.1c0.3,2.4,0.4,4,1.7,5.5c0,0,0.8-1,0.3-3.5c-0.2-0.1-0.4-0.2-0.7-0.3c0,0,0.3,1,0.1,2
			C69.9,554.3,69.5,553.9,69.1,551.5z"/>
		<path id="path56" class="st0" d="M66.9,551.3L66.9,551.3L66.9,551.3L66.9,551.3L66.9,551.3L66.9,551.3l-0.1-0.1l0,0l0,0l0,0l0,0
			l0,0l0-0.1l-0.1-0.1l0-0.1l0-0.1l-0.1-0.1l0-0.1l0,0l0-0.1l0,0l0,0l0,0l0,0c-0.1,1.4-0.5,5,0.8,6.1c0,0,0.8-0.6,1.1-5.9
			c-0.2,0.3-0.5,0.6-0.6,0.8c0,0,0.2,1.7-0.4,2.9C67.2,554.3,66.6,553.8,66.9,551.3z"/>
		<path id="path58" class="st0" d="M64,554.1l0.1-0.1l0.1-0.1l0.1-0.2l0.1-0.2l0.1-0.2l0.1-0.2l0.1-0.2l0.1-0.2l0.1-0.2l0.1-0.2
			l0.1-0.2l0.1-0.2l0.1-0.4l0-0.2l0.1-0.2l0-0.2l0-0.2l0-0.2l0-0.2l0-0.2l0-0.2l0-0.2l0-0.1l0-0.1l0-0.1l0,0v0l0,0v0v0l0,0v0v0v0v0
			l0,0v0c0.1-0.1,0.3-0.2,0.4-0.3c0.1,0,0.1-0.1,0.2-0.2c0,0.1,0,0.3,0,0.4c-0.2,2.2-0.3,4.5-1,5.6c-0.7,1.1-1.9,1.7-1.9,1.7
			c-1.2-2.1,0.2-4.8,1.4-6.8c0.2,0,0.3-0.1,0.4-0.2C64.5,550.9,63.7,552.7,64,554.1z"/>
		<path id="path60" class="st0" d="M61.1,547.7L61.1,547.7L61.1,547.7v0.1v0l0,0v0v0l0,0v0v0v0v0l0,0v0v0v0l0,0v0v0v0l0,0v0v0v0l0,0
			c0,0,0,0.1,0,0.2c-1,0.9-1.7,1.9-3.1,3.9c-1.5,2-3.7,2.1-3.7,2.1c0.2-1.6,0.7-2.9,1.9-4.3c1.2-1.4,2.8-2.7,3.9-3.5
			c0.3,0.1,0.7,0.2,1.2,0.2c0,0,0.1,0,0.1,0c-0.2,0.2-0.3,0.4-0.3,0.6c-0.9,0.5-3.4,1.8-4.4,3.8C56.8,551.2,58.4,550.7,61.1,547.7z"
			/>
		<path id="path62" class="st0" d="M59.3,545.7l0.1-0.2c0,0,0.1-0.1,0.1-0.2c-1,0.4-4.3,1.6-5.4,2.2c-1.1,0.6-2.7,1.8-3.5,4.4
			c0,0,2.3,0.2,4.1-1.3c1.9-1.5,4-3.7,5-4.4c-0.1-0.1-0.2-0.2-0.2-0.2c0,0-2.5,2.2-5.2,3.2c0,0,0.6-1,1.6-1.8
			C57.2,546.5,58.2,546.2,59.3,545.7z"/>
		<path id="path64" class="st0" d="M57.4,544.2L57.4,544.2L57.4,544.2L57.4,544.2l0.1-0.1l0,0l0,0l0,0v0l0,0l0,0
			c-1.1,0.2-3.9,0.6-5.1,0.9c-1.2,0.4-3.5,1.3-4.8,3.8c0,0,2,0.6,5.6-1.1c3.7-1.7,4.8-2.1,5.5-2.3c-0.6,0-1-0.2-1.2-0.3
			c-1.5,0.7-3.4,1.4-5.4,1.5c0,0,1-0.7,2-1.1C55.3,544.8,56.5,544.4,57.4,544.2z"/>
		<path id="path66" class="st0" d="M57.5,542.3L57.5,542.3l0.1,0.1l0.1,0l0.1,0l0.1,0l0.1,0l0.1,0l0.1,0l0.1,0l0.1,0l0.1,0l0.1,0
			l0,0h0l0,0h0h0l0,0h0l0,0c-0.3,0.2-0.5,0.4-0.7,0.7c-1.3,0.4-3.5,0.8-7.1,1c-3.6,0.3-5.6-0.4-5.6-0.4c1.3-0.8,3.3-1.6,4.7-1.8
			c1.4-0.3,5-0.2,6.5-0.5c0,0,0.2,0.2,0.5,0.4c-1.3,0.1-4.2,0.3-5.6,1C51.3,543,54,543.4,57.5,542.3z"/>
		<path id="path68" class="st0" d="M57.2,540.2L57.2,540.2L57.2,540.2l0.1-0.1l0,0l0,0l0,0l0,0l0,0l0,0l0,0l0,0l0,0l0,0l0,0l0,0l0,0
			c-1.8-0.5-4.4-1.5-8.2-1.7c-2.8-0.2-4.8,0-5.8,0.3c0,0,2.5,1.8,5.5,2.4c2.9,0.6,5.3,0.2,7,0.2c0.1-0.2,0.3-0.3,0.5-0.5
			c-2,0-5.4-0.5-6.6-0.9C50.2,539.7,53.1,539.1,57.2,540.2z"/>
		<path id="path70" class="st0" d="M57.2,538.1L57.2,538.1L57.2,538.1L57.2,538.1L57.2,538.1L57.2,538.1l0,0.1l0,0l0,0l0,0l0,0
			l0,0.1l0,0l0,0l0,0.1l0,0.1l0,0.1l0,0.1l0,0.1l0,0.1l0,0.1l0.1,0.1l0.1,0.1l0.1,0.1l0.1,0.1l0.1,0.1l0.1,0.1l0.1,0.1l0.1,0.1
			l0.1,0l0.1,0.1l0.1,0.1l0.1,0c-2.6-1.1-7.7-1.8-10.4-2.9c-3.7-1.5-4.4-3.5-4.4-3.5c3.2-0.1,5.8,0.7,7.8,1.3c2.3,0.7,5.9,2,7.1,2.6
			c-0.5,0-1,0.1-1.4,0.4c-1.7-0.7-2.5-1-4.1-1.4c-1.2-0.3-2.2-0.4-2.9-0.5c0,0,1.1,0.7,2.9,1.3C55,537.7,55.8,537.8,57.2,538.1z"/>
		<path id="path72" class="st0" d="M57,535.3L57,535.3L57,535.3L57,535.3L57,535.3l0.1,0.1l0,0l0,0l0,0l0,0l0,0l0,0l0,0l0,0.1l0,0
			l0,0.1l0,0l0,0l0,0l0,0l0,0l0,0l0,0l0,0l0,0l0,0l0,0l0,0l0,0c-4.1-0.7-8.6-3.8-10-5.7c-1.4-1.9-1-4.8-1-4.8c1.3,0.3,4.3,2.8,5,3.6
			c0.8,0.8,3.1,3,4.7,4.2l0.5,1.4c-1.3-1.1-3-2.3-4-3.1c-0.8-0.6-1.9-1.4-3.1-1.8c0,0,1,1.4,1.9,2c1,0.8,2,1.5,2.8,1.9
			C55.2,534.3,55.5,534.5,57,535.3z"/>
		<path id="path74" class="st0" d="M68.6,546.7L68.6,546.7L68.6,546.7L68.6,546.7L68.6,546.7l0.1-0.1l0,0l0,0l0,0l0,0l0,0l0,0l0,0
			l0,0l0,0l0,0l0,0c0.2,0.3,0.8,1,1.1,1.8c0.2,0.7,0.5,1.6,0.6,2.1c0.1,0.5,0.5,1.6,0.7,2c0,0-1,0.1-1.7-0.7c-0.7-0.8-1-1.7-1.1-2.6
			C68.4,548.3,68.5,547.3,68.6,546.7z"/>
		<path id="path76" class="st0" d="M67,546.8L67,546.8L67,546.8L67,546.8L67,546.8l0.1,0.1l0,0l0,0l0,0l0,0l0,0l0,0l0,0l0,0l0,0h0
			l0,0l0,0l0,0l0,0h0v0h0l0,0h0v0h0v0h0l0,0l0,0l0,0v0l0.2,0.1l0.1,0c0.1,0,0.2-0.1,0.3-0.1c0.2,0.4,0.2,0.6,0.3,0.9
			c0,0.5,0.1,1.2,0,1.8c-0.2,0.7-0.6,1.1-0.9,1.4c0,0-0.7-0.7-0.8-1.3c-0.2-0.6-0.3-1.3,0-2.1C66.6,547.4,66.8,547,67,546.8z"/>
		<path id="path78" class="st0" d="M64.7,546.9L64.7,546.9l0.1,0l0.1,0l0.1,0l0.1,0l0.1,0l0.1,0l0.1,0l0.1,0l0.1,0l0.1,0l0.1,0
			l0.1,0l0.1,0l0.1,0l0.1,0l0.1,0l0.1,0c0.1,0.2,0.2,0.5,0.1,1c-0.1,0.5-0.4,1-0.9,1.3c-0.7,0.5-1.6,1-2.6,0.9
			C63,549.5,62.8,548.7,64.7,546.9z"/>
		<path id="path80" class="st0" d="M64,545.7L64,545.7l0,0.1l0,0l0,0.1l0,0l0,0l0,0.1l0,0l0,0l0,0l0,0l0,0l0,0l0,0l0,0l0,0l0,0l0,0
			l0,0l0,0l0,0l0,0l0,0l0,0l0,0l0,0l0,0l0,0l0,0v0h0v0c-0.2,0.3-1.1,1.7-2.8,1.5c0,0-0.5-1,0.7-1.8C63.1,545.9,63.5,545.8,64,545.7z
			"/>
		<path id="path82" class="st0" d="M64.1,544.4L64.1,544.4l-0.2,0.1l-0.1,0l-0.1,0l-0.1,0l-0.1,0h-0.1l-0.1,0h-0.1l-0.1,0H63l-0.1,0
			h-0.1l-0.1,0h-0.1l-0.1,0l-0.1,0l-0.1,0l-0.1,0l-0.1,0l-0.1,0l-0.2,0l-0.1-0.2c-0.9,0.7-2,0.9-2.3,1.5c0,0,0.5,0.8,1.6,0.7
			c1.2-0.1,2-0.7,2.7-1.5C64,544.8,64.1,544.6,64.1,544.4z"/>
		<path id="path84" class="st0" d="M62.1,543.4L62.1,543.4L62.1,543.4l0.1-0.1l0-0.1l0,0l0-0.1l0-0.1l0-0.1l0-0.1l0-0.1l0,0l0,0l0,0
			l0,0l0,0l0,0l0,0l0,0l0,0l0,0l0,0l0,0c-0.8-0.1-1.5-0.2-2.4,0c-1.1,0.2-2.2,0.5-2.7,2.1c0,0,0.7,0.6,2,0.3
			C60.7,544.6,61.6,544.2,62.1,543.4z"/>
		<path id="path86" class="st0" d="M61.7,541.6L61.7,541.6L61.7,541.6l-0.1-0.1l0,0l0,0l0-0.1l0,0l0,0l0-0.1l0-0.1l0-0.1l0-0.1
			l0-0.1l0-0.1l0-0.1l0-0.1l-0.1-0.2c-0.9-0.4-1.9-0.6-2.8-0.2c-1,0.4-1.2,0.8-1.4,1.1c0,0,1,0.9,2.3,0.9
			C60.1,542.3,61.2,542,61.7,541.6z"/>
		<path id="path88" class="st0" d="M62,539.7L62,539.7L62,539.7L62,539.7l0.1,0l0,0l0,0l0,0l0,0h0l0,0l0,0h0l0,0l0,0h0l0,0
			c-0.4-0.4-0.8-0.9-1-1.8c-0.4,0.1-1.5,0.1-1.9-0.1c-0.5-0.2-1.3-0.2-2,0.3c0,0,0.2,1.2,1.8,1.6C60.8,540,61.4,539.9,62,539.7z"/>
		<path id="path90" class="st0" d="M61.4,537.4l0.2-0.1c0,0,0.4-0.2,1-0.3c-0.5-0.4-1.7-1.4-2.5-1.8c-0.9-0.5-2.4-1.2-3.2-1.3
			c0,0,0.7,1.9,1.6,2.7C59.3,537.3,59.9,537.6,61.4,537.4z"/>
		<path id="path92" class="st0" d="M63,536.5L63,536.5l-0.1-0.2l-0.1-0.1l-0.1-0.1l0-0.1l-0.1-0.1l-0.1-0.1l0-0.1l0-0.1l-0.1-0.1
			l0-0.1l0-0.1l0-0.1l0-0.1l0-0.2l0-0.1c-0.2-0.7-0.6-2.2-0.8-2.7c-0.2-0.4-1.1-1.8-2.8-2.3c0,0-0.4,1.9,0.4,3.4
			C59.6,534.3,61.1,535.6,63,536.5z"/>
		<path id="path94" class="st0" d="M72.3,545.2L72.3,545.2L72.3,545.2l0.1,0.1l0,0l0,0l0,0l0,0l0,0l0,0l0.1,0l0,0l0,0l0,0l0,0l0,0
			l0,0l0,0l0,0l0,0l0,0l0,0l0,0c0,0,0.5,1-0.1,2.3c-0.7,1.2-1.2,2.5-1.4,3.2c0,0-0.3,0-0.7-2c-0.3-1.3-0.6-1.6-0.9-2.1
			c0.4,0.2,0.7,0.2,0.7,0.2l0.3,0.1l0.1-0.3c0.2-0.4,0.3-0.9,0.3-1.2c0-0.1,0-0.2,0-0.3C71.7,545.6,72.1,545.3,72.3,545.2
			C72.2,545.2,72.2,545.2,72.3,545.2L72.3,545.2z"/>
		<path id="path96" class="st0" d="M58,530.4L58,530.4L58,530.4v0.1v0v0v0v0.1v0.1v0.1v0.1v0.1l0,0.5c-1-1.3-2.2-2.8-3.3-4.2
			c-0.8-1-1.4-1.5-2.2-2c0.6,1.8,1.7,3.2,2.5,3.9c0.8,0.7,1.9,1.9,3,2.7l0.1,0.3c0.1,0.3,0.2,0.7,0.4,1c0.3,0.5,0.6,0.9,1,1.3
			c-0.3-0.2-0.7-0.3-1-0.5l-0.3-0.2c-3-1.6-6-4.9-7.2-7.2c-1.2-2.3-0.7-5-0.4-6.4c1.4,1.2,3.4,3.5,4.2,4.7
			C55.8,526.4,57.2,528.6,58,530.4L58,530.4L58,530.4z"/>
		<path id="path98" class="st0" d="M100.4,540.2L100.4,540.2L100.4,540.2L100.4,540.2l-0.1-0.1l0,0l-0.1,0l0,0l0,0l0,0l-0.1,0l0,0
			l-0.1,0l-0.1,0l-0.1,0l-0.1,0l-0.1,0c1.8-0.5,4.4-1.5,8.2-1.7c2.8-0.2,4.8,0,5.8,0.3c0,0-2.6,1.8-5.4,2.4c-2.9,0.6-5.3,0.2-7,0.2
			c-0.1-0.2-0.2-0.3-0.4-0.5c2,0,5.4-0.5,6.6-0.9C107.4,539.7,104.5,539.1,100.4,540.2z"/>
		<path id="path100" class="st0" d="M100.4,538.1L100.4,538.1L100.4,538.1L100.4,538.1L100.4,538.1L100.4,538.1l0,0.1v0l0,0l0,0l0,0
			l0,0.1l0,0l0,0l0,0.1l0,0.1l0,0.1l0,0.1l-0.1,0.1l-0.1,0.1l-0.1,0.1l-0.1,0.1l-0.1,0.1l-0.1,0.1l-0.1,0.1l-0.1,0.1l-0.1,0.1
			l-0.1,0.1l-0.1,0.1l-0.1,0l-0.1,0.1l-0.1,0.1l-0.1,0c2.6-1.1,7.7-1.8,10.4-2.9c3.7-1.5,4.4-3.5,4.4-3.5c-3.2-0.1-5.8,0.7-7.8,1.3
			c-2.3,0.7-5.9,2-7.1,2.6c0.5,0,1,0.1,1.4,0.4c1.7-0.7,2.6-1,4.1-1.4c1.3-0.3,2.2-0.4,2.9-0.5c0,0-1.1,0.7-2.9,1.3
			C102.6,537.7,101.8,537.8,100.4,538.1z"/>
		<path id="path102" class="st0" d="M100.6,535.3L100.6,535.3L100.6,535.3L100.6,535.3L100.6,535.3l-0.1,0.1l0,0l0,0l0,0l0,0l0,0
			l0,0.1l0,0.1l-0.1,0l0,0.1l0,0l0,0l0,0l0,0l0,0l0,0l0,0l0,0l0,0l0,0l0,0l0,0l0,0c4.1-0.7,8.6-3.8,10-5.7c1.4-1.9,1-4.8,1-4.8
			c-1.3,0.3-4.3,2.8-5,3.6c-0.8,0.8-3.1,3-4.6,4.2l-0.5,1.4c1.3-1.1,3-2.3,4-3.1c0.8-0.6,1.9-1.4,3.1-1.8c0,0-1.1,1.4-1.9,2
			c-1,0.8-2,1.5-2.8,1.9C102.4,534.3,102,534.5,100.6,535.3z"/>
		<path id="path104" class="st0" d="M99.6,530.4L99.6,530.4v0.1v0.1v0.1v0.1v0.1v0.1v0.1l0,0.5c1-1.3,2.2-2.8,3.3-4.2
			c0.8-1,1.4-1.5,2.2-2c-0.6,1.8-1.7,3.2-2.5,3.9c-0.8,0.7-1.9,1.9-3,2.7l-0.1,0.3c-0.1,0.3-0.2,0.7-0.4,1c-0.3,0.5-0.6,0.9-1,1.3
			c0.3-0.2,0.7-0.3,1.1-0.5l0.3-0.2c3-1.6,6-4.9,7.2-7.2c1.2-2.3,0.7-5,0.4-6.4c-1.4,1.2-3.3,3.5-4.2,4.7
			C101.8,526.4,100.4,528.6,99.6,530.4L99.6,530.4L99.6,530.4z"/>
		<path id="path106" class="st0" d="M61.9,548.6l-0.1,0.1l-0.1,0.1l-0.1,0.1l-0.1,0.2l-0.2,0.2l-0.2,0.2l-0.2,0.2l-0.2,0.2l-0.2,0.2
			l-0.2,0.2l-0.2,0.2l-0.2,0.2l-0.2,0.2l-0.2,0.2l-0.2,0.2l-0.2,0.2l-0.1,0.2l-0.1,0.2l-0.1,0.2l-0.1,0.3l-0.1,0.3l-0.1,0.3
			l-0.1,0.3l-0.1,0.3l-0.1,0.3l-0.1,0.3l0,0.3l0,0.3l0,0.3l0,0.3l0,0.3l0,0.3c0,0,2.4-0.8,3.4-2.5c1-1.8,1.6-2.9,2-3.3
			c-0.3,0-0.5,0-0.8,0l-0.2,0c-0.6,1.1-1.8,3-2.9,3.6c0,0-0.3-1.5,3-4.5c0-0.1,0.1-0.3,0.2-0.4C62.6,548.6,62.3,548.6,61.9,548.6"/>
		<path id="path108" class="st0" d="M95.3,531.9l-0.1,0.3l-0.1,0.3l-0.1,0.3l-0.2,0.3l-0.1,0.1l-0.1,0.1l-0.1,0.1l-0.1,0.1l-0.1,0.1
			l-0.1,0.1l-0.1,0.1l-0.1,0.1l-0.1,0.2l-0.1,0.1l-0.1,0.2l-0.2,0.2l-0.2,0.2l-0.2,0.2l-0.2,0.2l-0.2,0.2l-0.2,0.2l-0.2,0.2
			l-0.2,0.2l-0.2,0.2l-0.2,0.2l-0.2,0.2l-0.3,0.2l-0.3,0.2c-0.6,0.4-1.3,1.3-0.8,2.5c0.5,1.3,1.5,3,0.9,3.7c-0.6,0.7-2.7,1-4.4,0.4
			c0,0-0.4,1.1-1,1.8c0,0,0.3,0.6,1.3,0.3c0,0-0.4,0.9,0.1,1.8c0,0,1.1-0.2,1.6-1.3c0,0,0.4,0.8,1.4,1.1c0,0,0.8-0.4,0.6-1.9
			c0,0,0.6,1.3,2.3,1.6c0,0,1-1.2-0.3-2.9c0,0,0.9,0.8,2.6,0.4c0,0,0.3-0.8-1.2-2c0,0,1.7-0.1,2.3-1.5c0,0-0.7-0.9-2.5-0.7
			c0,0,1.6-0.4,2-2.3c0,0-1.2-0.8-3,0.5c0,0,0.3-0.6,1.1-1.3C94.7,536.1,95.6,534.4,95.3,531.9z"/>
		<path id="path110" class="st0" d="M88.5,551.5L88.5,551.5l0.1-0.1l0-0.1l0.1-0.1l0-0.1l0-0.1l0,0l0-0.1l0-0.1l0-0.1l0-0.1l0-0.1
			l0,0l0-0.1l0-0.1l0-0.1c-0.3,2.4-0.4,4-1.7,5.5c0,0-0.8-1-0.3-3.5c0.2-0.1,0.4-0.2,0.7-0.3c0,0-0.3,1-0.1,2
			C87.6,554.3,88.1,553.9,88.5,551.5z"/>
		<path id="path112" class="st0" d="M90.7,551.3L90.7,551.3L90.7,551.3L90.7,551.3L90.7,551.3L90.7,551.3l0.1-0.1l0,0l0,0l0,0l0,0
			l0.1,0l0-0.1l0-0.1l0.1-0.1l0-0.1l0-0.1l0-0.1l0,0l0-0.1l0,0l0,0l0,0l0,0c0.1,1.4,0.5,5-0.7,6.1c0,0-0.8-0.6-1.1-5.9
			c0.2,0.3,0.5,0.6,0.6,0.8c0,0-0.2,1.7,0.4,2.9C90.4,554.3,91,553.8,90.7,551.3z"/>
		<path id="path114" class="st0" d="M93.6,554.1l-0.1-0.1l-0.1-0.1l-0.1-0.2l-0.1-0.2l-0.1-0.2l-0.1-0.2L93,553l-0.1-0.2l-0.1-0.2
			l-0.1-0.2l-0.1-0.2l-0.1-0.2l-0.1-0.4l-0.1-0.2l0-0.2l0-0.2l0-0.2l0-0.2l0-0.2l0-0.2l0-0.2l0-0.2l0-0.1l0-0.1l0-0.1l0,0v0l0,0v0v0
			l0,0v0v0v0v0l0,0v0c-0.2-0.1-0.3-0.2-0.4-0.3c-0.1,0-0.1-0.1-0.2-0.2c0,0.1,0,0.3,0,0.4c0.2,2.2,0.3,4.5,1,5.6
			c0.7,1.1,1.9,1.7,1.9,1.7c1.2-2.1-0.2-4.8-1.4-6.8c-0.2,0-0.3-0.1-0.4-0.2C93.1,550.9,93.9,552.7,93.6,554.1z"/>
		<path id="path116" class="st0" d="M96.5,547.7L96.5,547.7L96.5,547.7L96.5,547.7v0.1v0l0,0v0v0v0l0,0v0v0v0l0,0v0v0v0l0,0v0v0v0
			l0,0v0v0v0v0l0,0c0,0,0,0.1-0.1,0.2c1,0.9,1.7,1.9,3.1,3.9c1.4,2,3.7,2.1,3.7,2.1c-0.2-1.6-0.7-2.9-1.9-4.3
			c-1.2-1.4-2.8-2.7-3.9-3.5c-0.3,0.1-0.7,0.2-1.2,0.2c-0.1,0-0.1,0-0.1,0c0.2,0.2,0.3,0.4,0.3,0.6c0.9,0.5,3.4,1.8,4.4,3.8
			C100.8,551.2,99.2,550.7,96.5,547.7z"/>
		<path id="path118" class="st0" d="M98.3,545.7l-0.1-0.2c0,0-0.1-0.1-0.1-0.2c0.9,0.4,4.3,1.6,5.4,2.2c1.1,0.6,2.7,1.8,3.5,4.4
			c0,0-2.3,0.2-4.1-1.3c-1.9-1.5-4-3.7-5-4.4c0.1-0.1,0.2-0.2,0.2-0.2c0,0,2.5,2.2,5.2,3.2c0,0-0.6-1-1.6-1.8
			C100.4,546.5,99.4,546.2,98.3,545.7z"/>
		<path id="path120" class="st0" d="M100.2,544.2L100.2,544.2L100.2,544.2L100.2,544.2l-0.1-0.1l0,0l0,0l0,0l0,0
			c1.1,0.2,3.9,0.6,5.1,0.9c1.2,0.4,3.5,1.3,4.8,3.8c0,0-1.9,0.6-5.6-1.1c-3.7-1.7-4.8-2.1-5.5-2.3c0.6,0,1-0.2,1.2-0.3
			c1.5,0.7,3.4,1.4,5.4,1.5c0,0-1-0.7-2-1.1C102.3,544.8,101.1,544.4,100.2,544.2z"/>
		<path id="path122" class="st0" d="M100.1,542.3L100.1,542.3l-0.1,0.1l-0.1,0l-0.1,0l-0.1,0l-0.1,0l-0.1,0l-0.1,0l-0.1,0l-0.1,0
			l-0.1,0l-0.1,0l-0.1,0l0,0h0h-0.1l0,0h0l-0.1,0c0.3,0.2,0.5,0.4,0.7,0.7c1.3,0.4,3.5,0.8,7.1,1c3.6,0.3,5.6-0.4,5.6-0.4
			c-1.3-0.8-3.3-1.6-4.7-1.8c-1.4-0.3-4.9-0.2-6.5-0.5c0,0-0.2,0.2-0.5,0.4c1.3,0.1,4.2,0.3,5.6,1
			C106.3,543,103.6,543.4,100.1,542.3z"/>
		<path id="path124" class="st0" d="M89,546.7L89,546.7L89,546.7L89,546.7l-0.1-0.1l0,0l0,0l0,0l0,0l0,0l0,0l0,0l0,0l0,0l0,0l0,0
			c-0.2,0.3-0.8,1-1.1,1.8c-0.2,0.7-0.5,1.6-0.6,2.1c-0.1,0.5-0.5,1.6-0.7,2c0,0,1,0.1,1.7-0.7c0.7-0.8,1-1.7,1.1-2.6
			C89.2,548.3,89.1,547.3,89,546.7z"/>
		<path id="path126" class="st0" d="M90.6,546.8L90.6,546.8L90.6,546.8L90.6,546.8L90.6,546.8l-0.1,0.1l0,0l0,0l0,0l0,0l0,0l0,0l0,0
			l0,0l0,0h0l0,0l0,0l0,0l0,0h0l0,0h0l0,0l0,0l0,0h0v0h0l0,0l0,0h0v0l-0.1,0.1l-0.2,0c-0.1,0-0.2-0.1-0.3-0.1
			c-0.1,0.4-0.2,0.6-0.2,0.9c-0.1,0.5-0.1,1.2,0,1.8c0.2,0.7,0.6,1.1,0.9,1.4c0,0,0.7-0.7,0.8-1.3c0.2-0.6,0.3-1.3,0-2.1
			C91,547.4,90.8,547,90.6,546.8z"/>
		<path id="path128" class="st0" d="M92.9,546.9L92.9,546.9l-0.1,0l-0.1,0l-0.1,0l-0.1,0l-0.1,0l-0.1,0l-0.1,0l-0.1,0l-0.1,0l-0.1,0
			l-0.1,0l-0.1,0l-0.1,0l-0.1,0l-0.1,0l-0.1,0l-0.1,0c-0.1,0.2-0.2,0.5-0.1,1c0.1,0.5,0.4,1,0.9,1.3c0.7,0.5,1.6,1,2.6,0.9
			C94.6,549.5,94.8,548.7,92.9,546.9z"/>
		<path id="path130" class="st0" d="M93.6,545.7L93.6,545.7l0,0.1l0,0v0.1l0,0l0,0l0,0.1l0,0l0,0l0,0l0,0l0,0l0,0l0,0l0,0l0,0l0,0
			l0,0l0,0l0,0l0,0l0,0l0,0l0,0l0,0l0,0v0l0,0l0,0v0h0v0c0.2,0.3,1.1,1.7,2.8,1.5c0,0,0.5-1-0.7-1.8
			C94.5,545.9,94.1,545.8,93.6,545.7z"/>
		<path id="path132" class="st0" d="M93.4,544.4L93.4,544.4l0.2,0.1l0.1,0l0.1,0l0.1,0l0.1,0h0.1l0.1,0h0.1l0.1,0h0.1l0.1,0l0.1,0
			h0.1l0.1,0l0.1,0l0.1,0l0.1,0l0.1,0l0.1,0l0.2,0l0.1-0.2c0.9,0.7,2,0.9,2.3,1.5c0,0-0.4,0.8-1.6,0.7c-1.2-0.1-2-0.7-2.7-1.5
			C93.6,544.8,93.5,544.6,93.4,544.4z"/>
		<path id="path134" class="st0" d="M95.5,543.4L95.5,543.4L95.5,543.4l-0.1-0.1l0,0l0-0.1l0,0l0-0.1l0-0.1l0-0.1l0-0.1l0-0.1l0,0
			l0,0l0,0l0,0l0,0l0,0l0,0l0,0l0,0l0,0l0,0l0,0c0.8-0.1,1.5-0.2,2.4,0c1.1,0.2,2.2,0.5,2.7,2.1c0,0-0.7,0.6-1.9,0.3
			C96.9,544.6,96,544.2,95.5,543.4z"/>
		<path id="path136" class="st0" d="M95.9,541.6L95.9,541.6l0.1-0.1l0.1,0l0.1,0l0.1,0l0.1-0.1l0,0l0.1,0l0-0.1l0.1-0.1l0-0.1l0-0.1
			l0-0.1l0-0.1l0-0.1l0-0.1l0.1-0.2c0.9-0.4,1.9-0.6,2.8-0.2c0.9,0.4,1.2,0.8,1.4,1.1c0,0-1.1,0.9-2.3,0.9
			C97.5,542.3,96.4,542,95.9,541.6z"/>
		<path id="path138" class="st0" d="M95.6,539.7L95.6,539.7L95.6,539.7l-0.1,0l0,0l0,0l0,0l0,0h0l0,0l0,0h0l0,0l0,0h0l0,0
			c0.4-0.4,0.8-0.9,1-1.8c0.4,0.1,1.4,0.1,1.9-0.1c0.4-0.2,1.3-0.2,2,0.3c0,0-0.2,1.2-1.8,1.6C96.8,540,96.2,539.9,95.6,539.7z"/>
		<path id="path140" class="st0" d="M96.2,537.4l-0.2-0.1c0,0-0.4-0.2-1-0.3c0.5-0.4,1.7-1.4,2.5-1.8c0.9-0.5,2.4-1.2,3.2-1.3
			c0,0-0.7,1.9-1.6,2.7C98.3,537.3,97.7,537.6,96.2,537.4z"/>
		<path id="path142" class="st0" d="M94.6,536.5L94.6,536.5l0.1-0.2l0.1-0.1l0.1-0.1L95,536l0.1-0.1l0.1-0.1l0.1-0.1l0.1-0.1
			l0.1-0.1l0.1-0.1l0.1-0.1l0-0.1l0.1-0.1l0-0.2l0.1-0.1c0.2-0.7,0.6-2.2,0.8-2.7c0.2-0.4,1.1-1.8,2.8-2.3c0,0,0.4,1.9-0.4,3.4
			C98,534.3,96.5,535.6,94.6,536.5z"/>
		<path id="path144" class="st0" d="M85.3,545.2L85.3,545.2L85.3,545.2l-0.1,0.1l0,0l0,0l0,0l0,0l0,0l-0.1,0l-0.1,0l0,0l0,0l0,0l0,0
			l0,0l0,0l0,0l0,0l0,0l0,0l0,0l0,0c0,0-0.5,1,0.1,2.3c0.7,1.2,1.2,2.5,1.5,3.2c0,0,0.3,0,0.7-2c0.3-1.3,0.6-1.6,0.9-2.1
			c-0.4,0.2-0.7,0.2-0.7,0.2l-0.3,0.1l-0.1-0.3c-0.2-0.4-0.3-0.9-0.3-1.2c0-0.1,0-0.2,0-0.3C85.9,545.6,85.5,545.3,85.3,545.2
			C85.4,545.2,85.4,545.2,85.3,545.2L85.3,545.2z"/>
		<path id="path146" class="st0" d="M95.7,548.6l0.1,0.1l0.1,0.1l0.1,0.1l0.1,0.2l0.2,0.2l0.1,0.2l0.2,0.2l0.2,0.2L97,550l0.2,0.2
			l0.2,0.2l0.2,0.2l0.2,0.2l0.2,0.2l0.2,0.2l0.1,0.2l0.2,0.2l0.1,0.2l0.1,0.2l0.1,0.3l0.1,0.3l0.1,0.3l0.1,0.3l0.1,0.3l0.1,0.3
			l0.1,0.3l0.1,0.3l0.1,0.3l0,0.3l0,0.3v0.3l0,0.3c0,0-2.4-0.8-3.4-2.5c-1-1.8-1.6-2.9-2-3.3c0.3,0,0.5,0,0.8,0l0.2,0
			c0.6,1.1,1.8,3,2.9,3.6c0,0,0.3-1.5-2.9-4.5c-0.1-0.1-0.1-0.3-0.2-0.4C95,548.6,95.3,548.6,95.7,548.6"/>
		<path id="path148" class="st0" d="M76.9,524.5L76.9,524.5L76.9,524.5L76.9,524.5L76.9,524.5l0.1-0.1l0,0l0,0l0,0l0,0l0,0l0.1,0
			l0.1,0l0.1,0l0.1,0l0.1,0l0.1,0l0.1,0l0.1,0l0.1,0l0.1,0l0.1,0l0.1,0l0.1,0h0.1l0.1,0l0.1,0h0.1h0.1l0.1,0h0.1h0.1h0.1
			c1.1,0,1.9,0.2,1.9,0.4c0,0.2-0.8,0.4-1.9,0.4C77.7,524.9,76.9,524.7,76.9,524.5z"/>
		<path id="path150" class="st0" d="M70.4,526.7L70.4,526.7L70.4,526.7L70.4,526.7L70.4,526.7L70.4,526.7L70.4,526.7L70.4,526.7
			L70.4,526.7l0.1-0.1l0,0h0l0,0l0,0l0,0h0.1l0,0h0l0.1,0l0.1,0h0l0.1,0h0.1h0.1l0.1,0h0.1h0.1l0.1,0h0.1h0.1h0.1h0.1h0.1
			c0.7,0,1.2,0.1,1.2,0.2s-0.6,0.2-1.2,0.2C71,526.9,70.4,526.8,70.4,526.7z"/>
		<path id="path152" class="st0" d="M79.2,525.4L79.2,525.4L79.2,525.4L79.2,525.4L79.2,525.4l0,0.1v0l0,0v0l0,0v0l0,0l0,0l0,0l0,0
			l0,0l0,0l0,0l0,0l0,0l0,0l0,0h0l0,0l0,0h0l0,0h0h0l0,0h0h0h0c-0.2,0-0.4-0.2-0.4-0.4c0-0.2,0.2-0.4,0.4-0.4
			C79,525,79.2,525.2,79.2,525.4z"/>
		<path id="path154" class="st0" d="M76.8,524.1l-0.1-0.2l-0.1-0.1l-0.1-0.1l-0.1-0.1l-0.1-0.1l-0.1-0.1l-0.1-0.1l0-0.1l-0.1-0.1
			l-0.1-0.1l0-0.1l-0.1-0.1l0-0.1l0-0.1l0-0.1l0-0.1l0-0.1l0-0.1l0-0.1l0-0.1l0-0.1l0-0.1l0-0.1l0-0.1l0-0.1l0-0.1l0-0.1l0,0l0,0v0
			v0v0c0-0.2,0.3-0.4,0.5-0.5c0.3-0.1,0.5-0.1,0.7,0c0.3,0.3,0.6,2.3,0.7,3.1C77.3,523.8,77.1,523.9,76.8,524.1z"/>
		<path id="path156" class="st0" d="M77.9,523.8L77.9,523.8L77.9,523.8L77.9,523.8l0.1,0l0.1,0h0.1h0.1h0.1l0.1,0
			c-0.1-0.8-0.4-2.2-0.6-2.7c-0.2-0.5-0.4-0.9-0.7-1c0,0,0.3,0.7,0.4,1.5C77.7,522.3,77.8,523,77.9,523.8z"/>
		<path id="path158" class="st0" d="M75.9,526.5L75.9,526.5l0.1,0l0.1,0l0.1,0l0.1,0l0.1,0l0.1,0l0.1,0l0.1,0l0.1,0l0.1,0l0.1,0
			l0.1,0l0.1,0l0.1,0l0.1,0l0.1,0l0,0l0.1,0l0,0l0,0l0,0l0,0l0,0l0,0l0,0l0,0l0,0l0,0l0,0l0,0h0v0l0,0l0,0l0,0
			C76.2,525.7,75.9,526.5,75.9,526.5z"/>
		<path id="path160" class="st0" d="M77,526.4L77,526.4l-0.2,0.1l-0.1,0l-0.1,0l-0.1,0l-0.1,0l-0.1,0l-0.1,0l-0.1,0l-0.1,0l-0.1,0
			l-0.1,0l-0.1,0l-0.1,0l-0.1,0l-0.1,0h-0.1l-0.1,0h-0.1l-0.1,0h-0.1h-0.1h-0.1h0H75h0h0h0h0h0h0l0,0l0,0c0.2-0.4,0.4-0.8,1-1.2
			c0.6-0.4,1.6-0.5,2-0.5C77.8,525.5,77.4,526.1,77,526.4z"/>
		<path id="path164" class="st0" d="M76.7,526.9c-0.7,0.3-3,0.4-4.2,0.4h-0.1h-0.1h-0.1h-0.1H72h-0.1h-0.1l-0.1,0h-0.1l-0.1,0h-0.1
			l-0.1,0l-0.1,0h-0.1l-0.1,0h-0.1l-0.1,0h-0.1l-0.1,0l-0.1,0h-0.1l-0.1,0l-0.1,0h0h-0.1l0,0h0l-0.1,0h0c0.1,2.7,1.9,2.8,1.9,2.8
			c0-0.2,0-0.6,0-0.6c0.6,0.5,1.7,0.9,1.7,0.9c0-0.3-0.1-0.6-0.1-0.6c0.5,0.3,0.8,0.3,0.8,0.3c-0.1-0.4-0.3-0.8-0.3-0.8
			c0.3,0.4,0.8,0.5,0.8,0.5c0.1-0.2-0.1-0.8-0.1-0.8c0.2,0.2,0.5,0.8,1.5,1c1,0.2,1.5-0.4,1.5-0.4c-1,0.1-1.9-0.9-1.9-0.9
			c0.5-0.2,0.7-0.6,0.7-0.6c-0.3-0.3-0.6-0.3-0.6-0.3C76.6,527.4,76.7,526.9,76.7,526.9z M73.3,527.9L73.3,527.9
			c0,0.1-1.6,0.1-1.6,0.9c-0.3-0.2-0.4-0.5-0.4-0.8C71.2,528,72.4,528,73.3,527.9z"/>
		<path id="path166" class="st0" d="M69.9,527.1l0,0.1l0,0.1l0,0.1l0,0.1l0,0.1l0,0.1l0,0.1l0,0.1l0,0.1l0,0.1l0,0.1l0,0.1l0,0.1
			l0,0.1l0,0.1l0,0.1c0,0-0.7-0.5-0.9-1C69.2,527.2,69.1,526.9,69.9,527.1z"/>
		<path id="path170" class="st0" d="M67.8,527.7c-0.3,0-0.6,0.2-0.8,0.4c-0.4,0.5-0.2,1.6,0.5,2c0,0,1.1-1,2.5,0c0,0,0.3-0.2,1-0.3
			v0h0v0l0,0l0,0h0v0l0,0l0,0l0,0l0,0l0,0h0l0-0.1h0l0-0.1h0l0,0l-0.1,0l0,0l0,0l-0.1,0l0,0l0,0l-0.1,0h0l-0.1,0l0,0
			c-0.4-0.2-1.3-0.5-1.6-1.3C68.4,527.7,68.1,527.6,67.8,527.7z M68.4,528.7c0.2,0,0.3,0.2,0.3,0.3v0v0h0v0v0h0v0v0h0v0h0v0h0h0v0h0
			h0l0,0h0c-0.2,0-0.3-0.2-0.3-0.3C68.1,528.9,68.3,528.7,68.4,528.7z"/>
		<path id="path172" class="st0" d="M71.2,529.9L71.2,529.9L71.2,529.9L71.2,529.9L71.2,529.9L71.2,529.9L71.2,529.9L71.2,529.9
			L71.2,529.9L71.2,529.9L71.2,529.9L71.2,529.9L71.2,529.9l0.1,0.1l0,0l0,0l0,0l0,0l0,0l0,0l0,0l0,0l0,0l0,0l0.1,0.1l0.1,0.1
			l0.1,0.1l0,0l0,0l0,0l0,0l0,0l0,0l0,0l0,0c0,0-1.9,0-2.3,1.6c0,0-0.6-1-0.2-1.6C70.1,530.1,70.6,530,71.2,529.9z"/>
		<path id="path174" class="st0" d="M73.3,530.3L73.3,530.3L73.3,530.3L73.3,530.3L73.3,530.3L73.3,530.3L73.3,530.3L73.3,530.3
			L73.3,530.3L73.3,530.3L73.3,530.3L73.3,530.3L73.3,530.3L73.3,530.3L73.3,530.3L73.3,530.3l0.1,0l0,0h0l0,0l0,0h0l0,0l0,0l0.1,0
			l0.1,0l0.1,0l0,0l0,0l0,0h0l0,0l0,0h0l0,0h0l0,0c0,0,0-0.3,0-0.5c0.2,0,0.4,0.1,0.6,0.1c0,0,0.6,1.3,1.1,1.9c0,0,0,0.3-0.2,0.8
			c0,0-0.3-0.8-0.9-1.4C74.2,531,74,530.8,73.3,530.3z"/>
		<path id="path176" class="st0" d="M71.7,530L71.7,530L71.7,530L71.7,530l0.1,0l0,0l0,0l0.1,0l0,0l0.1,0l0.1,0l0.1,0l0.1,0l0.1,0
			l0.1,0l0.1,0l0.1,0l0.1,0l0.1,0l0.1,0l0.1,0l0.1,0l0.1,0l0.1,0l0.1,0l0.1,0l0.1,0l0.1,0l0,0c0.6,0.4,1,0.9,0.9,1.7
			c0,0-0.5-0.7-1-1C72.8,531.2,72.1,530.6,71.7,530z"/>
		<path id="path178" class="st0" d="M71.7,523.9L71.7,523.9L71.7,523.9L71.7,523.9L71.7,523.9L71.7,523.9l0.1,0l0,0h0h0l0,0h0l0,0h0
			l0,0l0,0l0,0l0,0l0,0l0,0l0,0l0,0l0,0l0,0l0,0l0,0l0,0l0,0v0v0l0,0v0v0v0l0,0v0v0v0c0,0.3-0.4,1-0.6,1.3l0,0
			c-0.1-0.3-0.6-1-0.6-1.3S71.4,523.9,71.7,523.9L71.7,523.9L71.7,523.9z"/>
		<path id="path180" class="st0" d="M71.3,526.2L71.3,526.2L71.3,526.2l0-0.1l0,0l0,0l0,0l0-0.1v0l0-0.1l0-0.1l0-0.1l0-0.1l0-0.1
			l0-0.1l0-0.1l0-0.1l0,0l0-0.1l0,0l0,0l0,0l0,0l0,0l0,0l0,0l0,0l0,0l0,0c-0.3-0.2-0.6-0.2-0.8-0.2c-0.2,0-0.4,0.2-0.3,0.4
			s0.8,1.4,0.9,1.5C70.9,526.2,70.9,526.2,71.3,526.2z"/>
		<path id="path182" class="st0" d="M72,526.2L72,526.2L72,526.2l0-0.1l0,0l0,0l0,0l0-0.1l0,0l0-0.1l0-0.1l0-0.1l0-0.1l0-0.1l0-0.1
			l0-0.1l0-0.1l0,0l0-0.1l0,0l0,0l0,0l0,0l0,0l0,0l0,0l0,0l0,0l0,0c0.3-0.2,0.6-0.2,0.8-0.2s0.3,0.2,0.3,0.4
			c-0.1,0.2-0.8,1.4-0.9,1.5C72.4,526.2,72.4,526.2,72,526.2z"/>
		<polygon id="polygon184" class="st0" points="72.5,522.5 71.9,522.5 71.9,521.9 71.4,521.9 71.4,522.5 70.8,522.5 70.8,523 
			71.4,523 71.4,523.7 71.9,523.7 71.9,523 72.5,523 		"/>
		<path id="path186" class="st0" d="M65.2,526.8L65.2,526.8L65.2,526.8v-0.1v0l0,0v0v0v0l0,0v0c0-0.3,0.1-0.6,0-0.8
			c-0.4,0.2-0.7,0.3-1.3,1.2C63.9,526.8,64.9,526.3,65.2,526.8z"/>
		<path id="path188" class="st0" d="M66,528.4L66,528.4L66,528.4L66,528.4l0-0.1v0l0,0v0l0,0l0,0v0l0,0l0,0v0l0,0l0-0.1l0,0l0-0.1
			l0-0.1l0-0.1l0-0.1l0-0.1l0-0.1l0-0.1l0,0l0,0c0.3-0.7,0.1-1.6-0.2-2.2c-0.3-0.6-0.4-1.1-0.4-1.7c0,0-0.6,0.2-0.9,0.4
			c-0.1,0.7,0.3,1.3,0.5,1.7c0.2,0.5,0.2,1,0.1,1.4C65.5,527.1,65.6,527.7,66,528.4z"/>
		<path id="path190" class="st0" d="M66.1,523.2L66.1,523.2L66.1,523.2L66.1,523.2L66.1,523.2L66.1,523.2L66.1,523.2L66.1,523.2
			L66.1,523.2L66.1,523.2l0-0.1v0v0v0v0v0v0v0v0l0,0v0v0v0v0v0l0,0v0v0l0,0l0,0c0,0,0.9-0.9,1.6-1c0.5-0.1,0.8,0.1,0.9,0.2
			c0,0-0.3,0-0.7,0.3c-0.4,0.3-0.9,0.7-1.3,0.8C66.4,523.3,66.3,523.3,66.1,523.2z"/>
		<path id="path192" class="st0" d="M68.7,522.2L68.7,522.2l0.1,0.1l0.1,0.1l0.1,0.1l0.1,0.1l0.1,0.1l0,0l0,0l0,0l0,0l0,0l0,0l0,0
			l0,0l0,0l0,0l0,0l0,0l0,0l0,0l0,0v0l0,0v0v0v0c0,0.3-0.4,1.1-0.6,1.4c-0.2,0.3-0.5,0.7-0.4,1.2c0,0.3,0.2,0.5,0.4,0.7
			c0,0-1.1-0.3-1.2-0.9c-0.1-0.6,0.1-1,0.3-1.4c0.2-0.3,0.7-1,0.8-1.3C68.7,522.5,68.8,522.3,68.7,522.2z"/>
		<path id="path194" class="st0" d="M75.1,529.7l0,0.1l0.1,0.2l0.1,0.1l0.1,0.1l0.1,0.1l0.1,0.1l0.1,0.1l0.1,0.1l0.1,0.1l0.1,0.1
			l0.1,0.1l0.1,0.1l0.1,0.1l0.1,0.1l0.1,0.1l0.1,0.1c0.3,0.5,0.5,1.4,0.5,1.7c0,0,0.5-1.1,0.2-1.8C76.6,531,76,530.1,75.1,529.7z"/>
		<path id="path196" class="st0" d="M76.3,530L76.3,530L76.3,530L76.3,530L76.3,530L76.3,530L76.3,530L76.3,530L76.3,530L76.3,530
			L76.3,530L76.3,530h0.1l0,0h0h0h0h0l0,0h0h0l0.1,0h0l0.1,0h0l0.1,0l0.1,0l0,0l0.1,0h0l0.1,0l0,0l0.1,0l0,0l0,0l0,0l0,0l0,0
			c0.4,0.3,0.9,0.9,1,1.7c0,0-0.8-0.1-1.1-0.5C76.9,531.1,76.5,530.5,76.3,530z"/>
		<path id="path198" class="st0" d="M72.4,531.3L72.4,531.3L72.4,531.3L72.4,531.3L72.4,531.3L72.4,531.3l-0.1,0h0h0l0,0h0h0l0,0
			l-0.1,0l-0.1,0h-0.1l-0.1,0l-0.1,0l-0.1,0l0,0h0l0,0h0l0,0h0h0l0,0c0,0,0.6,0.2,0.9,0.4c0.3,0.2,0.5,0.6,0.6,1.2
			c0.2,0.8,0.6,1.7,0.8,2l0.1,0c-0.1-0.6,0.3-1.7,0.3-1.9c0,0-0.5-0.3-0.7-0.7C73.6,532.2,73.3,531.8,72.4,531.3z"/>
		<path id="path200" class="st0" d="M75.7,533.1L75.7,533.1L75.7,533.1l0.1,0.1l0,0l0,0l0,0l0,0.1l0,0l0,0l0,0.1l0.1,0.1l0.1,0.1
			l0,0.1l0,0.1l0,0.1l0,0.1l0,0.1l0,0.1l0,0.1l0,0.1l0,0.1l0,0.1v0.1v0.1v0.1l0,0.1v0.1l0,0.1l0,0.1l0,0.1c-0.2,0.8-0.7,1.1-1.1,1.8
			c0,0-0.3-1.2-0.2-2.1C75,533.7,75.3,533.4,75.7,533.1z"/>
		<path id="path202" class="st0" d="M77.2,533.1L77.2,533.1L77.2,533.1L77.2,533.1L77.2,533.1L77.2,533.1L77.2,533.1L77.2,533.1
			L77.2,533.1L77.2,533.1L77.2,533.1l0.1,0.1l0,0l0,0l0,0l0,0.1l0,0.1l0,0.1l0,0.1l0,0.1l0,0.1l0,0.1l0,0.1l0,0.1l0.1,0.1l0.1,0.2
			l0.1,0.2l0,0.1l0,0.1l0,0.1l0,0.1l0,0.1l0,0.1l0,0.1l0,0.1l0,0.1l0,0c0.1,0.6,0,0.9-0.3,1.3c-0.3,0.3-0.7,0.7-1.1,1.4
			c0,0-0.4-0.6-0.5-0.9c-0.1-0.3,0-1.1,0.1-1.4S76.8,534.1,77.2,533.1z"/>
		<path id="path204" class="st0" d="M77.6,537.7L77.6,537.7L77.6,537.7L77.6,537.7L77.6,537.7L77.6,537.7L77.6,537.7l-0.1,0.1l0,0
			l0,0l0,0l0,0l0,0l0,0l-0.1,0.1l-0.1,0l0,0.1l-0.1,0l-0.1,0.1l-0.1,0.1l-0.1,0.1l0,0.1l-0.1,0.1l0,0l0,0.1l0,0l0,0l0,0l0,0l0,0l0,0
			l0,0l0,0l0,0v0l0,0c-0.1,0.3-0.3,0.9-0.1,1.3c0.3,0.4,0.9,1,1.4,1.3c0,0-0.6-0.9-0.5-1.7c0-0.5,0.4-0.9,0.5-1.2
			C77.8,538.6,77.8,538.1,77.6,537.7z"/>
		<path id="path206" class="st0" d="M75.9,537.1L75.9,537.1L75.9,537.1L75.9,537.1L75.9,537.1l0.1,0.1l0,0l0,0l0,0l0,0l0,0l0,0l0,0
			l0,0l0,0l0,0.1l0,0.1l0,0.1l0,0.1l0,0.1l0,0.1v0l0,0l0,0v0v0l0,0c0,0.4,0,0.8-0.3,1.4c-0.3,0.8-0.8,1.7-1,2.1c0,0-0.4-0.6-0.6-1.1
			c0,0,0.6-0.9,0.9-1.5C75.6,538.3,75.7,537.7,75.9,537.1z"/>
		<path id="path208" class="st0" d="M75.6,536.7L75.6,536.7L75.6,536.7L75.6,536.7L75.6,536.7L75.6,536.7l0,0.1l0,0l0,0l0,0.1l0,0.1
			l0,0.1l0,0.1l0,0.1l0,0.1l0,0.1l0,0.1l0,0.1l0,0.1l-0.1,0.1l0,0.1l-0.1,0.2l-0.1,0.1l-0.1,0.2l-0.1,0.2l-0.1,0.2l-0.1,0.2
			l-0.1,0.2l-0.1,0.2l-0.1,0.2l-0.1,0.2l-0.1,0.2l-0.1,0.1l-0.1,0.2l-0.1,0.2c-0.8,1-1.5,1.4-1.9,1.4c-0.7,0-1.3-0.6-1.6-1.2
			c-0.2-0.6-0.2-1.6,0.3-2c0,0,0.4,1.2,1.2,1.3C73.1,539.9,74.3,538.8,75.6,536.7z"/>
		<path id="path210" class="st0" d="M74.6,535.9L74.6,535.9L74.6,535.9l0,0.1v0l0,0.1l0,0.1v0.1l0,0.1l0,0.1v0.1v0.1v0.1l0,0.1
			l0,0.1v0.1l0,0.1l0,0.1l0,0.1c-0.1,0.4-0.3,0.9-0.8,1.2c-0.4,0.3-1.4,0.3-1.7-0.6C72,538,73.8,538.1,74.6,535.9z"/>
		<path id="path212" class="st0" d="M77.4,544.1L77.4,544.1l0.1,0.1l0,0.1l0,0.1l0,0.1l0,0.1l0.1,0.1l0,0.1l0.1,0.1l0.1,0.1L78,545
			l0.1,0.1l0.1,0.1l0.1,0l0,0.1l0,0.1l0,0.1l0,0l0,0.1l0,0l0,0.1l0,0l0,0l0,0l0,0v0l0,0c0,1.3-0.6,2-0.7,2.5c0,0-1-0.8-1.2-1.7
			C76.5,546.3,76.6,544.8,77.4,544.1z"/>
		<path id="path214" class="st0" d="M76.3,545L76.3,545L76.3,545l0-0.1l0,0l0,0l0,0l0,0l0,0l0,0l0-0.1l0,0l0,0l0.1-0.1l0.1-0.1
			l0.1-0.1l0.1-0.1l0,0l0,0l0,0l0,0l0,0l0,0l0,0l0,0l0,0l0,0l0,0l0,0c0,0,0.6-1.6-1.2-2.6c0,0-0.7,1-0.9,1.9
			C74.9,543.7,75.9,544.2,76.3,545z"/>
		<path id="path216" class="st0" d="M74.1,540.9L74.1,540.9l-0.1,0.1l-0.1,0.1l-0.1,0.1l-0.1,0.1l-0.1,0.1l-0.1,0.1l-0.1,0.1
			l-0.1,0.1l-0.1,0.1l0,0l0,0l0,0l0,0l0,0l0,0l0,0l0,0l0,0l0,0l0,0l0,0c0,0-0.1,0.7,0,1.2c0.1,0.7,0.6,1.5,0.8,2c0,0,0.8-1,0.9-1.6
			c0.1-0.6,0.1-1.1,0.1-1.4C74.7,542.1,74.3,541.4,74.1,540.9z"/>
		<path id="path218" class="st0" d="M72,544.4L72,544.4L72,544.4l-0.1-0.1l0,0l0-0.1l0,0l0-0.1l0-0.1l0-0.1l0-0.1l0-0.1l0-0.1l0-0.1
			l0-0.1l-0.1-0.1l0-0.1l-0.1-0.2l-0.1-0.2l-0.1-0.2l0-0.1l0-0.1l0-0.1l0-0.1l0-0.1l0-0.1l0-0.1l0-0.1V542l0-0.1
			c0,0,0.9,0.5,1.6,0.1c0,0,0.1,1.2-0.1,1.6C72.5,544,72.4,544.1,72,544.4z"/>
		<path id="path220" class="st0" d="M72.2,544.7L72.2,544.7L72.2,544.7L72.2,544.7L72.2,544.7L72.2,544.7l0.1-0.1l0,0l0,0l0,0l0,0
			l0.1,0l0,0l0.1,0l0.1,0l0,0l0.1,0l0,0l0,0l0,0l0,0l0,0l0,0l0,0l0,0l0,0l0,0c0,0,0.6,1.1,0.7,1.4c0,0-0.3,0.1-0.6-0.2
			C72.6,545,72.5,545,72.2,544.7z"/>
		<path id="path222" class="st0" d="M74.9,544L74.9,544L74.9,544L74.9,544L74.9,544L74.9,544l-0.1,0.1l0,0l0,0l0,0l0,0l0,0.1l0,0
			l0,0.1l0,0.1l-0.1,0.1l0,0.1l-0.1,0.1l-0.1,0.1l-0.1,0.1l-0.1,0.2l-0.1,0.1l-0.1,0.1l0,0.1l-0.1,0.1l-0.1,0.1l0,0.1l0,0l-0.1,0
			l0,0l0,0l0,0l0,0l0,0l0,0l0,0l0,0l0,0l0,0c0,0,0.1,0.5,0.4,1.2c0.3,0.7,0.8,1.2,1.1,1.4c0,0,0.6-1,0.8-1.5c0.2-0.5,0.2-1,0.1-1.2
			C75.9,545.2,75.2,544.6,74.9,544z"/>
		<path id="path224" class="st0" d="M76.3,547.5L76.3,547.5L76.3,547.5l0.1,0.1l0,0l0,0l0,0l0,0l0,0l0,0l0,0.1l0.1,0.1l0.1,0.1
			l0.1,0.1l0.1,0.1l0.1,0.1l0.1,0.1l0,0.1l0,0l0,0.1l0,0l0,0l0,0.1l0,0l0,0.1l0,0v0c0.1,0.4,0,0.8-0.1,1.1c-0.1,0.3-0.5,0.9-0.8,1.3
			c0,0-0.9-0.8-1.1-1.4c-0.1-0.4-0.1-1,0.1-1.5C75.7,548.3,76.1,547.9,76.3,547.5z"/>
		<path id="path226" class="st0" d="M73.9,547.3L73.9,547.3L73.9,547.3l0.1,0.1l0,0l0,0l0,0l0.1,0.1l0.1,0.1l0.1,0.1l0.1,0.1
			l0.1,0.1l0.1,0.1l0.1,0.1l0.1,0.1l0,0l0,0l0,0l0,0l0,0l0,0l0,0l0,0l0,0l0,0c0.1,0.5,0.2,0.8-0.1,1.4c-0.2,0.5-0.5,0.8-0.6,1.1
			c0,0-0.7-0.9-0.8-1.3c-0.1-0.4-0.2-1,0-1.4C73.5,548.2,73.7,547.7,73.9,547.3z"/>
		<path id="path228" class="st0" d="M77.3,550.8L77.3,550.8L77.3,550.8L77.3,550.8L77.3,550.8L77.3,550.8L77.3,550.8L77.3,550.8
			L77.3,550.8L77.3,550.8L77.3,550.8l-0.1,0.1l0,0l0,0l0,0l0,0l0,0.1l-0.1,0.1l-0.1,0.1l-0.1,0.1l-0.1,0.1l-0.1,0.1l-0.1,0.1
			l-0.1,0.1l-0.1,0.1l-0.1,0.1l-0.1,0.1l-0.1,0.1l-0.1,0.1l-0.1,0.1l-0.1,0.1l0,0.1l0,0.1l0,0.1l0,0.1l0,0.1l0,0.1l0,0.1l0,0v0v0v0
			c0,1,0.7,1.6,0.8,2.2c0,0,0.6-0.7,0.9-1.2c0.3-0.5,0.5-1,0.4-1.6C78.1,551.8,78,551.4,77.3,550.8z"/>
		<path id="path230" class="st0" d="M75.1,550.6L75.1,550.6L75.1,550.6l0.1,0.1l0,0l0,0l0,0l0,0l0,0l0,0l0,0l0,0.1l0,0l0,0.1l0,0.1
			l0.1,0.1l0,0.1l0,0.1l0,0.1l0,0.1l0,0.1l0,0.1l0,0.1l0,0.1l0,0.1l0,0.1v0.1v0.1v0v0.1l0,0.1l0,0c-0.2,0.6-0.8,1.3-0.9,1.7
			c0,0-0.5-1-0.6-1.4C74.1,552.3,74.2,551.5,75.1,550.6z"/>
		<path id="path232" class="st0" d="M87.2,526.7L87.2,526.7L87.2,526.7L87.2,526.7L87.2,526.7L87.2,526.7L87.2,526.7L87.2,526.7
			l-0.1-0.1l0,0l0,0h0l0,0l0,0l0,0h0l-0.1,0h0l-0.1,0l0,0h-0.1l-0.1,0h-0.1h-0.1l-0.1,0h-0.1h-0.1l-0.1,0h-0.1h-0.1h-0.1H86h-0.1
			c-0.7,0-1.2,0.1-1.2,0.2s0.6,0.2,1.2,0.2C86.6,526.9,87.2,526.8,87.2,526.7z"/>
		<path id="path234" class="st0" d="M78.8,522.9L78.8,522.9l0-0.1l0-0.1l0-0.1l0-0.1l0-0.1l0-0.1l0-0.1l0-0.1l0-0.1l0.1-0.2l0.1-0.2
			l0.1-0.2l0.1-0.2l0.1-0.2l0-0.1l0-0.1l0-0.1l0-0.1l0-0.1l0-0.1l0-0.1l0-0.1l0-0.1l0-0.1v0v0c0-0.4-0.3-0.7-0.7-0.7
			s-0.7,0.3-0.7,0.7C78.1,521.2,78.7,522.4,78.8,522.9L78.8,522.9L78.8,522.9z"/>
		<path id="path236" class="st0" d="M80.8,524.1l0.1-0.2l0.1-0.1l0.1-0.1l0.1-0.1l0.1-0.1l0.1-0.1l0.1-0.1l0.1-0.1l0.1-0.1l0-0.1
			l0.1-0.1l0-0.1l0.1-0.1l0-0.1l0-0.1l0-0.1l0-0.1l0-0.1l0-0.1l0-0.1l0-0.1l0-0.1l0-0.1l0-0.1l0-0.1l0-0.1l0-0.1v0l0,0v0v0v0
			c0-0.2-0.3-0.4-0.5-0.5c-0.3-0.1-0.5-0.1-0.7,0c-0.3,0.3-0.6,2.3-0.8,3.1C80.3,523.8,80.5,523.9,80.8,524.1z"/>
		<path id="path238" class="st0" d="M79.7,523.8L79.7,523.8L79.7,523.8l-0.1,0h0l-0.1,0h-0.1h-0.1h-0.1l-0.1,0h-0.1
			c0.1-0.8,0.4-2.2,0.5-2.7c0.2-0.5,0.4-0.9,0.7-1c0,0-0.3,0.7-0.4,1.5C79.9,522.3,79.8,523,79.7,523.8z"/>
		<path id="path240" class="st0" d="M80.3,525.5L80.3,525.5L80.3,525.5L80.3,525.5L80.3,525.5L80.3,525.5L80.3,525.5L80.3,525.5
			L80.3,525.5L80.3,525.5L80.3,525.5l0.1,0.1l0,0l0,0l0,0l0,0l0,0l0.1,0l0,0l0.1,0l0.1,0l0.1,0l0.1,0l0.1,0l0.1,0l0.1,0l0.1,0l0.1,0
			l0.1,0l0.1,0l0.1,0l0.1,0l0.1,0l0.1,0l0.1,0l0.1,0l0.1,0C81.7,526.5,81.4,525.7,80.3,525.5z"/>
		<path id="path242" class="st0" d="M79.7,525.2L79.7,525.2L79.7,525.2l0.1,0h0.1h0.1H80l0.1,0h0.1h0.1l0.1,0h0.1l0.1,0l0.1,0h0.1
			l0.1,0l0.1,0l0.1,0l0.1,0l0.1,0l0.1,0l0.1,0l0.1,0l0.1,0l0.1,0l0.1,0l0.1,0l0.1,0l0.1,0l0.1,0l0.1,0l0.1,0l0.1,0
			c0.6,0.4,0.8,0.8,1,1.2c0,0-1.1,0.1-2.1-0.5C80.2,526.1,79.8,525.5,79.7,525.2z"/>
		<path id="path246" class="st0" d="M80.9,526.9c0,0,0.1,0.5,0.7,0.7c0,0-0.3,0-0.6,0.3c0,0,0.2,0.4,0.7,0.6c0,0-0.9,0.9-1.9,0.9
			c0,0,0.5,0.6,1.5,0.4c1-0.2,1.3-0.8,1.5-1c0,0-0.1,0.5-0.1,0.8c0,0,0.4,0,0.8-0.5c0,0-0.3,0.4-0.3,0.8c0,0,0.3,0,0.8-0.3
			c0,0-0.1,0.3-0.1,0.6c0,0,1.2-0.4,1.8-0.9v0v0v0v0v0v0v0v0v0v0v0v0.1l0,0v0v0v0v0c0,0,1.8-0.2,1.9-2.8c0,0-1.2,0.4-2.4,0.4
			C83.8,527.3,81.6,527.2,80.9,526.9z M84.3,527.9c0.9,0.1,2.1,0.1,2.1,0.1v0.1h0v0.1l0,0.1v0.1l0,0v0v0l0,0v0v0h0v0l0,0v0l0,0l0,0
			v0h0l0,0v0h0l0,0v0h0l0,0l0,0C85.8,528,84.3,528,84.3,527.9L84.3,527.9L84.3,527.9z"/>
		<path id="path248" class="st0" d="M87.7,527.1l0,0.1l0,0.1l0,0.1l0,0.1l0,0.1l0,0.1l0,0.1l0,0.1l0,0.1l0,0.1l0,0.1l0,0.1l0,0.1
			l0,0.1l0,0.1l0,0.1c0,0,0.7-0.5,0.9-1C88.4,527.2,88.4,526.9,87.7,527.1z"/>
		<path id="path252" class="st0" d="M89.2,527.7L89.2,527.7L89.2,527.7l-0.1,0l-0.1,0h0h0c-0.3,0.8-1.2,1.1-1.6,1.3
			c-0.5,0.2-0.9,0.8-0.9,0.8c0.7,0.2,1.1,0.3,1.1,0.3c1.4-1,2.5,0,2.5,0c0.8-0.4,0.9-1.5,0.5-2l-0.1-0.1l0-0.1l0,0l-0.1,0l0,0
			l-0.1,0l0,0l-0.1,0l-0.1,0l0,0h-0.1l-0.1,0H90l0,0h-0.1h-0.1h-0.1h-0.1h-0.1h-0.1h0h-0.1h-0.1h0L89.2,527.7L89.2,527.7L89.2,527.7
			z M89.1,528.7L89.1,528.7L89.1,528.7L89.1,528.7L89.1,528.7l0.1,0h0v0h0l0,0v0h0v0h0v0v0v0v0l0,0c0,0.2-0.2,0.3-0.3,0.3
			c-0.2,0-0.3-0.2-0.3-0.3C88.9,528.9,89,528.7,89.1,528.7z"/>
		<path id="path254" class="st0" d="M86.4,529.9L86.4,529.9L86.4,529.9L86.4,529.9L86.4,529.9L86.4,529.9L86.4,529.9L86.4,529.9
			L86.4,529.9L86.4,529.9L86.4,529.9L86.4,529.9L86.4,529.9l-0.1,0.1l0,0l0,0l0,0l0,0l0,0l0,0l0,0l0,0l0,0l0,0l-0.1,0.1l-0.1,0.1
			l-0.1,0.1l0,0l0,0l0,0l0,0l0,0l0,0l0,0l0,0c0,0,1.9,0,2.3,1.6c0,0,0.6-1,0.2-1.6C87.5,530.1,87,530,86.4,529.9z"/>
		<path id="path256" class="st0" d="M84.3,530.3L84.3,530.3L84.3,530.3L84.3,530.3L84.3,530.3L84.3,530.3L84.3,530.3L84.3,530.3
			L84.3,530.3L84.3,530.3L84.3,530.3L84.3,530.3L84.3,530.3L84.3,530.3L84.3,530.3l-0.1,0l0,0l0,0h0l0,0l0,0h0l0,0l0,0l-0.1,0
			l-0.1,0l-0.1,0l0,0l0,0l0,0h0l0,0l0,0h0l0,0h0l0,0c0,0,0-0.3,0-0.5c-0.2,0-0.4,0.1-0.6,0.1c0,0-0.6,1.3-1.1,1.9c0,0,0,0.3,0.2,0.8
			c0,0,0.3-0.8,0.9-1.4C83.4,531,83.6,530.8,84.3,530.3z"/>
		<path id="path258" class="st0" d="M85.9,530L85.9,530L85.9,530L85.9,530l-0.1,0l0,0l0,0l0,0l-0.1,0l-0.1,0l-0.1,0l-0.1,0l-0.1,0
			l-0.1,0l-0.1,0l-0.1,0l-0.1,0l-0.1,0l-0.1,0l-0.1,0l-0.1,0l-0.1,0l-0.1,0l-0.1,0l-0.1,0l-0.1,0l-0.1,0l-0.1,0l0,0
			c-0.6,0.4-1,0.9-0.9,1.7c0,0,0.5-0.7,1-1C84.8,531.2,85.5,530.6,85.9,530z"/>
		<path id="path260" class="st0" d="M85.9,523.9L85.9,523.9L85.9,523.9L85.9,523.9L85.9,523.9L85.9,523.9l-0.1,0l0,0h0h0l0,0h0l0,0
			h0l0,0l0,0l0,0l0,0l0,0l0,0l0,0l0,0l0,0l0,0l0,0l0,0l0,0l0,0v0v0l0,0v0v0v0l0,0v0v0v0c0,0.3,0.4,1,0.6,1.3l0,0
			c0.1-0.3,0.6-1,0.6-1.3S86.2,523.9,85.9,523.9L85.9,523.9L85.9,523.9z"/>
		<path id="path262" class="st0" d="M86.3,526.2L86.3,526.2L86.3,526.2l0-0.1l0,0v0l0,0l0-0.1l0,0l0-0.1l0-0.1l0-0.1l0-0.1l0-0.1
			l0-0.1l0-0.1l0-0.1l0,0l0-0.1l0,0l0,0l0,0l0,0l0,0l0,0l0,0l0,0l0,0l0,0c0.2-0.2,0.6-0.2,0.8-0.2s0.3,0.2,0.3,0.4
			c-0.1,0.2-0.8,1.4-0.9,1.5C86.7,526.2,86.7,526.2,86.3,526.2z"/>
		<path id="path264" class="st0" d="M85.6,526.2L85.6,526.2L85.6,526.2l0-0.1l0,0v0l0,0l0-0.1l0,0l0-0.1l0-0.1l0-0.1l0-0.1l0-0.1
			l0-0.1l0-0.1l0-0.1l0,0l0-0.1l0,0l0,0l0,0l0,0l0,0l0,0l0,0l0,0l0,0l0,0c-0.2-0.2-0.6-0.2-0.8-0.2c-0.2,0-0.3,0.2-0.3,0.4
			c0.1,0.2,0.8,1.4,0.9,1.5C85.2,526.2,85.1,526.2,85.6,526.2z"/>
		<polygon id="polygon266" class="st0" points="85.1,522.5 85.7,522.5 85.7,521.9 86.2,521.9 86.2,522.5 86.8,522.5 86.8,523 
			86.2,523 86.2,523.7 85.7,523.7 85.7,523 85.1,523 		"/>
		<polygon id="polygon268" class="st0" points="77.9,518.6 78.5,518.6 78.5,517.9 78.9,517.9 78.9,518.6 79.6,518.6 79.6,519 
			78.9,519 78.9,519.8 78.5,519.8 78.5,519 77.9,519 		"/>
		<path id="path270" class="st0" d="M92.4,526.8L92.4,526.8L92.4,526.8l0-0.1v0v0v0v0l0,0v0v0v0c-0.1-0.3-0.1-0.6,0-0.8
			c0.4,0.2,0.7,0.3,1.3,1.2C93.7,526.8,92.7,526.3,92.4,526.8z"/>
		<path id="path272" class="st0" d="M91.6,528.4L91.6,528.4L91.6,528.4L91.6,528.4l0-0.1l0,0v0l0,0v0l0,0v0l0,0l0,0l0,0l0,0l0-0.1
			l0,0l0-0.1l0-0.1l0-0.1l0-0.1l0-0.1l0-0.1l0-0.1l0,0l0,0c-0.2-0.7-0.1-1.6,0.2-2.2c0.3-0.6,0.4-1.1,0.4-1.7c0,0,0.6,0.2,0.9,0.4
			c0.1,0.7-0.3,1.3-0.5,1.7c-0.2,0.5-0.2,1-0.1,1.4C92.1,527.1,92,527.7,91.6,528.4z"/>
		<path id="path274" class="st0" d="M91.5,523.2L91.5,523.2L91.5,523.2L91.5,523.2L91.5,523.2L91.5,523.2L91.5,523.2L91.5,523.2
			L91.5,523.2L91.5,523.2v-0.1v0v0v0v0v0v0v0v0v0l0,0v0v0v0v0v0l0,0v0l0,0v0c0,0-0.9-0.9-1.6-1c-0.5-0.1-0.8,0.1-0.9,0.2
			c0,0,0.3,0,0.7,0.3c0.4,0.3,0.9,0.7,1.3,0.8C91.2,523.3,91.3,523.3,91.5,523.2z"/>
		<path id="path276" class="st0" d="M88.9,522.2L88.9,522.2l-0.1,0.1l-0.1,0.1l-0.1,0.1l-0.1,0.1l-0.1,0.1l0,0l0,0l0,0l0,0l0,0l0,0
			l0,0l0,0l0,0l0,0l0,0l0,0l0,0v0l0,0l0,0v0v0v0v0c0,0.3,0.4,1.1,0.6,1.4c0.2,0.3,0.5,0.7,0.4,1.2c0,0.3-0.2,0.5-0.4,0.7
			c0,0,1.1-0.3,1.2-0.9c0.1-0.6-0.1-1-0.3-1.4c-0.2-0.3-0.7-1-0.8-1.3C88.9,522.5,88.8,522.3,88.9,522.2z"/>
		<path id="path278" class="st0" d="M82.5,529.7l-0.1,0.1l-0.1,0.2l0,0.1l-0.1,0.1l-0.1,0.1l-0.1,0.1l-0.1,0.1l-0.1,0.1l-0.1,0.1
			l-0.1,0.1l-0.1,0.1l-0.1,0.1l-0.1,0.1l-0.1,0.1l-0.1,0.1l-0.1,0.1c-0.3,0.5-0.6,1.4-0.5,1.7c0,0-0.5-1.1-0.3-1.8
			C81,531,81.5,530.1,82.5,529.7z"/>
		<path id="path280" class="st0" d="M81.3,530L81.3,530L81.3,530L81.3,530L81.3,530L81.3,530L81.3,530L81.3,530L81.3,530L81.3,530
			L81.3,530L81.3,530L81.3,530l-0.1,0h0h0h0h0l0,0h0h-0.1l0,0h-0.1l0,0h-0.1l0,0l-0.1,0l-0.1,0l0,0h-0.1l-0.1,0l0,0l0,0l-0.1,0l0,0
			l0,0l0,0l0,0c-0.4,0.3-0.9,0.9-1,1.7c0,0,0.8-0.1,1.1-0.5C80.7,531.1,81.1,530.5,81.3,530z"/>
		<path id="path282" class="st0" d="M85.2,531.3L85.2,531.3L85.2,531.3L85.2,531.3L85.2,531.3L85.2,531.3l0.1,0h0h0l0,0h0h0l0,0h0
			l0,0l0.1,0h0.1l0.1,0l0.1,0l0.1,0l0,0h0l0,0h0l0,0h0h0l0,0c0,0-0.6,0.2-1,0.4c-0.3,0.2-0.5,0.6-0.6,1.2c-0.2,0.8-0.6,1.7-0.8,2
			l-0.1,0c0.1-0.6-0.3-1.7-0.3-1.9c0,0,0.5-0.3,0.7-0.7C84,532.2,84.3,531.8,85.2,531.3z"/>
		<path id="path284" class="st0" d="M81.9,533.1L81.9,533.1L81.9,533.1l-0.1,0.1l0,0l0,0l0,0l0,0.1l0,0l0,0l0,0.1l-0.1,0.1l-0.1,0.1
			l0,0.1l0,0.1l0,0.1l0,0.1l0,0.1l0,0.1l0,0.1l0,0.1l0,0.1l0,0.1v0.1v0.1v0.1v0.1v0.1l0,0.1l0,0.1l0,0.1c0.2,0.8,0.8,1.1,1.1,1.8
			c0,0,0.3-1.2,0.2-2.1C82.6,533.7,82.3,533.4,81.9,533.1z"/>
		<path id="path286" class="st0" d="M78.8,535.2L78.8,535.2L78.8,535.2L78.8,535.2l0-0.1l0-0.1l0,0l0-0.1l0-0.1l0-0.1l0-0.1l0-0.1
			l0.1-0.1l0.1-0.1l0.1-0.1l0-0.1l0.1-0.2l0.1-0.2l0.1-0.1l0.1-0.1l0-0.1l0.1-0.1l0-0.1l0-0.1l0-0.1l0-0.1l0-0.1l0-0.1l0-0.1l0-0.1
			v-0.1v0c-0.1-0.6-0.8-1-1.1-1.1h0c-0.2,0.1-1,0.5-1.1,1.1S78.8,534.8,78.8,535.2L78.8,535.2L78.8,535.2z"/>
		<path id="path288" class="st0" d="M80.4,533.1L80.4,533.1L80.4,533.1L80.4,533.1L80.4,533.1L80.4,533.1L80.4,533.1L80.4,533.1
			L80.4,533.1L80.4,533.1L80.4,533.1l-0.1,0.1l0,0l0,0l0,0l0,0.1l0,0.1l0,0.1l0,0.1l0,0.1l0,0.1l0,0.1l0,0.1l0,0.1l0,0.1l-0.1,0.2
			l-0.1,0.2l0,0.1l0,0.1l0,0.1l0,0.1l0,0.1l0,0.1l0,0.1l0,0.1l0,0.1l0,0c-0.1,0.6,0,0.9,0.2,1.3c0.3,0.3,0.7,0.7,1.1,1.4
			c0,0,0.5-0.6,0.5-0.9c0.1-0.3,0-1.1-0.1-1.4C81.1,535.1,80.8,534.1,80.4,533.1z"/>
		<path id="path290" class="st0" d="M78.8,538.6L78.8,538.6l0.1-0.1l0.1-0.1l0.1-0.1l0.1-0.1l0.1-0.1l0.1-0.1l0.1-0.1l0-0.1l0.1-0.1
			l0,0l0,0l0,0l0,0l0,0l0,0l0,0l0,0l0,0l0,0l0,0l0,0c0.1-0.3,0.1-0.6-0.1-0.9c-0.3-0.3-0.6-0.7-0.6-1h0c0,0.3-0.3,0.7-0.6,1
			c-0.2,0.3-0.2,0.7-0.1,0.9C78.2,537.9,78.5,538.3,78.8,538.6L78.8,538.6L78.8,538.6z"/>
		<path id="path292" class="st0" d="M80,537.7L80,537.7L80,537.7L80,537.7L80,537.7L80,537.7L80,537.7l0.1,0.1l0,0l0,0l0,0l0,0l0,0
			l0.1,0l0,0.1l0.1,0l0.1,0.1l0,0l0.1,0.1l0.1,0.1l0.1,0.1l0.1,0.1l0,0.1l0,0l0.1,0.1l0,0l0,0l0,0l0,0l0,0l0,0l0,0l0,0v0l0,0v0
			c0.1,0.3,0.3,0.9,0.1,1.3c-0.3,0.4-0.9,1-1.4,1.3c0,0,0.6-0.9,0.5-1.7c0-0.5-0.4-0.9-0.5-1.2C79.8,538.6,79.8,538.1,80,537.7z"/>
		<path id="path294" class="st0" d="M81.7,537.1L81.7,537.1L81.7,537.1L81.7,537.1L81.7,537.1l-0.1,0.1l0,0l0,0l0,0l0,0l0,0l0,0l0,0
			l0,0l0,0l0,0.1l0,0.1l0,0.1l0,0.1l0,0.1l0,0.1l0,0v0l0,0v0l0,0v0c0,0.4,0.1,0.8,0.3,1.4c0.3,0.8,0.7,1.7,1,2.1
			c0,0,0.4-0.6,0.6-1.1c0,0-0.6-0.9-0.9-1.5C82,538.3,81.9,537.7,81.7,537.1z"/>
		<path id="path296" class="st0" d="M82,536.7L82,536.7L82,536.7L82,536.7L82,536.7L82,536.7l0,0.1l0,0l0,0l0,0.1l0,0.1l0,0.1l0,0.1
			l0,0.1l0,0.1l0,0.1l0,0.1l0,0.1l0,0.1l0,0.1l0.1,0.1l0.1,0.2l0.1,0.1l0.1,0.2l0.1,0.2l0.1,0.2l0.1,0.2l0.1,0.2l0.1,0.2l0.1,0.2
			l0.1,0.2l0.1,0.2l0.1,0.1l0.1,0.2l0.1,0.2c0.8,1,1.5,1.4,1.9,1.4c0.7,0,1.3-0.6,1.6-1.2c0.2-0.6,0.2-1.6-0.3-2
			c0,0-0.4,1.2-1.3,1.3C84.5,539.9,83.3,538.8,82,536.7z"/>
		<path id="path298" class="st0" d="M83,535.9L83,535.9L83,535.9l0,0.1l0,0l0,0v0l0,0.1l0,0.1l0,0.1v0.1v0.1v0.1v0.1v0.1l0,0.1
			l0,0.1l0,0.1l0,0.1l0,0.1c0.1,0.4,0.3,0.9,0.8,1.2c0.4,0.3,1.4,0.3,1.7-0.6C85.6,538,83.8,538.1,83,535.9z"/>
		<path id="path300" class="st0" d="M78.8,542L78.8,542L78.8,542l0.1-0.1l0,0l0.1,0l0,0l0,0l0,0l0,0l0,0l0,0l0,0l0,0l0,0l0,0l0,0
			l0,0l0,0l0,0l0,0l0,0l0,0l0,0l0,0l0,0l0,0c0.2-0.3,0.4-1,0.3-1.4c-0.2-0.5-0.5-0.8-0.6-1.1c-0.1,0.1-0.2,0.2-0.4,0.3h0
			c-0.2-0.1-0.3-0.2-0.4-0.3c-0.2,0.3-0.5,0.6-0.6,1.1c-0.1,0.5,0.1,1.1,0.3,1.4C78.3,541.8,78.5,541.8,78.8,542z"/>
		<path id="path302" class="st0" d="M78.8,545.4L78.8,545.4L78.8,545.4l0.1-0.2l0-0.1l0-0.1l0-0.1l0-0.1l0.1-0.1l0.1-0.1l0.1-0.1
			l0.1-0.1l0.1-0.1l0.1-0.2l0.1-0.2l0.1-0.2l0.1-0.1l0.1-0.1l0.1-0.1l0-0.1l0-0.1l0-0.1l0-0.1l0-0.1l0-0.1l0-0.1l0-0.1v-0.1v0v0v0v0
			c-0.2-0.9-0.7-0.7-1.1-1h0c-0.4,0.3-1,0.2-1.1,1C77.5,543.8,78.7,544.9,78.8,545.4z"/>
		<path id="path304" class="st0" d="M80.1,544.1L80.1,544.1l0,0.1l0,0.1l0,0.1l0,0.1l0,0.1l0,0.1l0,0.1l-0.1,0.1l-0.1,0.1l-0.1,0.1
			l-0.1,0.1l-0.1,0.1l0,0l-0.1,0.1l0,0.1l0,0.1l0,0l0,0.1l0,0l0,0.1l0,0l0,0l0,0l0,0l0,0v0c0,1.3,0.6,2,0.7,2.5c0,0,1-0.8,1.2-1.7
			C81.1,546.3,80.9,544.8,80.1,544.1z"/>
		<path id="path306" class="st0" d="M81.3,545L81.3,545L81.3,545l0-0.1l0,0l0,0l0,0l0,0l0,0l0,0l0-0.1l0,0l0,0l-0.1-0.1l-0.1-0.1
			l-0.1-0.1l-0.1-0.1l0,0l0,0l0,0l0,0l0,0l0,0l0,0l0,0l0,0l0,0l0,0l-0.1,0c0,0-0.6-1.6,1.2-2.6c0,0,0.7,1,0.9,1.9
			C82.7,543.7,81.7,544.2,81.3,545z"/>
		<path id="path308" class="st0" d="M83.5,540.9L83.5,540.9l0.1,0.1l0.1,0.1l0.1,0.1l0.1,0.1l0.1,0.1l0.1,0.1l0.1,0.1l0.1,0.1
			l0.1,0.1l0,0l0,0l0,0l0,0l0,0l0,0l0,0l0,0l0,0l0,0l0,0l0,0c0,0,0.1,0.7,0.1,1.2c-0.1,0.7-0.6,1.5-0.8,2c0,0-0.8-1-0.9-1.6
			c-0.1-0.6-0.1-1.1-0.1-1.4C82.8,542.1,83.3,541.4,83.5,540.9z"/>
		<path id="path310" class="st0" d="M85.6,544.4L85.6,544.4L85.6,544.4l0.1-0.1l0,0l0-0.1l0,0l0-0.1l0-0.1l0-0.1l0-0.1l0-0.1
			l0.1-0.1l0-0.1l0-0.1l0-0.1l0-0.1l0.1-0.2l0.1-0.2l0.1-0.2l0-0.1l0-0.1l0-0.1l0-0.1l0-0.1l0-0.1l0-0.1l0-0.1V542v-0.1
			c0,0-0.9,0.5-1.6,0.1c0,0-0.1,1.2,0,1.6C85.1,544,85.2,544.1,85.6,544.4z"/>
		<path id="path312" class="st0" d="M85.4,544.7L85.4,544.7L85.4,544.7L85.4,544.7L85.4,544.7L85.4,544.7l-0.1-0.1l0,0l0,0l0,0l0,0
			l0,0l0,0l-0.1,0l-0.1,0l0,0l-0.1,0l0,0l0,0l0,0l0,0l0,0l0,0l0,0l0,0l0,0l0,0l0,0c0,0-0.6,1.1-0.7,1.4c0,0,0.3,0.1,0.6-0.2
			C85,545,85.1,545,85.4,544.7z"/>
		<path id="path314" class="st0" d="M82.7,544L82.7,544L82.7,544L82.7,544L82.7,544L82.7,544l0.1,0.1v0l0,0l0,0l0,0l0,0.1l0,0l0,0.1
			l0.1,0.1l0,0.1l0.1,0.1l0.1,0.1l0,0.1l0.1,0.1l0.1,0.2l0.1,0.1l0.1,0.1l0.1,0.1l0,0.1l0.1,0.1l0,0.1l0.1,0l0,0l0,0l0,0l0,0l0,0
			l0,0l0,0l0,0v0l0,0l0,0c0,0-0.1,0.5-0.4,1.2c-0.4,0.7-0.8,1.2-1.1,1.4c0,0-0.6-1-0.8-1.5c-0.2-0.5-0.2-1-0.1-1.2
			C81.7,545.2,82.4,544.6,82.7,544z"/>
		<path id="path316" class="st0" d="M78.8,551.8L78.8,551.8L78.8,551.8l0-0.1l0,0l0,0l0,0l0,0l0,0l0,0l0,0l0,0l0,0l0.1-0.1l0.1-0.1
			l0.1-0.1l0.1-0.1l0.1-0.1l0.1-0.1l0,0l0,0l0,0l0,0l0,0l0-0.1l0,0l0-0.1c0.1-0.4,0.1-0.8,0-1.1c-0.2-0.3-0.8-1.2-0.8-1.4l0,0
			c-0.1,0.2-0.7,1.1-0.8,1.4c-0.2,0.3-0.2,0.7,0,1.1C78.2,551,78.7,551.4,78.8,551.8L78.8,551.8z"/>
		<path id="path318" class="st0" d="M81.2,547.5L81.2,547.5L81.2,547.5l-0.1,0.1l0,0l0,0l0,0l0,0l0,0l0,0l0,0.1l-0.1,0.1l-0.1,0.1
			l-0.1,0.1l-0.1,0.1l-0.1,0.1l-0.1,0.1l0,0.1l0,0l0,0.1l0,0l0,0l0,0.1l0,0l0,0.1l0,0l0,0c-0.1,0.4,0,0.8,0.1,1.1
			c0.1,0.3,0.5,0.9,0.8,1.3c0,0,0.9-0.8,1.1-1.4c0.1-0.4,0.1-1-0.1-1.5C81.9,548.3,81.4,547.9,81.2,547.5z"/>
		<path id="path320" class="st0" d="M83.7,547.3L83.7,547.3L83.7,547.3l-0.1,0.1l0,0l0,0l0,0l-0.1,0.1l-0.1,0.1l-0.1,0.1l-0.1,0.1
			l-0.1,0.1l-0.1,0.1l-0.1,0.1l-0.1,0.1l0,0l0,0l0,0l0,0l0,0l0,0l0,0l0,0l0,0l0,0c-0.1,0.5-0.2,0.8,0.1,1.4c0.2,0.5,0.5,0.8,0.6,1.1
			c0,0,0.7-0.9,0.8-1.3c0.1-0.4,0.2-1,0-1.4C84.1,548.2,83.9,547.7,83.7,547.3z"/>
		<path id="path322" class="st0" d="M78.8,558.7L78.8,558.7L78.8,558.7l0-0.1l0-0.1l0-0.1l0-0.1l0-0.1l0-0.1l0-0.1l0-0.1l0-0.1
			l0-0.1l0.1-0.1l0-0.1l0.1-0.1l0-0.1l0.1-0.1l0.1-0.1l0-0.1l0-0.1l0.1-0.1l0-0.1l0-0.1l0-0.1l0-0.1l0-0.1l0-0.1l0-0.1l0-0.1l0-0.1
			l0-0.1v-0.1c0-0.7-0.6-1.9-1-2.3h0c-0.4,0.4-1,1.6-1,2.3C77.8,556.9,78.8,558.3,78.8,558.7z"/>
		<path id="path324" class="st0" d="M80.3,550.8L80.3,550.8L80.3,550.8L80.3,550.8L80.3,550.8L80.3,550.8L80.3,550.8L80.3,550.8
			L80.3,550.8L80.3,550.8L80.3,550.8l0.1,0.1l0,0l0,0l0,0l0.1,0l0,0.1l0.1,0.1l0.1,0.1l0.1,0.1l0.1,0.1l0.1,0.1l0.1,0.1l0.1,0.1
			l0.1,0.1l0.1,0.1l0.1,0.1l0.1,0.1l0.1,0.1l0.1,0.1l0,0.1l0.1,0.1l0,0.1l0,0.1l0,0.1l0,0.1l0,0.1l0,0.1v0v0v0v0
			c0,1-0.7,1.6-0.8,2.2c0,0-0.6-0.7-0.9-1.2c-0.3-0.5-0.5-1-0.4-1.6C79.5,551.8,79.6,551.4,80.3,550.8z"/>
		<path id="path326" class="st0" d="M82.5,550.6L82.5,550.6L82.5,550.6l-0.1,0.1l0,0l0,0l0,0l0,0l0,0l0,0l0,0l0,0.1l0,0l0,0.1l0,0.1
			l-0.1,0.1l0,0.1l0,0.1l0,0.1l0,0.1l0,0.1l0,0.1l0,0.1l0,0.1l0,0.1v0.1l0,0.1v0.1v0l0,0.1v0.1l0,0c0.1,0.6,0.7,1.3,0.9,1.7
			c0,0,0.5-1,0.6-1.4C83.5,552.3,83.4,551.5,82.5,550.6z"/>
		<path id="path328" class="st0" d="M79.6,561.1L79.6,561.1l0-0.2l0-0.1l0-0.1l0-0.1l0-0.1l0-0.1l0-0.1l0-0.1l0-0.1l0-0.1l0-0.1
			l0-0.1l0-0.1l0.1-0.2l0.1-0.1l0.1-0.1l0.1-0.1l0.1-0.1l0-0.1l0-0.1l0-0.1l0-0.1l0,0l0-0.1l0,0l0,0c0.1-0.7,0.1-1.3-0.4-2
			c-0.4,1.4-0.8,2.4-1.2,3.1c0,0,0,0,0,0.1c0,0,0,0,0-0.1c-0.3-0.7-0.8-1.7-1.2-3.1c-0.5,0.8-0.6,1.4-0.4,2c0.1,0.6,0.8,1.3,0.8,2.4
			c0.1,1.1-1.2,1.6-1.2,1.6c0.4,0.2,0.9,0.2,1.7-0.5c0.1-0.1,0.3-0.3,0.3-0.4c0.1,0.2,0.2,0.3,0.3,0.4c0.8,0.7,1.3,0.7,1.7,0.5
			C80.8,562.6,79.6,562.2,79.6,561.1z"/>
		<path id="path330" class="st0" d="M75.6,553.5L75.6,553.5L75.6,553.5l0.1,0.1l0,0l0,0l0,0l0,0l0,0l0,0.1l0.1,0.1l0.1,0.1l0,0.1
			l0.1,0.1l0,0l0,0l0,0l0,0l0,0l0,0l0,0l0,0l0,0l0,0l0,0l0,0v0l0,0c0.1,0.5,0,1-0.8,1.6c0,0-0.5-0.4-0.7-0.9c-0.2-0.5-0.1-0.8,0.1-1
			C74.9,554.4,75.4,553.9,75.6,553.5z"/>
		<path id="path332" class="st0" d="M77.3,555.2L77.3,555.2L77.3,555.2L77.3,555.2l0,0.1v0v0l0,0.1v0l0,0.1l0,0.1l0,0.1l0,0.1l0,0.1
			l0,0.1l0,0.1l0,0.1l0,0.2l0,0.2l-0.1,0.2l0,0.1l0,0.1l0,0.1l0,0.1l0,0.1l0,0.1l0,0.1l0,0.1l0,0.1l0,0.1c-0.5,0.9-1.3,1.6-1.9,1.6
			c-0.6,0-0.7-0.4-1-0.5c0,0,0.2-0.8,0.8-1C75.5,557.2,76.8,556.2,77.3,555.2z"/>
		<path id="path334" class="st0" d="M75.1,556.8L75.1,556.8L75.1,556.8l-0.1-0.1l0,0l0,0l0,0l0,0l0,0l0,0l0,0l0,0l0,0l0,0l0,0l0,0
			l0,0l0,0l0,0l0,0l0,0l0,0c0,0-0.6,0.2-1.2,0.6c-0.5,0.4-1.1,1-1.3,1.3c0,0,0.8,0.2,1.3,0c0,0,0.2-0.8,0.8-1.1
			C74.4,557.2,74.8,557,75.1,556.8z"/>
		<path id="path336" class="st0" d="M74.5,556.2L74.5,556.2L74.5,556.2L74.5,556.2L74.5,556.2l-0.1-0.1l0,0l0,0l0,0l0,0l0,0l0,0l0,0
			l0,0l0,0l0,0l0,0l0,0l0,0v0l0,0l0,0l0,0l0,0v0l0,0v0v0l0,0v0v0l0,0v0c0,0-1.1,0.7-1.5,1c-0.3,0.3-1,1-1.2,1.2c0,0,0.8-0.2,1.5-0.4
			C73.7,556.7,74.2,556.3,74.5,556.2z"/>
		<path id="path338" class="st0" d="M72.6,557.4L72.6,557.4l-0.1,0l-0.1,0l-0.1,0l-0.1,0l-0.1,0l-0.1,0l-0.1,0l-0.1,0l-0.1,0l-0.2,0
			l-0.2,0l-0.2,0l-0.2,0l-0.2,0l-0.2,0l-0.1,0l-0.1,0l-0.1,0l-0.1,0l-0.1,0l-0.1,0l-0.1,0l-0.1,0l-0.1,0l-0.1,0
			c-0.6,0.2-1,0.5-1.5,1c0,0,0.8,0.2,1.3,0.4c0,0,0.7-0.5,1.5-0.8C71.8,558.5,72,557.9,72.6,557.4z"/>
		<path id="path340" class="st0" d="M71.3,561.4L71.3,561.4L71.3,561.4L71.3,561.4l0.1-0.1l0,0l0,0l0,0l0,0v0l0,0l0,0l0,0v0l0,0v0v0
			l0,0v0v0v0v0v0v0l0,0v0l0,0v0l0,0c-0.1-0.2-0.6-0.5-0.9-0.7c-0.5-0.2-1.8-0.6-2.3-0.7c0,0-0.2,0.3-0.3,0.5c-0.1,0.1,0,0.2,0.2,0.2
			c0.4,0.1,1.3-0.1,1.5,0c0.2,0.2,0.2,0.4,0.2,0.6c0,0,0.4-0.3,0.7-0.2C70.9,560.7,71.1,560.8,71.3,561.4z"/>
		<path id="path342" class="st0" d="M70.1,559.5L70.1,559.5L70.1,559.5L70.1,559.5L70.1,559.5L70.1,559.5l0.1,0l0,0l0,0h0l0,0l0,0
			l0,0l0,0l0,0l0,0l0,0l0,0l0,0l0.1,0l0,0l0.1,0l0,0l0.1,0l0.1,0l0,0l0.1,0l0.1,0l0.1,0l0,0l0.1,0l0.1,0l0.1,0c0,0,0.2-0.1,0.3-0.3
			c0.1-0.2,0.6-0.9,1-1c0,0-0.4,0-0.6-0.1c0,0-0.4,0.1-0.8,0.3C70.9,559,70.6,559.2,70.1,559.5z"/>
		<path id="path344" class="st0" d="M73.6,558.7L73.6,558.7L73.6,558.7L73.6,558.7L73.6,558.7L73.6,558.7L73.6,558.7L73.6,558.7
			l-0.1,0h0l0,0h0h0l0,0h0h0l0,0h0h0l0,0h0h0h0l0,0h0h0h0l0,0h0h0h0c0,0-1.2,0.8-1.3,1.6c-0.1,0.7,0.3,1,0.4,1.1
			c0.2,0.1,1,0.4,1.6-0.7c0,0-0.9,0.3-1.2-0.1c-0.2-0.5,0.2-1.1,0.4-1.3c0.3-0.3,0.9-0.4,1.3-0.3C74.2,559.1,73.9,558.9,73.6,558.7z
			"/>
		<path id="path346" class="st0" d="M65.8,568.1l0.1-0.2l0.1-0.2l0.1-0.2l0-0.1l0-0.1l0-0.1l0-0.1l0-0.1l0-0.1l0.1-0.1l0-0.1
			l0.1-0.1l0.1-0.1c0.5-1.1,1.9-4.2,4.6-4.7c0.3-0.1-0.3-0.7-0.6-0.7c-0.3,0-0.7,0.3-0.9,0.5c0,0,0-0.7,0-0.8c0-0.1-0.1-0.2-0.2-0.2
			c-0.1,0-0.8,0-1,0.3c-0.6,0.7-1.7,2.7-2.3,4.1s-1,1.9-1.7,1.7c-0.6-0.2-1-1-2.1-0.7c-0.4,0.1-0.8,0.3-1.1,0.7
			c0.1,0.2,0.2,0.4,0.7,0.4c0.5,0,1.5,0.2,2,0.6C64.4,567.9,65,568,65.8,568.1z"/>
		<path id="path348" class="st0" d="M76.8,558.7L76.8,558.7l0,0.2l0,0.1l0,0.1l0,0.1l0,0.1l0,0.1l0,0.1l0,0.1l0,0.1l0,0.1l0.1,0.1
			l0,0.1l0.1,0.1l0,0.1l0.1,0.1c0,0-0.8,3.9-3.9,4.2c0,0,0.1-0.8,0.9-1.4c0.9-0.6,2.3-1.6,2.2-3c0,0-0.3,0-0.7,0.6s-1.4,2.1-2.8,2.1
			c0,0,0.2-0.7,0.9-1.2c0.6-0.4,1.5-1,1.8-1.6C76.1,559.1,76.5,558.8,76.8,558.7z"/>
		<path id="path350" class="st0" d="M75.3,572.8l1.8,2.6l1.4-2.5l-0.5-0.9c-0.4,0.7-0.8,1.4-1,1.8c-0.2-0.3-0.6-0.9-1.2-1.8
			L75.3,572.8z"/>
		<polygon id="polygon352" class="st0" points="74.9,570.6 74.5,570.1 74.2,569.6 73.8,569.2 73.5,568.7 73.1,568.2 72.8,567.7 
			72.6,567.5 72.5,567.3 72.3,567 72.2,566.8 72,566.6 71.9,566.4 71.7,566.2 71.6,566 71.5,565.8 71.4,565.7 71.2,565.5 
			71.1,565.4 71,565.2 71,565.1 70.9,565 70.8,564.9 70.8,564.8 70.7,564.8 70.7,564.7 70.6,564.7 71.3,564.2 69.1,563.3 
			69.2,565.7 69.9,565.2 74.4,571.4 		"/>
		<path id="path354" class="st0" d="M59.7,556.5L59.7,556.5l0.1-0.1l0,0l0.1,0l0.1,0l0.1,0l0.1,0l0.1,0l0.1,0h0.1l0.1,0h0.1l0.1,0
			l0.1,0l0.1,0l0.1,0l0.1,0l0.1,0l0.1,0l0.1,0l0.1,0l0.1,0l0.1,0.1l0.1,0l0.1,0.1l0.1,0.1l0.1,0.1l0.1,0.1l0.1,0.1l0.1,0.1l0.1,0.1
			l0.1,0.1c0.9,0.8,1.5,1.7,1,2.3c-0.5,0.5-1.5,0.1-2.4-0.8C59.8,558,59.2,557.1,59.7,556.5z"/>
		<path id="path356" class="st0" d="M61.2,567L61.2,567L61.2,567L61.2,567L61.2,567L61.2,567L61.2,567L61.2,567L61.2,567L61.2,567
			L61.2,567L61.2,567L61.2,567L61.2,567L61.2,567c-0.6-0.5-0.9-1.2-0.9-1.9c0-1.4,1.1-2.5,2.5-2.5c1.4,0,2.5,1.1,2.5,2.5
			c0,0.2,0,0.5,0,0.5c0.1-0.2,0.5-1.2,0.6-1.3c-0.4-1.4-1.6-2.4-3.1-2.4c-1.3,0-2.4,0.7-2.9,1.8c0.2-1.3,0.8-2.4,1.3-2.8
			c0.5-0.5,1.5-0.7,1.5-0.7c-0.6,0.1-1.4-0.3-2.3-1.1c-0.8-0.8-1.3-1.5-1.3-2c0,0.8,0,1.2-0.2,1.9c-0.3,0.9-1.2,2.5-0.8,4.3
			c0.2,1,0.9,2.5,2.1,3.7c0.3,0.3,0.3,0.7,0.4,0.9c0,0,1.8,0,2.2,0c0,0,0.4,0,0.4-0.3c0-0.3-0.2-0.3-0.4-0.3
			C62.6,567.3,61.7,567.3,61.2,567z"/>
		<path id="path358" class="st0" d="M71.2,567.6l-0.2,0.1l-0.2,0.1l-0.2,0.1l-0.2,0.1l-0.2,0.1l-0.2,0.1l-0.2,0l-0.2,0l-0.2,0
			l-0.2,0l-0.2,0l-0.2,0l-0.4,0.1l-0.4,0.1c-0.7,0.1-1.4,0.2-2.1,0.1c0,0.1,0,0.3-0.1,0.4c0,0,0.1,0.2,0.1,0.3c0.7,0,1.4,0,2.1-0.1
			c1.2-0.2,2.5-0.4,3.7-0.9L71.2,567.6z"/>
		<path id="path360" class="st0" d="M73.1,567.5l0.3-0.2l0.3-0.2L74,567l0.3-0.2l0.3-0.2l0.3-0.2l0.3-0.2l0.3-0.3l0.3-0.3l0.3-0.3
			l0.3-0.3l0.3-0.3l0.3-0.3L77,564l0.3-0.4l0.1-0.2l0.1-0.2l0.2-0.4c-0.4,0.2-0.8,0-0.8,0c0,0-0.1,0.1-0.1,0.2
			c-1.3,1.9-2.7,3-4.1,3.8L73.1,567.5z"/>
		<path id="path362" class="st0" d="M63,568.2L63,568.2L63,568.2L63,568.2h-0.1h0l0,0h0h0h0h0h0h0h0h0h-0.1l-0.1,0h-0.1l-0.1,0H62
			l-0.1,0h0h0l0,0h0l0,0h0c-0.5,0.1-1,0.2-1,0.4c0,0.2,0.1,0.5,0.3,0.8c0.2,0.2,0.5,0.1,0.7,0c0.2-0.1,1.2-0.6,1.4-0.8
			C63.2,568.5,63.3,568.2,63,568.2z"/>
		<path id="path364" class="st0" d="M64,568.9L64,568.9L64,568.9L64,568.9L64,568.9L64,568.9L64,568.9L64,568.9l-0.1-0.1l0,0h0l0,0
			h0l0,0h0h0l0,0h0h0l0,0h0h0h0h0h0h0h0l0,0h0l0,0h0l0,0h0c-0.3,0.1-1.3,0.7-1.4,1c-0.1,0.3,0.1,0.4,0.2,0.5
			c0.2,0.1,0.3,0.1,0.5,0.1c0.3,0,0.5-0.1,0.6-0.3c0.1-0.2,0.6-0.7,0.7-0.9C64.1,569.1,64.1,568.9,64,568.9z"/>
		<path id="path366" class="st0" d="M64.1,569.5L64.1,569.5L64.1,569.5L64.1,569.5L64.1,569.5l-0.1,0.1l0,0l0,0l0,0l0,0l0,0l0,0l0,0
			l0,0.1l0,0.1l0,0l0,0l0,0l0,0l0,0l0,0l0,0l0,0l0,0l0,0l0,0l0,0l0,0v0h0v0l0,0l0,0l0,0c0,0.1,0,0.2,0.2,0.2c0.1,0,0.8-0.1,1.3-0.4
			c0.4-0.3,0.7-0.8,0.4-1C65,568.9,64.6,569,64.1,569.5z"/>
		<path id="path368" class="st0" d="M64.4,568L64.4,568L64.4,568L64.4,568L64.4,568L64.4,568L64.4,568l-0.1,0h0l0,0h0h0l0,0h0l0,0h0
			h0h0l0,0h0h0h0h0h0h0l0,0h0l0,0h0v0h0h0l0,0l0,0l0,0h0v0h0v0c-0.2,0.2,0,0.5,0.4,0.7c0.4,0.2,1.2,0.4,1.3,0.2
			C65.5,568.6,65.3,568.2,64.4,568z"/>
		<path id="path370" class="st0" d="M82,553.5L82,553.5L82,553.5l-0.1,0.1l0,0l0,0l0,0l0,0l0,0l0,0.1l-0.1,0.1l0,0.1l-0.1,0.1
			l-0.1,0.1l0,0l0,0l0,0l0,0l0,0l0,0l0,0l0,0l0,0l0,0l0,0l0,0l0,0v0c-0.1,0.5,0,1,0.8,1.6c0,0,0.5-0.4,0.7-0.9
			c0.2-0.5,0.1-0.8-0.1-1C82.7,554.4,82.2,553.9,82,553.5z"/>
		<path id="path372" class="st0" d="M80.3,555.2L80.3,555.2L80.3,555.2L80.3,555.2l0,0.1v0l0,0v0.1l0,0l0,0.1v0.1l0,0.1l0,0.1l0,0.1
			l0,0.1l0,0.1l0,0.1l0,0.2l0,0.2l0,0.2l0,0.1l0,0.1l0,0.1l0,0.1l0,0.1l0,0.1l0,0.1l0,0.1l0,0.1l0,0.1c0.5,0.9,1.3,1.6,1.9,1.6
			c0.6,0,0.7-0.4,1-0.5c0,0-0.2-0.8-0.8-1C82.1,557.2,80.8,556.2,80.3,555.2z"/>
		<path id="path374" class="st0" d="M82.4,556.8L82.4,556.8L82.4,556.8l0.1-0.1l0,0l0,0l0,0l0,0l0,0l0,0l0,0l0,0l0,0l0,0l0,0l0,0
			l0,0l0,0l0,0l0,0l0,0l0,0c0,0,0.7,0.2,1.2,0.6c0.5,0.4,1.1,1,1.3,1.3c0,0-0.8,0.2-1.3,0c0,0-0.2-0.8-0.8-1.1
			C83.2,557.2,82.8,557,82.4,556.8z"/>
		<path id="path376" class="st0" d="M83.1,556.2L83.1,556.2L83.1,556.2L83.1,556.2L83.1,556.2l0.1-0.1l0,0l0,0l0,0l0,0l0,0l0,0l0,0
			l0,0l0,0l0,0l0,0l0,0l0,0l0,0l0,0l0,0l0,0v0l0,0v0l0,0v0v0l0,0v0l0,0v0c0,0,1.1,0.7,1.5,1c0.3,0.3,1,1,1.2,1.2
			c0,0-0.8-0.2-1.5-0.4C83.9,556.7,83.4,556.3,83.1,556.2z"/>
		<path id="path378" class="st0" d="M85,557.4L85,557.4l0.1,0l0.1,0l0.1,0l0.1,0l0.1,0l0.1,0l0.1,0l0.1,0l0.1,0l0.2,0l0.2,0l0.2,0
			l0.2,0l0.2,0l0.2,0l0.1,0l0.1,0l0.1,0l0.1,0l0.1,0l0.1,0l0.1,0l0.1,0l0.1,0l0.1,0c0.6,0.2,1,0.5,1.5,1c0,0-0.8,0.2-1.3,0.4
			c0,0-0.7-0.5-1.5-0.8C85.8,558.5,85.6,557.9,85,557.4z"/>
		<path id="path380" class="st0" d="M86.3,561.4L86.3,561.4L86.3,561.4L86.3,561.4l-0.1-0.1l0,0l0,0l0,0l0,0v0l0,0l0,0l0,0v0l0,0v0
			v0l0,0v0v0v0v0v0v0l0,0v0l0,0l0,0v0c0.1-0.2,0.6-0.5,0.9-0.7c0.5-0.2,1.8-0.6,2.3-0.7c0,0,0.2,0.3,0.3,0.5c0,0.1,0,0.2-0.2,0.2
			c-0.4,0.1-1.3-0.1-1.5,0c-0.2,0.2-0.2,0.4-0.2,0.6c0,0-0.4-0.3-0.7-0.2C86.7,560.7,86.5,560.8,86.3,561.4z"/>
		<path id="path382" class="st0" d="M87.5,559.5L87.5,559.5L87.5,559.5L87.5,559.5L87.5,559.5L87.5,559.5L87.5,559.5l-0.1,0l0,0h0
			l0,0l0,0l0,0l0,0l0,0l0,0l0,0l-0.1,0l0,0l0,0l-0.1,0l0,0l-0.1,0l0,0l-0.1,0l-0.1,0l-0.1,0l0,0l-0.1,0l-0.1,0l-0.1,0l-0.1,0l-0.1,0
			c0,0-0.2-0.1-0.3-0.3c-0.1-0.2-0.6-0.9-1-1c0,0,0.3,0,0.6-0.1c0,0,0.4,0.1,0.8,0.3C86.6,559,87,559.2,87.5,559.5z"/>
		<path id="path384" class="st0" d="M84,558.7L84,558.7L84,558.7L84,558.7L84,558.7L84,558.7L84,558.7L84,558.7L84,558.7L84,558.7
			l0.1,0l0,0h0h0l0,0h0h0l0,0h0h0l0,0h0h0h0l0,0h0h0h0l0,0h0h0h0c0,0,1.2,0.8,1.3,1.6c0.1,0.7-0.3,1-0.4,1.1c-0.2,0.1-1,0.4-1.6-0.7
			c0,0,0.9,0.3,1.2-0.1c0.3-0.5-0.2-1.1-0.4-1.3c-0.3-0.3-0.9-0.4-1.3-0.3C83.4,559.1,83.7,558.9,84,558.7z"/>
		<path id="path386" class="st0" d="M91.8,568.1l-0.1-0.2l-0.1-0.2l-0.1-0.2l0-0.1l0-0.1l0-0.1l0-0.1l0-0.1l-0.1-0.1l0-0.1l-0.1-0.1
			l-0.1-0.1l-0.1-0.1c-0.5-1.1-1.8-4.2-4.6-4.7c-0.3-0.1,0.3-0.7,0.5-0.7c0.3,0,0.7,0.3,1,0.5v-0.8c0-0.1,0.1-0.2,0.2-0.2
			c0.1,0,0.8,0,1,0.3c0.6,0.7,1.7,2.7,2.3,4.1c0.6,1.5,1,1.9,1.7,1.7c0.6-0.2,1-1,2.1-0.7c0.4,0.1,0.8,0.3,1.1,0.7
			c-0.1,0.2-0.2,0.4-0.7,0.4c-0.5,0-1.5,0.2-2.1,0.6C93.2,567.9,92.6,568,91.8,568.1z"/>
		<path id="path388" class="st0" d="M80.8,558.7L80.8,558.7l0,0.2l0,0.1l0,0.1l0,0.1l0,0.1l0,0.1l0,0.1l0,0.1l-0.1,0.1l0,0.1l0,0.1
			l-0.1,0.1l0,0.1l-0.1,0.2c0,0,0.8,3.9,3.9,4.2c0,0-0.1-0.8-1-1.4c-0.9-0.6-2.2-1.6-2.1-3c0,0,0.2,0,0.7,0.6
			c0.4,0.5,1.4,2.1,2.8,2.1c0,0-0.2-0.7-0.9-1.2c-0.7-0.4-1.5-1-1.8-1.6C81.5,559.1,81.1,558.8,80.8,558.7z"/>
		<path id="path390" class="st0" d="M78.8,562.5L78.8,562.5l0,0.1l0,0.1l0,0.1l0,0.1l0.1,0.1l0,0.1l0.1,0.1l0.1,0.1l0.1,0.1l0.1,0.1
			l0.1,0.1l0.1,0.1l0.1,0.1l0.1,0.2l0.1,0.2l0.1,0.2l0.1,0.1l0.1,0.1l0.1,0.1l0.1,0.1l0.1,0.1l0.1,0.1l0.1,0.1l0.1,0.1l0.1,0.1
			l0.1,0l0.1,0.1l0.1,0c0.5,0.5,1.7,1.7,2.4,2.3c0,0-1.9-0.5-2.9-1.4c0,0-0.7,0.4-1.3,0.4h0c-0.5,0-1.3-0.4-1.3-0.4
			c-1,1-2.9,1.4-2.9,1.4c0.7-0.6,1.9-1.8,2.4-2.3C77.5,564.6,78.6,563,78.8,562.5L78.8,562.5L78.8,562.5z"/>
		<path id="path392" class="st0" d="M78.8,566.8L78.8,566.8L78.8,566.8l0.1,0h0h0h0l0.1,0l0.1,0l0.1,0l0.1,0l0.1,0l0.1,0l0.1,0
			l0.1,0l0.1,0l0,0l0,0l0,0l0,0l0,0h0l0,0l0,0c-0.2,0.5-0.6,1.2-1,1.5h0c-0.4-0.3-0.8-1-1-1.5C78,566.6,78.4,566.8,78.8,566.8
			L78.8,566.8L78.8,566.8z"/>
		<path id="path394" class="st0" d="M80.4,575.4l7.3-10.2l0.7,0.5l0.1-2.4l-2.2,0.8l0.7,0.5c-0.3,0.5-5.8,8.1-6.5,9.1l-3.3-6
			l-0.4,0.6l-2.9,4.4l-0.7-0.5v2.3l2.2-0.9l-0.8-0.5c0.4-0.6,2-3,2.5-3.8L80.4,575.4z"/>
		<path id="path396" class="st0" d="M81.7,571.4l-0.2-0.3l-0.1-0.1l-0.1-0.1l-0.1-0.1l-0.1-0.1l-0.1-0.1l-0.1-0.1l-0.1-0.1l-0.1-0.1
			l0,0l0-0.1l0,0l0,0l0,0l0,0l0,0l0,0l0,0l0,0l0,0l0,0c-0.2,0.3-0.6,1-1,1.8l-0.5-0.9l1.4-2.5l0.4,0.6l1.5,2.2L81.7,571.4z"/>
		<path id="path398" class="st0" d="M83.2,572l0.5,0.8l0.7-0.5l0,2.3l-2.2-0.9l0.7-0.5c-0.1-0.1-0.2-0.3-0.3-0.5L83.2,572z"/>
		<path id="path400" class="st0" d="M97.9,556.5L97.9,556.5l-0.1-0.1l-0.1,0l-0.1,0l-0.1,0l-0.1,0l-0.1,0l-0.1,0l-0.1,0h-0.1l-0.1,0
			h-0.1l-0.1,0l-0.1,0l-0.1,0l-0.1,0l-0.1,0l-0.1,0l-0.1,0l-0.1,0l-0.1,0l-0.1,0l-0.1,0.1l-0.1,0l-0.1,0.1l-0.1,0.1l-0.1,0.1
			l-0.1,0.1l-0.1,0.1l-0.1,0.1l-0.1,0.1l-0.1,0.1c-0.9,0.8-1.5,1.7-1,2.3c0.5,0.5,1.4,0.1,2.4-0.8C97.8,558,98.4,557.1,97.9,556.5z"
			/>
		<path id="path402" class="st0" d="M96.4,567L96.4,567L96.4,567L96.4,567L96.4,567L96.4,567L96.4,567L96.4,567L96.4,567L96.4,567
			L96.4,567L96.4,567L96.4,567L96.4,567L96.4,567l0.1-0.1c0.5-0.4,0.8-1.1,0.8-1.8c0-1.4-1.1-2.5-2.5-2.5c-1.4,0-2.5,1.1-2.5,2.5
			c0,0.2,0,0.5,0,0.5c-0.1-0.2-0.5-1.2-0.6-1.3c0.4-1.4,1.6-2.4,3.1-2.4c1.3,0,2.4,0.7,2.9,1.8c-0.2-1.3-0.8-2.4-1.3-2.8
			c-0.5-0.5-1.4-0.7-1.4-0.7c0.6,0.1,1.4-0.3,2.3-1.1c0.8-0.8,1.3-1.5,1.3-2c-0.1,0.8,0,1.2,0.2,1.9c0.3,0.9,1.1,2.5,0.8,4.3
			c-0.2,1-0.9,2.5-2.1,3.7c-0.3,0.3-0.4,0.7-0.4,0.9c0,0-1.8,0-2.2,0c0,0-0.4,0-0.4-0.3c0-0.3,0.3-0.3,0.4-0.3
			C95,567.3,95.9,567.3,96.4,567z"/>
		<path id="path404" class="st0" d="M84.5,567.5l-0.3-0.2l-0.3-0.2l-0.3-0.2l-0.3-0.2l-0.3-0.2l-0.3-0.2l-0.3-0.2l-0.3-0.3l-0.3-0.3
			l-0.3-0.3l-0.3-0.3l-0.3-0.3l-0.3-0.3l-0.3-0.3l-0.3-0.4l-0.1-0.2l-0.1-0.2l-0.2-0.4c0.4,0.2,0.8,0,0.8,0c0,0,0.1,0.1,0.1,0.2
			c1.3,1.9,2.7,3,4.1,3.8L84.5,567.5z"/>
		<path id="path406" class="st0" d="M86.4,567.6l0.2,0.1l0.2,0.1l0.2,0.1l0.2,0.1l0.2,0.1l0.2,0.1l0.2,0l0.2,0l0.2,0l0.2,0l0.2,0
			l0.2,0l0.4,0.1l0.4,0.1c0.7,0.1,1.4,0.2,2.1,0.1c0,0.1,0,0.3,0.1,0.4c0,0-0.1,0.2-0.1,0.3c-0.7,0-1.4,0-2.1-0.1
			c-1.2-0.2-2.5-0.4-3.7-0.9L86.4,567.6z"/>
		<path id="path408" class="st0" d="M94.6,568.2L94.6,568.2L94.6,568.2L94.6,568.2h0.1h0l0,0h0h0h0h0H95h0h0.1h0h0.1l0.1,0h0.1
			l0.1,0h0.1l0.1,0h0h0.1l0,0h0.1l0,0h0c0.4,0.1,0.9,0.2,1,0.4c0.1,0.2-0.1,0.5-0.3,0.8c-0.1,0.2-0.5,0.1-0.7,0
			c-0.2-0.1-1.2-0.6-1.4-0.8C94.4,568.5,94.3,568.2,94.6,568.2z"/>
		<path id="path410" class="st0" d="M93.6,568.9L93.6,568.9L93.6,568.9L93.6,568.9L93.6,568.9L93.6,568.9L93.6,568.9L93.6,568.9
			l0.1-0.1l0,0h0l0,0h0l0,0h0h0l0,0h0h0l0,0h0h0h0h0h0h0h0l0,0h0l0,0h0l0,0h0c0.3,0.1,1.3,0.7,1.4,1c0.1,0.3-0.1,0.4-0.2,0.5
			c-0.2,0.1-0.4,0.1-0.5,0.1c-0.3,0-0.5-0.1-0.6-0.3c-0.1-0.2-0.6-0.7-0.7-0.9C93.5,569.1,93.5,568.9,93.6,568.9z"/>
		<path id="path412" class="st0" d="M93.4,569.5L93.4,569.5L93.4,569.5L93.4,569.5L93.4,569.5l0.1,0.1l0,0l0,0l0,0l0,0l0,0l0,0l0,0
			l0.1,0.1l0.1,0.1l0.1,0.1l0,0l0,0l0,0l0,0l0,0l0,0l0,0l0,0l0,0l0,0l0,0l0,0v0l0,0l0,0l0,0c0,0.1,0,0.2-0.2,0.2
			c-0.1,0-0.8-0.1-1.2-0.4c-0.4-0.3-0.7-0.8-0.4-1C92.5,568.9,93,569,93.4,569.5z"/>
		<path id="path414" class="st0" d="M93.2,568L93.2,568L93.2,568L93.2,568L93.2,568L93.2,568L93.2,568l0.1,0h0l0,0h0h0l0,0h0l0,0h0
			h0h0l0,0h0h0h0h0h0h0l0,0h0l0,0h0l0,0h0h0v0h0l0,0l0,0l0,0l0,0l0,0c0.1,0.2,0,0.5-0.4,0.7c-0.4,0.2-1.2,0.4-1.3,0.2
			C92.1,568.6,92.3,568.2,93.2,568z"/>
	</g>
</g>
</svg>
