<?xml version="1.0" encoding="utf-8"?>
<!-- Generator: Adobe Illustrator 23.0.1, SVG Export Plug-In . SVG Version: 6.00 Build 0)  -->
<svg version="1.1" id="Layer_1" xmlns="http://www.w3.org/2000/svg" xmlns:xlink="http://www.w3.org/1999/xlink" x="0px" y="0px"
	 viewBox="0 0 290 130" style="enable-background:new 0 0 290 130;" xml:space="preserve">
<style type="text/css">
	.st0{fill:#A0A0A0;}
</style>
<path class="st0" d="M204.1,13.1v4.6h39.4c2.6,0,6.6,0,9.2,2.6c2.6,2.6,2.6,6.6,2.6,9.2v39.4c0,2.6,0,6.6-2.6,9.2
	c-2.6,2.6-6.6,2.6-9.2,2.6h-19c-3.3,0-7.6,0-9.2-3.6c-1.6-3.6,0.7-6.9,2.6-9.5l25.6-34.1h-39.4l-15.8,21c-2.6,3.5-4.9,6.6-4.9,10.5
	c0,3.9,2.1,6.8,4.9,10.5l3.9,5.2c3.9,5.2,7.9,10.5,13.1,13.1c5.3,2.6,11.5,2.6,20,2.6h17.1c9.9,0,24.6,0,34.5-9.8
	c9.8-9.8,9.8-24.3,9.8-29.5V41.4c0-5.3,0-19.7-9.8-29.5C267.1,2,252.3,2,242.5,2l-27.2,0c-2.6,0-5.9,0-8.5,2.6
	C204.1,7.2,204.1,10.5,204.1,13.1"/>
<polygon class="st0" points="156.8,33.5 196.2,33.5 148.9,96.5 109.5,96.5 "/>
<path class="st0" d="M3.2,44.6c0-2.6,0-5.9,2.6-8.5c2.6-2.6,5.9-2.6,8.5-2.6h66c8.5,0,14.8,0,20,2.6c5.2,2.6,9.2,7.9,13.1,13.1
	l3.9,5.2c2.8,3.7,4.9,6.6,4.9,10.5c0,3.9-2.3,7-4.9,10.5l-15.8,21H62.3l25.6-34.1c2-2.6,4.3-5.9,2.6-9.5c-1.6-3.6-5.9-3.6-9.2-3.6
	H50.5V128H18.9V49.2H3.2V44.6"/>
</svg>
