<?xml version="1.0" encoding="utf-8"?>
<!-- Generator: Adobe Illustrator 23.0.1, SVG Export Plug-In . SVG Version: 6.00 Build 0)  -->
<svg version="1.1" id="лого" xmlns="http://www.w3.org/2000/svg" xmlns:xlink="http://www.w3.org/1999/xlink" x="0px" y="0px"
	 viewBox="0 0 720 300" style="enable-background:new 0 0 720 300;" xml:space="preserve">
<style type="text/css">
	.st0{fill-rule:evenodd;clip-rule:evenodd;fill:#4570B2;}
	.st1{fill-rule:evenodd;clip-rule:evenodd;fill:#8AB046;}
	.st2{fill-rule:evenodd;clip-rule:evenodd;fill:#F1F1F1;}
	.st3{fill:none;}
</style>
<g>
	<path class="st0" d="M5.3,97c1.7-51.3,42-92.6,92-94.3V97H5.3z"/>
	<path class="st1" d="M195.9,103.7c-1.7,51.3-42,92.6-92,94.3v-94.3H195.9z"/>
	<path class="st2" d="M103.9,2.7c50.1,1.7,90.4,43,92,94.3h-92V2.7z"/>
	<path class="st2" d="M5.3,299c50.1-1.7,90.4-43,92-94.3h-92V299z"/>
	<rect x="5.3" y="103.7" class="st2" width="92" height="94.3"/>
	<path class="st0" d="M233.8,165.4v20.6h-13.3v-59.9h20.8c14.9,0,22.3,6.4,22.3,19.1c0,6-2.1,10.9-6.4,14.6
		c-4.3,3.7-10,5.6-17.1,5.6L233.8,165.4L233.8,165.4z M233.8,136.5v18.7h5.2c7.1,0,10.6-3.2,10.6-9.4c0-6.2-3.5-9.2-10.6-9.2H233.8
		L233.8,136.5z M301.6,187.1c-8.5,0-15.3-2.8-20.7-8.4c-5.3-5.6-8-12.9-8-21.8c0-9.5,2.7-17.1,8.1-23c5.4-5.8,12.6-8.8,21.5-8.8
		c8.4,0,15.2,2.8,20.4,8.4c5.2,5.6,7.8,13,7.8,22.1c0,9.4-2.7,17-8.1,22.8C317.3,184.2,310.3,187.1,301.6,187.1L301.6,187.1z
		 M302.2,136.8c-4.7,0-8.4,1.8-11.1,5.3c-2.7,3.5-4.1,8.2-4.1,14.1c0,5.9,1.4,10.6,4.1,14.1c2.7,3.5,6.3,5.2,10.8,5.2
		c4.6,0,8.2-1.7,10.9-5c2.7-3.4,4-8,4-14c0-6.2-1.3-11-3.9-14.5C310.3,138.5,306.7,136.8,302.2,136.8L302.2,136.8z M387.5,183.9
		c-4.3,2.1-9.9,3.2-16.9,3.2c-9,0-16.2-2.7-21.3-8.1c-5.2-5.4-7.8-12.6-7.8-21.6c0-9.6,2.9-17.3,8.7-23.3c5.8-6,13.4-8.9,22.7-8.9
		c5.8,0,10.6,0.7,14.6,2.2v13c-3.9-2.4-8.4-3.6-13.5-3.6c-5.5,0-10,1.8-13.4,5.3c-3.4,3.5-5.1,8.3-5.1,14.4c0,5.8,1.6,10.4,4.8,13.8
		c3.2,3.4,7.5,5.2,13,5.2c5.2,0,9.9-1.3,14.2-3.9V183.9L387.5,183.9z M415.8,165.4v20.6h-13.3v-59.9h20.8c14.9,0,22.3,6.4,22.3,19.1
		c0,6-2.1,10.9-6.4,14.6c-4.3,3.7-10,5.6-17.1,5.6L415.8,165.4L415.8,165.4z M415.8,136.5v18.7h5.2c7.1,0,10.6-3.2,10.6-9.4
		c0-6.2-3.5-9.2-10.6-9.2H415.8L415.8,136.5z M494.3,186.1H459v-59.9h34v11h-20.7v13.3h19.3v10.9h-19.3v13.7h22.1L494.3,186.1
		L494.3,186.1z M543.9,186.1h-35.4v-59.9h34v11h-20.7v13.3h19.3v10.9h-19.3v13.7h22.1L543.9,186.1L543.9,186.1z M600.3,183.9
		c-4.3,2.1-9.9,3.2-16.9,3.2c-9,0-16.2-2.7-21.3-8.1c-5.2-5.4-7.8-12.6-7.8-21.6c0-9.6,2.9-17.3,8.7-23.3c5.8-6,13.4-8.9,22.7-8.9
		c5.8,0,10.6,0.7,14.6,2.2v13c-3.9-2.4-8.4-3.6-13.5-3.6c-5.5,0-10,1.8-13.4,5.3c-3.4,3.5-5.1,8.3-5.1,14.4c0,5.8,1.6,10.4,4.8,13.8
		c3.2,3.4,7.5,5.2,13,5.2c5.2,0,9.9-1.3,14.2-3.9L600.3,183.9L600.3,183.9z M656.7,137.1h-16.8v48.9h-13.3v-48.9h-16.7v-11h46.9
		V137.1L656.7,137.1z M682.7,165.4v20.6h-13.3v-59.9h20.8c14.9,0,22.3,6.4,22.3,19.1c0,6-2.1,10.9-6.4,14.6
		c-4.3,3.7-10,5.6-17.1,5.6L682.7,165.4L682.7,165.4z M682.7,136.5v18.7h5.2c7.1,0,10.6-3.2,10.6-9.4c0-6.2-3.5-9.2-10.6-9.2H682.7z
		"/>
	<rect x="220.8" y="136.3" class="st3" width="464.2" height="136.6"/>
</g>
</svg>
