<?xml version="1.0" encoding="utf-8"?>
<!-- Generator: Adobe Illustrator 23.0.1, SVG Export Plug-In . SVG Version: 6.00 Build 0)  -->
<svg version="1.1" id="Layer_1" xmlns="http://www.w3.org/2000/svg" xmlns:xlink="http://www.w3.org/1999/xlink" x="0px" y="0px"
	 viewBox="0 0 1020 385" style="enable-background:new 0 0 1020 385;" xml:space="preserve">
<style type="text/css">
	.st0{fill:none;}
	.st1{fill:#F05725;}
	.st2{opacity:0.81;}
	.st3{fill:#702AFE;}
	.st4{fill:#181E2C;}
</style>
<g>
	<path class="st0" d="M85.8,281.1C85.8,281.1,85.7,281.1,85.8,281.1c-17.6,17.5-29.3,29.1-37.8,37.6c-7.6,7.6-12.8,12.8-17.6,17.7
		c-6.1,6.1-10.1,10.1-10.1,10.1l0,0c0,0,0,0,0,0c-3,3.1-4.8,7.7-4.8,12.3c0,7.3,4.5,13.3,10.8,15.9h0v0c0,0,0,0,0,0
		c0.2,0.1,0.4,0.2,0.7,0.3c0.2,0.1,0.4,0.1,0.7,0.2c2.6,0.8,5.4,1.3,8.2,1.3c0,0,145.1,0,145.1,0L85.8,281.1L85.8,281.1z"/>
	<path class="st1" d="M26.2,374.8L26.2,374.8L26.2,374.8C26.2,374.8,26.2,374.8,26.2,374.8c0.2,0.1,0.5,0.2,0.7,0.3
		c0.2,0.1,0.4,0.1,0.7,0.2c2.6,0.8,5.4,1.3,8.2,1.3c0,0,5.5,0,14.4,0c13.5,0,34.9,0,56.4,0c36.8,0,74.2,0,74.2,0l-95.2-95.4l0,0
		c0,0,0,0,0,0c-17.6,17.5-29.2,29-37.8,37.6c-7.6,7.6-12.8,12.8-17.6,17.7c-6.1,6.1-10.1,10.1-10.1,10.1l0,0c0,0,0,0,0,0
		c-3,3.1-4.8,7.7-4.8,12.3C15.4,366.2,19.8,372.2,26.2,374.8z"/>
	<g>
		<defs>
			<path id="SVGID_1_" d="M26.2,374.8L26.2,374.8L26.2,374.8C26.2,374.8,26.2,374.8,26.2,374.8c0.2,0.1,0.5,0.2,0.7,0.3
				c0.2,0.1,0.4,0.1,0.7,0.2c2.6,0.8,5.4,1.3,8.2,1.3c0,0,5.5,0,14.4,0c13.5,0,34.9,0,56.4,0c36.8,0,74.2,0,74.2,0l-95.2-95.4l0,0
				c0,0,0,0,0,0c-17.6,17.5-29.2,29-37.8,37.6c-7.6,7.6-12.8,12.8-17.6,17.7c-6.1,6.1-10.1,10.1-10.1,10.1l0,0c0,0,0,0,0,0
				c-3,3.1-4.8,7.7-4.8,12.3C15.4,366.2,19.8,372.2,26.2,374.8z"/>
		</defs>
		<clipPath id="SVGID_2_">
			<use xlink:href="#SVGID_1_"  style="overflow:visible;"/>
		</clipPath>
	</g>
	<g class="st2">
		<defs>
			<path id="SVGID_3_" class="st2" d="M26.2,374.8L26.2,374.8L26.2,374.8C26.2,374.8,26.2,374.8,26.2,374.8c0.2,0.1,0.5,0.2,0.7,0.3
				c0.2,0.1,0.4,0.1,0.7,0.2c2.6,0.8,5.4,1.3,8.2,1.3c0,0,5.5,0,14.4,0c13.5,0,34.9,0,56.4,0c36.8,0,74.2,0,74.2,0l-95.2-95.4l0,0
				c0,0,0,0,0,0c-17.6,17.5-29.2,29-37.8,37.6c-7.6,7.6-12.8,12.8-17.6,17.7c-6.1,6.1-10.1,10.1-10.1,10.1l0,0c0,0,0,0,0,0
				c-3,3.1-4.8,7.7-4.8,12.3C15.4,366.2,19.8,372.2,26.2,374.8z"/>
		</defs>
		<clipPath id="SVGID_4_">
			<use xlink:href="#SVGID_3_"  style="overflow:visible;"/>
		</clipPath>
	</g>
	<path class="st3" d="M15.4,358.9c0-4.7,1.8-9.2,4.8-12.3c0,0,0,0,0,0l0,0c0,0,4.1-4.1,10.1-10.1c4.8-4.9,10-10.1,17.6-17.7
		c8.6-8.5,20.2-20.1,37.8-37.6c0,0,0,0,0.1,0l0,0c5.2-5.1,10.9-10.8,17.1-17c0.1-0.1,0.2-0.2,0.3-0.3c28.5-28.3,69-68.7,128.5-127.9
		L101.1,5.1l-74,74.1C5,101.3,8,115.7,8,145.4c0,29.8,0,203.2,0,203.2c0,12,7.6,22.2,18.2,26.2v0C19.8,372.2,15.4,366.2,15.4,358.9z
		"/>
	<g>
		<polygon class="st4" points="841.5,242.7 819.7,242.7 793.7,269 793.7,242.7 775.3,242.7 775.3,315.1 793.7,315.1 793.7,285.2 
			820.1,315.1 842.3,315.1 808.2,276.3 		"/>
		<path class="st4" d="M258,212.9h-46.5v102.3h19.3v-35.6H258c23.1,0,38.3-11.8,38.3-33.3C296.2,224.7,281,212.9,258,212.9z
			 M257.4,262.3h-26.6v-32.1h26.6c13.4,0,19.6,6.4,19.6,16.1C276.9,255.8,270.8,262.3,257.4,262.3z"/>
		<path class="st4" d="M339.8,240.6c-19.9,0-39.6,12.9-39.6,38.3c0,25.4,19.7,38.3,39.6,38.3c19.9,0,39.6-12.9,39.6-38.3
			C379.3,253.5,359.6,240.6,339.8,240.6z M339.8,299.9c-10.8,0-20.9-7.7-20.9-21c0-13.3,10.1-21,20.9-21c10.8,0,20.9,7.7,20.9,21
			C360.6,292.2,350.6,299.9,339.8,299.9z"/>
		<path class="st4" d="M426.3,299.9c-11.1,0-19.3-8-19.3-21c0-12.9,8.5-21,19.3-21c6.6,0,12.3,3.1,16.8,9.9l15.8-9.1
			c-5.3-11.2-16.7-18.1-32.4-18.1c-20.6,0-38.1,15.2-38.1,38.3c0,23.1,16.7,38.3,38.1,38.3c15.5,0,25.9-7,33.2-19.4l-15.2-8.3
			C440.1,295.6,435.4,299.9,426.3,299.9z"/>
		<path class="st4" d="M622.3,283.7c-0.9,11.1-3.1,13.6-6.9,13.6c-2.6,0-3.8-0.3-5.6-0.8l0.1,18.8c0,0,2.3,0.7,6.5,0.7
			c15.6,0,21.5-10.1,22.9-31.6l1.8-25.3h20.7V315h18.4v-72.3h-54.9L622.3,283.7z"/>
		<path class="st4" d="M570.1,240.6c-21,0-38.1,15.3-38.1,38.3c0,22.9,17.1,38.3,37.3,38.3c15.9,0,26-6,33.3-18.4l-14.6-7.3
			c-4.5,5.7-8.6,9.9-18.4,9.9c-10.8,0-18.7-7-19.9-18.1h55.8v-6.4C605.5,255.7,590.8,240.6,570.1,240.6z M549.9,269.3
			c2.6-8.2,9.9-14.6,19.6-14.6c10.2,0,17.1,5.6,18.8,14.6H549.9z"/>
		<path class="st4" d="M728.7,240.6c-21,0-38.1,15.3-38.1,38.3c0,22.9,17.1,38.3,37.3,38.3c15.9,0,26-6,33.3-18.4l-14.6-7.3
			c-4.5,5.7-8.6,9.9-18.4,9.9c-10.8,0-18.7-7-19.9-18.1h55.8v-6.4C764.1,255.7,749.5,240.6,728.7,240.6z M708.6,269.3
			c2.6-8.2,9.9-14.6,19.6-14.6c10.2,0,17.1,5.6,18.8,14.6H708.6z"/>
		<polygon class="st4" points="465.4,258.7 487,258.7 487,315.1 505.4,315.1 505.4,258.7 527,258.7 527,242.7 465.4,242.7 		"/>
		<path class="st4" d="M878.9,240.6c-19.9,0-39.6,12.9-39.6,38.3c0,25.4,19.7,38.3,39.6,38.3s39.6-12.9,39.6-38.3
			C918.5,253.5,898.7,240.6,878.9,240.6z M878.9,299.9c-10.8,0-20.9-7.7-20.9-21c0-13.3,10.1-21,20.9-21c10.8,0,20.9,7.7,20.9,21
			C899.8,292.2,889.7,299.9,878.9,299.9z"/>
		<polygon class="st4" points="991.7,242.7 971.7,293.4 951.8,242.7 927.7,242.7 927.7,315 945.2,315 945.2,269.2 964.6,315 
			978.9,315 998.3,269.2 998.3,315 1015.8,315 1015.8,242.7 		"/>
	</g>
</g>
</svg>
