<?xml version="1.0" encoding="utf-8"?>
<!-- Generator: Adobe Illustrator 23.0.1, SVG Export Plug-In . SVG Version: 6.00 Build 0)  -->
<svg version="1.1" id="Layer_1" xmlns="http://www.w3.org/2000/svg" xmlns:xlink="http://www.w3.org/1999/xlink" x="0px" y="0px"
	 viewBox="0 0 220 50" style="enable-background:new 0 0 220 50;" xml:space="preserve">
<style type="text/css">
	.st0{fill:#EF2931;}
</style>
<g>
	<path class="st0" d="M3.3,16.2c0.1-0.8,0.4-1.5,0.7-2.3c0.5-1.1,1.2-2.1,2.2-2.9c1.5-1.1,3.4-1.3,5.2-1.3c0.1,0,0.2,0,0.3,0
		c7.8,0,15.6,0,23.4,0c1,0,1.3,0.3,1.3,1.3c0,8-0.1,16.1,0,24.1c0,4.8-3.5,7.9-7.8,7.8c-4.1-0.2-8.2,0-12.2,0c-0.7,0-1.4,0-2.5,0
		c5.8-7.3,11.4-14.4,17-21.6c-1.9-1.9-3.8-3.7-5.7-5.6c-0.2-0.2-0.4-0.3-0.6-0.3c-1.7,0-3.3,0-5,0c-0.1,0.1-0.1,0.2-0.2,0.3
		c1.9,1.7,3.8,3.4,5.8,5.2c-6.2,6.4-12,12.5-17.9,18.7c-0.3-0.3-0.5-0.5-1-0.9c5.9-5.7,11.8-11.4,17.9-17.3
		c-2.5-2.2-4.6-4.1-6.8-6.1c0.1-0.2,0.3-0.3,0.4-0.5c4.5,0,9,0,13.5,0c0,4.5,0,9,0,13.6c-0.9-1-1.8-1.9-2.8-3
		c-1,1.3-1.9,2.4-2.7,3.5c2.8,2.7,5.5,5.4,8.2,8.1c0-8.1,0-16.4,0-24.8c-8.3,0-16.6,0-25,0c3.1,3,6.1,6,9.3,9
		c-2,1.4-3.7,2.6-5.4,3.8c-2.9,2-5.7,4.1-8.6,6.1c-0.3,0.2-0.7,0.2-1.1,0.3c0.1-1.1,0-2.3,0-3.4c0-2.2,0-4.4,0-6.6
		C3.1,19.5,3,17.9,3.3,16.2z"/>
	<path d="M90.3,18.2c0,2.2,0,4.1,0,6.1c0.6,0,1.1-0.1,1.6-0.1c1.7,0.1,3.5,0,5.2,0.3c3,0.6,4.7,2.5,5.1,5.2c0.5,3.5-0.8,6.5-3.5,7.9
		c-1.2,0.6-2.6,0.8-4,1.1c-0.9,0.2-1.8,0-2.6,0c-2,0-4,0-6.1,0c0-8.1,0-16,0-24c4.9,0,9.7,0,14.7,0c0,1.3,0,2.6,0,3.9
		C97.2,18.5,93.8,18.4,90.3,18.2z M90.2,34.9c1.8,0,3.5,0.2,5.2,0c1.6-0.2,2.4-1.6,2.4-3.7c0-1.7-0.6-2.8-2.3-3
		C94,27.9,92.4,28,90.8,28c-0.2,0-0.5,0.4-0.6,0.6C90.2,30.7,90.2,32.7,90.2,34.9z"/>
	<path d="M206.1,38.6c0,2.4,0,4.7,0,7.1c-1.4,0-2.8,0-4.3,0c0-8.6,0-17.2,0-25.8c2.7-0.5,2.9-0.4,3.6,1.9c1.3-1.4,2.8-2.2,4.6-2.4
		c3.4-0.5,6.1,1.1,7.1,4.4c1,3.2,1,6.5-0.1,9.7c-1.4,4.1-5.3,6.2-9.8,5.4C207,38.8,206.6,38.7,206.1,38.6z M213.6,29
		c0-0.5,0-1-0.1-1.5c-0.1-0.4-0.1-0.8-0.2-1.3c-0.7-3.2-3.5-4.2-6.1-2c-0.5,0.4-1,1.1-1.1,1.7c-0.1,2.6-0.1,5.3,0,7.9
		c0,0.3,0.2,0.7,0.4,0.9c2.3,1.5,5.7,0.3,6.5-2.3c0.2-0.5,0.3-1.1,0.3-1.6c0.1-0.5,0.2-1.1,0.2-1.6C213.6,29.1,213.6,29,213.6,29z"
		/>
	<path d="M71,24.7c0.4-0.3,0.9-0.6,1.2-1c1.9-2.7,3.9-5.4,5.7-8.1c0.5-0.7,0.9-1,1.8-0.9c1.3,0.1,2.5,0,4,0
		c-0.2,0.4-0.4,0.6-0.5,0.9c-2.3,3.1-4.6,6.3-7,9.4c-0.5,0.6-0.5,1,0,1.7c2.5,3.5,4.9,7.1,7.3,10.7c0.2,0.3,0.4,0.6,0.8,1.2
		c-1.9,0-3.5,0-5.2,0c-0.3,0-0.6-0.4-0.8-0.7c-1.9-3.1-3.9-6.1-5.8-9.2c-0.4-0.7-0.8-1-1.7-0.7c0,3.5,0,7,0,10.6c-1.5,0-2.9,0-4.4,0
		c0-7.9,0-15.8,0-23.7c1.5,0,2.9,0,4.4,0c0,3.3,0,6.5,0,9.7C70.8,24.6,70.9,24.6,71,24.7z"/>
	<path d="M129.9,38.5c-1.8,0-3.4,0-4.9,0c-0.4,0-0.8-0.4-1-0.8c-2-3.1-3.9-6.1-5.8-9.2c-0.4-0.7-0.8-1-1.8-0.7c0,3.5,0,7,0,10.6
		c-1.5,0-2.9,0-4.4,0c0-7.9,0-15.7,0-23.7c1.4,0,2.8,0,4.4,0c0,3.2,0,6.5,0,9.7c0.1,0.1,0.2,0.2,0.3,0.2c0.4-0.3,0.9-0.5,1.1-0.9
		c2-2.7,4-5.5,5.9-8.3c0.4-0.6,0.8-0.9,1.6-0.8c1.3,0.1,2.6,0,4.2,0c-0.3,0.5-0.6,0.8-0.8,1.2c-2.2,3-4.5,6.1-6.7,9
		c-0.5,0.7-0.6,1.1-0.1,1.9c2.4,3.5,4.8,7.1,7.2,10.6C129.4,37.7,129.6,38,129.9,38.5z"/>
	<path d="M200.3,19.8c-0.8,2.6-1.5,5.1-2.3,7.6c-1.4,4.1-2.8,8.2-4.5,12.3c-0.7,1.6-1.7,3.2-2.9,4.5c-1.9,2.2-4.8,2.6-7.1,1.3
		c0.2-1.1,0.5-2.2,0.7-3.4c1.6,0.4,3,0.5,4.2-0.8c0.7-0.7,0.9-1.4,0.6-2.5c-2-5.9-4-11.8-6-17.7c-0.1-0.4-0.2-0.7-0.4-1.3
		c1.5,0,2.9-0.1,4.3,0c0.3,0,0.6,0.6,0.8,1c1.3,4.1,2.5,8.2,3.7,12.3c0,0.2,0.1,0.3,0.2,0.7c0.2-0.5,0.3-0.7,0.4-1
		c1.1-4,2.3-7.9,3.3-11.9c0.2-0.9,0.6-1.2,1.6-1.1C198,19.9,199,19.8,200.3,19.8z"/>
	<path d="M152.1,30.7c0,2.6,0,5.1,0,7.8c-1.5,0-2.8,0-4.3,0c0-6.2,0-12.3,0-18.6c1.4,0,2.8,0,4.2,0c0,2.3,0,4.6,0,7
		c2.4,0,4.8,0,7.2,0c0-2.3,0-4.6,0-7c1.5,0,2.9,0,4.3,0c0,6.2,0,12.3,0,18.6c-1.4,0-2.7,0-4.3,0c0-2.6,0-5.1,0-7.8
		C156.9,30.7,154.6,30.7,152.1,30.7z"/>
	<path d="M145.9,29.2c0,1.8-0.3,3.6-1.1,5.2c-0.2,0.3-0.4,0.7-0.6,1c-2,3.1-5,4-8.4,3.6c-3.3-0.4-5.4-2.4-6.4-5.6
		c-0.8-2.8-0.9-5.6,0.1-8.4c1.3-3.7,4.6-5.9,8.6-5.6c4.1,0.3,6.7,2.7,7.5,6.8C145.8,27.2,145.9,28.2,145.9,29.2z M141.6,29.3
		c0-0.9-0.2-1.8-0.4-2.7c-0.2-0.6-0.3-1.1-0.6-1.7c-0.6-1.3-1.7-2.1-3.2-2.1c-1.5,0-2.6,0.7-3.3,2c-1.4,2.9-1.4,5.8,0.1,8.6
		c1.4,2.7,4.9,2.7,6.3,0c0.4-0.7,0.6-1.4,0.8-2.2C141.5,30.7,141.6,30,141.6,29.3z"/>
	<path d="M63.9,33.9c0,1.2,0,2.2,0,3.3c0,0.3-0.4,0.7-0.7,0.8c-3.3,1.1-6.6,1.4-9.8,0c-2.3-1-3.9-2.8-4.8-5.1
		c-1.5-4.2-1.5-8.4,0.2-12.5c2.9-6.8,10.4-7.2,14.9-5c-0.3,1.3-0.6,2.7-0.9,4.1c-0.4-0.2-0.8-0.4-1.1-0.6c-3.1-1.8-6.9-0.8-8.5,2.4
		c-1.5,2.9-1.7,6.1-0.6,9.2c1.2,3.7,4.3,5.3,8,4.4C61.7,34.7,62.7,34.3,63.9,33.9z"/>
	<path d="M181.4,19.8c0,1.3,0,2.5,0,3.7c-1.9-0.1-3.7-0.2-5.7-0.3c0,5.2,0,10.2,0,15.2c-1.4,0-2.7,0-4.2,0c0-5,0-10,0-15.2
		c-2,0.1-3.8,0.2-5.7,0.3c0-1.2,0-2.4,0-3.7C171,19.8,176.1,19.8,181.4,19.8z"/>
</g>
</svg>
