<?xml version="1.0" encoding="utf-8"?>
<!-- Generator: Adobe Illustrator 23.0.1, SVG Export Plug-In . SVG Version: 6.00 Build 0)  -->
<svg version="1.1" id="Layer_1" xmlns="http://www.w3.org/2000/svg" xmlns:xlink="http://www.w3.org/1999/xlink" x="0px" y="0px"
	 viewBox="0 0 371 282" enable-background="new 0 0 371 282" xml:space="preserve">
<g>
	<path fill="#C02026" d="M21.7,262.8l6.7,0.4c-0.2,3.6-1.4,6.5-3.4,8.8c-2,2.3-4.7,3.4-8.1,3.4c-4.1,0-7.2-1.5-9.3-4.5
		c-2.1-3-3.2-7.2-3.2-12.5c0-5.3,1.1-9.5,3.2-12.6s5.3-4.5,9.4-4.5c6.9,0,10.7,4.3,11.3,12.8l-6.6,0.5c-0.2-4.9-1.7-7.4-4.6-7.4
		c-1.5,0-2.7,0.8-3.6,2.4c-0.9,1.6-1.3,4.7-1.3,9.2c0,4.1,0.4,6.9,1.2,8.4c0.8,1.5,2.1,2.3,3.7,2.3
		C19.7,269.4,21.3,267.2,21.7,262.8z"/>
	<path fill="#C02026" d="M56,258.3c0,11.4-4,17.1-12,17.1c-4,0-7-1.4-9-4.4c-2-2.9-3-7.1-3-12.7c0-11.4,4-17,12-17
		c3.9,0,6.9,1.4,8.9,4.3S56,252.6,56,258.3z M48.3,258.3c0-4.5-0.3-7.4-1-8.9c-0.7-1.5-1.8-2.2-3.3-2.2c-1.5,0-2.6,0.7-3.3,2.2
		s-1,4.5-1,8.9c0,4.4,0.3,7.3,1,8.8c0.7,1.5,1.8,2.3,3.3,2.3c1.5,0,2.6-0.7,3.3-2.2S48.3,262.7,48.3,258.3z"/>
	<path fill="#C02026" d="M72.3,261.3h-4v13.5H61v-33.1h7.3v13.4h4c0.9-9.2,4.9-13.9,12-13.9c4,0,7,1.5,9,4.4c2,2.9,3,7.1,3,12.7
		c0,11.4-4,17.1-12,17.1C77.1,275.3,73.2,270.6,72.3,261.3z M88.6,258.3c0-4.5-0.3-7.4-1-8.9c-0.7-1.5-1.8-2.2-3.3-2.2
		c-1.5,0-2.6,0.7-3.3,2.2s-1,4.5-1,8.9c0,4.5,0.3,7.4,1,8.9c0.7,1.5,1.8,2.2,3.3,2.2c1.5,0,2.6-0.7,3.3-2.2S88.6,262.8,88.6,258.3z"
		/>
	<path fill="#C02026" d="M106.3,251.8l-6.3-1.2c0.9-3.8,2.3-6.3,4.1-7.5c1.9-1.2,4.2-1.8,7-1.8c3,0,5.4,0.8,7.2,2.3
		c1.8,1.6,2.6,3.7,2.6,6.6c0,3.5-1.6,5.9-4.9,7.3c3.7,1.1,5.6,3.8,5.6,7.9c0,3.1-1,5.5-2.9,7.3c-2,1.8-4.9,2.7-8.8,2.7
		c-3.8,0-6.4-1-7.7-3s-2.4-4.6-3-7.9l6.4-1c0.5,2.7,1.1,4.4,1.9,5c0.8,0.6,1.7,1,2.8,1c1.3,0,2.3-0.4,2.9-1.3c0.7-0.8,1-1.9,1-3.2
		c0-3.1-1.7-4.6-5.1-4.6h-1.1V255h1.1c1.1,0,1.9-0.1,2.5-0.3c0.6-0.2,1.1-0.6,1.6-1.3c0.4-0.6,0.6-1.5,0.6-2.6c0-2.7-1.1-4-3.4-4
		c-0.8,0-1.5,0.2-2.3,0.7C107.2,247.9,106.6,249.4,106.3,251.8z"/>
	<path fill="#C02026" d="M135.4,241.7h9.5c2.9,0,5.1,0.2,6.7,0.7c1.6,0.5,2.9,1.6,4,3.3c1.1,1.7,1.6,3.8,1.6,6.3
		c0,2.4-0.4,4.4-1.3,6c-0.9,1.6-2.1,2.7-3.6,3.4c-1.5,0.7-3.9,1.1-7.1,1.1h-2.6v12.2h-7.3V241.7z M142.7,247.1v9.8h2.3
		c2,0,3.3-0.5,3.8-1.4c0.6-0.9,0.9-2.1,0.9-3.6c0-1.2-0.2-2.3-0.7-3s-1-1.3-1.6-1.5c-0.6-0.2-1.4-0.3-2.5-0.3H142.7z"/>
	<path fill="#C02026" d="M168,271.4v3.4h-7.3v-33.1h7.3v18.6l1.1-2l7.4-12.9v-3.7h7.3v33.1h-7.3v-17.1l0-1.3l-1.2,2.2L168,271.4z"/>
	<path fill="#C02026" d="M195.9,254.9h9.7c-0.5-5.2-2.4-7.9-5.7-7.9c-2.8,0-4.5,1.6-5.1,4.7l-7.1-1.6c0.4-2.5,1.6-4.6,3.6-6.4
		s5-2.7,8.8-2.7c4.3,0,7.5,1.5,9.7,4.6c2.2,3.1,3.3,7.3,3.3,12.7c0,3.2-0.5,6.1-1.4,8.7s-2.3,4.6-4.2,6.1c-1.9,1.5-4.4,2.2-7.5,2.2
		c-7.4,0-11.5-3.5-12.5-10.5l6.4-1.4c0.8,4,2.8,5.9,6,5.9c3.4,0,5.3-3,5.7-9h-9.8V254.9z"/>
	<path fill="#C02026" d="M220.4,274.8h-6.7l9.1-33.1h8.2l9.5,33.1h-7.2l-6.6-26L220.4,274.8z"/>
	<path fill="#C02026" d="M239.3,241.7H260v6.2h-6.8v26.9h-7.3v-26.9h-6.6V241.7z"/>
	<path fill="#C02026" d="M285.6,258.3c0,11.4-4,17.1-12,17.1c-4,0-7-1.4-9-4.4c-2-2.9-3-7.1-3-12.7c0-11.4,4-17,12-17
		c3.9,0,6.9,1.4,8.9,4.3S285.6,252.6,285.6,258.3z M278,258.3c0-4.5-0.3-7.4-1-8.9c-0.7-1.5-1.8-2.2-3.3-2.2c-1.5,0-2.6,0.7-3.3,2.2
		s-1,4.5-1,8.9c0,4.4,0.3,7.3,1,8.8c0.7,1.5,1.8,2.3,3.3,2.3c1.5,0,2.6-0.7,3.3-2.2S278,262.7,278,258.3z"/>
	<path fill="#C02026" d="M290.7,241.7h9.5c2.9,0,5.1,0.2,6.7,0.7c1.6,0.5,2.9,1.6,4,3.3c1.1,1.7,1.6,3.8,1.6,6.3
		c0,2.4-0.4,4.4-1.3,6c-0.9,1.6-2.1,2.7-3.6,3.4c-1.5,0.7-3.9,1.1-7.1,1.1H298v12.2h-7.3V241.7z M298,247.1v9.8h2.3
		c2,0,3.3-0.5,3.8-1.4c0.6-0.9,0.9-2.1,0.9-3.6c0-1.2-0.2-2.3-0.7-3s-1-1.3-1.6-1.5c-0.6-0.2-1.4-0.3-2.5-0.3H298z"/>
	<path fill="#C02026" d="M338.9,258.3c0,11.4-4,17.1-12,17.1c-4,0-7-1.4-9-4.4c-2-2.9-3-7.1-3-12.7c0-11.4,4-17,12-17
		c3.9,0,6.9,1.4,8.9,4.3S338.9,252.6,338.9,258.3z M331.2,258.3c0-4.5-0.3-7.4-1-8.9c-0.7-1.5-1.8-2.2-3.3-2.2
		c-1.5,0-2.6,0.7-3.3,2.2s-1,4.5-1,8.9c0,4.4,0.3,7.3,1,8.8c0.7,1.5,1.8,2.3,3.3,2.3c1.5,0,2.6-0.7,3.3-2.2S331.2,262.7,331.2,258.3
		z"/>
	<path fill="#C02026" d="M344,241.7h11.3c2.6,0,4.6,0.2,6,0.6c1.3,0.4,2.5,1.3,3.4,2.8c0.9,1.4,1.4,3.2,1.4,5.3
		c0,3.7-1.6,6.1-4.7,7.1c3.7,1.3,5.6,4,5.6,8.1c0,2.1-0.5,4-1.5,5.4c-1,1.5-2.3,2.5-3.8,3c-1.5,0.5-3.6,0.7-6.4,0.7H344V241.7z
		 M351,255.1h2.4c2.3,0,3.8-0.4,4.4-1.3c0.6-0.8,0.9-1.8,0.9-2.9c0-1-0.3-1.9-0.9-2.7c-0.6-0.8-1.9-1.2-3.9-1.2H351V255.1z
		 M351,269.1h3.6c3.3,0,5-1.4,5-4.3c0-1.6-0.4-2.7-1.2-3.4c-0.8-0.7-2.1-1-3.8-1H351V269.1z"/>
</g>
<g>
	<g>
		<g>
			<polygon fill="#C02026" points="186.6,19.7 172.7,28.8 172.7,60 186.6,52.6 			"/>
			<polygon fill="#C02026" points="168.4,31.6 156.3,39.5 156.3,68.7 168.4,62.3 			"/>
			<polygon fill="#C02026" points="152.6,42 141.9,48.9 141.9,76.4 152.6,70.7 			"/>
			<polygon fill="#C02026" points="138.6,51.1 129.1,57.3 129.1,83.2 138.6,78.1 			"/>
			<polygon fill="#C02026" points="126.2,59.2 117.7,64.7 117.7,89.2 126.2,84.7 			"/>
			<polygon fill="#C02026" points="117.7,95.4 126.2,91.1 126.2,116.6 117.7,119.8 			"/>
			<polygon fill="#C02026" points="117.7,126 126.2,123 126.2,148.5 117.7,150.4 			"/>
			<polygon fill="#C02026" points="129.1,89.6 138.6,84.9 138.6,111.9 129.1,115.5 			"/>
			<polygon fill="#C02026" points="129.1,122 138.6,118.7 138.6,145.7 129.1,147.9 			"/>
			<polygon fill="#C02026" points="117.7,156.6 126.2,154.9 126.2,180.4 117.7,181.1 			"/>
			<polygon fill="#C02026" points="117.7,187.2 126.2,186.8 126.2,212.3 117.7,211.7 			"/>
			<polygon fill="#C02026" points="129.1,154.3 138.6,152.5 138.6,179.5 129.1,180.2 			"/>
			<polygon fill="#C02026" points="129.1,186.7 138.6,186.3 138.6,213.3 129.1,212.6 			"/>
			<polygon fill="#C02026" points="141.9,186.2 152.6,185.7 152.6,214.5 141.9,213.6 			"/>
			<polygon fill="#C02026" points="156.3,185.6 168.4,185.1 168.4,215.7 156.3,214.8 			"/>
			<polygon fill="#C02026" points="172.7,184.9 186.6,184.3 186.6,217.2 172.7,216.1 			"/>
			<polygon fill="#C02026" points="141.9,151.9 152.6,149.8 152.6,178.5 141.9,179.3 			"/>
			<polygon fill="#C02026" points="156.3,149 168.4,146.7 168.4,177.4 156.3,178.3 			"/>
			<polygon fill="#C02026" points="172.7,145.8 186.6,143.1 186.6,176.1 172.7,177.1 			"/>
			<polygon fill="#C02026" points="141.9,110.7 152.6,106.7 152.6,77.9 141.9,83.2 			"/>
			<polygon fill="#C02026" points="156.3,105.2 156.3,76 168.4,69.9 168.4,100.6 			"/>
			<polygon fill="#C02026" points="172.7,99 172.7,67.8 186.6,60.8 186.6,93.8 			"/>
		</g>
	</g>
	<g>
		<polygon fill="#ED8287" points="191.4,19.9 191.4,52.8 204.8,60.1 204.8,28.9 		"/>
		<polygon fill="#ED8287" points="191.4,61 204.8,67.9 204.8,99.1 191.4,93.9 		"/>
		<polygon fill="#ED8287" points="191.4,102.1 204.8,106.9 204.8,138.1 191.4,135 		"/>
		<polygon fill="#ED8287" points="191.4,143.2 204.8,145.9 204.8,177.1 191.4,176.1 		"/>
		<polygon fill="#ED8287" points="191.4,184.3 191.4,217.2 204.8,216.1 204.8,184.9 		"/>
		<polygon fill="#ED8287" points="208.9,139.1 208.9,108.4 220.6,112.6 220.6,141.8 		"/>
		<polygon fill="#ED8287" points="224.2,113.9 224.2,142.6 234.5,145 234.5,117.6 		"/>
		<polygon fill="#ED8287" points="237.7,118.8 246.8,122.1 246.8,147.9 237.7,145.8 		"/>
		<polygon fill="#ED8287" points="249.7,123.1 257.8,126 257.8,150.5 249.7,148.6 		"/>
		<polygon fill="#ED8287" points="249.7,116.7 257.8,119.9 257.8,95.4 249.7,91.2 		"/>
		<polygon fill="#ED8287" points="249.7,84.8 257.8,89.3 257.8,64.9 249.7,59.3 		"/>
		<polygon fill="#ED8287" points="246.8,83.3 246.8,57.4 237.7,51.2 237.7,78.3 		"/>
		<polygon fill="#ED8287" points="234.5,76.5 234.5,49.1 224.2,42.1 224.2,70.8 		"/>
		<polygon fill="#ED8287" points="220.6,68.8 220.6,39.6 208.9,31.7 208.9,62.4 		"/>
		<polygon fill="#ED8287" points="208.9,100.7 208.9,70.1 220.6,76.1 220.6,105.3 		"/>
		<polygon fill="#ED8287" points="237.7,112 246.8,115.6 246.8,89.7 237.7,85 		"/>
		<polygon fill="#ED8287" points="208.9,215.7 220.6,214.8 220.6,185.6 208.9,185.1 		"/>
		<polygon fill="#ED8287" points="220.6,178.3 220.6,149.1 208.9,146.7 208.9,177.4 		"/>
	</g>
	<g>
		<polygon fill="#F1D6D8" points="224.2,78 234.5,83.3 234.5,110.8 224.2,106.7 		"/>
		<polygon fill="#F1D6D8" points="224.2,214.5 234.5,213.6 234.5,186.2 224.2,185.7 		"/>
		<polygon fill="#F1D6D8" points="237.7,213.3 246.8,212.6 246.8,186.7 237.7,186.3 		"/>
		<polygon fill="#F1D6D8" points="249.7,212.3 257.8,211.7 257.8,187.2 249.7,186.8 		"/>
		<polygon fill="#F1D6D8" points="249.7,155 257.8,156.6 257.8,181.1 249.7,180.5 		"/>
		<polygon fill="#F1D6D8" points="246.8,154.4 237.7,152.5 237.7,179.6 246.8,180.2 		"/>
		<polygon fill="#F1D6D8" points="234.5,179.3 234.5,151.9 224.2,149.8 224.2,178.5 		"/>
		<polygon fill="#F1D6D8" points="141.9,117.5 152.6,113.8 152.6,142.6 141.9,145 		"/>
		<polygon fill="#F1D6D8" points="156.3,141.7 168.4,139 168.4,108.3 156.3,112.5 		"/>
		<polygon fill="#F1D6D8" points="172.7,138 186.6,134.9 186.6,102 172.7,106.8 		"/>
	</g>
</g>
</svg>
