<?xml version="1.0" encoding="utf-8"?>
<!-- Generator: Adobe Illustrator 23.0.1, SVG Export Plug-In . SVG Version: 6.00 Build 0)  -->
<svg version="1.1" id="Layer_1" xmlns="http://www.w3.org/2000/svg" xmlns:xlink="http://www.w3.org/1999/xlink" x="0px" y="0px"
	 viewBox="0 0 530 205" style="enable-background:new 0 0 530 205;" xml:space="preserve">
<style type="text/css">
	.st0{fill:#A0A0A0;}
</style>
<path class="st0" d="M287.5,85v28c0,6.1-2.9,9.3-7.9,9.3c-5.4,0-8.3-3.2-8.3-9.3V85h-14.4v29.5c0,12.9,8.6,21.2,22.3,21.2
	s22.7-8.3,22.7-21.2V85H287.5L287.5,85z M180.3,113.1c0,6.1-2.9,9.3-7.9,9.3c-5.4,0-8.3-3.2-8.3-9.3v-28h-14.4v29.5
	c0,12.9,8.6,21.2,22.3,21.2s22.7-8.3,22.7-21.2V85h-14.4L180.3,113.1L180.3,113.1z M81.8,113.1c0,6.1-2.9,9.3-7.9,9.3
	c-5.4,0-8.3-3.2-8.3-9.3v-28H51.2v29.5c0,12.9,8.6,21.2,22.3,21.2s22.7-8.3,22.7-21.2V85H81.8V113.1z M222.4,106.6v28h14.4v-27.3
	c0-5.4,2.5-8.3,7.5-8.3c1.1,0,3.6,0,5.8,0.7V85c-1.4-0.4-3.2-0.7-5-0.7C229.9,84.3,222.4,91.9,222.4,106.6z M125.3,108.1v-9.7h11.1
	L140,85h-14.7V72.8h-14.4V85h-6.1v13.3h6.1v10.8c0,16.9,8.6,25.9,25.2,25.9h5v-13.7h-3.6C128.9,121.4,125.3,117.4,125.3,108.1z
	 M26.7,108.1v-9.7h11.1l3.6-13.3H26.7V72.9H12.3V85H3.7v13.3h8.6v10.8c0,16.9,8.6,25.9,25.2,25.9h5v-13.7h-3.6
	C30.3,121.4,26.7,117.4,26.7,108.1L26.7,108.1z"/>
<g transform="translate(-158 -194)">
	<path class="st0" d="M544.3,377.9C460,399.8,391,365.3,370.5,322.7c-2.2-3.5-6.8-4.6-10.3-2.5c-3.1,1.9-4.4,5.7-3.1,9.1
		c23.2,46.3,104.5,88.3,204.4,54.3C555.5,382.4,549.8,380.5,544.3,377.9z"/>
	<path class="st0" d="M588.3,372.6c11.4-5.6,22.2-12.4,32.3-20.1c-6,0.8-12.7,1.3-19.8,1.6c-10.8,6.6-22.2,12.2-34,16.7
		C573.9,372.3,581.1,372.9,588.3,372.6z"/>
	<path class="st0" d="M647.1,345.8C618,379.3,561,381.5,530.2,352c-2.8-2.5-5.4-5.3-7.8-8.1c-3.1,0.1-11.9,0.1-18.9-2
		c13,21,33.8,36.1,57.8,41.8c22.8,5.4,46.8,2.7,67.8-7.7c19.1-9.7,34.1-25.9,42.3-45.7C671.1,330.8,662.2,339.8,647.1,345.8
		L647.1,345.8z"/>
	<path class="st0" d="M642.1,332.7c10.8-12,19.5-25.8,24.7-41.2c3.8-11.1,3.6-15.4,3.5-25.8c-2.8,4.5-6.8,10.1-10.6,14.9
		c-3.3,13.4-9.3,26.1-17.8,37c-5.4,7.3-11.5,13.9-18.4,19.8C623.5,337.3,632.8,336.1,642.1,332.7L642.1,332.7z"/>
	<path class="st0" d="M658.8,257l0.9-1.4c-1.2-5.4-3.2-10.6-5.9-15.4v-0.1c-33.9-24.6-93.4-29-132.6-3.5c-0.3,0.2-10.5,12.8-15,27
		C545.8,214.1,628.2,222,658.8,257L658.8,257z"/>
	<path class="st0" d="M658.3,257.9c-19-6.9-50.5-9.9-79.9-3.5c-28.6,6.5-54.9,20.6-76.2,40.7c0.3,4.6,1,9.7,2.3,14.6
		c6.8-10.1,16.8-17.5,19-19.5c33.5-26.2,73-36.8,116.3-29.2c1.4,0.3,8.1,1.6,13.6,3.5C655.9,261.5,658.2,257.9,658.3,257.9
		L658.3,257.9z"/>
	<path class="st0" d="M495.1,300.4c2.5,6.3,6.4,11.8,11.5,16.3c-6-17.1-6.1-35.8-0.5-53c3.6-9.6,8.7-18.7,14.9-26.9
		c5.5-7,12.2-12.8,19.6-17.6c21.4-13.2,47.4-16.7,71.5-9.4c18.8,4.4,34.7,16.7,43.5,33.8c1.8,3.8,3.2,7.8,4.1,11.9
		c1.4-2.3,3.3-5.4,4.1-7.2c0.8-1.4,2-2.5,3.3-3.1c-23-65.5-141.6-72.2-172.9,13.3c-0.5,1.6-1,3.3-1.4,4.9
		C492.6,265.1,487,282,495.1,300.4L495.1,300.4z"/>
	<path class="st0" d="M679.5,279.8c-0.2-2.1-1.4-6.2-1.5-6.6c-1.3-4.2-3-8.3-5.2-12.1l-2.6,4.6c0,0,0.1,10.3-0.6,15
		c1,6.4,0.8,13.2-0.4,19.7c-1.3,6.7-3.4,13.3-6.2,19.5l-1,2.2c2.8-2.3,5.3-4.9,7.3-7.7C675.5,305.6,680.7,290.4,679.5,279.8z"/>
	<path class="st0" d="M488.4,314c4.4,7.3,11.6,12.5,19.9,14.2c4.3,0.9,10.7,1.1,17.6,0.3c-13.6-4.9-24.7-15-30.6-28.2
		c-4.3-11.8-5.1-24.6-2.3-36.9l-1,1.5C482.1,280.3,479.4,297.9,488.4,314L488.4,314z"/>
	<path class="st0" d="M673.1,245.6c-3.3-1.7-7.5-0.5-9.3,2.8c-1.3,2.6-4.8,8.3-5.7,9.7c-6.1,8.8-13.4,16.7-21.6,23.5
		c-41.4,35-106.4,51.4-128.1,46.7c-8.3-1.7-15.6-6.9-19.9-14.2c-3.5,9.1-1.4,16.9,4.2,22c13.8,12.8,43.4,7.4,61.6,2.7
		c34.9-9,65.8-21.4,92.6-45.2c18.1-16.2,23.9-28,29.4-39.1C677.6,251.2,676.3,247.3,673.1,245.6z"/>
	<path class="st0" d="M678,273.2c-0.1-0.1,1.2,4.5,1.4,6.6c1.2,10.6-4,25.8-10.1,34.5c-9.5,13.5-29.5,20.4-45.9,22.9
		c-21.3,2.7-42.8,2.8-64.1,0.1l-5.2,1.3c-15.9,3.9-28.1,5-28.1,5c34.2,13.3,85.1,12.6,109.3,6C683.3,337,696.8,299,678,273.2
		L678,273.2z"/>
</g>
</svg>
