<?xml version="1.0" encoding="utf-8"?>
<!-- Generator: Adobe Illustrator 23.0.1, SVG Export Plug-In . SVG Version: 6.00 Build 0)  -->
<svg version="1.1"
	 id="svg22" xmlns:cc="http://creativecommons.org/ns#" xmlns:dc="http://purl.org/dc/elements/1.1/" xmlns:inkscape="http://www.inkscape.org/namespaces/inkscape" xmlns:rdf="http://www.w3.org/1999/02/22-rdf-syntax-ns#" xmlns:sodipodi="http://sodipodi.sourceforge.net/DTD/sodipodi-0.dtd" xmlns:svg="http://www.w3.org/2000/svg"
	 xmlns="http://www.w3.org/2000/svg" xmlns:xlink="http://www.w3.org/1999/xlink" x="0px" y="0px" viewBox="0 0 350 135"
	 style="enable-background:new 0 0 350 135;" xml:space="preserve">
<style type="text/css">
	.st0{fill:#A0A0A0;}
</style>
<sodipodi:namedview  bordercolor="#666666" borderopacity="1" gridtolerance="10" guidetolerance="10" id="namedview24" inkscape:current-layer="svg22" inkscape:cx="577.72455" inkscape:cy="171.62498" inkscape:guide-bbox="true" inkscape:pageopacity="0" inkscape:pageshadow="2" inkscape:window-height="1017" inkscape:window-maximized="1" inkscape:window-width="1920" inkscape:window-x="-8" inkscape:window-y="-8" inkscape:zoom="1.3075612" objecttolerance="10" pagecolor="#ffffff" showgrid="false" showguides="true">
	</sodipodi:namedview>
<title  id="title14">yandex official logotype</title>
<g transform="translate(-95.38059,-94.500688)">
	<g>
		<path id="e3e00503-4570-4d4f-9c94-13248eafc32d" inkscape:connector-curvature="0" class="st0" d="M130.4,168.1l-20,44.9H95.8
			l22-48c-10.3-5.2-17.2-14.8-17.2-32.3c0-24.6,15.6-36.9,34.1-36.9h18.9V213h-12.6v-44.9H130.4z M140.9,106.4h-6.7
			c-10.2,0-20,6.7-20,26.2c0,18.9,9,24.9,20,24.9h6.7V106.4z"/>
		<path inkscape:connector-curvature="0" class="st0" d="M214.3,130.4V213h-12.6v-37.1h-19V213h-12.8v-82.6h12.8v35.1h19v-35.1
			L214.3,130.4z M280.1,229.2h-11.5V213h-35.4v16.2h-11.5v-26.7h5.1c7.5-17.5,8.4-43.1,8.4-65.1v-7.1h38.4v72.1h6.6V229.2z
			 M260.9,140.7h-14.3v1.5c0,17.4-0.8,42.8-7.7,60.3h22V140.7z M315.3,214.1c-17.1,0-27.5-13.6-27.5-39c0-26.6,7.4-45.9,24.9-45.9
			c13.8,0,22.8,10.3,22.8,38.4v7.1h-34.4c0,18.7,5.2,28.5,15.4,28.5c7.2,0,13-3.3,16.2-5.6l3,9.8
			C329.8,211.9,322.7,214.3,315.3,214.1L315.3,214.1z M301.2,164.1h21.2c0-14.1-2.3-24.4-9.7-24.4
			C304.8,139.7,302,149.4,301.2,164.1L301.2,164.1z M361.4,171.8V213h-12.8v-82.6h12.8v38.2l19.8-38.2h13l-20.5,38.9l23.4,43.8
			h-13.9L361.4,171.8z M398.8,171.7c0-25.9,10-42.5,29.4-42.5c7.4,0,11.6,2,15.2,4.3l-1.8,12.1c-3.4-3-8.4-5.7-13.6-5.7
			c-9.2,0-15.7,10.3-15.7,31.2c0,20.7,4.9,32.5,15.2,32.5c5.1,0.1,10.1-1.7,13.9-5.1l3,9.5c-4.7,4.2-10.9,6.4-17.2,6.2
			C409.4,214.1,398.8,199.9,398.8,171.7L398.8,171.7z"/>
	</g>
</g>
</svg>
