<?xml version="1.0" encoding="utf-8"?>
<!-- Generator: Adobe Illustrator 23.0.1, SVG Export Plug-In . SVG Version: 6.00 Build 0)  -->
<svg version="1.1" id="Layer_1" xmlns="http://www.w3.org/2000/svg" xmlns:xlink="http://www.w3.org/1999/xlink" x="0px" y="0px"
	 viewBox="0 0 390 250" enable-background="new 0 0 390 250" xml:space="preserve">
<g>
	<path fill="#A0A0A0" d="M163.2,169.5c-15.3-0.1-30.6-0.3-46-0.2c-3.8,0-5-0.9-5-4.9c0.2-37,0.1-74,0-111c0-3,0.8-4.7,3.5-6.3
		c23.6-13.4,47.1-27,70.5-40.7c2.7-1.6,4.6-1.3,7.2,0.2c23.6,13.7,47.2,27.4,70.9,40.9c2.2,1.2,3,2.6,3,5.1
		c-0.1,37.5-0.1,75,0,112.5c0,3.5-1.3,4.1-4.4,4.1c-13.7-0.1-27.3-0.2-41,0c-3.9,0.1-4.7-1.2-4.6-4.8c0.2-25.8-0.1-51.7,0.2-77.5
		c0.1-5-1.4-6-6.1-5.9c-14.2,0.3-28.3,0.1-42.5,0.2c-1.6,0-3.8-1.1-4.7,1.5c-4-0.5-1.8,2.5-1.8,3.7c-0.1,26-0.1,51.9-0.1,77.9
		C162.3,166,162.2,167.8,163.2,169.5z"/>
	<path fill="#A0A0A0" d="M163.2,169.5c-1-1.7-0.9-3.5-0.9-5.3c0-26,0-51.9,0.1-77.9c0-1.1-2.1-4.2,1.8-3.7
		c11.4,5.3,22.8,10.7,34.3,16c1.9,0.9,2,2.4,2,4.1c0,27,0,54,0,80.9c0,2.5-0.2,3.9-3.3,2.4C186,180.4,174.6,175,163.2,169.5z"/>
</g>
<path fill-rule="evenodd" clip-rule="evenodd" fill="#A0A0A0" d="M150.3,224.4h-12.4v19.3H135v-40h2.8v18.5h12.4v-18.5h2.8v40h-2.8
	V224.4z M160.5,230c0.1,3.9,0.6,6.8,1.6,8.9c1,2,2.5,3.1,4.6,3.1c0.9,0,1.8-0.1,2.5-0.4c0.7-0.3,1.3-0.7,1.8-1.1
	c0.6-0.4,1-0.9,1.5-1.5l0.8,2.1c-0.4,0.6-1,1.2-1.6,1.6c-0.6,0.5-1.3,0.8-2.1,1.1c-0.8,0.3-1.8,0.5-2.9,0.5c-3,0-5.2-1.3-6.6-3.9
	c-1.4-2.6-2.1-6.2-2.1-10.8c0-2.3,0.2-4.4,0.6-6.2c0.4-1.8,1-3.3,1.7-4.6c0.7-1.3,1.6-2.2,2.6-2.9c1-0.6,2.1-1,3.3-1
	c1.2,0,2.3,0.3,3.3,1c1,0.6,1.8,1.6,2.4,2.9c0.6,1.3,1.1,2.8,1.3,4.7c0.3,1.9,0.3,4.1,0.1,6.6H160.5L160.5,230z M166.2,217.1
	c-1.5,0-2.8,0.9-3.8,2.8c-1.1,1.8-1.7,4.5-1.8,8.1h10.2c0.2-3.8-0.1-6.5-1.1-8.3C168.8,217.9,167.6,217.1,166.2,217.1z M182,232
	c-0.3,2.4-0.6,4.3-1,5.9s-1,2.8-1.7,3.6H190v-24h-7.2c0,1.6-0.1,3.2-0.2,4.8c-0.1,1.4-0.2,3-0.3,4.7
	C182.3,228.7,182.2,230.3,182,232z M192.9,243.7h-15.3l-0.3,5.5h-2.1v-7.7h1.2c0.9-0.5,1.6-1.6,2.1-3.4c0.5-1.8,1-4,1.3-6.7
	c0.2-1.8,0.3-3.6,0.4-5.4c0.1-1.9,0.2-3.6,0.3-5.2c0.1-1.8,0.1-3.6,0.2-5.4h12.2v26.1h2.6v7.7h-2.1L192.9,243.7L192.9,243.7z
	 M199.6,243.7v-28.2h5.9c2.5,0,4.4,0.6,5.7,1.7c1.3,1.2,2,2.9,2,5.1c0,1.4-0.3,2.7-1,3.8c-0.6,1.1-1.6,2-3,2.6
	c1.8,0.5,3.2,1.4,4,2.5c0.8,1.2,1.3,2.6,1.3,4.3c0,2.8-0.8,4.9-2.4,6.2c-1.6,1.3-3.8,2-6.4,2C205.6,243.7,199.6,243.7,199.6,243.7z
	 M202.1,217.5V228h3.2c1.6,0,2.8-0.4,3.8-1.3c1-0.9,1.5-2.3,1.5-4.3c0-1.8-0.5-3.1-1.4-3.8c-0.9-0.7-2.2-1.1-3.9-1.1H202.1z
	 M202.1,229.9v11.7h3.5c1.8,0,3.3-0.4,4.5-1.3c1.2-0.9,1.7-2.4,1.7-4.6c0-2.1-0.5-3.5-1.6-4.4c-1.1-0.9-2.6-1.3-4.7-1.3L202.1,229.9
	L202.1,229.9z M232.1,224c0-0.7,0-1.4,0.1-2c0-0.6,0.1-1.2,0.2-1.8h-0.2c-0.2,0.6-0.4,1.2-0.7,1.8c-0.3,0.6-0.5,1.2-0.8,1.8
	l-9.2,19.9h-2.2v-28.2h2.5V235c0,1.3-0.1,2.7-0.2,4h0.2c0.2-0.6,0.4-1.3,0.7-1.9c0.3-0.6,0.5-1.2,0.8-1.9l9.2-19.8h2.3v28.2h-2.5
	V224L232.1,224z M241.2,243.7h-2.7l8.8-15l-8.4-13.3h2.6l8.4,13.3v-13.3h2.6v13.3l8.4-13.3h2.5l-8.3,13l9,15.2h-2.9l-8.7-14.6v14.6
	h-2.6V229L241.2,243.7z M280.8,224c0-0.7,0-1.4,0.1-2c0-0.6,0.1-1.2,0.2-1.8h-0.2c-0.2,0.6-0.4,1.2-0.7,1.8
	c-0.3,0.6-0.5,1.2-0.8,1.8l-9.2,19.9h-2.2v-28.2h2.5V235c0,1.3-0.1,2.7-0.2,4h0.2c0.2-0.6,0.4-1.3,0.7-1.9c0.3-0.6,0.5-1.2,0.8-1.9
	l9.2-19.8h2.3v28.2h-2.5V224z M293.3,223.7c-0.2-0.9-0.5-1.8-0.6-2.7c-0.2-0.8-0.3-1.7-0.4-2.6H292c0,0.9,0,1.9,0.1,2.8
	c0,1,0,2-0.1,3.2l-0.7,19.2h-2.2l1.1-28.2h3.3l4.4,16.8c0.3,1,0.5,1.9,0.6,2.8c0.1,0.9,0.2,1.7,0.3,2.5h0.2c0.1-1.6,0.4-3.3,1-5.3
	l4.4-16.8h3.4l1.1,28.2h-2.6l-0.7-19.2c-0.1-1.1-0.1-2.1-0.1-3.2c0-1,0.1-1.9,0.1-2.9h-0.2c-0.2,1-0.3,1.9-0.5,2.7
	c-0.2,0.9-0.4,1.7-0.6,2.6l-4.3,16.6h-2.2C297.7,240.3,293.3,223.7,293.3,223.7z M321.6,244.2c-1.2,0-2.4-0.3-3.4-0.9
	c-1-0.6-2-1.5-2.7-2.7c-0.8-1.2-1.4-2.7-1.8-4.5c-0.4-1.8-0.7-3.9-0.7-6.4c0-2.4,0.2-4.5,0.7-6.3c0.4-1.8,1.1-3.4,1.8-4.6
	c0.8-1.3,1.7-2.2,2.7-2.9c1-0.7,2.2-1,3.4-1c1.2,0,2.4,0.3,3.4,0.9c1,0.6,2,1.5,2.7,2.7c0.8,1.2,1.4,2.7,1.8,4.5
	c0.4,1.8,0.7,3.9,0.7,6.4c0,2.4-0.2,4.4-0.7,6.3c-0.4,1.8-1.1,3.4-1.8,4.6c-0.8,1.3-1.7,2.2-2.7,2.9
	C324,243.9,322.9,244.2,321.6,244.2L321.6,244.2z M321.6,242.1c1.6,0,3.1-1,4.2-3.1c1.2-2.1,1.8-5.2,1.8-9.5c0-2.2-0.2-4.1-0.5-5.7
	c-0.3-1.6-0.7-2.9-1.3-3.9c-0.5-1-1.2-1.7-1.9-2.2c-0.7-0.5-1.5-0.7-2.3-0.7c-1.6,0-3.1,1-4.2,3c-1.2,2-1.8,5.2-1.8,9.5
	c0,2.2,0.2,4.1,0.5,5.7c0.3,1.6,0.7,2.9,1.3,3.9c0.5,1,1.2,1.8,1.9,2.2C320,241.8,320.8,242.1,321.6,242.1z M343,241.9
	c0.9,0,1.7-0.1,2.4-0.4c0.7-0.3,1.3-0.7,1.8-1.1c0.6-0.4,1-0.9,1.5-1.5l0.8,2.2c-0.4,0.6-1,1.1-1.6,1.6c-0.5,0.4-1.2,0.8-2,1.1
	c-0.8,0.3-1.8,0.5-2.9,0.5c-2.8,0-5-1.3-6.6-3.8c-1.5-2.6-2.3-6.1-2.3-10.8c0-4.7,0.8-8.3,2.3-10.9c1.5-2.6,3.8-3.9,6.7-3.9
	c1.5,0,2.7,0.3,3.7,0.8c1,0.5,1.8,1.1,2.5,1.9l-0.7,2.8c-0.6-0.9-1.4-1.6-2.3-2.2c-0.9-0.6-1.9-1-3.1-1c-2.2,0-3.8,1.1-4.8,3.2
	c-1,2.2-1.5,5.2-1.5,9.2c0,3.9,0.5,6.9,1.5,9.1S340.8,241.9,343,241.9L343,241.9z M360.8,217.6v26h-2.6v-26h-6.6v-2.2h15.7v2.2
	H360.8L360.8,217.6z M371.5,215.4h2.6v10.5h2.1c2.7,0,4.8,0.7,6.4,2.2c1.6,1.5,2.4,3.7,2.4,6.6c0,3-0.8,5.2-2.5,6.7
	c-1.7,1.5-3.8,2.2-6.5,2.2h-4.5L371.5,215.4L371.5,215.4z M374.2,228v13.6h1.7c2,0,3.6-0.5,4.8-1.6c1.2-1.1,1.8-2.8,1.8-5.2
	c0-2.4-0.6-4.1-1.7-5.2c-1.1-1.1-2.7-1.6-4.7-1.6H374.2L374.2,228z"/>
<g transform="translate(-95.38059,-94.500688)">
	<g>
		<path id="e3e00503-4570-4d4f-9c94-13248eafc32d" fill="#A0A0A0" d="M115.1,322.1l-6.8,15.4h-5l7.5-16.4c-3.5-1.8-5.9-5.1-5.9-11.1
			c0-8.4,5.3-12.6,11.7-12.6h6.5v40.1h-4.3v-15.4H115.1z M118.7,301h-2.3c-3.5,0-6.8,2.3-6.8,9c0,6.5,3.1,8.5,6.8,8.5h2.3V301z"/>
		<path fill="#A0A0A0" d="M143.9,309.2v28.3h-4.3v-12.7h-6.5v12.7h-4.4v-28.3h4.4v12h6.5v-12H143.9z M166.4,343.1h-3.9v-5.6h-12.1
			v5.6h-3.9v-9.2h1.7c2.6-6,2.9-14.8,2.9-22.3v-2.4h13.1v24.7h2.2V343.1z M159.8,312.8H155v0.5c0,6-0.3,14.7-2.6,20.7h7.5V312.8z
			 M178.5,337.9c-5.8,0-9.4-4.7-9.4-13.4c0-9.1,2.5-15.7,8.5-15.7c4.7,0,7.8,3.5,7.8,13.1v2.4h-11.8c0,6.4,1.8,9.8,5.3,9.8
			c2.5,0,4.4-1.1,5.6-1.9l1,3.4C183.4,337.1,181,338,178.5,337.9L178.5,337.9z M173.6,320.8h7.2c0-4.8-0.8-8.4-3.3-8.4
			C174.9,312.4,173.9,315.7,173.6,320.8L173.6,320.8z M194.3,323.4v14.1h-4.4v-28.3h4.4v13.1l6.8-13.1h4.4l-7,13.3l8,15h-4.8
			L194.3,323.4z M207.1,323.4c0-8.9,3.4-14.5,10-14.5c2.5,0,4,0.7,5.2,1.5l-0.6,4.2c-1.2-1-2.9-2-4.7-2c-3.1,0-5.4,3.5-5.4,10.7
			c0,7.1,1.7,11.1,5.2,11.1c1.8,0,3.4-0.6,4.8-1.7l1,3.3c-1.6,1.4-3.7,2.2-5.9,2.1C210.7,337.9,207.1,333,207.1,323.4L207.1,323.4z"
			/>
	</g>
</g>
</svg>
