<?xml version="1.0" encoding="utf-8"?>
<!-- Generator: Adobe Illustrator 23.0.1, SVG Export Plug-In . SVG Version: 6.00 Build 0)  -->
<svg version="1.1" id="Yota_x5F_logo" xmlns="http://www.w3.org/2000/svg" xmlns:xlink="http://www.w3.org/1999/xlink" x="0px"
	 y="0px" viewBox="0 0 283.5 283.5" style="enable-background:new 0 0 283.5 283.5;" xml:space="preserve">
<style type="text/css">
	.st0{fill:#A09F9F;}
</style>
<g>
	<g>
		<path class="st0" d="M119.6,229.4c-0.1-0.2-0.3-0.3-0.5-0.3h-6.5c-0.2,0-0.4,0.1-0.5,0.3l-13.4,19.3l-12.7-19.3
			c-0.1-0.2-0.3-0.3-0.5-0.3h-6.8c-0.2,0-0.4,0.1-0.5,0.3c-0.1,0.2-0.1,0.4,0,0.6l16.8,25.6v23.6c0,0.2,0.1,0.3,0.2,0.4
			c0.1,0.1,0.3,0.2,0.4,0.2h5.9c0.2,0,0.3-0.1,0.4-0.2c0.1-0.1,0.2-0.3,0.2-0.4v-23.7l17.4-25.6
			C119.6,229.8,119.7,229.6,119.6,229.4"/>
		<path class="st0" d="M142.3,248.3c-1.4-1.8-3.2-3.3-5.4-4.4c-2.2-1.1-4.7-1.7-7.5-1.7c-2.9,0-5.4,0.5-7.5,1.6
			c-2.1,1.1-3.9,2.5-5.4,4.3s-2.5,3.8-3.2,6.1c-0.7,2.3-1,4.6-1,7c0,2.4,0.4,4.7,1.1,7.1c0.7,2.3,1.8,4.4,3.2,6.2
			c1.4,1.8,3.2,3.3,5.3,4.4l0.3-0.5l-0.3,0.5c2.2,1.1,4.7,1.6,7.5,1.6c2.8,0,5.3-0.5,7.5-1.7c2.2-1.1,4-2.6,5.4-4.4
			c1.4-1.8,2.5-3.8,3.2-6.1c0.7-2.3,1.1-4.6,1.1-7c0-2.4-0.3-4.7-1.1-7C144.7,252.1,143.7,250.1,142.3,248.3 M119.2,261.3
			c0-1.7,0.2-3.3,0.7-4.9c0.4-1.6,1.1-3,1.9-4.3c0.8-1.2,1.9-2.2,3.2-3c1.3-0.7,2.7-1.1,4.5-1.1c1.7,0,3.2,0.4,4.5,1.1
			c1.3,0.8,2.4,1.7,3.2,3c0.9,1.3,1.5,2.7,1.9,4.3c0.4,1.6,0.7,3.3,0.7,5c0,1.7-0.2,3.3-0.7,5c-0.4,1.6-1.1,3.1-1.9,4.3
			c-0.9,1.2-2,2.3-3.2,3c-1.3,0.8-2.7,1.1-4.5,1.1c-1.7,0-3.1-0.4-4.4-1.1c-1.3-0.8-2.4-1.8-3.3-3c-0.9-1.3-1.5-2.7-1.9-4.3
			C119.4,264.7,119.2,263,119.2,261.3"/>
		<path class="st0" d="M170.8,273.1c-0.1-0.2-0.2-0.3-0.4-0.3c-0.2,0-0.4,0-0.5,0.1c-0.7,0.5-1.4,1-2.2,1.3
			c-0.8,0.4-1.6,0.5-2.4,0.5c-0.9,0-1.6-0.2-2.2-0.7c-0.4-0.3-0.8-1.3-0.8-3V249h8.8c0.2,0,0.3-0.1,0.4-0.2c0.1-0.1,0.2-0.3,0.2-0.4
			v-4.7c0-0.2-0.1-0.3-0.2-0.4c-0.1-0.1-0.3-0.2-0.4-0.2h-8.7v-9.1c0-0.2-0.1-0.3-0.2-0.4c-0.1-0.1-0.3-0.2-0.4-0.2h-5.7
			c-0.2,0-0.3,0.1-0.4,0.2c-0.1,0.1-0.2,0.3-0.2,0.4v9.1H150c-0.2,0-0.3,0.1-0.4,0.2c-0.1,0.1-0.2,0.3-0.2,0.4v4.7
			c0,0.2,0.1,0.3,0.2,0.4c0.1,0.1,0.3,0.2,0.4,0.2h5.5v22.7c0,2.9,0.7,5.2,2.3,6.7c1.6,1.5,3.8,2.2,6.6,2.2c2.1,0,3.7-0.2,5-0.8
			c1.2-0.5,2.3-1.2,3.5-2.1c0.2-0.2,0.3-0.5,0.2-0.8L170.8,273.1z"/>
		<path class="st0" d="M201.4,245.5c-2.3-2.2-5.6-3.2-9.7-3.2c-3,0-5.6,0.5-7.7,1.4c-2.1,1-3.8,2.5-5.3,4.5
			c-0.1,0.1-0.1,0.3-0.1,0.5c0,0.2,0.1,0.3,0.3,0.4l4,2.8c0.3,0.2,0.6,0.1,0.8-0.1c0.9-1.1,2-2,3.3-2.7c1.3-0.7,2.7-1,4.2-1
			c2.3,0,3.9,0.6,5,1.8c1.1,1.1,1.7,3,1.7,5.8c-2.2,0-4.5,0.2-6.8,0.6c-2.6,0.4-4.9,1.1-7.1,2.1c-2.2,1-4,2.4-5.4,4.1
			c-1.5,1.8-2.2,4-2.2,6.6c0,1.9,0.4,3.6,1.1,5.1c0.7,1.5,1.7,2.7,2.9,3.6c1.2,1,2.5,1.7,4.1,2.2c1.5,0.5,3.1,0.7,4.7,0.7
			c2,0,3.9-0.3,5.6-1c1.3-0.5,2.5-1.3,3.6-2.2l0.2,1.8c0,0.3,0.3,0.5,0.6,0.5h5.2c0.2,0,0.3-0.1,0.4-0.2c0.1-0.1,0.2-0.3,0.2-0.4
			v-23.1C204.9,251.3,203.8,247.7,201.4,245.5 M198,261.3v10.1c-1,0.9-2.2,1.6-3.6,2.3c-1.4,0.7-2.9,1-4.5,1c-0.7,0-1.5-0.1-2.3-0.3
			c-0.7-0.2-1.4-0.5-2-1c-0.6-0.5-1.1-1.1-1.5-1.8c-0.4-0.7-0.6-1.5-0.6-2.6c0-1.7,0.5-2.9,1.4-3.9c0.9-1,2.1-1.8,3.6-2.3
			c1.5-0.6,3.2-0.9,4.9-1.1C195,261.5,196.5,261.4,198,261.3"/>
		<path class="st0" d="M188,70.6c10.8-10.9,17.4-26.1,17.4-42.7V16.1c0-7.4-6-13.3-13.3-13.3c-7.4,0-13.3,6-13.3,13.3v11.7
			c0,9.5-3.7,17.9-9.8,24.1c-6.1,6.1-14.2,9.8-23.3,9.8c-9.1,0-17.2-3.7-23.3-9.8c-6-6.2-9.8-14.6-9.8-24.1V16.1
			c0-7.4-6-13.3-13.3-13.3C92,2.8,86,8.8,86,16.1v11.7c0,16.6,6.6,31.8,17.4,42.7c7.8,7.9,17.8,13.7,29,16.3v28
			c-11.2,2.6-21.2,8.4-29,16.3C92.7,142.1,86,157.3,86,173.9v11.7c0,7.3,6,13.3,13.3,13.3c7.4,0,13.3-6,13.3-13.3v-11.7
			c0-9.5,3.7-17.9,9.8-24.1c6.1-6.1,14.2-9.8,23.3-9.8c9.1,0,17.2,3.7,23.3,9.8c6,6.1,9.8,14.6,9.8,24.1v11.7
			c0,7.3,6,13.3,13.3,13.3c7.4,0,13.3-6,13.3-13.3v-11.7c0-16.6-6.6-31.8-17.4-42.7c-7.8-7.9-17.8-13.7-29-16.3v-28
			C170.2,84.3,180.3,78.5,188,70.6"/>
		<path class="st0" d="M145.7,196.1c12.7,0,23.1-10.3,23.1-23.1c0-12.7-10.3-23.1-23.1-23.1c-12.7,0-23.1,10.3-23.1,23.1
			C122.7,185.8,133,196.1,145.7,196.1"/>
	</g>
</g>
</svg>
