<svg width="70" height="63" viewBox="0 0 70 63" fill="none" xmlns="http://www.w3.org/2000/svg">
<path d="M45.3087 21.9725C45.3087 16.6356 45.2899 11.6933 45.3276 6.75101C45.3464 5.28523 45.1013 4.28926 43.2719 4.28926C34.4266 4.32685 16.2079 4.30805 15.6044 4.30805C15.6044 6.33758 15.6421 8.57382 15.6044 10.5658C15.5478 13.9671 14.0202 15.4893 10.5877 15.5644C8.62624 15.602 6.55166 15.5644 4.32619 15.5644C4.32619 16.3913 4.30733 17.1242 4.30733 17.8383C4.30733 30.4852 4.30733 43.1134 4.30733 55.7604C4.30733 58.6356 4.38277 58.6919 7.19289 58.6919C18.9803 58.6919 30.7489 58.6356 42.5175 58.7295C44.7241 58.7483 45.4785 57.9966 45.3464 55.8544C45.3464 53.5993 45.4785 51.3631 45.3842 49.0517C45.3842 45.3872 46.5158 43.1698 49.5899 41.0651C49.5899 43.4141 49.6465 54.7644 49.5711 58.2973C49.5145 61.304 47.9303 62.9389 44.9315 62.9577C31.5599 63.0141 18.2071 63.0141 4.83541 62.9577C1.57265 62.9389 0.0261344 61.2852 0.0261344 57.9966C0.00727455 43.9966 -0.0493052 30.0154 0.101574 16.0154C0.120434 14.5309 0.931409 12.7832 1.93098 11.6557C5.00515 8.27315 8.26791 5.02215 11.6815 1.94027C12.7943 0.925503 14.5671 0.11745 16.0382 0.0986577C25.5624 -0.0516779 35.0678 0.00469802 44.5921 0.0422819C48.0057 0.0610739 49.5522 1.65839 49.5899 5.05973C49.6276 7.99127 49.5899 10.9228 49.5899 13.8544C49.5899 18.5899 49.5899 18.5899 45.3087 21.9725Z" fill="#7BBE4D"/>
<path d="M64.2821 21.0705C64.9233 21.8222 65.6589 22.6303 66.0738 23.1001C66.6207 22.5551 66.3755 22.7618 66.4698 22.6678C66.9413 22.2544 68.2804 20.488 69.4874 21.7095C70.8076 23.0625 69.2611 24.0021 68.3936 24.8101C64.3198 28.6061 60.2084 32.3645 56.0592 36.0853C55.3048 36.7806 53.8337 37.9457 53.5131 37.8141C53.2302 37.7014 53.0982 37.6262 52.8719 37.4947C52.1552 36.8933 53.4565 35.7658 54.0223 35.1833C57.2851 31.8571 60.6421 28.6249 64.1312 25.2048C63.4711 24.4719 62.9619 23.9081 62.2452 23.1001C56.493 28.9819 50.8539 34.7511 45.0827 40.6517C42.8195 38.19 40.9524 36.1605 38.8967 33.9242C39.1796 33.6235 39.6888 33.0034 40.2546 32.4397C46.7047 25.994 53.1548 19.5672 59.6048 13.1403C61.8303 10.9229 64.565 10.7162 66.4321 12.5578C68.3181 14.437 68.1107 17.1054 65.9041 19.3417C65.3948 19.8866 64.8856 20.4316 64.2821 21.0705Z" fill="#7BBE4D"/>
<path d="M21.1683 51.8892L18.2262 53.3362C17.7547 53.5617 17.1889 53.3174 17.038 52.7912C16.7174 51.5885 16.359 50.3859 16.1893 49.1644C15.9253 47.2476 15.9064 45.2932 15.7744 43.3577C15.7555 43.0758 15.3029 42.9818 15.1709 43.1697C14.6616 43.959 14.2845 44.861 14.0393 45.763C13.6998 47.304 13.0586 48.8825 13.3226 50.4234C13.398 50.8932 13.398 51.5322 12.2476 51.4382C11.6063 51.3442 11.3612 50.7241 11.4177 50.4046C11.9458 47.6986 12.4173 44.955 13.2849 42.3617C13.5489 41.5912 15.0954 40.7644 15.9441 40.8771C16.5099 40.9523 17.4529 42.2114 17.5849 43.0758C17.9999 45.6315 18.2073 48.0932 18.4148 50.6865C18.5656 51.0812 18.7354 51.1939 18.9428 51.3818C19.0371 51.551 19.0371 50.5926 19.2446 50.3107C21.0552 47.8114 21.6775 47.8677 23.3749 50.5174C23.8464 51.2503 24.6385 51.7577 25.6381 52.6973C27.0149 45.7255 31.3715 41.3469 35.6904 36.9872C36.0299 36.6489 36.5769 36.6489 36.8975 37.006L41.8199 42.1362C42.1405 42.4744 42.1217 43.0006 41.801 43.3201C37.8216 47.1161 33.7479 51.1 27.7693 52.9416C24.9969 53.806 23.3938 53.5617 22.1679 52.1147C21.9039 51.8328 21.5078 51.7201 21.1683 51.8892Z" fill="#7BBE4D"/>
<path d="M23.7514 12.5202C22.8273 12.4826 22.3558 12.0504 22.3181 11.3363C22.2992 11.0169 22.3935 10.735 22.601 10.5095C22.8461 10.2464 23.2233 10.096 23.6382 10.096C23.6382 10.096 35.6897 10.096 37.1231 10.1148C37.5191 10.1148 38.0661 10.284 38.3678 10.6222C38.6507 10.9417 38.7073 11.3739 38.5376 11.7497C38.3301 12.2007 37.8586 12.4826 37.2928 12.5014C36.727 12.5202 23.7514 12.5202 23.7514 12.5202Z" fill="#7BBE4D"/>
<path d="M12.8318 26.5577C11.9076 26.5201 11.4361 26.0879 11.3984 25.3738C11.3796 25.0544 11.4739 24.7725 11.6813 24.547C11.9265 24.2839 12.3037 24.1336 12.7186 24.1336C12.7186 24.1336 34.2 24.1336 35.6334 24.1524C36.0294 24.1524 36.5764 24.3215 36.8781 24.6597C37.161 24.9792 37.2176 25.4114 37.0479 25.7873C36.8404 26.2383 36.3689 26.5201 35.8031 26.5389C35.2373 26.5577 12.8318 26.5577 12.8318 26.5577Z" fill="#7BBE4D"/>
<path d="M12.8318 31.5001C11.9076 31.4625 11.4361 31.0303 11.3984 30.3162C11.3796 29.9967 11.4739 29.7148 11.6813 29.4893C11.9265 29.2262 12.3037 29.0759 12.7186 29.0759C12.7186 29.0759 34.2 29.0759 35.6334 29.0947C36.0294 29.0947 36.5764 29.2638 36.8781 29.6021C37.161 29.9215 37.2176 30.3537 37.0479 30.7296C36.8404 31.1806 36.3689 31.4625 35.8031 31.4813C35.2373 31.5001 12.8318 31.5001 12.8318 31.5001Z" fill="#7BBE4D"/>
<path d="M12.8318 36.4047C11.9076 36.3671 11.4361 35.9349 11.3984 35.2208C11.3796 34.9014 11.4739 34.6195 11.6813 34.394C11.9265 34.1309 12.3037 33.9806 12.7186 33.9806C12.7186 33.9806 28.5421 33.9806 29.9754 33.9994C30.3715 33.9994 30.9184 34.1685 31.2202 34.5067C31.5031 34.8262 31.5596 35.2584 31.3899 35.6343C31.1824 36.0853 30.7109 36.3671 30.1451 36.3859C29.5793 36.4047 12.8318 36.4047 12.8318 36.4047Z" fill="#7BBE4D"/>
</svg>
