<svg width="74" height="56" viewBox="0 0 74 56" fill="none" xmlns="http://www.w3.org/2000/svg">
<path d="M73.5835 24.982C73.5835 20.912 70.7235 18.074 66.6315 18.074C62.4295 18.074 58.2055 18.074 54.0035 18.074L47.2055 4.34601C45.9955 1.92601 43.5755 0.518005 41.0455 0.518005C40.0115 0.518005 38.9775 0.738005 38.0095 1.24401L4.23949 17.964C0.829493 19.658 -0.556507 23.772 1.13749 27.182L11.6755 48.456C12.8855 50.876 15.3055 52.284 17.8355 52.284C18.8695 52.284 19.9035 52.064 20.8715 51.558L22.5215 50.744C23.3575 53.692 25.8215 55.54 29.2315 55.54C35.4575 55.54 41.6835 55.54 47.8875 55.54C54.1355 55.54 60.3835 55.54 66.6315 55.54C70.6575 55.54 73.5395 52.68 73.5395 48.654C73.5835 40.756 73.5835 32.88 73.5835 24.982ZM67.1595 22.188C69.2715 22.188 70.2835 23.376 69.9975 25.554C55.4775 25.554 40.9575 25.554 26.3935 25.554C25.9975 23.574 27.0755 22.188 29.0115 22.188C41.7275 22.188 54.4435 22.188 67.1595 22.188ZM18.9355 47.598C18.5835 47.774 18.2315 47.862 17.8355 47.862C17.0875 47.862 16.1195 47.51 15.6135 46.476L5.07549 25.202C4.78949 24.608 4.74549 23.948 4.94349 23.31C5.16349 22.694 5.60349 22.188 6.19749 21.88L39.9235 5.18201C40.2755 5.00601 40.6275 4.91801 41.0235 4.91801C41.7715 4.91801 42.7395 5.27001 43.2455 6.30401L49.0755 18.074C42.4755 18.074 35.8755 18.074 29.2755 18.03C25.3815 18.008 22.0375 21 22.1915 25.092C22.2795 27.402 22.2135 29.712 22.2135 32C22.2135 36.642 22.2135 41.284 22.2135 45.926L18.9355 47.598ZM70.0855 48.434C70.0855 50.502 69.1615 51.404 67.0715 51.404C54.4435 51.404 41.7935 51.404 29.1655 51.404C27.2515 51.404 26.2835 50.436 26.2835 48.544C26.2835 43.286 26.2835 38.028 26.2615 32.77C26.2615 32.022 26.5475 31.89 27.2075 31.89C34.2035 31.912 41.1995 31.912 48.2175 31.912C55.1695 31.912 62.1215 31.934 69.0515 31.89C69.8435 31.89 70.1075 32.044 70.0855 32.902C70.0635 38.072 70.0855 43.242 70.0855 48.434Z" fill="#7BBE4D"/>
<path d="M36.5133 41.57C38.9113 39.678 41.2653 39.656 42.9373 41.46C44.4993 43.154 44.4993 45.684 42.9373 47.356C41.2433 49.1601 38.8893 49.1161 36.5133 47.2461C35.3913 48.3241 34.0933 48.9181 32.4653 48.6321C31.4093 48.4341 30.5733 47.9281 29.8913 47.1141C28.4833 45.3761 28.6153 42.912 30.2213 41.35C31.9593 39.656 34.2913 39.722 36.5133 41.57Z" fill="#7BBE4D"/>
</svg>
