<svg width="51" height="64" viewBox="0 0 51 64" fill="none" xmlns="http://www.w3.org/2000/svg">
<path d="M44.9319 64C43.2678 64 37.1592 63.9801 30.0967 63.9801H5.98687C3.00358 63.9801 0.690012 62.1919 0.101473 59.4101C3.86328e-07 58.973 0 58.5359 0 58.1782C0 41.8057 0 25.5126 0 9.2195C0 5.98075 2.51651 3.51692 5.8651 3.49705H10.7561V1.66905C10.7561 0.357652 11.1417 0 12.4811 0C12.4811 0 38.0318 0 38.6813 0C39.7975 0 40.2439 0.437131 40.2439 1.54983C40.2439 2.06644 40.2439 3.49705 40.2439 3.49705L42.4966 3.47718C44.3028 3.47718 45.4596 3.51692 46.0279 3.5964C48.9503 3.97392 51 6.29867 51 9.23937C51 15.7765 51 41.9447 51 41.9447C51 47.3095 51 52.6942 51 58.059C51 59.8473 50.4115 61.2779 49.2141 62.4104C48.0776 63.4834 46.6976 64 44.9522 64H44.9319ZM6.06805 7.80875C4.87067 7.80875 4.38361 8.28563 4.38361 9.45793V58.0192C4.38361 59.1717 4.91126 59.6684 6.08834 59.6684H44.6275C46.1902 59.6684 46.6367 59.2512 46.6367 57.7411C46.6367 57.7411 46.6367 12.7364 46.6367 9.37845C46.6367 8.3055 46.1496 7.78889 45.074 7.78889C43.9375 7.78889 40.3048 7.78889 40.3048 7.78889C40.0816 7.78889 40.0816 7.78889 40.0004 8.00745C39.2698 10.054 37.5245 11.2859 35.3124 11.2859C31.9435 11.2859 28.5543 11.2859 25.1854 11.2859C22.0195 11.2859 18.8536 11.2859 15.7079 11.2859C13.4958 11.2859 11.7505 10.054 11.0199 8.00745C10.9387 7.78889 10.9387 7.78889 10.7155 7.78889L6.06805 7.80875ZM15.1803 4.55014C15.2209 6.06023 16.1341 6.95436 17.6765 6.95436H33.3235C34.8456 6.95436 35.7589 6.09997 35.8197 4.62962V4.37131C35.7994 4.33157 35.7386 4.29183 35.5153 4.29183C33.7091 4.29183 30.1982 4.31171 26.5452 4.31171C22.1819 4.31171 17.575 4.3117 15.4238 4.29183C15.2411 4.29183 15.1803 4.31171 15.16 4.31171L15.1803 4.55014Z" fill="#C4C4C4"/>
<path d="M11.1622 3.87458C11.1622 3.0798 11.1622 2.36449 11.1622 1.66905C11.1622 0.596094 11.3652 0.377529 12.4814 0.377529C19.7062 0.377529 37.1594 0.377529 38.6815 0.377529C39.5745 0.377529 39.8383 0.635834 39.8383 1.52997C39.8383 2.28501 39.8383 3.02019 39.8383 3.87458C40.6501 3.87458 44.709 3.7951 45.9672 3.97393C48.7273 4.33158 50.5944 6.4775 50.5944 9.2195C50.6147 18.2006 50.5944 27.1816 50.5944 36.1627C50.5944 43.4548 50.5944 50.747 50.5944 58.0391C50.5944 59.6287 50.1073 60.9997 48.9302 62.1124C47.814 63.1655 46.4543 63.6026 44.9119 63.5828C41.1778 63.5629 15.2211 63.5828 5.96685 63.5828C3.16622 63.5828 1.015 61.9336 0.467053 59.3307C0.385875 58.9531 0.365581 58.5557 0.365581 58.1782C0.365581 41.8653 0.365581 25.5325 0.365581 9.2195C0.365581 6.17945 2.71974 3.91432 5.82479 3.89445C7.61071 3.87458 9.33574 3.87458 11.1622 3.87458ZM47.0429 33.7585C47.0429 29.9634 47.0429 26.1683 47.0429 22.3732C47.0429 18.0615 47.0429 13.7299 47.0429 9.4182C47.0429 8.10681 46.3528 7.43124 45.0946 7.43124C43.5116 7.43124 42.1316 7.43124 40.3254 7.43124C39.9398 7.43124 39.7774 7.53059 39.6354 7.90811C38.9657 9.77585 37.3624 10.9084 35.3329 10.9283C28.7981 10.9482 22.2633 10.9482 15.7082 10.9283C13.6788 10.9283 12.0755 9.79572 11.4058 7.90811C11.2637 7.53059 11.1014 7.43124 10.7158 7.43124C9.13279 7.43124 7.69188 7.43124 6.08862 7.43124C4.66801 7.43124 3.978 8.08694 3.978 9.49768C3.978 25.6914 3.978 41.8653 3.978 58.059C3.978 59.4499 4.6883 60.1254 6.08862 60.1254C18.935 60.1254 31.7814 60.1254 44.6278 60.1254C46.434 60.1254 47.0429 59.5492 47.0429 57.8007C47.0429 49.7535 47.0429 41.746 47.0429 33.7585ZM15.4444 3.91432C14.937 3.91432 14.7544 4.03354 14.7747 4.57002C14.8152 5.76219 14.7747 3.35797 14.7949 4.55015C14.8152 6.29867 15.9111 7.37163 17.6971 7.3915C24.1304 7.3915 26.9107 7.3915 33.3441 7.3915C35.13 7.3915 36.2259 6.29867 36.2462 4.57002C36.2665 3.39771 36.2259 5.8218 36.2665 4.66936C36.2868 4.09315 36.1041 3.93419 35.5156 3.93419C31.5582 3.93419 19.4018 3.93419 15.4444 3.91432Z" fill="#C4C4C4"/>
<path d="M10.2081 39.4014C9.76162 39.4014 9.37602 39.1829 9.13249 38.7656C8.88895 38.3682 8.76719 37.7324 9.47749 37.0568L11.994 34.6327L9.53838 32.2285C9.15278 31.8311 8.92954 31.4139 8.94984 31.0165C8.94984 30.6985 9.0919 30.4204 9.33543 30.1819C9.59926 29.9435 9.88338 29.8243 10.1878 29.8243C10.5734 29.8243 10.959 30.023 11.3649 30.4005L13.8205 32.8246L14.3482 32.308C15.0179 31.6523 15.647 31.0165 16.3167 30.4005C16.6009 30.1422 17.027 29.8839 17.4735 29.8839C17.9403 29.9038 18.4882 30.3012 18.5897 30.7184C18.7115 31.1555 18.5694 31.7318 18.2853 32.0497C17.7576 32.6259 17.1894 33.1822 16.6211 33.7187L15.9717 34.3546L15.6673 34.6725L18.1432 37.0568C19.1377 38.0304 18.6303 38.7656 18.3462 39.0438C18.1026 39.2822 17.7982 39.4213 17.4735 39.4213C17.0879 39.4213 16.682 39.2226 16.3167 38.865L13.8408 36.421L13.3131 36.9575C12.6231 37.6529 11.9534 38.3086 11.2837 38.9643C10.959 39.2425 10.5937 39.4014 10.2081 39.4014Z" fill="#C4C4C4"/>
<path d="M13.8407 33.4008C14.7945 32.4471 15.6875 31.553 16.621 30.6787C16.8646 30.4601 17.2096 30.2615 17.514 30.2615C17.7575 30.2615 18.1634 30.5595 18.2243 30.7979C18.3055 31.096 18.204 31.553 18.0011 31.7715C17.2705 32.5663 16.479 33.3015 15.6875 34.0764C15.5048 34.2552 15.3425 34.4341 15.0989 34.6725C16.0325 35.5666 16.9457 36.4409 17.859 37.335C18.4069 37.8715 18.4678 38.3484 18.0619 38.7656C17.6763 39.163 17.1284 39.1034 16.6007 38.5868C15.6875 37.6927 14.7945 36.7985 13.8407 35.8448C12.8463 36.8383 11.933 37.7722 10.9792 38.6663C10.4718 39.163 9.80209 39.1233 9.49767 38.5868C9.21355 38.1099 9.3962 37.7125 9.7818 37.3748C10.695 36.5005 11.6083 35.6262 12.6027 34.6725C12.0345 34.1162 11.5271 33.5995 11.0198 33.0829C10.6342 32.7054 10.2486 32.3478 9.88327 31.9702C9.33532 31.4139 9.25414 30.8774 9.68032 30.48C10.1065 30.0826 10.5733 30.1422 11.1415 30.6986C11.9939 31.5728 12.8868 32.4471 13.8407 33.4008Z" fill="#C4C4C4"/>
<path d="M10.2081 53.4493C9.88342 53.4493 9.579 53.3102 9.33547 53.0519C8.90929 52.6148 8.74693 51.8597 9.55871 51.0649L12.0346 48.6607L9.76165 46.4751C9.2137 45.9386 8.94987 45.4816 8.97017 45.0643C8.97017 44.7663 9.11223 44.4881 9.37606 44.2298C9.61959 44.0112 9.90371 43.892 10.1878 43.892C10.614 43.892 11.0808 44.1304 11.6084 44.6669L13.8408 46.9122C13.8408 46.9122 15.7282 45.0444 16.3371 44.4285C16.6821 44.0907 17.088 43.892 17.4736 43.892C17.778 43.892 18.0824 44.0112 18.3056 44.2298C18.5695 44.4881 18.7115 44.7861 18.7318 45.1041C18.7318 45.4816 18.5492 45.879 18.1839 46.2366C17.5547 46.8526 15.6673 48.6607 15.6673 48.6607L16.1544 49.1376C16.8444 49.7933 17.5141 50.449 18.1636 51.1047C18.4274 51.363 18.7115 51.8398 18.6912 52.277C18.6709 52.6942 18.2447 53.2307 17.8388 53.3301C17.7374 53.3499 17.6359 53.3698 17.5344 53.3698C17.1285 53.3698 16.7227 53.2307 16.4791 53.0122C15.7688 52.3763 15.0991 51.7008 14.3482 50.9656L13.78 50.3894C13.78 50.3894 12.7044 51.5617 12.3188 51.9789C12.0955 52.2174 11.8723 52.4359 11.6287 52.6545L11.4055 52.8532C10.9996 53.2506 10.5937 53.4493 10.2081 53.4493Z" fill="#C4C4C4"/>
<path d="M13.8411 47.4685C14.8355 46.475 15.7284 45.5809 16.6417 44.7066C17.1288 44.2297 17.6767 44.1701 18.0623 44.5278C18.4885 44.9252 18.4479 45.4219 17.9202 45.9584C17.007 46.8525 16.0937 47.7268 15.1196 48.6805C16.0734 49.6144 17.007 50.4887 17.9202 51.4027C18.1435 51.6212 18.3464 51.9988 18.3261 52.2769C18.3058 52.5154 18.0217 52.9128 17.7782 52.9525C17.4738 53.0121 17.007 52.9326 16.7837 52.7141C15.8096 51.8398 14.8964 50.8861 13.8005 49.8131C13.1916 50.4688 12.6234 51.0848 12.0551 51.7007C11.771 51.9988 11.4666 52.2769 11.1622 52.575C10.5736 53.1313 10.0663 53.2108 9.66039 52.7935C9.27479 52.3961 9.35597 51.8795 9.88363 51.3629C10.7766 50.4887 11.6695 49.6343 12.664 48.6607C11.7913 47.8261 10.9389 47.0115 10.1069 46.1968C9.35597 45.4617 9.2342 44.945 9.70098 44.5278C10.1475 44.1105 10.6548 44.2496 11.3651 44.945C12.1363 45.7597 12.9481 46.5744 13.8411 47.4685Z" fill="#C4C4C4"/>
<path d="M24.8604 53.4691C23.866 53.4294 23.3586 52.9724 23.318 52.2173C23.2977 51.8796 23.3992 51.5815 23.6224 51.3431C23.8862 51.0649 24.2921 50.9059 24.7386 50.9059H37.6256C39.168 50.9059 40.7104 50.9059 42.2527 50.9258C42.6789 50.9258 43.2675 51.1046 43.5922 51.4623C43.8966 51.8001 43.9575 52.2571 43.7748 52.6545C43.5516 53.1313 43.0442 53.4294 42.4354 53.4492C41.8469 53.4691 41.2583 53.4691 40.6698 53.4691H24.8604Z" fill="#C4C4C4"/>
<path d="M24.8604 47.9652C23.866 47.9255 23.3586 47.4685 23.318 46.7134C23.2977 46.3756 23.3992 46.0776 23.6224 45.8392C23.8862 45.561 24.2921 45.402 24.7386 45.402H37.6256C39.168 45.402 40.7104 45.402 42.2527 45.4219C42.6789 45.4219 43.2675 45.6007 43.5922 45.9584C43.8966 46.2962 43.9575 46.7532 43.7748 47.1506C43.5516 47.6274 43.0442 47.9255 42.4354 47.9453C41.8469 47.9652 41.2583 47.9652 40.6698 47.9652H24.8604Z" fill="#C4C4C4"/>
<path d="M24.8403 33.8976C23.8458 33.8578 23.3385 33.4008 23.2979 32.6458C23.2776 32.308 23.3791 32.01 23.6023 31.7715C23.8661 31.4934 24.272 31.3344 24.7185 31.3344H37.6055C39.1479 31.3344 40.6902 31.3344 42.2326 31.3543C42.6588 31.3543 43.2473 31.5331 43.5721 31.8907C43.8765 32.2285 43.9374 32.6855 43.7547 33.0829C43.5315 33.5598 43.0241 33.8578 42.4153 33.8777C41.8267 33.8976 41.2382 33.8976 40.6496 33.8976H24.8403Z" fill="#C4C4C4"/>
<path d="M24.8403 19.9491C23.8458 19.9093 23.3385 19.4523 23.2979 18.6973C23.2776 18.3595 23.3791 18.0615 23.6023 17.823C23.8661 17.5449 24.272 17.3859 24.7185 17.3859H37.6055C39.1479 17.3859 40.6902 17.3859 42.2326 17.4058C42.6588 17.4058 43.2473 17.5846 43.5721 17.9423C43.8765 18.28 43.9374 18.737 43.7547 19.1344C43.5315 19.6113 43.0241 19.9093 42.4153 19.9292C41.8267 19.9491 41.2382 19.9491 40.6496 19.9491H24.8403Z" fill="#C4C4C4"/>
<path d="M12.0553 25.3735C11.6088 25.3735 11.2435 25.0953 10.8376 24.6979C10.8376 24.6979 8.56463 22.4725 7.71226 21.638C7.06284 20.9823 6.98166 20.267 7.52962 19.7106C7.79344 19.4523 8.09786 19.3132 8.42257 19.3132C8.80817 19.3132 9.19376 19.4921 9.55906 19.8696C10.2085 20.5054 12.035 22.3135 12.035 22.3135L17.9204 16.5514C18.1842 16.2931 18.3872 16.0745 18.6713 15.995C18.8336 15.9354 19.0366 15.9553 19.2395 15.9553C19.6251 15.9553 19.9092 16.0348 20.1122 16.1937C20.4572 16.4719 20.4572 16.9289 20.4369 17.3064C20.4166 17.6243 20.1731 17.982 20.0107 18.1409L13.2932 24.7178C12.9076 25.0556 12.5221 25.3735 12.0553 25.3735Z" fill="#C4C4C4"/>
<path d="M24.8814 39.4014C23.7246 39.4014 23.2984 38.7457 23.2984 38.1298C23.2984 37.3549 23.9275 36.8581 24.8814 36.8581H36.8348C37.5045 36.878 37.9104 37.0568 38.1742 37.335C38.3772 37.5734 38.4787 37.8715 38.4381 38.2093C38.3975 38.6464 38.1539 39.4014 36.9769 39.4014H24.8814Z" fill="#C4C4C4"/>
<path d="M30.9083 39.0041C28.8991 39.0041 26.89 39.0041 24.9011 39.0041C24.1502 39.0041 23.724 38.6861 23.724 38.1298C23.724 37.5933 24.1502 37.2555 24.9011 37.2555C28.8788 37.2555 32.8768 37.2555 36.8546 37.2555C36.8951 37.2555 36.956 37.2555 36.9966 37.2555C37.6866 37.2953 38.1128 37.633 38.0519 38.1695C37.991 38.7855 37.5852 39.0041 36.9966 39.0041C34.9469 38.9842 32.9174 39.0041 30.9083 39.0041Z" fill="#C4C4C4"/>
<path d="M24.9215 25.3735C24.3736 25.3735 23.9271 25.2145 23.643 24.9165C23.4197 24.678 23.298 24.38 23.3183 24.0422C23.3589 23.2872 23.9474 22.8302 24.9418 22.8302H33.4046C33.9729 22.8302 34.4396 23.0487 34.7035 23.4263C34.9267 23.7442 34.9673 24.1416 34.8252 24.5191C34.6832 24.9165 34.2976 25.4132 33.4046 25.4132L24.9215 25.3735Z" fill="#C4C4C4"/>
<path d="M29.1024 24.9761C27.7021 24.9761 26.3018 24.9761 24.9015 24.9761C24.1303 24.9761 23.6635 24.6184 23.6838 24.0621C23.7041 23.5256 24.1303 23.2276 24.9015 23.2276C27.7224 23.2276 30.5433 23.2276 33.3643 23.2276C34.1558 23.2276 34.6428 23.764 34.4196 24.38C34.2369 24.8569 33.8513 24.996 33.3643 24.996C31.9437 24.9761 30.523 24.9761 29.1024 24.9761Z" fill="#C4C4C4"/>
</svg>
