<svg width="68" height="68" viewBox="0 0 68 68" fill="none" xmlns="http://www.w3.org/2000/svg">
<g clip-path="url(#clip0)">
<path d="M51.3506 61.3087C66.3199 51.7827 70.6746 32.0051 61.1487 17.0358C51.6227 2.06647 31.8451 -2.28824 16.8758 7.23769C1.90645 16.7636 -2.44826 36.5413 7.07767 51.5106" stroke="#7BBE4D" stroke-width="3" stroke-miterlimit="10" stroke-linecap="round"/>
<path fill-rule="evenodd" clip-rule="evenodd" d="M45.9321 53.1169H22.0679C20.7849 53.1169 19.6302 52.0905 19.6302 50.6792V18.8603C19.6302 17.5773 20.6566 16.4226 22.0679 16.4226H45.9321C47.2151 16.4226 48.3698 17.449 48.3698 18.8603V50.6792C48.3698 52.0905 47.2151 53.1169 45.9321 53.1169Z" fill="#7BBE4D"/>
<path d="M24.8906 42.7246H43.1094" stroke="white" stroke-width="2" stroke-miterlimit="10" stroke-linecap="round"/>
<path d="M24.8906 47.4717H43.1094" stroke="white" stroke-width="2" stroke-miterlimit="10" stroke-linecap="round"/>
<path d="M31.434 31.1774V32.0755C31.434 32.4604 31.8189 32.8453 32.2038 32.8453H36.566V34.5132H32.2038C31.8189 34.5132 31.434 34.8981 31.434 35.283V37.3359C31.434 37.7208 31.0491 38.1057 30.6642 38.1057H29.8943C29.5094 38.1057 29.1245 37.7208 29.1245 37.3359V34.5132H27.4566V32.8453H29.1245V30.4076H27.4566V28.7396H29.1245V21.1698C29.1245 20.7849 29.5094 20.4 29.8943 20.4H34.1283C36.1811 20.4 37.8491 20.7849 38.8755 21.683C39.9019 22.5812 40.4151 23.7359 40.4151 25.2755C40.4151 26.1736 40.2868 26.9434 39.9019 27.7132C39.517 28.3547 39.1321 28.8679 38.4906 29.2529C37.8491 29.6378 37.2075 29.8944 36.4377 30.151C35.6679 30.2793 34.7698 30.4076 33.8717 30.4076H32.2038C31.8189 30.4076 31.434 30.7925 31.434 31.1774ZM31.434 27.9698C31.434 28.3547 31.8189 28.7396 32.2038 28.7396H33.4868C34.1283 28.7396 34.7698 28.7396 35.4113 28.6113C36.0528 28.483 36.566 28.3547 36.9509 28.0981C37.3358 27.8415 37.7208 27.4566 37.9774 27.0717C38.234 26.6868 38.3623 26.0453 38.3623 25.2755C38.3623 24.7623 38.234 24.3774 38.1057 23.9925C37.9774 23.6076 37.7208 23.2227 37.4642 22.9661C37.2075 22.7095 36.6943 22.4529 36.1811 22.3246C35.6679 22.1963 35.0264 22.068 34.2566 22.068H32.2038C31.8189 22.068 31.434 22.4529 31.434 22.8378V27.9698Z" fill="white"/>
</g>
<defs>
<clipPath id="clip0">
<rect width="68" height="68" fill="white"/>
</clipPath>
</defs>
</svg>
