<svg width="68" height="68" viewBox="0 0 68 68" fill="none" xmlns="http://www.w3.org/2000/svg">
<g clip-path="url(#clip0)">
<path d="M51.3505 61.3087C66.3199 51.7827 70.6746 32.0051 61.1486 17.0358C51.6227 2.06647 31.8451 -2.28824 16.8758 7.23769C1.90643 16.7636 -2.44827 36.5413 7.07765 51.5106" stroke="#7BBE4D" stroke-width="3" stroke-miterlimit="10" stroke-linecap="round"/>
<path fill-rule="evenodd" clip-rule="evenodd" d="M52.1925 36.1812L48.7283 32.9736C47.8302 32.2038 46.2906 30.9208 45.3925 30.2793L41.5434 26.8151C41.0302 26.4302 40.2604 26.3019 39.6189 26.3019C38.9774 26.3019 38.4642 26.4302 37.951 26.6868L35.2566 28.3548C34.8717 28.6114 34.4868 28.7397 34.1019 28.7397C33.3321 28.7397 32.5623 28.3548 32.1774 27.8416L31.7925 27.2001C31.0227 26.3019 31.2793 24.8906 32.3057 24.2491L37.951 20.4001C38.4642 20.0151 39.3623 19.7585 40.1321 19.7585C40.6453 19.7585 41.2868 19.8868 41.6717 20.0151L45.2642 21.8114C45.7774 22.068 46.5472 22.1963 46.5472 22.1963L48.8566 20.0151L58.4793 29.1246L52.1925 36.1812ZM28.8415 25.2755C28.5849 26.5585 28.9698 27.7133 29.7396 28.7397L30.1245 29.1246C31.0227 30.4076 32.5623 31.0491 34.1019 31.0491C35 31.0491 35.8981 30.7925 36.6679 30.4076L39.3623 28.7397C39.3623 28.7397 39.4906 28.7397 39.7472 28.7397C39.8755 28.7397 40.0038 28.7397 40.1321 28.7397L43.8528 32.0755C43.8528 32.0755 45.0076 32.9736 45.5208 33.3585L51.4227 38.7472C52.3208 39.517 52.3208 40.9284 51.551 41.8265L51.166 42.2114C50.3962 43.1095 48.9849 43.1095 48.2151 42.3397L48.8566 42.8529C49.7547 43.6227 49.7547 45.034 48.9849 45.9321L48.6 46.317C47.8302 47.2151 46.4189 47.2151 45.5208 46.4453L44.751 45.8038C45.6491 46.5736 45.6491 47.985 44.8793 48.8831L44.4944 49.268C43.7245 50.1661 42.3132 50.1661 41.4151 49.3963L38.5925 46.8302C39.3623 47.6001 39.4906 49.0114 38.7208 49.7812L38.3359 50.1661C37.566 51.0642 36.1547 51.0642 35.2566 50.2944L34.6151 50.0378C35.7698 48.2416 35.5132 45.6755 33.8453 44.1359L33.4604 43.751C32.9472 43.2378 32.3057 42.8529 31.5359 42.5963C31.2793 41.9548 30.8944 41.3133 30.3811 40.6718L29.9962 40.2868C29.7396 40.0302 29.483 39.9019 29.2264 39.6453C29.2264 38.3623 28.7132 37.2076 27.8151 36.3095L27.4302 35.9246C26.7887 35.4114 26.1472 35.0265 25.3774 34.7699C25.1208 34.1284 24.7359 33.6151 24.2227 33.1019L23.8377 32.717C22.9396 31.8189 21.7849 31.434 20.6302 31.434C19.3472 31.434 18.0642 31.9472 17.166 32.8453L16.2679 33.7434L12.5472 30.0227L22.5547 20.2718L25.5057 22.9661C25.5057 22.9661 26.7887 22.9661 27.5585 22.5812C27.9434 22.4529 29.0981 21.9397 29.0981 21.9397C29.7396 21.6831 30.766 21.5548 31.6642 21.6831L31.0227 22.068C29.7396 22.9661 29.0981 23.9925 28.8415 25.2755ZM18.7057 34.7699C19.0906 34.385 19.7321 34.1284 20.2453 34.1284C20.7585 34.1284 21.2717 34.385 21.7849 34.7699L22.1698 35.1548C22.9396 35.9246 23.0679 37.2076 22.4264 37.9774C22.8113 37.5925 23.4528 37.3359 23.966 37.3359C24.4793 37.3359 24.9925 37.5925 25.5057 37.9774L25.8906 38.3623C26.7887 39.1321 26.7887 40.5434 26.0189 41.4416L25.2491 42.3397C25.634 41.9548 26.1472 41.6982 26.7887 41.6982C27.3019 41.6982 27.8151 41.9548 28.3283 42.3397L28.7132 42.7246C29.6113 43.4944 29.6113 44.9057 28.8415 45.8038C29.2264 45.4189 29.8679 45.1623 30.3811 45.1623C30.8944 45.1623 31.4076 45.4189 31.9208 45.8038L32.3057 46.1887C33.2038 46.9585 33.2038 48.3699 32.434 49.268L29.8679 51.3208C29.483 51.7057 28.8415 51.9623 28.3283 51.9623C27.8151 51.9623 27.3019 51.7057 26.7887 51.3208L26.4038 50.9359C25.5057 50.1661 25.5057 48.7548 26.2755 47.8567L24.9925 49.268C24.6076 49.6529 23.966 49.9095 23.4528 49.9095C22.9396 49.9095 22.4264 49.6529 21.9132 49.268L21.5283 49.1397C20.6302 48.3699 20.6302 47.0868 21.4 46.1887L20.5019 47.0868C20.117 47.4718 19.4755 47.7284 18.9623 47.7284C18.4491 47.7284 17.9359 47.4718 17.4227 47.0868L17.0377 46.7019C16.1396 45.9321 16.1396 44.5208 16.9094 43.6227L17.9359 42.468C17.551 42.8529 17.0377 42.9812 16.5245 42.9812C16.0113 42.9812 15.4981 42.8529 14.9849 42.3397L14.6 41.9548C13.7019 41.185 13.7019 39.7736 14.4717 38.8755L18.7057 34.7699Z" fill="#7BBE4D"/>
</g>
<defs>
<clipPath id="clip0">
<rect width="68" height="68" fill="white"/>
</clipPath>
</defs>
</svg>
