<svg width="68" height="68" viewBox="0 0 68 68" fill="none" xmlns="http://www.w3.org/2000/svg">
<g clip-path="url(#clip0)">
<path d="M51.3505 61.3087C66.3199 51.7827 70.6746 32.0051 61.1486 17.0358C51.6227 2.06647 31.8451 -2.28824 16.8758 7.23769C1.90643 16.7636 -2.44827 36.5413 7.07765 51.5106" stroke="#7BBE4D" stroke-width="3" stroke-miterlimit="10" stroke-linecap="round"/>
<path fill-rule="evenodd" clip-rule="evenodd" d="M54.9132 35.7963H53.8868C52.9887 45.4189 45.4188 52.9887 35.7962 53.8868V54.9132C35.7962 55.4265 35.4113 55.8114 34.8981 55.8114H33.1019C32.5887 55.8114 32.2038 55.4265 32.2038 54.9132V53.8868C22.5811 52.9887 15.0113 45.4189 14.1132 35.7963H13.0868C12.5736 35.7963 12.1887 35.4114 12.1887 34.8982V33.1019C12.1887 32.5887 12.5736 32.2038 13.0868 32.2038H14.1132C15.0113 22.5812 22.5811 15.0114 32.2038 14.1132V13.0868C32.2038 12.5736 32.5887 12.1887 33.1019 12.1887H34.8981C35.4113 12.1887 35.7962 12.5736 35.7962 13.0868V14.1132C45.4188 15.0114 52.9887 22.5812 53.8868 32.2038H54.9132C55.4264 32.2038 55.8113 32.5887 55.8113 33.1019V34.8982C55.8113 35.4114 55.4264 35.7963 54.9132 35.7963ZM48.4981 32.2038H50.166C49.2679 24.634 43.366 18.6038 35.7962 17.7057V19.3736C35.7962 19.8868 35.4113 20.2717 34.8981 20.2717H33.1019C32.5887 20.2717 32.2038 19.8868 32.2038 19.3736V17.7057C24.6339 18.6038 18.6038 24.634 17.8339 32.2038H19.5019C20.0151 32.2038 20.4 32.5887 20.4 33.1019V34.8982C20.4 35.4114 20.0151 35.7963 19.5019 35.7963H17.8339C18.7321 43.3661 24.6339 49.3963 32.2038 50.2944V48.6265C32.2038 48.1133 32.5887 47.7283 33.1019 47.7283H34.8981C35.4113 47.7283 35.7962 48.1133 35.7962 48.6265V50.2944C43.366 49.3963 49.3962 43.3661 50.166 35.7963H48.4981C47.9849 35.7963 47.6 35.4114 47.6 34.8982V33.1019C47.6 32.5887 47.9849 32.2038 48.4981 32.2038ZM42.5962 44.9057H25.4038C24.1207 44.9057 23.0943 43.751 23.0943 42.468V41.6982C23.0943 39.7736 24.1207 38.1057 25.6604 37.2076C27.5849 36.1812 30.6641 34.8982 34 34.8982C37.3358 34.8982 40.4151 36.1812 42.3396 37.2076C43.8792 38.1057 44.9056 39.7736 44.9056 41.6982V42.468C44.9056 43.751 43.8792 44.9057 42.5962 44.9057ZM34 34C31.049 34 28.483 31.5623 28.483 28.4831C28.483 25.5321 30.9207 22.9661 34 22.9661C37.0792 22.9661 39.517 25.4038 39.517 28.4831C39.3887 31.5623 36.9509 34 34 34Z" fill="#7BBE4D"/>
<path fill-rule="evenodd" clip-rule="evenodd" d="M34.3849 45.5471C32.8453 45.5471 31.6906 44.2641 31.6906 42.7245V42.083C31.6906 40.1584 32.717 38.3622 34.2566 37.4641C36.0528 36.4377 38.8755 35.283 42.083 35.283C45.2905 35.283 48.1132 36.4377 49.9094 37.4641C51.5773 38.3622 52.4755 40.1584 52.4755 42.083V42.7245C52.4755 44.2641 51.1924 45.5471 49.7811 45.5471H34.3849Z" fill="#7BBE4D"/>
<path d="M42.083 35.9245C45.1623 35.9245 47.8566 37.0792 49.5245 38.1056C50.9359 38.8754 51.834 40.4151 51.834 42.083V42.7245C51.834 43.8792 50.9359 44.9056 49.7811 44.9056H34.3849C33.2302 44.9056 32.3321 43.8792 32.3321 42.7245V42.083C32.3321 40.4151 33.2302 38.8754 34.6415 38.1056C36.3094 37.0792 39.1321 35.9245 42.083 35.9245ZM42.083 34.6415C38.7472 34.6415 35.7962 35.9245 34 36.9509C32.2038 37.9773 31.0491 39.9019 31.0491 42.083V42.7245C31.0491 44.649 32.5887 46.1886 34.3849 46.1886H49.7811C51.7057 46.1886 53.117 44.649 53.117 42.7245V42.083C53.117 39.9019 51.9623 37.9773 50.166 36.9509C48.3698 35.9245 45.4189 34.6415 42.083 34.6415Z" fill="white"/>
<path fill-rule="evenodd" clip-rule="evenodd" d="M42.083 35.7962C39.0038 35.7962 36.566 33.3584 36.566 30.2792C36.566 27.1999 39.0038 24.7622 42.083 24.7622C45.1623 24.7622 47.6 27.1999 47.6 30.2792C47.6 33.2301 45.1623 35.7962 42.083 35.7962Z" fill="#7BBE4D"/>
<path d="M42.083 25.2755C44.7774 25.2755 46.9585 27.4566 46.9585 30.1509C46.9585 32.8453 44.7774 35.0264 42.083 35.0264C39.3887 35.0264 37.2076 32.8453 37.2076 30.1509C37.2076 27.4566 39.3887 25.2755 42.083 25.2755ZM42.083 23.9924C38.6189 23.9924 35.9246 26.8151 35.9246 30.1509C35.9246 33.4868 38.7472 36.3094 42.083 36.3094C45.5472 36.3094 48.2415 33.4868 48.2415 30.1509C48.2415 26.8151 45.5472 23.9924 42.083 23.9924Z" fill="white"/>
<path fill-rule="evenodd" clip-rule="evenodd" d="M18.2188 45.5471C16.6792 45.5471 15.5245 44.2641 15.5245 42.7245V42.083C15.5245 40.1584 16.5509 38.3622 18.0905 37.4641C19.8867 36.4377 22.7094 35.283 25.9169 35.283C29.1245 35.283 31.9471 36.4377 33.7433 37.4641C35.4113 38.3622 36.3094 40.1584 36.3094 42.083V42.7245C36.3094 44.2641 35.0264 45.5471 33.615 45.5471H18.2188Z" fill="#7BBE4D"/>
<path d="M25.917 35.9245C28.9962 35.9245 31.6905 37.0792 33.3585 38.1056C34.7698 38.8754 35.6679 40.4151 35.6679 42.083V42.7245C35.6679 43.8792 34.7698 44.9056 33.6151 44.9056H18.2188C17.0641 44.9056 16.166 43.8792 16.166 42.7245V42.083C16.166 40.4151 17.0641 38.8754 18.4754 38.1056C20.1434 37.0792 22.8377 35.9245 25.917 35.9245ZM25.917 34.6415C22.5811 34.6415 19.6302 35.9245 17.8339 36.9509C16.0377 37.9773 14.883 39.9019 14.883 42.083V42.7245C14.883 44.649 16.4226 46.1886 18.2188 46.1886H33.6151C35.5396 46.1886 36.9509 44.649 36.9509 42.7245V42.083C36.9509 39.9019 35.7962 37.9773 34 36.9509C32.2038 35.9245 29.2528 34.6415 25.917 34.6415Z" fill="white"/>
<path fill-rule="evenodd" clip-rule="evenodd" d="M25.917 35.7962C22.8378 35.7962 20.4 33.3584 20.4 30.2792C20.4 27.1999 22.8378 24.7622 25.917 24.7622C28.9963 24.7622 31.434 27.1999 31.434 30.2792C31.434 33.2301 28.9963 35.7962 25.917 35.7962Z" fill="#7BBE4D"/>
<path d="M25.917 25.2755C28.6113 25.2755 30.7924 27.4566 30.7924 30.1509C30.7924 32.8453 28.6113 35.0264 25.917 35.0264C23.2226 35.0264 21.0415 32.8453 21.0415 30.1509C21.0415 27.4566 23.2226 25.2755 25.917 25.2755ZM25.917 23.9924C22.4528 23.9924 19.7585 26.8151 19.7585 30.1509C19.7585 33.4868 22.5811 36.3094 25.917 36.3094C29.2528 36.3094 32.0755 33.4868 32.0755 30.1509C32.0755 26.8151 29.2528 23.9924 25.917 23.9924Z" fill="white"/>
<path fill-rule="evenodd" clip-rule="evenodd" d="M25.4038 45.5472C23.7359 45.5472 22.4529 44.1358 22.4529 42.4679V41.6981C22.4529 39.6453 23.6076 37.7207 25.4038 36.6943C27.4567 35.5396 30.5359 34.2566 34.1284 34.2566C37.7208 34.2566 40.8001 35.5396 42.8529 36.6943C44.6491 37.7207 45.6755 39.6453 45.6755 41.6981V42.4679C45.6755 44.1358 44.3925 45.5472 42.7246 45.5472H25.4038Z" fill="#7BBE4D"/>
<path d="M34 34.8981C37.3359 34.8981 40.4151 36.1811 42.3396 37.2076C43.8793 38.1057 44.9057 39.7736 44.9057 41.6981V42.4679C44.9057 43.8793 43.8793 44.9057 42.5962 44.9057H25.4038C24.1208 44.9057 23.0944 43.751 23.0944 42.4679V41.6981C23.0944 39.7736 24.1208 38.1057 25.6604 37.2076C27.5849 36.1811 30.6642 34.8981 34 34.8981ZM34 33.6151C30.4076 33.6151 27.0717 35.0264 25.0189 36.1811C23.0944 37.2076 21.8113 39.3887 21.8113 41.6981V42.4679C21.8113 44.5208 23.4793 46.1887 25.4038 46.1887H42.5962C44.6491 46.1887 46.1887 44.5208 46.1887 42.4679V41.6981C46.1887 39.3887 44.9057 37.2076 42.9812 36.1811C40.9283 35.0264 37.5925 33.6151 34 33.6151Z" fill="white"/>
<path fill-rule="evenodd" clip-rule="evenodd" d="M25.4038 46.0603C23.7359 46.0603 22.4529 44.649 22.4529 42.9811V42.2113C22.4529 40.1585 23.6076 38.2339 25.4038 37.2075C27.4567 36.0528 30.5359 34.7698 34.1284 34.7698C37.7208 34.7698 40.8 36.0528 42.7246 37.2075C44.5208 38.2339 45.5472 40.1585 45.5472 42.2113V42.9811C45.5472 44.649 44.2642 46.0603 42.5963 46.0603H25.4038Z" fill="#7BBE4D"/>
<path d="M34 35.4113C37.3359 35.4113 40.4151 36.6943 42.3396 37.7207C43.8793 38.6189 44.9057 40.2868 44.9057 42.2113V42.9811C44.9057 44.2641 43.8793 45.4189 42.5962 45.4189H25.4038C24.1208 45.4189 23.0944 44.2641 23.0944 42.9811V42.2113C23.0944 40.2868 24.1208 38.6189 25.6604 37.7207C27.5849 36.6943 30.6642 35.4113 34 35.4113ZM34 34.1283C30.4076 34.1283 27.0717 35.5396 25.0189 36.6943C23.0944 37.7207 21.8113 39.9019 21.8113 42.2113V42.9811C21.8113 45.034 23.4793 46.7019 25.4038 46.7019H42.5962C44.6491 46.7019 46.1887 45.034 46.1887 42.9811V42.2113C46.1887 39.9019 44.9057 37.7207 42.9812 36.6943C40.9283 35.5396 37.5925 34.1283 34 34.1283Z" fill="white"/>
<path fill-rule="evenodd" clip-rule="evenodd" d="M34 34.6414C30.6642 34.6414 27.8416 31.9471 27.8416 28.6112C27.8416 25.2754 30.5359 22.4528 34 22.4528C37.3359 22.4528 40.0302 25.1471 40.0302 28.6112C40.0302 31.9471 37.3359 34.6414 34 34.6414Z" fill="#7BBE4D"/>
<path d="M34 23.0943C36.951 23.0943 39.3887 25.532 39.3887 28.6113C39.3887 31.5622 36.951 34.1283 34 34.1283C31.0491 34.1283 28.483 31.6905 28.483 28.6113C28.483 25.532 31.0491 23.0943 34 23.0943ZM34 21.8113C30.2793 21.8113 27.2 24.8905 27.2 28.6113C27.2 32.332 30.2793 35.4113 34 35.4113C37.7208 35.4113 40.6717 32.332 40.6717 28.6113C40.6717 24.8905 37.7208 21.8113 34 21.8113Z" fill="white"/>
</g>
<defs>
<clipPath id="clip0">
<rect width="68" height="68" fill="white"/>
</clipPath>
</defs>
</svg>
