<svg width="68" height="68" viewBox="0 0 68 68" fill="none" xmlns="http://www.w3.org/2000/svg">
<g clip-path="url(#clip0)">
<path d="M51.3506 61.3087C66.3199 51.7827 70.6746 32.0051 61.1487 17.0358C51.6227 2.06647 31.8451 -2.28824 16.8758 7.23769C1.90644 16.7636 -2.44827 36.5413 7.07766 51.5106" stroke="#7BBE4D" stroke-width="3" stroke-miterlimit="10" stroke-linecap="round"/>
<path d="M30.0226 12.9585C30.0226 12.7019 30.0226 12.4453 30.1509 12.1887C30.5359 10.7774 32.2038 10.1358 33.3585 11.1623C34.1283 11.8038 34.7698 12.5736 35.4113 13.2151C36.1811 13.9849 36.0528 15.1396 35.283 15.9094C34.6415 16.5509 34 17.1925 33.3585 17.834C32.3321 18.7321 30.9208 18.6038 30.2792 17.3208C30.1509 16.9358 29.8943 16.9358 29.6377 17.0642C23.0943 18.6038 17.7057 24.5057 16.6792 31.1774C15.5245 39.2604 19.3736 46.4453 26.6868 49.9094C27.7132 50.4226 28.0981 51.1925 27.9698 52.0906C27.8415 52.9887 27.0717 53.6302 26.1736 53.7585C25.7887 53.7585 25.4038 53.6302 25.0189 53.5019C17.7057 49.9094 13.3434 44.1358 12.5736 35.9245C11.5472 25.1472 18.4755 15.6528 28.9962 13.0868C29.5094 13.0868 29.766 13.0868 30.0226 12.9585Z" fill="#7BBE4D"/>
<path d="M37.8491 55.0415C37.8491 55.4264 37.8491 55.683 37.7208 55.9396C37.3359 57.3509 35.6679 57.8641 34.6415 56.8377C33.8717 56.1962 33.2302 55.4264 32.5887 54.7849C31.9472 54.0151 31.9472 52.9887 32.5887 52.2188C33.2302 51.449 34 50.8075 34.6415 50.166C35.6679 49.1396 37.0792 49.5245 37.9774 51.1924C39.1321 50.8075 40.2868 50.4226 41.4415 49.9094C47.8566 46.9585 52.0906 40.2868 51.5774 33.1019C51.0642 26.3019 47.7283 21.2981 41.5698 18.2188C40.5434 17.7056 39.9019 16.9358 40.1585 15.9094C40.4151 14.6264 41.6981 13.9849 42.9811 14.4981C47.6 16.5509 51.0642 19.8868 53.2453 24.3773C59.5321 36.9509 52.2189 51.9622 38.4906 54.9132C38.234 54.9132 38.1057 55.0415 37.8491 55.0415Z" fill="#7BBE4D"/>
<circle cx="34" cy="34" r="14" fill="#7BBE4D"/>
<path d="M32.717 33.8717C33.4868 32.5887 34.3849 31.434 35.1547 30.151C35.6679 29.3812 36.4377 28.9963 37.3359 29.2529C38.6189 29.5095 39.2604 30.9208 38.6189 32.0755C37.3359 34.1283 35.9245 36.1812 34.5132 38.234C33.8717 39.1321 32.5887 39.2604 31.6906 38.3623C31.0491 37.7208 30.4076 37.0793 29.766 36.4378C28.9962 35.668 28.9962 34.5132 29.6377 33.7434C30.4076 32.9736 31.5623 32.8453 32.4604 33.6151C32.4604 33.6151 32.5887 33.7434 32.717 33.8717Z" fill="white"/>
</g>
<defs>
<clipPath id="clip0">
<rect width="68" height="68" fill="white"/>
</clipPath>
</defs>
</svg>
