<svg width="68" height="68" viewBox="0 0 68 68" fill="none" xmlns="http://www.w3.org/2000/svg">
<g clip-path="url(#clip0)">
<path d="M51.3506 61.3087C66.3199 51.7828 70.6746 32.0051 61.1486 17.0358C51.6227 2.06647 31.8451 -2.28824 16.8758 7.23769C1.90643 16.7636 -2.44827 36.5413 7.07766 51.5106" stroke="#7BBE4D" stroke-width="3" stroke-miterlimit="10" stroke-linecap="round"/>
<path d="M19.2453 27.3283H22.1963V37.5924C22.1963 37.849 22.3246 37.9773 22.4529 38.1056C22.5812 38.2339 22.8378 38.3622 23.0944 38.2339C24.2491 37.9773 25.0189 38.2339 25.6604 38.6188C27.0717 39.6453 28.868 40.2868 30.6642 40.2868H33.4868C35.1547 40.2868 36.6944 41.0566 37.4642 42.3396C37.7208 42.7245 37.8491 43.1094 37.8491 43.366C37.7208 43.6226 36.951 43.8792 35.7963 44.0075C35.4113 44.0075 35.0264 44.3924 35.1547 44.7773C35.1547 45.1622 35.5396 45.5471 35.9246 45.5471H40.2868C42.468 45.4188 43.8793 45.1622 44.7774 44.649L48.883 42.083C49.1396 41.9547 49.268 41.6981 49.268 41.4415V27.3283H52.2189C52.4755 27.3283 52.7321 27.2 52.8604 26.8151C52.9887 26.5585 52.8604 26.1736 52.7321 26.0453L39.6453 14.2415C37.4642 12.317 34.1283 12.317 31.9472 14.2415L18.8604 26.0453C18.6038 26.3019 18.6038 26.5585 18.7321 26.8151C18.7321 27.2 18.9887 27.3283 19.2453 27.3283ZM31.5623 23.3509H37.5925V38.6188H34.7698V25.7887H31.5623V23.3509Z" fill="#7BBE4D"/>
<path d="M56.0679 39.7735C54.9565 38.3287 53.9414 38.0392 51.7715 38.9884C51.0888 39.287 50.6793 39.9842 50.6793 40.7293V41.6981C50.6793 42.4679 50.2944 43.1094 49.6528 43.6226L45.5472 46.1886C44.3925 46.8301 42.8528 47.0867 40.4151 47.215H36.0528C35.6546 47.215 35.2563 47.0889 34.914 46.8813C34.1778 46.435 33.4194 45.8037 32.5585 45.8037H28.2264C26.0453 45.8037 26.0453 46.9584 26.0453 47.215C26.0453 47.5999 25.6604 47.9849 25.2755 47.9849C24.8906 47.9849 24.5057 47.5999 24.5057 47.215C24.5057 45.4188 25.917 44.2641 28.0981 44.2641H33.3586C33.665 44.2641 33.9209 44.0757 34.0866 43.8179C34.4505 43.2518 34.6127 42.1622 33.9428 42.0985C33.8338 42.0881 33.7245 42.083 33.6151 42.083H30.7925C28.8473 42.083 27.0041 41.5727 25.4451 40.5523C25.076 40.3107 24.7054 39.9566 24.2668 39.9094C24.2219 39.9045 24.1734 39.9018 24.1208 39.9018C24.0117 39.9018 23.9257 39.9018 23.8433 39.9117C23.592 39.9418 23.3475 40.0301 23.0944 40.0301C22.6264 40.0301 22.1585 39.9235 21.7878 39.6129C21.7153 39.5521 21.6437 39.4899 21.5729 39.427C21.1331 39.0367 20.9132 38.4429 20.9132 37.849C20.9132 37.7887 20.8511 37.7483 20.796 37.773C20.0743 38.0962 19.4052 38.4195 18.8208 38.7427C18.4457 38.9502 17.9623 38.6861 17.9623 38.2574C17.9623 37.961 17.722 37.7207 17.4255 37.7207H14.8302C13.7256 37.7207 12.8302 38.6161 12.8302 39.7207V54.4528C12.8302 55.5573 13.7256 56.4528 14.8302 56.4528H16.8717C17.474 56.4528 17.9623 55.9645 17.9623 55.3622C17.9623 54.7599 18.4505 54.2716 19.0528 54.2716H27.4566C28.9962 54.2716 30.4076 54.1433 31.9472 53.8867L41.1651 52.4977C41.2637 52.4829 41.3634 52.4758 41.4631 52.4751C41.7142 52.4734 41.9185 52.4631 42.1668 52.3986C42.2829 52.3684 42.3996 52.3398 42.5176 52.318C43.3404 52.1663 44.0589 51.7911 44.7774 51.1924L55.8113 42.5962C56.5811 41.8264 56.7094 40.6716 56.0679 39.7735ZM16.4227 40.1584V54.2716C16.4227 54.6968 16.078 55.0415 15.6528 55.0415H15.3321C14.7298 55.0415 14.2415 54.5532 14.2415 53.9509V40.0943C14.2415 39.492 14.7298 39.0037 15.3321 39.0037C15.9344 39.0037 16.4227 39.492 16.4227 40.0943V40.1584Z" fill="#7BBE4D"/>
</g>
<defs>
<clipPath id="clip0">
<rect width="68" height="68" fill="white"/>
</clipPath>
</defs>
</svg>
