<svg width="68" height="68" viewBox="0 0 68 68" fill="none" xmlns="http://www.w3.org/2000/svg">
<g clip-path="url(#clip0)">
<path d="M51.3506 61.3087C66.3199 51.7827 70.6746 32.0051 61.1487 17.0358C51.6227 2.06647 31.8451 -2.28824 16.8758 7.23769C1.90644 16.7636 -2.44827 36.5413 7.07766 51.5106" stroke="#7BBE4D" stroke-width="3" stroke-miterlimit="10" stroke-linecap="round"/>
<path fill-rule="evenodd" clip-rule="evenodd" d="M24.2491 53.2453H48.3698C48.6264 53.2453 49.0113 53.2453 49.2679 53.117C49.5245 52.9887 49.7811 52.8604 50.0377 52.6038C50.2943 52.3472 50.4226 52.0906 50.5509 51.834C50.6792 51.5773 50.6792 51.1924 50.6792 50.9358V30.9207C50.6792 30.6641 50.6792 30.4075 50.5509 30.2792C50.4226 30.0226 50.2943 29.8943 50.166 29.766C50.0377 29.6377 49.7811 29.5094 49.6528 29.3811C49.3962 29.2528 49.2679 29.2528 49.0113 29.2528H39.0038C38.4906 29.2528 38.1057 29.1245 37.7208 28.7396C37.3358 28.3547 37.2075 27.9698 37.2075 27.4566V17.8339C37.2075 17.5773 37.2075 17.3207 37.0792 17.1924C36.9509 16.9358 36.8226 16.8075 36.6943 16.6792C36.566 16.5509 36.3094 16.4226 36.1811 16.2943C35.9245 16.166 35.7962 16.166 35.5396 16.166H24.3774C23.7358 16.166 23.2226 16.4226 22.7094 16.8075C22.3245 17.1924 22.0679 17.8339 22.0679 18.4755V21.4264L37.7208 36.6943C38.1057 37.0792 38.4906 37.5924 38.6189 38.1056L40.4151 43.6226C40.5434 44.1358 40.5434 44.5207 40.5434 45.0339C40.4151 45.5472 40.2868 45.9321 40.0302 46.317C39.7736 46.7019 39.3887 46.9585 39.0038 47.2151C38.6189 47.4717 38.1057 47.6 37.5924 47.6C37.3358 47.6 37.0792 47.6 36.8226 47.4717L30.7924 45.9321C30.1509 45.8038 29.5094 45.4189 29.1245 45.0339L22.0679 38.1056V50.9358C22.0679 51.1924 22.0679 51.5773 22.1962 51.834C22.3245 52.0906 22.4528 52.3472 22.7094 52.6038C22.966 52.8604 23.2226 52.9887 23.4792 53.117C23.6075 53.2453 23.9924 53.2453 24.2491 53.2453ZM49.9094 26.5585C50.0377 26.5585 50.166 26.5585 50.2943 26.4302C50.4226 26.3019 50.5509 26.1736 50.5509 26.0453C50.5509 25.917 50.6792 25.7887 50.5509 25.6604C50.5509 25.5321 50.4226 25.4038 50.2943 25.2755L41.1849 16.2943C41.0566 16.166 40.9283 16.166 40.8 16.0377C40.6717 16.0377 40.5434 16.0377 40.4151 16.0377C40.2868 16.0377 40.1585 16.166 40.0302 16.2943C39.9019 16.4226 39.9019 16.5509 39.9019 16.6792V25.6604C39.9019 25.917 40.0302 26.0453 40.1585 26.1736C40.2868 26.3019 40.5434 26.4302 40.6717 26.4302H49.9094V26.5585ZM17.9623 21.4264C17.4491 21.4264 17.0641 21.5547 16.6792 21.9396L13.9849 24.6339C13.7283 25.0189 13.4717 25.4038 13.4717 25.917C13.4717 26.4302 13.6 26.8151 13.9849 27.2L16.2943 29.5094L21.5547 24.3773L19.2453 21.8113C18.8604 21.5547 18.3472 21.4264 17.9623 21.4264ZM29.3811 42.2113L34.6415 37.0792L23.0943 25.7887L21.8113 27.0717L17.9623 30.9207L21.9396 34.8981L29.3811 42.2113ZM37.2075 45.2906H37.3358C37.4641 45.2906 37.5924 45.2906 37.7208 45.1623C37.8491 45.1623 37.8491 45.0339 37.9774 44.9056C38.1057 44.7773 38.1057 44.649 38.1057 44.649C38.1057 44.5207 38.1057 44.3924 38.1057 44.2641L36.3094 38.7472L31.3057 43.7509C31.3057 43.7509 31.3057 43.7509 31.434 43.7509L37.2075 45.2906Z" fill="#7BBE4D"/>
</g>
<defs>
<clipPath id="clip0">
<rect width="68" height="68" fill="white"/>
</clipPath>
</defs>
</svg>
