<svg width="20" height="15" viewBox="0 0 20 15" fill="none" xmlns="http://www.w3.org/2000/svg">
<path d="M8.2162 5.34653C8.2162 6.4511 7.32077 7.34653 6.2162 7.34653V9.34653C8.42534 9.34653 10.2162 7.55567 10.2162 5.34653H8.2162ZM6.2162 7.34653C5.11163 7.34653 4.2162 6.4511 4.2162 5.34653H2.2162C2.2162 7.55567 4.00706 9.34653 6.2162 9.34653V7.34653ZM4.2162 5.34653C4.2162 4.24196 5.11163 3.34653 6.2162 3.34653V1.34653C4.00706 1.34653 2.2162 3.13739 2.2162 5.34653H4.2162ZM6.2162 3.34653C7.32077 3.34653 8.2162 4.24196 8.2162 5.34653H10.2162C10.2162 3.13739 8.42534 1.34653 6.2162 1.34653V3.34653ZM1.71681 14.125C3.68024 12.816 4.97123 12.2929 6.16211 12.2929C7.35299 12.2929 8.64398 12.816 10.6074 14.125L11.7168 12.4609C9.68024 11.1032 7.97123 10.2929 6.16211 10.2929C4.35299 10.2929 2.64398 11.1032 0.607409 12.4609L1.71681 14.125Z" fill="#7BBE4D"/>
</svg>
