<svg width="190" height="79" viewBox="0 0 190 79" fill="none" xmlns="http://www.w3.org/2000/svg">
<path d="M105.973 49.288C104.261 49.288 102.709 48.92 101.317 48.184C99.9414 47.432 98.8534 46.4 98.0534 45.088C97.2694 43.76 96.8774 42.264 96.8774 40.6C96.8774 38.936 97.2694 37.448 98.0534 36.136C98.8534 34.808 99.9414 33.776 101.317 33.04C102.709 32.288 104.269 31.912 105.997 31.912C107.453 31.912 108.765 32.168 109.933 32.68C111.117 33.192 112.109 33.928 112.909 34.888L110.413 37.192C109.277 35.88 107.869 35.224 106.189 35.224C105.149 35.224 104.221 35.456 103.405 35.92C102.589 36.368 101.949 37 101.485 37.816C101.037 38.632 100.813 39.56 100.813 40.6C100.813 41.64 101.037 42.568 101.485 43.384C101.949 44.2 102.589 44.84 103.405 45.304C104.221 45.752 105.149 45.976 106.189 45.976C107.869 45.976 109.277 45.312 110.413 43.984L112.909 46.288C112.109 47.264 111.117 48.008 109.933 48.52C108.749 49.032 107.429 49.288 105.973 49.288ZM121.947 42.232H119.259V49H115.395V32.2H119.259V38.992H122.043L126.459 32.2H130.563L125.067 40.312L130.731 49H126.315L121.947 42.232ZM143.601 45.4H135.801L134.313 49H130.329L137.817 32.2H141.657L149.169 49H145.089L143.601 45.4ZM142.377 42.448L139.713 36.016L137.049 42.448H142.377ZM158.669 32.2C160.157 32.2 161.445 32.448 162.533 32.944C163.637 33.44 164.485 34.144 165.077 35.056C165.669 35.968 165.965 37.048 165.965 38.296C165.965 39.528 165.669 40.608 165.077 41.536C164.485 42.448 163.637 43.152 162.533 43.648C161.445 44.128 160.157 44.368 158.669 44.368H155.285V49H151.397V32.2H158.669ZM158.453 41.2C159.621 41.2 160.509 40.952 161.117 40.456C161.725 39.944 162.029 39.224 162.029 38.296C162.029 37.352 161.725 36.632 161.117 36.136C160.509 35.624 159.621 35.368 158.453 35.368H155.285V41.2H158.453ZM183.937 32.2V49H180.049V42.112H172.417V49H168.529V32.2H172.417V38.824H180.049V32.2H183.937Z" fill="#32343C"/>
<path d="M8.83361 64.5421C4.51765 58.1379 2 50.4192 2 42.1106C2 19.9587 19.9092 2 42 2C64.0908 2 82 19.9587 82 42.1106C82 57.0627 73.842 70.1037 61.7445 77V76.491V33.3267L56.1479 27.7146L43.0084 41.0994V73.1204L50.1849 65.8971V27.0169L39.6504 16.16L27.2134 30.101V71.7721L34.605 64.3568L34.7059 40.1893L19.3109 55.6268V74.1316" stroke="#7BBE4D" stroke-width="4" stroke-miterlimit="10" stroke-linecap="round" stroke-linejoin="round"/>
</svg>
