<svg width="190" height="79" viewBox="0 0 190 79" fill="none" xmlns="http://www.w3.org/2000/svg">
<path d="M107.473 46.288C105.761 46.288 104.209 45.92 102.817 45.184C101.441 44.432 100.353 43.4 99.5534 42.088C98.7694 40.76 98.3774 39.264 98.3774 37.6C98.3774 35.936 98.7694 34.448 99.5534 33.136C100.353 31.808 101.441 30.776 102.817 30.04C104.209 29.288 105.769 28.912 107.497 28.912C108.953 28.912 110.265 29.168 111.433 29.68C112.617 30.192 113.609 30.928 114.409 31.888L111.913 34.192C110.777 32.88 109.369 32.224 107.689 32.224C106.649 32.224 105.721 32.456 104.905 32.92C104.089 33.368 103.449 34 102.985 34.816C102.537 35.632 102.313 36.56 102.313 37.6C102.313 38.64 102.537 39.568 102.985 40.384C103.449 41.2 104.089 41.84 104.905 42.304C105.721 42.752 106.649 42.976 107.689 42.976C109.369 42.976 110.777 42.312 111.913 40.984L114.409 43.288C113.609 44.264 112.617 45.008 111.433 45.52C110.249 46.032 108.929 46.288 107.473 46.288ZM123.447 39.232H120.759V46H116.895V29.2H120.759V35.992H123.543L127.959 29.2H132.063L126.567 37.312L132.231 46H127.815L123.447 39.232ZM145.101 42.4H137.301L135.813 46H131.829L139.317 29.2H143.157L150.669 46H146.589L145.101 42.4ZM143.877 39.448L141.213 33.016L138.549 39.448H143.877ZM160.169 29.2C161.657 29.2 162.945 29.448 164.033 29.944C165.137 30.44 165.985 31.144 166.577 32.056C167.169 32.968 167.465 34.048 167.465 35.296C167.465 36.528 167.169 37.608 166.577 38.536C165.985 39.448 165.137 40.152 164.033 40.648C162.945 41.128 161.657 41.368 160.169 41.368H156.785V46H152.897V29.2H160.169ZM159.953 38.2C161.121 38.2 162.009 37.952 162.617 37.456C163.225 36.944 163.529 36.224 163.529 35.296C163.529 34.352 163.225 33.632 162.617 33.136C162.009 32.624 161.121 32.368 159.953 32.368H156.785V38.2H159.953ZM185.437 29.2V46H181.549V39.112H173.917V46H170.029V29.2H173.917V35.824H181.549V29.2H185.437Z" fill="white"/>
<path d="M8.83361 64.5421C4.51765 58.1379 2 50.4192 2 42.1106C2 19.9587 19.9092 2 42 2C64.0908 2 82 19.9587 82 42.1106C82 57.0627 73.842 70.1037 61.7445 77V76.491V33.3267L56.1479 27.7146L43.0084 41.0994V73.1204L50.1849 65.8971V27.0169L39.6504 16.16L27.2134 30.101V71.7721L34.605 64.3568L34.7059 40.1893L19.3109 55.6268V74.1316" stroke="#7BBE4D" stroke-width="4" stroke-miterlimit="10" stroke-linecap="round" stroke-linejoin="round"/>
</svg>
