<?xml version="1.0" encoding="utf-8"?>
<!-- Generator: Adobe Illustrator 23.0.1, SVG Export Plug-In . SVG Version: 6.00 Build 0)  -->
<svg version="1.1" id="Layer_1" xmlns="http://www.w3.org/2000/svg" xmlns:xlink="http://www.w3.org/1999/xlink" x="0px" y="0px"
	 viewBox="0 0 190 79" style="enable-background:new 0 0 190 79;" xml:space="preserve">
<style type="text/css">
	.st0{fill:none;stroke:#7BBE4D;stroke-width:4;stroke-linecap:round;stroke-linejoin:round;stroke-miterlimit:10;}
	.st1{fill:#32343C;}
</style>
<path class="st0" d="M8.8,64.5C4.5,58.1,2,50.4,2,42.1C2,20,19.9,2,42,2s40,18,40,40.1c0,15-8.2,28-20.3,34.9v-0.5V33.3l-5.6-5.6
	L43,41.1v32l7.2-7.2V27L39.7,16.2L27.2,30.1v41.7l7.4-7.4l0.1-24.2L19.3,55.6v18.5"/>
<path class="st1" d="M101.2,48.2c-1.4-0.7-2.5-1.8-3.3-3.1s-1.2-2.8-1.2-4.5c0-1.7,0.4-3.2,1.2-4.5s1.9-2.4,3.3-3.1s2.9-1.1,4.7-1.1
	c1.5,0,2.8,0.3,3.9,0.8c1.2,0.5,2.2,1.2,3,2.2l-2.5,2.3c-1.1-1.3-2.5-2-4.2-2c-1,0-2,0.2-2.8,0.7c-0.8,0.5-1.5,1.1-1.9,1.9
	c-0.5,0.8-0.7,1.7-0.7,2.8c0,1,0.2,2,0.7,2.8c0.5,0.8,1.1,1.5,1.9,1.9c0.8,0.5,1.7,0.7,2.8,0.7c1.7,0,3.1-0.7,4.2-2l2.5,2.3
	c-0.8,1-1.8,1.7-3,2.2c-1.2,0.5-2.5,0.8-4,0.8C104.1,49.3,102.6,49,101.2,48.2z M121.8,42.3h-2.7v6.8h-3.9V32.3h3.9V39h2.8l4.4-6.8
	h4.1l-5.5,8.1l5.7,8.7h-4.4L121.8,42.3z M144.1,32.9c1.2,0.6,2,1.5,2.7,2.7c0.6,1.2,1,2.6,1,4.3v9.2h-3.9v-4h-7.7v4h-3.8v-9.2
	c0-1.7,0.3-3.1,1-4.3c0.6-1.2,1.5-2.1,2.7-2.7s2.5-0.9,4.1-0.9S142.9,32.3,144.1,32.9z M143.9,41.9v-2.4c0-1.4-0.3-2.4-1-3.2
	c-0.7-0.7-1.6-1.1-2.8-1.1c-1.2,0-2.1,0.4-2.8,1.1c-0.7,0.7-1,1.8-1,3.2v2.4H143.9z M164.2,33.8c1.3,1.2,2,2.8,2,4.8
	c0,2-0.6,3.5-1.8,4.6c-1.2,1.1-2.9,1.7-5,1.7c-0.7,0-1.4-0.1-2.1-0.2c-0.7-0.1-1.4-0.4-2.1-0.7v5h-3.8v-9.9c0-2.3,0.6-4,1.9-5.2
	c1.3-1.2,3.1-1.8,5.5-1.8C161,32.1,162.8,32.7,164.2,33.8z M161.3,41.2c0.6-0.6,0.9-1.4,0.9-2.4c0-1.1-0.3-1.9-0.9-2.5
	c-0.6-0.6-1.5-0.9-2.6-0.9c-1.1,0-2,0.3-2.7,1s-0.9,1.6-0.9,2.8V41c0.5,0.3,1,0.6,1.6,0.8s1.2,0.3,1.9,0.3
	C159.8,42,160.7,41.8,161.3,41.2z M184.2,32.3v16.8h-3.9v-6.9h-7.6v6.9h-3.9V32.3h3.9v6.6h7.6v-6.6H184.2z"/>
</svg>
