<svg width="120" height="24" viewBox="0 0 120 24" fill="none" xmlns="http://www.w3.org/2000/svg">
<path d="M90 12.2308H118" stroke="#7BBE4D" stroke-width="3" stroke-linecap="round" stroke-linejoin="round"/>
<path d="M90 2H118" stroke="#7BBE4D" stroke-width="3" stroke-linecap="round" stroke-linejoin="round"/>
<path d="M90 22.4615H118" stroke="#7BBE4D" stroke-width="3" stroke-linecap="round" stroke-linejoin="round"/>
<path d="M13.338 19L13.32 10.648L9.18 17.56H8.136L3.996 10.756V19H1.782V6.4H3.708L8.694 14.734L13.626 6.4H15.534L15.57 19H13.338ZM28.546 17.038V19H19.096V6.4H28.294V8.362H21.436V11.638H27.52V13.564H21.436V17.038H28.546ZM42.3506 6.4V19H40.0106V13.6H33.4946V19H31.1546V6.4H33.4946V11.602H40.0106V6.4H42.3506ZM56.6671 6.22C57.9031 6.22 59.0131 6.502 59.9971 7.066C60.9931 7.618 61.7731 8.386 62.3371 9.37C62.9011 10.354 63.1831 11.464 63.1831 12.7C63.1831 13.936 62.9011 15.046 62.3371 16.03C61.7731 17.014 60.9931 17.788 59.9971 18.352C59.0131 18.904 57.9031 19.18 56.6671 19.18C55.5391 19.18 54.5071 18.946 53.5711 18.478C52.6471 18.01 51.8851 17.356 51.2851 16.516C50.6971 15.676 50.3311 14.722 50.1871 13.654H48.2071V19H45.9031V6.4H48.2071V11.566H50.2231C50.3911 10.522 50.7691 9.598 51.3571 8.794C51.9571 7.978 52.7131 7.348 53.6251 6.904C54.5491 6.448 55.5631 6.22 56.6671 6.22ZM56.6671 17.128C57.4471 17.128 58.1551 16.942 58.7911 16.57C59.4271 16.198 59.9251 15.676 60.2851 15.004C60.6451 14.332 60.8251 13.564 60.8251 12.7C60.8251 11.836 60.6451 11.068 60.2851 10.396C59.9251 9.724 59.4271 9.202 58.7911 8.83C58.1551 8.458 57.4471 8.272 56.6671 8.272C55.8871 8.272 55.1791 8.458 54.5431 8.83C53.9191 9.202 53.4211 9.724 53.0491 10.396C52.6891 11.068 52.5091 11.836 52.5091 12.7C52.5091 13.564 52.6891 14.332 53.0491 15.004C53.4211 15.676 53.9191 16.198 54.5431 16.57C55.1791 16.942 55.8871 17.128 56.6671 17.128Z" fill="#7BBE4D"/>
</svg>
