<svg width="30" height="30" viewBox="0 0 30 30" fill="none" xmlns="http://www.w3.org/2000/svg">
<path d="M28.8 9.18C29.58 11.04 30 12.96 30 15C30 17.04 29.58 18.96 28.8 20.82C28.02 22.68 26.94 24.24 25.62 25.62C24.3 26.94 22.68 28.02 20.82 28.8C18.96 29.58 17.04 30 15 30C12.96 30 11.04 29.58 9.18 28.8C7.32 28.02 5.76 26.94 4.38 25.62C3.06 24.3 1.98 22.68 1.2 20.82C0.42 18.96 0 17.04 0 15C0 12.96 0.42 11.04 1.2 9.18C1.98 7.32 3.06 5.76 4.38 4.38C5.7 3.06 7.32 1.98 9.18 1.2C11.04 0.42 12.96 0 15 0C17.04 0 18.96 0.42 20.82 1.2C22.68 1.98 24.24 3.06 25.62 4.38C26.94 5.76 27.96 7.38 28.8 9.18ZM19.86 21.9L22.32 10.32C22.44 9.84 22.38 9.48 22.14 9.24C21.9 9 21.66 9 21.3 9.12L6.84 14.7C6.54 14.82 6.3 14.94 6.18 15.12C6.06 15.3 6.06 15.42 6.12 15.54C6.18 15.66 6.36 15.78 6.66 15.84L10.38 16.98L18.96 11.58C19.2 11.4 19.38 11.4 19.5 11.46C19.56 11.52 19.56 11.58 19.44 11.7L12.48 18.06L12.18 21.9C12.42 21.9 12.66 21.78 12.96 21.54L14.76 19.8L18.48 22.56C19.26 22.98 19.68 22.74 19.86 21.9Z" fill="url(#paint0_linear)"/>
<defs>
<linearGradient id="paint0_linear" x1="15" y1="0" x2="15" y2="30" gradientUnits="userSpaceOnUse">
<stop stop-color="#62CBFF"/>
<stop offset="1" stop-color="#0088CC"/>
</linearGradient>
</defs>
</svg>
