<svg width="30" height="30" viewBox="0 0 30 30" fill="none" xmlns="http://www.w3.org/2000/svg">
<path d="M15 0C6.6875 0 0 6.6875 0 15C0 23.3125 6.6875 30 15 30C23.3125 30 30 23.3125 30 15C30 6.6875 23.3125 0 15 0ZM15.5625 10.5C16.6875 10.5 17.75 10.9375 18.5625 11.75C19.375 12.5625 19.8125 13.625 19.8125 14.75H18.375C18.375 14 18.0625 13.25 17.5625 12.75C17.0625 12.25 16.3125 11.9375 15.5625 11.875V10.5ZM15.5 13.3125C15.9375 13.3125 16.3125 13.5 16.5625 13.75C16.8125 14 17 14.375 17 14.75C17 14.75 17 14.75 17 14.8125H15.5V13.3125ZM20.8125 22.5625L20.125 23.125C19.8125 23.3125 19.5 23.5 19.125 23.5625C18.75 23.6875 18.4375 23.75 18.125 23.75C18 23.75 14.4375 23.75 10.4375 19C7.5625 15.5625 6.5625 13.125 7.125 10.5625C7.1875 10.25 7.3125 9.9375 7.4375 9.625C7.625 9.3125 7.8125 9 8.0625 8.6875L8.75 8.0625C9.25 7.625 10.0625 7.6875 10.5 8.1875L12.625 10.75C13.0625 11.25 12.9375 12 12.4375 12.4375L12 12.8125L11.125 13.5C11.1875 13.5625 11.1875 13.625 11.25 13.75C11.625 14.5 12.0625 15.625 13.0625 16.75C14.0625 17.9375 15 18.5625 15.6875 19.0625C15.75 19.125 15.8125 19.1875 15.9375 19.1875L17.25 18.125C17.75 17.6875 18.5625 17.75 19 18.25L21.125 20.8125C21.4375 21.3125 21.375 22.125 20.8125 22.5625ZM20.875 14.8125C20.875 13.375 20.3125 12.0625 19.3125 11C18.3125 10 17 9.4375 15.5625 9.375V7.9375C17.375 7.9375 19.0625 8.6875 20.3125 9.9375C21.5625 11.25 22.25 12.9375 22.25 14.75L20.875 14.8125Z" fill="url(#paint0_linear)"/>
<defs>
<linearGradient id="paint0_linear" x1="14.9966" y1="30.0039" x2="14.9966" y2="0.00457754" gradientUnits="userSpaceOnUse">
<stop stop-color="#974EB7"/>
<stop offset="1" stop-color="#D164FF"/>
</linearGradient>
</defs>
</svg>
