<svg width="30" height="30" viewBox="0 0 30 30" fill="none" xmlns="http://www.w3.org/2000/svg">
<path d="M25.6203 4.39446C22.7813 1.56574 19.0161 0 15.0086 0C6.73398 0 0 6.72145 0 14.9914C0 17.8201 0.787651 20.5796 2.29371 22.9671L2.64858 23.5381L1.13387 29.0657L6.81188 27.5779L7.35717 27.9066C9.65954 29.2734 12.2995 29.9914 14.9913 30H15C23.266 30 30 23.2785 30 15.0087C30.0086 10.9948 28.4506 7.23183 25.6203 4.39446ZM23.8372 21.436C23.4651 22.4914 21.6214 23.5035 20.7905 23.5813C19.9596 23.6592 19.1892 23.9533 15.3808 22.4567C10.7934 20.6488 7.90247 15.9516 7.67743 15.6488C7.45238 15.346 5.83381 13.2007 5.83381 10.9862C5.83381 8.77163 7.0023 7.68166 7.40911 7.22318C7.82457 6.77336 8.30928 6.6609 8.61222 6.6609C8.91516 6.6609 9.20945 6.6609 9.47777 6.66955C9.79803 6.68685 10.1529 6.6955 10.4905 7.4481C10.8886 8.3391 11.7715 10.5709 11.884 10.7958C11.9965 11.0208 12.0744 11.2803 11.9186 11.583C11.7715 11.8858 11.6936 12.0675 11.4685 12.3356C11.2435 12.5952 10.9925 12.9239 10.7934 13.1228C10.5684 13.3478 10.3347 13.59 10.5943 14.0398C10.854 14.4896 11.7628 15.9689 13.1044 17.1626C14.8269 18.7024 16.281 19.1782 16.7311 19.4031C17.1812 19.628 17.4495 19.5934 17.7092 19.2907C17.9688 18.9879 18.8344 17.9758 19.1373 17.526C19.4403 17.0761 19.7345 17.154 20.15 17.301C20.5655 17.4481 22.7813 18.5381 23.2314 18.7716C23.6814 18.9965 23.9844 19.109 24.0969 19.2993C24.2094 19.481 24.2094 20.3806 23.8372 21.436Z" fill="url(#paint0_linear)"/>
<defs>
<linearGradient id="paint0_linear" x1="15.0044" y1="29.9932" x2="15.0044" y2="0" gradientUnits="userSpaceOnUse">
<stop stop-color="#20B038"/>
<stop offset="1" stop-color="#60D66A"/>
</linearGradient>
</defs>
</svg>
