<?xml version="1.0" encoding="utf-8"?>
<!-- Generator: Adobe Illustrator 23.0.1, SVG Export Plug-In . SVG Version: 6.00 Build 0)  -->
<svg version="1.1" id="Layer_1" xmlns="http://www.w3.org/2000/svg" xmlns:xlink="http://www.w3.org/1999/xlink" x="0px" y="0px"
	 viewBox="0 0 237.1 61.7" style="enable-background:new 0 0 237.1 61.7;" xml:space="preserve">
<style type="text/css">
	.st0{fill:#B01B2D;}
	.st1{fill:#23201D;}
	.st2{fill:#262220;}
	.st3{fill:#282522;}
	.st4{fill:#262320;}
	.st5{fill:#2A2725;}
	.st6{fill:#25221F;}
	.st7{fill:#282422;}
	.st8{fill:#282523;}
	.st9{fill:#25211F;}
</style>
<g>
	<path class="st0" d="M43.4,0c0,0.4,0.1,0.8,0.1,1.2c0,19.3,0,38.7,0,58c0,0.4,0,0.9,0,1.4c-6.7,0-13.2,0-20,0c0-11.2,0-22.5,0-33.9
		c-1.2,0-2.2,0-3.4,0c0,0.4,0,0.9,0,1.4c0,10.2,0,20.4,0,30.6c0,0.4,0,0.9,0,1.3c-0.6,0.2-1.3,0.4-1.9,0.4c-5.4,0-10.9,0-16.3,0
		c-0.4,0-0.9,0-1.4,0c0-20.3,0-40.4,0-60.5c2.8,0,5.6,0,8.4,0c0.3,0.1,0.5,0.3,0.8,0.4c1.8,1,3.9,1.7,5.5,3
		c3.9,3.2,5.9,7.5,6.6,12.5c0.2-0.6,0.4-1.3,0.5-1.9C23.9,7.5,27.4,2.6,34,0.4c0.2-0.1,0.4-0.3,0.5-0.4C37.5,0,40.5,0,43.4,0z"/>
	<path class="st1" d="M237.1,60.7c-1.6,0-3.3,0-4.7,0c0.1-1.9,0.3-3.8,0.3-5.7c0-8.6,0-17.1,0-25.7c0-1.4-0.2-2.8-0.4-4.3
		c1.2,0,2.5,0,4.1,0c0,0.4,0,0.9,0,1.4c0,10.2,0,20.4,0,30.6c0,1,0.4,2,0.6,3C237.1,60.2,237.1,60.5,237.1,60.7z"/>
	<path class="st2" d="M151.5,60.7c-1.5,0-3.1,0-4.5,0c0.1-2.6,0.2-5.1,0.3-7.7c0-7.2,0-14.4,0-21.6c0-0.5,0-1,0-1.5
		c-0.1,0-0.2,0-0.3,0c-1.5,7.3-3.1,14.6-4.6,21.9c-0.1,0-0.1,0-0.2,0c-1.5-7.2-3.1-14.5-4.6-21.7c0,10.2-0.6,20.5,0.1,30.7
		c-1.4,0-3,0-4.4,0c0.5-13.6,0.1-27.3,0.2-40.9c0-1.1-0.3-2.1-0.5-3.2c1.5,0,3.1,0,4.8,0c1.4,5.8,2.9,11.6,4.3,17.5
		c0.1,0,0.1,0,0.2,0c1.5-5.8,2.9-11.7,4.4-17.5c1.7,0,3.3,0,4.8,0c-0.1,1.8-0.3,3.5-0.3,5.3c0,10.9,0,21.8,0,32.6
		C151.2,56.5,151.4,58.5,151.5,60.7z"/>
	<path class="st3" d="M59.2,61c0.1-1.7,0.3-3.3,0.3-4.9c0-11.8,0-23.6,0-35.4c0-1.3-0.2-2.7-0.4-4.1c3.9,0,7.9,0,12,0
		c0,1.1,0,2.2,0,3c-2.5-0.1-5-0.3-7.6-0.4c0,5.5,0,10.7,0,16.1c0.7,0.1,1.3,0.1,2,0.3c3,0.7,5,2.7,5.9,5.6c1.6,4.9,1.5,9.9-0.1,14.8
		c-1,3.1-3.4,4.9-6.8,5C62.8,61,61,61,59.2,61z M63.6,58.2c2.4,0.1,3.4-0.8,3.9-3.3c0.6-3.6,0.6-7.2,0.1-10.7
		c-0.2-1.4-0.6-2.9-1.1-4.2c-0.5-1.2-1.4-1.8-2.8-1.8C63.6,44.9,63.6,51.5,63.6,58.2z"/>
	<path class="st4" d="M154.6,43.3c0.1-5.4,0-9.8,1.4-14.1c0.3-0.9,0.7-1.8,1.2-2.6c2-3.2,6.2-3.2,8.2,0c1.3,2,1.8,4.3,2,6.6
		c0.7,7,0.8,14-0.4,20.9c-0.2,1.3-0.7,2.5-1.2,3.8c-0.8,2-2.2,3.5-4.6,3.5c-2.3,0-3.9-1.4-4.6-3.4c-0.7-2.1-1.3-4.3-1.6-6.6
		C154.7,48.4,154.7,45.4,154.6,43.3z M159.1,41.9c0.1,0,0.2,0,0.3,0c0,3.6,0,7.3,0,10.9c0,1.7,0.2,3.4,0.5,5c0.1,0.5,0.9,1,1.3,1.4
		c0.5-0.5,1.1-0.9,1.4-1.4c0.3-0.6,0.3-1.4,0.3-2.1c0.1-8.4,0.2-16.8,0.2-25.2c0-1-0.2-2-0.5-2.9c-0.2-0.4-0.9-0.9-1.3-0.9
		c-0.5,0-1,0.5-1.4,0.9c-0.3,0.3-0.3,0.8-0.3,1.2C159.4,33.2,159.2,37.5,159.1,41.9z"/>
	<path class="st5" d="M99.1,43.3c-1.5,0-2.8,0-4.2,0c0.3,5.8-0.4,11.6,0.5,17.4c-1.5,0-3.1,0-4.6,0c0.9-5.5,0.3-11,0.4-16.4
		c0.1-5.5,0-11,0-16.4c0-0.9-0.3-1.8-0.5-2.8c1.3,0,2.7,0,4.2,0c0,5.3,0,10.6,0,16c1.4,0,2.7,0,4.2,0c-0.3-5.3,0.4-10.6-0.5-16
		c1.3,0,2.6,0,4.1,0c0,0.4,0,0.8,0,1.3c0,9.4,0,18.8,0,28.2c0,2.1,0.2,4.1,0.3,6.2c-1.4,0-3,0-4.4,0c0.1-1.8,0.3-3.6,0.3-5.3
		C99.2,51.3,99.1,47.3,99.1,43.3z"/>
	<path class="st6" d="M211.4,39.3c2.7,1.5,3.6,4,4,6.7c0.4,3,0.2,6.1-0.5,9c-0.9,3.5-3.3,5.4-6.9,5.6c-1.6,0.1-3.3,0-5,0
		c1.1-3.2,0.6-6.5,0.6-9.7c0.1-6.6,0-13.3,0-19.9c0-1,0.2-2.1,0.5-3c0.8-2.5,2.6-3.7,5.1-3.7c2.5,0,4.2,1.3,4.7,3.9
		c0.4,2.2,0.4,4.4,0.3,6.6C214.1,36.7,213,38.1,211.4,39.3z M207.3,41.3c0,5.6,0,11.2,0,16.7c2,0.2,3.2-0.5,3.4-2.5
		c0.3-2.7,0.4-5.5,0.4-8.2c0-1.4-0.4-2.9-0.8-4.2C209.8,41.6,208.8,41.2,207.3,41.3z M207.3,38.6c1.6-0.1,2.6-0.9,3.2-2.2
		c1.1-2.7,0.9-5.6,0.6-8.4c-0.1-0.8-0.7-1.3-1.6-1.4c-0.9-0.1-1.6,0.3-1.9,1.2c-0.1,0.3-0.3,0.7-0.3,1
		C207.3,32,207.3,35.3,207.3,38.6z"/>
	<path class="st7" d="M79.2,36.2c-0.5,0-1,0-1.5,0c-2.2,0-2.6-0.2-2.4-2.4c0.2-2,0.6-4.1,1.3-6c1.1-2.7,3.2-3.7,6-3.3
		c2.2,0.3,3.9,2.2,4.3,4.8C87,30,87,30.7,87,31.4c0,7.6,0,15.3,0,22.9c0,1.5,0.2,2.9,1.4,3.9c-0.9,1.1-1.7,2.2-2.7,3.3
		c-0.6-0.6-1.2-1.1-1.8-1.6c-1.3,1.7-3,1.7-4.9,1c-2.2-0.8-3.6-2.5-3.9-4.7c-1-5.7,0.9-10.6,4.7-14.9c0.8-0.9,1.9-1.7,2.8-2.6
		c0.3-0.3,0.6-0.8,0.6-1.2c0-2.7,0-5.4,0-8.2c0-1.9-0.7-2.8-1.8-2.9c-1.3-0.1-2.1,0.7-2.2,2.7C79.1,31.6,79.2,33.8,79.2,36.2z
		 M83.3,41.7c-0.4,0.4-0.6,0.5-0.8,0.7c-0.3,0.3-0.6,0.7-0.8,1c-2,3-2.5,6.4-2.3,10c0.1,1.5,0.4,3.1,0.8,4.5c0.2,0.9,1.1,1.1,2,0.9
		c0.9-0.2,1.1-0.8,1.1-1.6C83.3,52.1,83.3,47,83.3,41.7z"/>
	<path class="st8" d="M111.1,60.7c-1.4,0-3,0-4.6,0c1-3.3,0.5-6.6,0.6-9.9c0.1-7,0-13.9,0-20.9c0-1.6-0.2-3.2-0.3-4.9
		c1.2,0,2.5,0,4,0c0,4.5,0,9,0,13.5c0.1,0,0.2,0,0.3,0.1c1.3-4.5,4-8.6,4.4-13.5c1.1,0,2.2,0,3.6,0c-0.1,0.4-0.2,0.7-0.4,1.1
		c-1.1,2.7-2.2,5.3-3.3,8c-0.3,0.7-0.3,1.5-0.2,2.2c1.7,8.1,3.5,16.2,5.3,24.4c-1.4,0-2.8,0-4.1,0c-0.3-6-2.3-11.6-3.4-17.3
		c-0.1-0.7-0.3-1.3-0.5-2.3c-0.7,2.1-1.9,3.7-1.8,5.8c0.1,2.7,0,5.4,0,8C110.9,56.8,111,58.7,111.1,60.7z"/>
	<path class="st9" d="M200.9,60.7c-1.4,0-2.8,0-4.3,0c0.6-2.5-0.3-4.7-0.8-7c-0.8-3.9-1.7-7.7-2.6-11.6c-0.1-0.3-0.2-0.5-0.3-0.9
		c-1,2.3-2.1,4.3-1.9,6.8c0.2,2.4,0,4.9,0.1,7.3c0,1.8,0.2,3.5,0.4,5.3c-1.4,0-3,0-4.4,0c0.1-1.8,0.3-3.6,0.3-5.5
		c0-8.6,0-17.1,0-25.7c0-1.5-0.2-3-0.4-4.5c1.2,0,2.5,0,4,0c0,4.5,0,9.1,0,13.6c0.1,0,0.2,0,0.3,0.1c1.3-4.6,4.1-8.7,4.5-13.7
		c1.1,0,2.3,0,3.7,0c-1.1,2.6-2,5.1-3.1,7.5c-0.8,1.8-0.9,3.4-0.4,5.3c1.7,7.3,3.3,14.7,4.9,22.1C200.9,60.1,200.9,60.4,200.9,60.7z
		"/>
	<path class="st4" d="M179.5,36.2c0.1-1.9,0.3-3.8,0.2-5.6c0-1-0.3-2.1-0.7-3c-0.2-0.5-1-1-1.6-0.9c-0.4,0-1.1,0.7-1.2,1.2
		c-0.3,1.6-0.5,3.2-0.5,4.8c0,7.4,0.1,14.7,0.2,22.1c0,1.1,0.2,2.2,0.5,3.2c0.1,0.5,0.7,1.1,1.1,1.2c0.5,0,1.3-0.4,1.5-0.8
		c0.4-0.9,0.8-1.9,0.8-3c0.1-3,0.1-6.1,0.1-9.1c0-0.8-0.3-1.5-0.6-2.5c1.2,0,2.4-0.1,3.5,0c0.3,0,0.8,0.7,0.9,1
		c0.2,4.3,0,8.6-1.5,12.6c-0.8,2.1-2,3.8-4.5,3.9c-2.6,0.1-3.9-1.7-4.8-3.8c-1.2-2.8-1.5-5.8-1.6-8.8c-0.3-5.8-0.5-11.7,0.6-17.4
		c0.3-1.7,0.9-3.3,1.8-4.8c1.8-3,5.4-3.1,7.5-0.3c1.9,2.6,2.4,5.7,2.1,8.9c-0.1,0.7-0.4,1.2-1.2,1.1
		C181.1,36.2,180.2,36.2,179.5,36.2z"/>
	<path class="st8" d="M218.3,60.7c0.1-2.8,0.2-5.6,0.2-8.3c0-7.5,0-14.9,0-22.4c0-1.6-0.2-3.2-0.3-4.9c1.2,0,2.5,0,4,0c0,4,0,8,0,12
		c0.2,0.1,0.2,0.2,0.3,0.2c4.4,0.5,6.8,2.8,7.7,7.4c0.7,3.6,0.6,7.2-0.4,10.8c-0.9,3.2-3.1,5-6.3,5.3
		C221.5,60.8,219.7,60.7,218.3,60.7z M222.3,58.1c2.2,0,3.1-0.6,3.3-2.6c0.3-3.2,0.3-6.5,0.3-9.8c0-1.2-0.4-2.5-0.8-3.7
		c-0.4-1.3-1.3-2.2-2.8-2.2C222.3,45.9,222.3,52,222.3,58.1z"/>
</g>
</svg>
