<?xml version="1.0" encoding="utf-8"?>
<!-- Generator: Adobe Illustrator 23.0.1, SVG Export Plug-In . SVG Version: 6.00 Build 0)  -->
<svg version="1.1" id="Layer_1" xmlns="http://www.w3.org/2000/svg" xmlns:xlink="http://www.w3.org/1999/xlink" x="0px" y="0px"
	 viewBox="0 0 555.2 212.7" style="enable-background:new 0 0 555.2 212.7;" xml:space="preserve">
<style type="text/css">
	.st0{fill:#A0A0A0;}
</style>
<g>
	<path class="st0" d="M251.1,105.2c-0.6,0.7-1.1,1.3-1.7,2c-1.9-0.3-3.8-0.9-5.8-1c-16.7-0.1-33.5,0-50.2,0c3.3-6,6.5-12,9.8-18.1
		c14.3,0,28.6,0.1,43,0.1c1.7,5.3,3.4,10.6,5,15.8C251.2,104.4,251.2,104.8,251.1,105.2z"/>
	<path class="st0" d="M162.7,12.9c-7.5-10.2-18-14.4-30.2-12.4c-19.2,3.1-24.5,21.7-16.8,33.6C120.9,43.2,129,47.8,139,49
		c12.9,1.5,23.2-4.8,27.2-15.8c0,0,0.1,0,0.1,0C168.7,25.8,167.1,19,162.7,12.9z"/>
	<path class="st0" d="M242.6,119.1c-1.9,3.4-3.8,6.8-5.7,10.2c-1.9-0.4-3.8-1.1-5.7-1.1c-12.3-0.1-24.5,0-36.8,0
		c-0.9-3-1.8-6-2.8-9.1C208.6,119.1,225.6,119.1,242.6,119.1z"/>
	<path class="st0" d="M323.4,147.1c-0.3-0.1-0.6-0.1-0.8-0.1c-0.7-2-1.4-3.8-2.1-5.8c-0.7-1.9-1.4-3.9-2.1-5.8
		c-1-2.4-1.9-4.8-2.9-7.2c-0.9-3-1.9-6-2.9-9c-0.4-1.9-0.8-3.7-1.2-5.6c-0.3,0-0.6,0-0.9-0.1c-0.9,1.6-1.8,3.2-2.6,4.8
		c-1.5,2.7-2.9,5.3-4.4,7.9c-1.7,2.6-3.3,5.3-5,8c-1.6,2.3-3.3,4.7-4.9,7c-1,1.7-2.1,3.3-3.1,4.9c0,0-0.1,0-0.1,0
		c-3.6,3.1-7.3,6.1-11,9.1c0,0.3,0,0.5,0,0.8c17.4,0,34.7,0,52,0C328.7,153,326.1,150.1,323.4,147.1z"/>
	<path class="st0" d="M161.4,193.2c0-2,0-4,0-6c0-4.7,2.3-6.6,6.3-4.3c1.8,1,2.5,0.4,3.7,0c6.4-2.5,11,0.2,11.6,7
		c0.4,3.8,0,7.7,0.2,11.5c0.2,3.3-2,2.7-4,2.8c-2.3,0.1-3.9-0.1-3.7-3.1c0.2-2.8,0.1-5.7,0-8.5c0-2.1-0.4-4.2-3-4.3
		c-2.9-0.1-3.5,2.1-3.6,4.4c-0.1,2.8-0.2,5.7,0,8.5c0.2,3.1-1.6,3.1-3.7,3c-2,0-4.1,0.3-3.8-2.9
		C161.6,198.6,161.4,195.9,161.4,193.2z"/>
	<path class="st0" d="M242.6,119.1c-17,0-34,0-51,0c-0.7-2-1.4-4-2.1-6c0.1-0.4,0.1-0.9,0.2-1.3l0.4,0.1c16.2,0.1,32.3,0,48.5,0.3
		c2.3,0,4.6,1.2,6.9,1.9C244.5,115.8,243.5,117.5,242.6,119.1z"/>
	<path class="st0" d="M221.8,197c-0.3,5.7-3.8,7.2-7.6,7.8c-4.5,0.8-8.6-0.5-11.6-4.2c-2.8-3.4-2.9-9.4-0.6-13.1
		c2.6-4.1,7.4-6.2,12.5-5.3c4.4,0.8,7.8,4.4,8.7,9.2c0.4,2.5,0.1,4.2-3.1,4c-3.3-0.2-6.6-0.1-9.9,0c-0.6,0-1.6,0.4-1.6,0.7
		c-0.1,0.7,0.1,1.7,0.5,2.2c1.8,1.7,3.7,1.5,5.9,0.6C217.2,198,219.5,197.6,221.8,197z M207.9,189.7c0.3,0.4,0.5,0.7,0.8,1.1
		c2.2,0,4.4,0,6.6,0c0.2-0.4,0.3-0.8,0.5-1.2c-1.3-0.8-2.7-2.3-4-2.3C210.6,187.4,209.3,188.9,207.9,189.7z"/>
	<path class="st0" d="M254.6,195.3c2,4.5,3.5,5.1,6.9,3.7c2.3-0.9,4.8-1.3,7.3-2c0.2,0.3,0.5,0.7,0.7,1c-0.5,1.1-0.9,2.3-1.7,3.2
		c-3.7,4.3-11.6,4.9-16.4,1.4c-4.3-3.3-5.5-10.7-2.6-15.3c3.3-5.1,10.7-7,15.8-3.8c1.5,0.9,2.8,2.4,3.7,3.9c3.4,5.9,2.2,7.8-4.4,7.8
		C261.1,195.3,258.1,195.3,254.6,195.3z M262.2,190.9c0.2-0.5,0.4-0.9,0.6-1.4c-1.4-0.8-2.7-2.1-4.1-2.3c-2.2-0.3-3.4,1.3-3.9,3.7
		C257.4,190.9,259.8,190.9,262.2,190.9z"/>
	<path class="st0" d="M245.4,114.1c-2.3-0.7-4.6-1.9-6.9-1.9c-16.2-0.2-32.3-0.2-48.5-0.3c1.1-1.9,2.3-3.9,3.4-5.8
		c16.7,0,33.5,0,50.2,0c1.9,0,3.8,0.6,5.8,1C248.1,109.5,246.7,111.8,245.4,114.1z"/>
	<path class="st0" d="M293.4,187.1c-0.5,1.2-0.9,3.4-1.5,3.4c-1.8,0.2-4.4,0.3-5.6-0.8c-2.3-2.1-4.2-2.7-6.4-0.5
		c-1.8,1.8-1.4,7.2,0.5,8.8c1.6,1.4,3.7,1.6,4.8-0.2c2.1-3.5,5-2.4,7.8-2.2c-0.5,5.6-4,9-9.7,9.3c-5.7,0.3-10.8-3.4-11.8-8.7
		s1.2-10.7,5.4-12.9c4.8-2.6,10.6-1.5,14.6,2.5C292.1,186.4,292.8,186.8,293.4,187.1C293.4,187.2,293.4,187.1,293.4,187.1z"/>
	<path class="st0" d="M179.5,129.3c1.8-3,3.5-6,5.4-9c0,0-0.1,0-0.1,0c1.3-2.3,2.5-4.5,3.8-6.8"/>
	<path class="st0" d="M188.6,113.4c0.3-0.1,0.6-0.2,0.9-0.3c0.1-0.4,0.1-0.9,0.2-1.3c-0.8-2.6-1.6-5.1-2.4-7.7c0,0,0,0,0,0
		c-0.8-3.4-2.6-10.6-3.5-14c0,0,0,0,0,0c-0.4-1.7-0.8-3.4-1.2-5.2c0,0,0,0,0,0c-0.7-2.9-1.4-5.8-2.1-8.7v-0.1
		c-1.2-10.7-3.7-13-14.1-13c-13.5,0-27,0-40.5,0c-1.6,0-3.2,0-5,0c0.3,1.7,0.5,2.9,0.8,4c1,3.3,2,6.7,3,10c0.9,3.1,1.8,6.1,2.6,9.2
		c0,0,0,0,0,0c0.9,3.4,1.8,6.7,2.5,10c0.1,0,0.1,0,0.2,0c0.8,2.7,1.6,6.1,2.1,8.1c0,0,0,0,0,0c0.8,2.5,2,6.9,2.7,9.5
		c0.6,2.1,1.1,4.2,1.7,6.3c0,0,0.1,0,0.1,0c0.6,2.3,1.3,4.7,1.9,7c0,0-0.1,0-0.1,0c0.7,2.7,1.5,5.3,2.2,8c0,0,0.1,0,0.1,0
		c2,4.8,3.5,9.8,5.8,14.3c2,3.9,5,6.9,10.1,6.4c3.4-2.8,7-5.4,10.2-8.4c2.4-2.2,4.4-5,6.5-7.5c0.1-0.5,0.3-0.9,0.4-1.6
		c0,0,0,0,0,0.1c2-3.1,3.9-6.2,5.8-9.2"/>
	<path class="st0" d="M323.4,193.2c0-2.8-0.1-5.7,0.1-8.5c0.1-0.7,1.9-1.9,1.9-1.9c2.1,1.9,4,0.3,5.9-0.4c3.4-1.2,6.1,2,8.8,1.7
		c2.7-0.4,5.3-2.5,8.5-1.7c2.9,0.7,4.7,2.5,4.7,5.6c0,4.5,0.1,9-0.1,13.5c0,0.9-1.3,1.7-2,2.6c-0.6-0.9-1.7-1.8-1.8-2.7
		c-0.2-3.6-0.1-7.3-0.1-11c0-2.7-0.9-4.6-4-4.5c-2.8,0.1-4.9,1.3-5,4.4c-0.2,3.7-0.1,7.3-0.1,11c0,1.6-0.1,3.3-2.2,2.8
		c-0.8-0.2-1.5-1.8-1.6-2.8c-0.2-3.3-0.1-6.7-0.1-10c0-2.7-0.2-5.2-3.7-5.3c-3-0.1-5.2,1.9-5.3,5.3c-0.2,3.3,0,6.7-0.1,10
		c0,0.8,0,1.8-0.5,2.3c-0.4,0.5-1.6,0.7-2.2,0.5c-0.5-0.2-1.1-1.1-1.2-1.8C323.3,199.2,323.4,196.2,323.4,193.2z"/>
	<path class="st0" d="M196.3,204.5c-6.4-0.1-8.3-1.9-8.6-7.3c-0.1-2,0-4,0-6c0-1.6,0.2-3-2-3.9c-2.3-1-2-3.8-0.2-4.6
		c2-0.9,2.3-2,2.2-3.7c-0.2-3.2,2.1-2.7,4-2.8c1.9,0,3.8-0.2,3.6,2.7c-0.1,1.9-0.1,3.7,2.6,3.7c0.5,0,1.3,1.6,1.4,2.6
		c0.1,0.7-0.8,2.2-1.2,2.2c-3.1,0-2.8,2.1-2.8,4.1c0,1.5-0.2,3,0.1,4.5c0.2,0.9,1,2.5,1.6,2.5c3.2,0.4,2.8,2.8,2.2,4.4
		C198.8,203.9,196.7,204.3,196.3,204.5z"/>
	<path class="st0" d="M246.2,88.2c-14.3,0-28.6-0.1-43-0.1c1.4-2.3,2.7-4.6,4.1-7c12,0,24,0,36.1,0
		C244.3,83.5,245.3,85.8,246.2,88.2z"/>
	<path class="st0" d="M420.2,197.6c-1.6,5.1-4,7.1-8.7,7.2c-4.6,0.2-8.1-2-9.7-6.3c-1.8-4.8-1.5-9.5,2.2-13.4
		c2.9-3.1,7.2-3.8,11-2.1c3.4,1.5,6.2,6.1,5.7,9.7c-0.1,0.8-1.6,2-2.5,2c-3.3,0.2-6.6,0-9.9,0.1c-0.9,0-2.5,0.4-2.5,0.8
		c-0.1,1,0.1,2.3,0.7,3.2c2.2,3.2,6.7,3.3,9.3,0.1C417.1,197.2,418.2,196.6,420.2,197.6z M416.6,190.9c-1.2-3.2-2.8-5.2-6.1-5
		c-3,0.1-4.9,1.5-5.1,5C409.1,190.9,412.6,190.9,416.6,190.9z"/>
	<path class="st0" d="M293.4,187.2c0.8-1.7-0.5-4.6,2.9-5c0.4,0,1.1-1.9,1-2.8c-0.3-2.9,1.3-3.2,3.6-3.2c2.3,0,4,0.2,3.6,3.1
		c-0.2,1.9,0.3,3.1,2.6,3.3c0.7,0.1,1.7,1.5,1.7,2.4c0,0.7-1.1,2.1-1.8,2.2c-2.4,0.2-2.6,1.6-2.6,3.4c0,1.5,0,3,0,4.5
		c-0.1,2,0.2,3.5,2.6,4.1c0.8,0.2,1.7,2.1,1.7,3.2c0,0.7-1.6,1.8-2.6,1.9c-6.6,0.8-8.8-1.2-8.8-7.9c0-1.7-0.2-3.3,0-5
		C297.9,188,296.5,186.8,293.4,187.2L293.4,187.2z"/>
	<path class="st0" d="M380,193.4c0-2.8,0-5.7,0-8.5c0-1.8,0.9-2.2,2.6-2.1c1.7,0.1,3.4,0.2,5-0.2c6.1-1.5,10,0.9,10.4,7
		c0.3,4.1,0.2,8.3,0,12.5c0,0.7-1.3,1.4-2,2.1c-0.7-0.7-1.9-1.4-2-2.1c-0.2-3.6-0.1-7.3-0.1-11c0-2.7-0.5-5.1-3.9-5.2
		c-3.2-0.1-5.5,1.6-5.8,4.9c-0.3,3.5-0.1,7-0.1,10.5c0,1.6-0.2,3.3-2.3,2.8c-0.8-0.2-1.7-1.7-1.8-2.7C379.8,198.7,380,196,380,193.4
		L380,193.4z"/>
	<path class="st0" d="M194.3,128.2c12.3,0,24.5-0.1,36.8,0c1.9,0,3.8,0.7,5.7,1.1c-1,1.7-2,3.3-3,5c-12.5,0-25,0-37.5-0.1
		C195.6,132.2,195,130.2,194.3,128.2z"/>
	<path class="st0" d="M196.3,134.2c12.5,0,25,0,37.5,0.1c-1.8,2.6-3.5,5.3-5.3,7.9c-1.9-0.3-3.8-1-5.7-1c-8.1-0.1-16.2-0.1-24.3-0.1
		c-0.1-0.3-0.1-0.6-0.2-0.9C197.7,138.2,197,136.2,196.3,134.2z"/>
	<path class="st0" d="M366.6,182.2c6.3,0,10.7,4.5,10.7,11.2c0.1,6.7-4.2,11.3-10.5,11.5c-6.3,0.1-10.5-4.3-10.5-11.3
		C356.2,186.6,360.2,182.2,366.6,182.2z M360.4,193.4c-0.1,4.7,2.5,7.9,6.4,7.8c3.5,0,6.2-3.3,6.4-7.6c0.1-4.3-2.9-7.8-6.6-7.7
		C362.8,185.9,360.4,188.9,360.4,193.4z"/>
	<path class="st0" d="M233.3,189.6c0,4-0.1,8,0,12c0.1,2.9-1.8,2.6-3.6,2.6c-1.9,0-4.1,0.6-4.1-2.7c0.1-8.1,0.1-16.3,0-24.4
		c0-3.3,2.3-2.6,4.1-2.7c2-0.1,3.6,0,3.6,2.8C233.2,181.3,233.3,185.5,233.3,189.6z"/>
	<path class="st0" d="M421,183.4c3.3-1.2,4.5-0.1,5.2,2.2c1.4,4.2,3,8.4,4.9,13.9c1.7-4.6,2.9-8.2,4.2-11.7c0.4-1.3,0.6-2.7,1.4-3.7
		c0.6-0.7,1.9-0.8,3-1.1c0.2,0.8,0.7,1.8,0.4,2.5c-3,7.9-6.1,15.8-9.2,23.7c-1,2.6-3.1,4-5.9,3.7c-0.8-0.1-1.4-1.1-2.1-1.6
		c0.5-0.6,1-1.6,1.6-1.9c4-1.7,5.1-3.9,3.6-8.1C425.8,195.3,423.4,189.5,421,183.4z"/>
	<path class="st0" d="M303.4,126.1c1.5-2.7,2.9-5.2,4.3-7.8c0,0,0,0,0.1,0c0.9-1.6,1.8-3.2,2.7-4.8c-0.3-0.8-0.7-2.1-1-2.9
		c0,0,0,0,0,0c-0.1-0.8-0.3-1.6-0.3-2.5c-0.1-0.4-0.3-0.8-0.5-1.2c-0.4-1-0.7-2.1-1-3.1c0,0,0.1,0,0.1,0c-0.6-2.4-1.4-4.8-2-7.2
		 M305.7,96.6c-0.5-1.8-0.9-3.7-1.4-5.5c0,0,0.1,0,0.1,0c-0.2-0.7-0.4-1.4-0.6-2.1c-0.2-0.3-0.3-0.6-0.3-0.9
		c-0.1-0.6-0.2-1.3-0.3-1.9c-0.4-0.6-0.5-0.7-0.6-1.2c-0.5-1.6-0.9-2.1-1.4-3.7c-1.5-3.2-3-8-4.8-11.1c-2.4-4.1-6-6.8-11.1-6.9
		c-3.5,2-7.2,3.6-10.4,6c-2.9,2.1-5,5.2-7.5,7.8c-0.6,1-1.2,1.9-1.7,2.8c0,0,0,0,0,0c-1.4,2-2.8,4.3-4.2,6.3c0,0,0.1,0,0.1,0
		c-0.7,1.3-1.4,2.6-2.1,3.9c0,0-0.1,0-0.1,0c-1.6,2.7-3.3,5.3-4.9,8c0,0,0.1,0,0.1,0c-1.1,2-2.3,4-3.3,6c0,0.4-0.1,0.7-0.1,1.1h0.2
		c0.6,2,1.3,4,1.8,5.9c0,0,0,0,0,0c0.7,2.2,1.4,5,2.1,7.1c0,0,0,0,0,0c0.7,2.7,1.5,5.3,2.2,7.9c0.9,2.8,1.9,5.5,2.7,8.2
		c0,0,0,0,0.1,0c0.7,1.9,1.6,4.4,2.1,5.9c0,0-0.1,0-0.1,0c1.9,3.6,3.4,7.5,5.7,10.9c1.9,2.8,4.6,5.3,8.6,4.8c1-0.2,1.9-0.5,2.8-0.7
		c3.7-3.1,7.3-6.1,11-9.1c1.1-1.6,2.1-3.3,3.1-4.9h0.1c1.6-2.4,3.7-5.6,5.4-7.8c0,0-0.1,0-0.1-0.1c1.5-2.4,3-4.8,4.5-7.2"/>
	<path class="st0" d="M439.4,144.1C439.4,144.1,439.4,144.1,439.4,144.1c-0.6-1.9-1.2-4.3-1.7-6.1h0c-0.4-1.6-0.9-3.3-1.3-4.9
		c0,0,0,0,0,0c-0.5-2-1.1-3.9-1.5-5.9l-0.6-2.3c-0.7-2.7-1.5-5.3-2.2-8c0,0-0.1,0-0.1,0c-0.6-2.5-1.5-5.8-2-7.5c0,0,0,0,0,0
		c-0.5-1.8-0.9-3.6-1.4-5.4c-0.2,0.1-0.4,0.2-0.6,0.4c0.2-0.1,0.3-0.3,0.5-0.4c-0.4-1.6-0.8-3.2-1.2-4.8c0,0,0.1,0,0.1,0
		c-0.7-2.4-1.6-5.7-2.3-8.3c0,0,0,0,0.1,0c-0.6-1.9-1.2-3.9-1.8-5.8c-0.8-2.3-1.5-4.7-2.3-7.1c0,0-0.1,0-0.1,0c-1.6-3.4-3-6.8-5-10
		c-1.9-3.1-4.7-5-8.6-4.7c-7.5,2.1-13,7-17,13.6c-1.2,0.8-2.4,1.6-3.6,2.3c-0.8,2-1.5,3.9-2.3,5.9c-1,1.7-2,3.4-3,5c0,0,0,0,0,0
		c-1.6,2.8-3.4,6.3-5,9c-0.1,0-0.1,0-0.2,0c-0.7,1.5-1.4,3.1-2.2,4.6c0,0,0,0,0.1,0c-0.7,0.7-1.3,1.4-2.1,2c0,0.4,0,0.7,0,1.1
		c0.4,1.3,0.8,2.6,1.3,3.9c0,0,0,0,0,0c0.5,1.7,1.3,4.3,2,6.5c0,0,0,0.1,0,0.1c0.2,0.7,0.4,1.4,0.6,2c0,0,0,0,0,0
		c0.8,2.8,1.9,6.5,2.5,8.4c0.5,1.8,0.9,3.7,1.5,5.7c0,0,0,0,0,0c0.5,1.9,1.1,3.8,1.6,5.7h0c0.5,1.7,1,3.4,1.6,5.1
		c-0.6-1.8-0.1,0-0.1,0c0.1,0.7,0.1,1.4,0.3,2c2,8.3,4,9.9,12.7,9.9c13.8,0,27.5,0,41.3,0c1.6,0,3.2,0,5.6,0
		C441.7,151.6,440.5,147.9,439.4,144.1z"/>
	<path class="st0" d="M244.4,189.9c0,3.8-0.2,7.6,0.1,11.5c0.2,2.8-1.3,2.9-3.4,2.8c-2-0.1-4,0.4-3.9-2.8c0.2-7.8,0.2-15.6,0-23.4
		c-0.1-2.9,1.4-3.2,3.7-3.2s3.8,0.3,3.6,3.2C244.3,181.9,244.4,185.9,244.4,189.9z"/>
	<path class="st0" d="M198.5,141.1c8.1,0,16.2,0,24.3,0.1c1.9,0,3.8,0.6,5.7,1c-1.6,2.1-3.3,4.1-4.9,6.2c-0.8-0.4-1.6-1.2-2.4-1.2
		c-6.2-0.1-12.5-0.1-18.7-0.1C201.1,145.1,199.8,143.1,198.5,141.1z"/>
	<path class="st0" d="M236.6,69c1.3,2,2.7,4,4,6c-8.1,0-16.2,0.1-24.3,0c-1.3,0-2.7-0.7-4-1.1c1.4-1.6,2.9-3.2,4.3-4.8
		C223.3,69.1,229.9,69.1,236.6,69z"/>
	<path class="st0" d="M150.4,192.8c0-2.5,0.1-5,0-7.5c-0.2-2.7,1.4-2.8,3.4-2.8c2.2,0,3.9,0,3.8,3c-0.2,5.3-0.2,10.6,0,15.9
		c0.1,3.3-2.1,2.6-4,2.7c-2.2,0.2-3.5-0.3-3.3-2.9C150.6,198.4,150.4,195.6,150.4,192.8z"/>
	<path class="st0" d="M202.4,147.1c6.2,0,12.5,0,18.7,0.1c0.8,0,1.6,0.8,2.4,1.2c-3.4,4.3-7.2,7.9-13.2,7.6
		C207.7,153,205.1,150.1,202.4,147.1z"/>
	<path class="st0" d="M212.3,73.9c1.3,0.4,2.7,1.1,4,1.1c8.1,0.1,16.2,0,24.3,0c0.6,0.7,1.2,1.4,1.8,2.1c0,0.7,0.1,1.3,0.1,2
		c-9.5,0-19.1,0.1-28.6,0c-1.5,0-3-0.7-4.5-1C210.4,76.7,211.3,75.3,212.3,73.9z"/>
	<path class="st0" d="M236.6,69c-6.7,0-13.3,0.1-20,0.1c3.1-3.7,7.1-5.7,11.9-5.9C231.5,64.9,235.5,65,236.6,69z"/>
	<path class="st0" d="M209.4,78.1c1.5,0.4,3,1,4.5,1c9.5,0.1,19.1,0,28.6,0c0.3,0.7,0.6,1.4,0.9,2.1c-12,0-24,0-36.1,0
		C208,80.1,208.7,79.1,209.4,78.1z"/>
	<path class="st0" d="M369.9,98.1c-0.1-0.3-0.3-0.7-0.4-1c-1-3-1.9-6-2.9-9h0c-0.7-2.3-1.5-4.7-2.1-7c0,0-0.1,0-0.1,0
		c0-0.7,0.1-1.3,0.1-2l-0.1,0.1c-0.3-1-0.6-2-0.9-3c0,0-0.1,0-0.1,0c-1-2.4-2-4.7-3-7c-1.6-3.4-4.6-4.8-7.7-5.8
		c-5.8-0.5-10.3,1.6-14.1,5.7c-0.1,0-0.1,0-0.2,0c-1.4,1.6-2.8,3.2-4.2,4.8c0,0,0.1,0,0.1,0c-0.8,1.2-1.7,2.3-2.5,3.5c0,0,0,0,0,0
		c-0.7,1-1.8,2.7-2.6,3.8c0,0,0,0,0,0c-1.4,2.3-2.7,4.6-4,6.9c-3.3,6-6.5,12-9.8,18c-1.2,1.9-2.3,4.2-3.5,6.1c0,0,0,0,0,0
		c0,0.1,0,0.1-0.1,0.2c0,0,0,0,0,0.1c0,0,0,0,0,0c-0.1,0.4-0.2,0.7-0.4,1.1c0.4,1.9,0.8,3.7,1.2,5.6l0.8,0l-0.9,0c0.9,3,1.9,6,2.9,9
		c1,2.5,2,5.3,3,7.6c0.7,1.8,1.3,3.6,2,5.5c0.7,1.9,1.4,3.9,2.1,5.9c0.3,0.1,0.6,0.1,0.9,0.1c0,0,0.1,0,0.1,0c2.7,3,5.2,5.8,7.9,8.7
		c6.4,0.6,10.5-3.1,14-7.6c0,0,0,0,0.1,0c1.9-2.3,3.7-4.7,5.6-7c1-1.6,2.1-3.2,3.2-4.8c0,0,0,0,0,0c0,0,0-0.1,0-0.1
		c0.1-0.1,0.1-0.2,0.2-0.3c0,0,0,0,0,0c1.3-2.1,2.8-4.7,4.1-6.9c0,0,0,0,0,0c1.7-2.9,3.5-5.9,5.1-8.8h0c0,0,0-0.1,0.1-0.1
		c0,0,0,0,0,0h0c1.2-2.1,2.3-4.2,3.7-6.2c1-1.9,2.3-4.1,3.4-6.1c0.5-0.4,1-0.8,1.4-1.2c0-0.4,0-0.7,0-1.1
		C371.5,103.2,370.7,100.7,369.9,98.1z"/>
	<path class="st0" d="M249.4,97.7c-0.1-0.3-0.4-1-0.5-1.3c-1-3-1.7-5.5-2.7-8.5l-0.4-0.8c-0.7-2.3-2.1-3.7-2.7-6c0,0-0.1,0-0.1,0
		c0-0.7,0.1-1.3,0.1-2L243,79c-0.3-1-0.6-2-0.9-3c0,0-0.1,0-0.1,0c-1-2.4-2-4.7-3-7c-1.6-3.4-4.6-4.8-7.7-5.8
		c-5.8-0.5-10.3,1.6-14.1,5.7c-0.1,0-0.1,0-0.2,0c-1.4,1.6-2.8,3.2-4.2,4.8c0,0,0.1,0,0.1,0c-0.8,1.2-1.7,2.3-2.5,3.5c0,0,0,0,0,0
		c-0.7,1-1.8,2.7-2.6,3.8c0,0,0,0,0,0c-1.4,2.3-2.7,4.6-4,6.9c-3.3,6-6.5,12-9.8,18c-1.2,1.9-2.3,4.2-3.5,6.1c0,0,0,0,0,0
		c0,0.1,0,0.1-0.1,0.2c0,0,0,0,0,0.1c0,0,0,0,0,0c-0.1,0.4-0.2,0.7-0.4,1.1c0.4,1.9,0.8,3.7,1.2,5.6l0.8,0l-0.9,0c0.9,3,1.9,6,2.9,9
		c1,2.5,2,5.3,3,7.6c0.7,1.8,1.3,3.6,2,5.5c0.7,1.9,1.4,3.9,2.1,5.9c0.3,0.1,0.6,0.1,0.9,0.1c0,0,0.1,0,0.1,0c2.7,3,5.2,5.8,7.9,8.7
		c6.4,0.6,10.5-3.1,14-7.6c0,0,0,0,0.1,0c1.9-2.3,3.7-4.7,5.6-7c1-1.6,2.1-3.2,3.2-4.8c0,0,0,0,0,0c0,0,0-0.1,0-0.1
		c0.1-0.1,0.1-0.2,0.2-0.3c0,0,0,0,0,0c1.3-2.1,2.8-4.7,4.1-6.9c0,0,0,0,0,0c1.7-2.9,3.5-5.9,5.1-8.8h0c0,0,0-0.1,0.1-0.1
		c0,0,0,0,0,0h0c1.2-2.1,2.3-4.2,3.7-6.2c1-1.9,2.3-4.1,3.4-6.1c0.5-0.4,1-0.8,1.4-1.2c0-0.4,0.3-2.4,0.3-2.8
		C250.4,101.4,250.2,100.2,249.4,97.7z"/>
	<path class="st0" d="M150.8,180.9c-0.6-6.4-0.6-6.4,3.1-6.5c2.4-0.1,4.3,0.1,4,3.3C157.4,183.2,153.3,179.4,150.8,180.9z"/>
	<path class="st0" d="M276.7,155.9c0.9-0.2,1.8-0.5,2.8-0.7c0,0.3,0,0.5,0,0.8C278.5,156,277.6,155.9,276.7,155.9z"/>
	<path class="st0" d="M309.1,108.2c-0.2-0.4-0.4-0.8-0.5-1.2C308.8,107.4,308.9,107.8,309.1,108.2z"/>
	<path class="st0" d="M303.8,89c-0.2-0.2-0.3-0.5-0.3-0.9C303.6,88.4,303.7,88.7,303.8,89z"/>
	<path class="st0" d="M228.5,63.3c3,1.6,7,1.7,8.1,5.7c1.3,2,2.7,4,4,6c0.6,0.7,1.2,1.4,1.8,2.1c0,0,0,0,0,0c0,0.7,0.1,1.2,0.1,1.9
		c0.3,0.7,0.6,1.4,0.9,2.1c0.9,2.4,1.9,4.7,2.9,7c1.6,5.2,3.3,10.5,5,15.8c1.1-2,2.2-3.9,3.3-5.9c1.6-2.7,3.3-5.3,4.9-8
		c0.7-1.3,1.4-2.7,2.1-4c1.3-2,2.7-4,4-6c0.6-1,1.2-1.9,1.7-2.9c0,0,0,0,0.1,0c2.5-2.6,4.7-5.7,7.5-7.8c3.1-2.4,6.9-4,10.4-6
		C266.4,63.3,247.4,63.3,228.5,63.3z"/>
	<path class="st0" d="M352.6,63.3c3.2,1.1,6.2,2.5,7.9,5.9c1,2.4,2,4.7,3,7c0.3,1,0.6,2,0.9,3l0.1,0c0,0.6-0.1,1.3-0.1,1.9
		c0.7,2.3,1.5,4.7,2,7c1,3,1.9,6,2.9,9c0.1,0.3,0.3,0.7,0.4,1c0.8,2.6,1.6,5.1,2.4,7.7c0.7-0.7,1.3-1.4,2-2.1
		c0.8-1.5,1.5-3.1,2.2-4.6c1.7-3,3.4-6,5.1-9c1-1.7,2-3.3,3-5c0.8-2,1.5-3.8,2.3-5.8c0,0,0.1,0,0.1,0c1.2-0.8,2.4-1.6,3.6-2.4
		c4-6.6,9.4-11.4,17-13.6C389.1,63.3,370.9,63.3,352.6,63.3z"/>
	<path class="st0" d="M369.4,97.1c0.1,0.3,0.3,0.7,0.4,1C369.7,97.8,369.6,97.5,369.4,97.1z"/>
	<path class="st0" d="M202.4,147.1c-1.3-2-2.6-4-3.9-6c-0.1-0.3-0.1-0.6-0.2-0.9c-0.6-2-1.3-4-2-6s-1.3-4-1.9-5.9
		c-1-3.1-1.9-6.1-2.8-9.1c-0.7-2-1.4-4-2.1-6c-0.3,0.1-0.6,0.2-0.9,0.3c-1.3,2.3-2.5,4.5-3.8,6.8c-1.8,3-3.5,6-5.3,9
		c-2,3.1-3.9,6.1-5.9,9.2c-0.1,0.5-0.3,1.1-0.4,1.6c-2.2,2.5-4.1,5.3-6.5,7.5c-3.2,3-6.8,5.6-10.2,8.4c18,0,35.9,0,53.9,0
		C207.7,153,205.1,150.1,202.4,147.1z"/>
</g>
</svg>
