<?xml version="1.0" encoding="utf-8"?>
<!-- Generator: Adobe Illustrator 23.0.1, SVG Export Plug-In . SVG Version: 6.00 Build 0)  -->
<svg version="1.1" id="Layer_1" xmlns="http://www.w3.org/2000/svg" xmlns:xlink="http://www.w3.org/1999/xlink" x="0px" y="0px"
	 viewBox="0 0 169.7 52.7" style="enable-background:new 0 0 169.7 52.7;" xml:space="preserve">
<style type="text/css">
	.st0{fill:#F3BD21;}
	.st1{fill:#E2A11E;}
	.st2{fill:#E7AB1E;}
	.st3{fill:#DA951C;}
	.st4{fill:#27221F;}
	.st5{fill:#221D1A;}
	.st6{fill:#1F1A17;}
	.st7{fill:#211D1A;}
	.st8{fill:#231F1C;}
	.st9{fill:#211C19;}
	.st10{fill:#231E1B;}
	.st11{fill:#E3A41C;}
	.st12{fill:#DF9E1C;}
	.st13{fill:#D79021;}
	.st14{fill:#DC981D;}
	.st15{fill:#EEB622;}
	.st16{fill:#F7C421;}
	.st17{fill:#DE9B1D;}
	.st18{fill:#322D2A;}
	.st19{fill:#383431;}
	.st20{fill:#DF9E25;}
	.st21{fill:#EAAF1E;}
	.st22{fill:#EEB51E;}
	.st23{fill:#D8911C;}
</style>
<g>
	<path class="st0" d="M9.8,42.4c-1.5-1.8-2.4-3.9-3.1-6.1c-0.2-0.6-0.4-1.1-0.5-1.8c-0.5-0.1-1.1-0.1-1.6-0.2
		C2.9,34,2.3,33.4,2,31.7c-0.1-0.7-0.2-1.4-0.3-2.2c-0.4-0.1-0.7-0.1-1.1-0.2c0-0.1,0-0.1,0-0.2c0.3-0.1,0.6-0.3,1.2-0.5
		c-0.6-0.2-1-0.3-1.4-0.4c0-0.1,0-0.2,0-0.2c0.3-0.1,0.6-0.3,1.1-0.4c-0.4-0.4-0.9-0.3-1.3-0.3c0-0.2,0-0.3,0-0.5c0.6,0,1.1,0,1.7,0
		c0.8,0,1.1,0.3,1.2,1.1c0.2,0.9,0.3,1.8,0.5,2.7c0.2,1.5,0.7,1.8,2.4,1.6c0-0.2,0-0.5,0-0.7c-0.7-6.3,1-12,4.8-17
		c1.5-1.9,3.2-3.6,5.3-4.8c-0.1,0.2-0.1,0.6-0.3,0.7c-0.8,0.5-1.3,1.3-1.8,2c-0.6,0.7-1.3,1.4-1.9,2.2c-0.5,0.7-0.8,1.4-1.2,2.1
		c-1.1,1.4-1.6,3.1-2.1,4.8c0,0.2,0,0.3,0,0.5c-0.6,1.5-0.7,3.1-0.7,4.6c0,0.8,0,1.6,0,2.4c0,2.4,0.6,4.7,1.4,6.9
		c0.3,0.8,0.6,1.6,1,2.4c-0.1,0.1-0.2,0.3-0.2,0.4C10.2,39.9,10.2,41.2,9.8,42.4z"/>
	<path class="st1" d="M28.6,46.4c1.5,0,3.1,0.3,4.6,0.1c1-0.2,2-0.3,3-0.5c0.1,0.9,0.6,1.6,1.2,2.1c-1.1,0.7-1.7,1.7-1.4,3
		c0,0.1,0,0.2,0,0.4c-1.3,0.3-2.6,0.7-3.9,1c-0.2,0-0.5,0-0.7,0c-0.2,0.1-0.5,0.2-0.7,0.2c-0.5,0-1,0-1.4,0c0-0.8,0-1.5,0-2.3
		c-0.4-0.2-0.8-0.4-1.2-0.6c0.1-0.1,0.1-0.3,0.2-0.4c0.9-0.5,0.9-0.5,0.6-1.5C28.7,47.4,28.7,46.9,28.6,46.4z"/>
	<path class="st2" d="M28.1,49.8c0.4,0.2,0.8,0.4,1.2,0.6c0,0.8,0,1.5,0,2.3c-0.6,0-1.1,0-1.7,0c-0.5-0.1-1-0.1-1.4-0.2
		c-1.1-0.3-2.2-0.5-3.4-0.8c0-1,0-1.9,0-2.9c0.4,0.1,0.8,0.2,1.1,0.2C25.3,49.3,26.7,49.6,28.1,49.8z"/>
	<path class="st0" d="M30.7,52.7c0.2-0.1,0.5-0.2,0.7-0.2c0,0.1,0,0.2,0,0.2C31.2,52.7,31,52.7,30.7,52.7z"/>
	<path class="st3" d="M8.4,21.5c0.5-1.7,1.1-3.4,2.1-4.8c0.6,0.3,0.8,0.8,1,1.4c0.9,2.9,1.9,5.7,2.8,8.6c0.1,0.4,0.2,0.8,0.7,0.8
		c-0.3,1.6-0.2,3.1-0.2,4.7c1.5,0,1.9-0.3,2.1-1.5c0.2-1,0.3-1.9,0.5-2.9c0.8,0.4,0.9,1.3,1.2,2c-0.1,0.8-0.2,1.7-0.4,2.5
		c-0.2,1.1-0.9,1.8-2,2.1c-0.3,0.1-0.6,0.2-1,0.3c0.9,3.1,2.4,5.7,4.8,7.8c0.3,0.3,0.6,0.6,1,0.9c0,0.3,0.1,0.6,0.1,0.9
		c0.3,0.9,0.6,1.9,0.9,2.8c0.2,0.5,0.3,1.1-0.4,1.4c-0.5-0.2-1-0.3-1.4-0.5c-1.5-0.7-2.9-1.4-4.1-2.6c0.2-1.4-0.4-2.7-0.8-4
		c-0.9-2.7-1.8-5.4-2.7-8.1c-1.3-3.9-2.5-7.7-3.7-11.6C8.8,21.5,8.6,21.5,8.4,21.5z"/>
	<path class="st4" d="M75.9,45.9c-0.8,0-1.5,0.1-2.3,0.1c-1.4-3-2.9-5.9-4.3-8.9c-0.1,0-0.1,0-0.2,0.1c0,2.9,0,5.8,0,8.7
		c-0.7,0-1.3,0-2,0c0-6.1,0-12.2,0-18.4c0.6,0,1.3,0,2,0c0,2.7,0,5.5,0,8.2c0.1,0,0.1,0,0.2,0.1c1.3-2.8,2.5-5.5,3.8-8.3
		c0.7,0,1.4,0,2.3,0c-1.5,3-2.9,5.9-4.4,8.8C72.6,39.5,74.2,42.7,75.9,45.9z"/>
	<path class="st5" d="M137.3,45.9c0,1.7,0,3.3,0,5c-0.7,0-1.3,0-2,0c-0.3-6.5,0.3-13-0.4-19.6c0.7,0,1.5-0.5,2,0.3
		c0.7-0.2,1.4-0.5,2.2-0.6c1.1-0.1,2.1,0.4,2.5,1.4c0.4,1,0.8,2.1,0.9,3.2c0.2,2.5,0.3,5-0.4,7.5c-0.1,0.3-0.2,0.6-0.3,0.9
		C141,46,139.5,46.7,137.3,45.9z M137.3,44c1.5,1,2.6,0.7,2.8-1c0.3-2,0.3-4,0.4-5.9c0-0.9-0.1-1.9-0.3-2.8c-0.4-1.7-1.4-2-2.8-0.9
		C137.3,36.9,137.3,40.4,137.3,44z"/>
	<path class="st6" d="M109.4,31.4c0.8,0,1.3,0,2,0c0,4.3,0,8.6,0,12.9c0.6,0,1,0.1,1.6,0.1c0,1.6,0,3.1,0,4.7c-0.6,0-1.2,0-1.9,0
		c0-1,0-1.9,0-3c-2.3,0-4.4,0-6.7,0c0-5,0-9.8,0-14.7c0.6,0,1.2,0,1.9,0c0,4.3,0,8.5,0,12.9c1.1,0,2,0,3.1,0
		C109.4,40,109.4,35.7,109.4,31.4z"/>
	<path class="st7" d="M92.9,31.4c0,4.8,0,9.7,0,14.6c-0.6,0-1.2,0-1.9,0c0-4.3,0-8.5,0-12.8c-0.6,0-1.1,0-1.7,0
		c-0.1,0.6-0.2,1.3-0.2,1.9c-0.2,2.4-0.3,4.9-0.5,7.3c-0.1,0.7-0.2,1.3-0.4,2c-0.5,1.5-1.2,1.9-2.8,1.9c-0.2-0.5-0.4-1.1-0.5-1.6
		c1.5-0.4,1.8-0.8,1.9-2.4c0.3-3.6,0.5-7.2,0.8-10.9C89.3,31.4,91.1,31.4,92.9,31.4z"/>
	<path class="st8" d="M114.3,37.6c0.2-1.1,0.2-2.5,0.6-3.8c0.4-1.6,1.8-2.7,3.4-2.7c1,0,1.8,0.3,2.2,1.1c0.4,0.9,0.9,1.8,1.1,2.7
		c0.5,2.7,0.5,5.4-0.2,8.1c-0.2,0.6-0.4,1.2-0.7,1.8c-0.7,1.2-1.8,1.6-3.1,1.5c-1.3-0.1-2-0.8-2.5-1.9c-0.8-2-0.6-4.2-0.8-6.6
		C114.3,37.7,114.3,37.6,114.3,37.6z M119.9,38.5C119.8,38.5,119.9,38.5,119.9,38.5c0-0.9,0-1.8-0.1-2.6c-0.1-0.9-0.3-1.8-0.7-2.6
		c-0.4-0.8-1.4-0.8-1.9,0c-0.2,0.4-0.5,0.9-0.5,1.3c-0.1,2.2-0.2,4.4-0.2,6.6c0,0.9,0.3,1.9,0.7,2.7c0.4,0.9,1.4,0.9,2,0
		c0.2-0.3,0.3-0.7,0.4-1.1C119.7,41.4,119.7,40,119.9,38.5z"/>
	<path class="st4" d="M167.6,36.7c0-1,0-1.9-0.2-2.8c-0.1-0.9-0.9-1.3-1.8-1.1c-0.5,0.1-1.1,0.3-1.7,0.6c-0.2-0.5-0.4-1-0.6-1.5
		c1.1-0.6,2.3-0.9,3.6-0.9c1.3,0.1,2.2,0.8,2.5,2c0.1,0.7,0.2,1.4,0.2,2.1c0,2.5,0,5,0,7.5c0,1,0,2.1,0,3.2c-0.4,0-1,0-1.6,0
		c-0.1-0.2-0.1-0.4-0.1-0.6c-0.1,0.1-0.2,0.1-0.3,0.2c-2,1.4-4,0.8-4.6-1.6c-0.5-1.6-0.4-3.2,0.1-4.8c0.6-1.8,1.9-2.6,3.7-2.5
		C167,36.7,167.2,36.7,167.6,36.7z M167.6,38.6c-1.6-0.7-2.6,0.4-2.7,1.5c-0.1,0.9-0.1,1.9,0,2.9c0,0.3,0.2,0.7,0.3,1
		c0.3,0.5,0.9,0.7,1.6,0.5c0.6-0.2,0.8-0.5,0.8-1.1C167.6,41.8,167.6,40.2,167.6,38.6z"/>
	<path class="st8" d="M84,38.8c-0.2,1.6-0.2,3-0.5,4.6c-0.1,0.5-0.4,1-0.6,1.4c-0.7,1.2-1.8,1.6-3.2,1.5c-1.2-0.1-2-0.8-2.4-1.9
		c-0.3-1-0.6-2-0.7-3c-0.2-2.5-0.3-5.1,0.4-7.6c0.3-1,0.7-2,1.7-2.4c1.8-0.7,3.7-0.4,4.4,1.7c0.4,1,0.6,2.1,0.7,3.2
		c0.1,0.7,0,1.5,0,2.3C84,38.7,84,38.8,84,38.8z M82.1,38.3c-0.1-1.1-0.2-2.6-0.5-4c-0.2-1.1-0.7-1.6-1.4-1.6
		c-0.6,0-1.1,0.5-1.3,1.6c-0.6,2.8-0.5,5.5-0.1,8.3c0.1,0.4,0.2,0.8,0.4,1.2c0.2,0.4,0.5,0.7,1,0.7c0.6,0,0.9-0.3,1.1-0.8
		c0.2-0.5,0.4-1,0.4-1.5C81.9,41.1,82,39.9,82.1,38.3z"/>
	<path class="st9" d="M155.2,31.3c1.9,0,3.7,0,5.5,0c0,4.9,0,9.7,0,14.6c-0.6,0-1.2,0-1.9,0c0-4.3,0-8.6,0-12.9c-0.6,0-1.2,0-1.8,0
		c-0.1,1.1-0.2,2.2-0.3,3.3c-0.1,1.6-0.2,3.1-0.3,4.7c-0.1,1.1-0.2,2.1-0.5,3.2c-0.4,1.4-1.2,1.9-2.8,2c-0.2-0.5-0.4-1-0.6-1.7
		c1.3-0.1,1.8-0.8,1.8-2c0.1-1.8,0.3-3.5,0.4-5.2C154.9,35.3,155.1,33.4,155.2,31.3z"/>
	<path class="st8" d="M125.7,27.5c0.7,0,1.4,0,2.1,0c0.7,3.5,1.4,7,2.2,10.7c0.7-3.7,1.4-7.2,2-10.7c0.6,0,1.2,0,1.9,0
		c-0.1,0.6-0.2,1.3-0.3,1.9c-0.9,4.4-1.9,8.8-2.8,13.2c-0.1,0.4-0.2,0.9-0.3,1.3c-0.7,2.1-1.7,2.6-3.5,2.4c-0.2-0.5-0.4-1-0.5-1.5
		c0.1-0.1,0.1-0.1,0.1-0.1c0.7-0.2,1.6-0.1,2-0.9c0.4-0.9,0.8-1.9,0.5-3c-1.1-4.2-2.1-8.4-3.2-12.6
		C125.8,27.9,125.8,27.8,125.7,27.5z"/>
	<path class="st10" d="M151.4,45.9c-0.6,0-1.1,0-1.7,0c-0.1-0.2-0.1-0.4-0.2-0.4c-0.7,0.3-1.5,0.6-2.2,0.7c-1,0.1-1.8-0.4-2.3-1.2
		c-1.1-2.3-1.1-4.6,0.1-6.9c0.6-1.1,1.7-1.5,2.9-1.5c0.3,0,0.7,0.1,1.1,0.1c0.2-1,0.1-2-0.1-2.9c-0.2-0.8-0.9-1.2-1.8-1
		c-0.6,0.2-1.1,0.4-1.7,0.6c-0.2-0.5-0.4-1-0.6-1.5c1.2-0.6,2.4-1,3.7-0.8c1.1,0.1,2,0.8,2.2,1.8c0.2,0.6,0.2,1.3,0.3,2
		c0,2.7,0,5.4,0,8.1C151.2,44,151.3,44.9,151.4,45.9z M149.2,38.6c-1.6-0.5-2.6,0-2.8,1.6c-0.1,0.9,0,1.8,0,2.7
		c0,0.3,0.1,0.6,0.3,0.9c0.3,0.6,0.8,0.8,1.5,0.7c0.7-0.1,1-0.5,1-1.2C149.2,41.8,149.2,40.2,149.2,38.6z"/>
	<path class="st11" d="M27.4,15.7c-1.8,0.3-3.6,1-5.2,1.8c-0.1-0.2-0.2-0.3-0.3-0.5c-0.8-2.4-1.6-4.9-2.4-7.3
		C19.2,9,19,8.3,18.2,8.3c1.9-1.2,4-2,6.3-2.3c0.8,2.6,1.7,5.1,2.5,7.7C27.2,14.3,27.2,15,27.4,15.7z"/>
	<path class="st12" d="M18.2,8.3c0.8,0.1,1,0.7,1.3,1.4c0.8,2.4,1.6,4.9,2.4,7.3c0.1,0.2,0.2,0.3,0.3,0.5c-1.8,1.2-3.5,2.6-4.8,4.4
		c-0.1-0.1-0.2-0.3-0.2-0.4c-0.8-2.6-1.6-5.3-2.5-7.9c-0.2-0.5-0.2-1.1-1-1.2c0.6-0.7,1-1.5,1.8-2c0.2-0.1,0.2-0.5,0.3-0.7
		c0.1-0.1,0.2-0.1,0.3-0.2c0.2-0.1,0.3-0.2,0.5-0.3C17.1,8.9,17.6,8.6,18.2,8.3z"/>
	<path class="st2" d="M27.4,15.7c-0.1-0.7-0.1-1.4-0.4-2.1c-0.8-2.6-1.7-5.1-2.5-7.7c2.4-0.7,4.8-0.6,7.2-0.4
		c0.7,0.1,1.5,0.3,2.4,0.4c-1.7,1.7-3.3,3.3-5,5c1.6,1.7,3.1,3.3,4.9,5.1C31.6,15.6,29.5,15.3,27.4,15.7z M29,6.5
		c-0.4,0.4-0.7,0.7-0.8,0.9C28.5,8,28.7,8.4,29,8.8c0.5-0.5,0.8-0.8,1.2-1.2C29.8,7.2,29.4,6.9,29,6.5z"/>
	<path class="st8" d="M95.6,31.3c0.7,0,1.2,0,1.9,0c0,1.7,0,3.5,0,5.3c0.4,0,0.8,0,1.1,0c1.9,0,3.2,1,3.7,2.9c0.5,2,0.2,3.8-1.2,5.3
		c-0.6,0.6-1.3,1-2.1,1.1c-1.1,0.1-2.2,0-3.4,0C95.6,41.1,95.6,36.3,95.6,31.3z M97.5,44.2c1.7,0.2,2.3-0.1,2.6-1.4
		c0.2-1,0.2-2.1,0-3c-0.3-1.3-1.5-1.7-2.6-1.1C97.5,40.5,97.5,42.3,97.5,44.2z"/>
	<path class="st13" d="M44.3,16.9c-0.4-0.4-0.8-0.8-1.1-1.2c0-0.2,0-0.5-0.1-0.7c0.3,0.2,0.7,0.3,1,0.6c3.5,3,5.9,6.8,6.9,11.3
		c0.3,1.3,0.3,2.7,0.4,4c0,0.4,0,0.8,0,1.2c1.5,0.2,1.9-0.1,2.1-1.3c0.2-0.9,0.3-1.7,0.5-2.6c0.2-1.2,0.4-1.5,1.7-1.5
		c0.4,0,0.8,0,1.1,0c0,0.1,0,0.2,0.1,0.3c-0.4,0.1-0.8,0.3-1.4,0.4c0.5,0.2,0.8,0.4,1.1,0.5c0,0.1,0,0.2,0,0.3
		c-0.4,0.1-0.7,0.2-1.3,0.3c0.5,0.2,0.8,0.4,1.3,0.6c-0.5,0.1-0.8,0.2-1.2,0.3c-0.1,0.6-0.3,1.2-0.4,1.9c-0.2,1.8-0.6,2.7-3.2,3
		c-0.2,0-0.4,0-0.6,0.1c-0.6,2.4-1.3,4.9-2.7,7c-0.1-0.4-0.2-0.8-0.3-1.3c-0.1-0.5-0.2-1.1-0.2-1.6c0.7-2,1.5-4,1.8-6.1
		c0.3-2.2,0.3-4.4-0.2-6.5c-0.7-3.1-2.2-5.8-4.2-8.3C45.2,17.3,44.7,17.2,44.3,16.9z"/>
	<path class="st14" d="M13.7,12.4c0.7,0,0.8,0.6,1,1.2c0.8,2.6,1.6,5.3,2.5,7.9c0,0.1,0.1,0.3,0.2,0.4c-1,1.8-1.8,3.6-2.3,5.7
		c-0.5,0-0.6-0.4-0.7-0.8c-0.9-2.9-1.9-5.7-2.8-8.6c-0.2-0.6-0.4-1.1-1-1.4c0.4-0.7,0.7-1.5,1.2-2.1C12.3,13.8,13,13.1,13.7,12.4z"
		/>
	<path class="st15" d="M44.3,16.9c0.4,0.2,0.8,0.3,1.1,0.7c2,2.5,3.5,5.2,4.2,8.3c0.5,2.1,0.5,4.3,0.2,6.5c-0.2,2.2-1.1,4.1-1.8,6.1
		c-0.1,0.2-0.2,0.3-0.3,0.5c-0.7,1-1.4,1.9-2.1,2.9c-0.7,0-0.8-0.7-1-1.1c1.3-1.8,2.6-3.7,3.3-5.9c0-0.1,0-0.2,0.1-0.3
		c-0.1,0-0.1-0.1-0.1-0.1c-2.4-0.6-2.8-1-3.2-3.5c-0.1-0.5-0.2-1-0.3-1.4c-0.4-0.3-1,0.1-1.2-0.6c0.3-0.1,0.6-0.2,0.9-0.4
		c-0.3-0.3-1,0.1-0.9-0.7c0.3-0.1,0.5-0.1,0.8-0.2c-0.2-0.5-1.1,0.2-1-0.9c0.6,0,1.3,0,1.9,0c0.6,0.1,0.8,0.6,0.9,1.1
		c0.2,0.9,0.3,1.9,0.5,2.8c0.2,1.3,0.8,1.6,2.3,1.4c0.1-1.2,0.3-2.4,0.3-3.6c-0.2-3.7-1.3-7.1-3.5-10.1C45,17.9,44.7,17.4,44.3,16.9
		z"/>
	<path class="st16" d="M24.1,0c1,0.8,1.8,1.6,2.8,2.4c0.7-0.8,1.4-1.6,2.2-2.4c0.7,0.8,1.4,1.6,2.2,2.4c0.9-0.8,1.8-1.6,2.8-2.4
		c0,1.6,0,2.9,0,4.3C32.3,4.2,30.7,4,29,4c-1.6,0-3.2,0.2-4.9,0.4C24.1,3,24.1,1.6,24.1,0z"/>
	<path class="st17" d="M21.8,48.4c0.7-0.3,0.5-0.9,0.4-1.4c-0.3-0.9-0.6-1.9-0.9-2.8c-0.1-0.3-0.1-0.6-0.1-0.9
		c2.3,1.6,4.7,2.6,7.4,3.2c0.1,0.5,0.1,1,0.3,1.5c0.3,1,0.3,1-0.6,1.5c-0.1,0.1-0.1,0.3-0.2,0.4c-1.4-0.2-2.8-0.5-4.1-0.7
		c-0.4-0.1-0.8-0.2-1.1-0.2C22.5,48.7,22.2,48.5,21.8,48.4z"/>
	<path class="st18" d="M67.1,13.5c1.3,0,2.4,0,3.7,0c0,0.3,0,0.5,0,0.8c-0.9,0-1.7,0-2.6,0c0,0.9,0,1.8,0,2.7c0.4,0,0.7,0,1,0
		c1.1,0.1,1.9,0.7,2,1.8c0.1,0.8,0.1,1.6,0,2.4c-0.2,1.4-1.2,2.1-2.6,2.2c-0.5,0-1,0-1.5,0C67.1,20.1,67.1,16.8,67.1,13.5z M68.2,18
		c0,1.4,0,2.9,0,4.4c1.2,0.1,1.7-0.2,1.9-1.3c0.1-0.6,0.1-1.2,0-1.8C69.9,18.1,69.5,17.9,68.2,18z"/>
	<path class="st2" d="M44.6,40.8c0.3,0.4,0.3,1.1,1,1.1c-0.7,1.3-1.8,2.2-2.9,3.1c-1.6,1.3-3.3,2.4-5.3,3.1
		c-0.6-0.6-1.1-1.2-1.2-2.1c2.1-0.7,4.1-1.6,5.8-2.9C42.9,42.3,43.7,41.5,44.6,40.8z"/>
	<path class="st4" d="M78.5,23.3c-0.5,0-0.7,0-1.1,0c0-2.6,0-5.1,0-7.8c0.3,0,0.6,0,1-0.1c0,1.1,0,2.1,0,3.2c0.6,0,1.1,0,1.6,0
		c0-1,0-2,0-3.1c0.4,0,0.7,0,1.1,0c0,2.6,0,5.2,0,7.8c-0.3,0-0.6,0-1,0c0-1.2,0-2.5,0-3.7c-0.6,0-1.1,0-1.6,0
		C78.5,20.8,78.5,22,78.5,23.3z"/>
	<path class="st3" d="M42.7,45c1.1-1,2.2-1.8,2.9-3.1c0.7-1,1.4-1.9,2.1-2.9c0.1-0.2,0.2-0.3,0.3-0.5c0.1,0.5,0.2,1.1,0.2,1.6
		c0.1,0.4,0.2,0.8,0.3,1.3c-1.4,2.7-3.3,4.9-5.8,6.6C42.4,47,42.8,46,42.7,45z"/>
	<path class="st17" d="M42.7,45c0,1-0.3,2,0,3c-2,1.6-4.2,2.8-6.7,3.5c0-0.1,0-0.2,0-0.4c-0.2-1.4,0.3-2.3,1.4-3
		C39.4,47.4,41.1,46.3,42.7,45z"/>
	<path class="st18" d="M74.9,18.3c0.1-2.1,0-2.2-1.8-1.8c-0.1-0.2-0.2-0.4-0.4-0.6c0.1-0.1,0.2-0.2,0.3-0.2c0.1-0.1,0.2-0.1,0.3-0.1
		c1.8-0.4,2.6-0.2,2.7,1.8c0.1,1.9,0,3.9,0,6c-0.7-0.1-1.4-0.1-2.2,0.1c-0.6,0.1-1.1-0.3-1.3-0.9c-0.4-1-0.4-2.1,0-3.1
		C73,18.4,73.9,18.3,74.9,18.3z M74.9,19.4c-1.1,0-1.3,0.2-1.4,1c0,0.4,0,0.9,0,1.3c0.1,0.9,0.5,1,1.4,0.6
		C74.9,21.3,74.9,20.4,74.9,19.4z"/>
	<path class="st19" d="M82.6,15.5c0.4,0,0.6,0,1,0c0,1,0,2,0,3c0.1,0,0.1,0,0.2,0c0.5-1,1-2,1.6-3.1c0.3,0,0.7,0,1.1,0
		c-0.7,1.2-1.3,2.4-1.9,3.5c0.7,1.4,1.4,2.8,2.1,4.2c-0.5,0.1-0.8,0.1-1.1,0.1c-0.6-1.2-1.2-2.4-1.8-3.6c-0.1,0-0.2,0-0.2,0.1
		c0,1.1,0,2.3,0,3.5c-0.4,0-0.7,0-1,0C82.6,20.7,82.6,18.2,82.6,15.5z"/>
	<path class="st20" d="M18.8,29.7c-0.3-0.7-0.4-1.6-1.2-2c0-0.6,0.4-0.9,1-1c0.6,0,1.2,0,1.8,0c0.1,1-0.8,0.5-1.1,0.9
		c0.3,0.1,0.6,0.1,0.9,0.2c0,0.2,0,0.3,0,0.5c-0.4,0-0.7,0.1-1.1,0.1c0.4,0.2,0.7,0.3,1.2,0.6C19.6,29.4,19.2,29.6,18.8,29.7z"/>
	<path class="st15" d="M43.1,15.1c0,0.2,0,0.5,0.1,0.7c-1.4-1-2.8-2-4.2-3c-0.1-0.1-0.2-0.3-0.3-0.4l0,0
		C40.3,12.9,41.9,13.7,43.1,15.1z"/>
	<path class="st15" d="M38.6,12.4c-0.2-0.1-0.5-0.2-0.7-0.2l0,0C38.2,12.2,38.4,12.3,38.6,12.4L38.6,12.4z"/>
	<path class="st0" d="M16.5,9.2c-0.2,0.1-0.3,0.2-0.5,0.3C16.2,9.4,16.4,9.3,16.5,9.2z"/>
	<path class="st15" d="M37.9,12.1c-0.1,0-0.3,0-0.4-0.1c0,0,0-0.1,0.1-0.1C37.7,12,37.8,12.1,37.9,12.1L37.9,12.1z"/>
	<path class="st21" d="M21.8,48.4c0.3,0.2,0.6,0.3,1,0.5c0,1,0,1.9,0,2.9c-3-0.7-5.6-2.1-8-4c0.1-0.2,0.3-0.5,0.3-0.7
		c0-0.9-0.1-1.8-0.2-2.7c0.5,0.3,1,0.6,1.4,1c1.2,1.2,2.6,1.9,4.1,2.6C20.9,48.1,21.4,48.2,21.8,48.4z"/>
	<path class="st22" d="M14.9,44.3c0.1,0.9,0.2,1.8,0.2,2.7c0,0.2-0.2,0.5-0.3,0.7c-2-1.4-3.7-3.2-5-5.3c0.3-1.2,0.4-2.5,0.1-3.8
		c0-0.1,0.1-0.2,0.2-0.4c0.1,0.1,0.2,0.2,0.2,0.2c1.2,2,2.5,3.8,4.2,5.3C14.7,43.9,14.8,44.1,14.9,44.3z"/>
	<path class="st23" d="M14.9,44.3c-0.1-0.2-0.2-0.3-0.4-0.5c-1.7-1.5-3-3.3-4.2-5.3c-0.1-0.1-0.2-0.2-0.2-0.2
		c-0.3-0.8-0.7-1.6-1-2.4c-0.8-2.2-1.4-4.5-1.4-6.9c0-0.8,0-1.6,0-2.4c0-1.6,0.1-3.1,0.7-4.6c0.1-0.1,0-0.3,0-0.5c0.2,0,0.4,0,0.7,0
		c1.2,3.9,2.5,7.7,3.7,11.6c0.9,2.7,1.8,5.4,2.7,8.1c0.4,1.3,1,2.6,0.8,4C15.8,44.9,15.4,44.6,14.9,44.3z"/>
</g>
</svg>
