<?xml version="1.0" encoding="utf-8"?>
<!-- Generator: Adobe Illustrator 23.0.1, SVG Export Plug-In . SVG Version: 6.00 Build 0)  -->
<svg version="1.1" id="Layer_1" xmlns="http://www.w3.org/2000/svg" xmlns:xlink="http://www.w3.org/1999/xlink" x="0px" y="0px"
	 viewBox="0 0 369 58" style="enable-background:new 0 0 369 58;" xml:space="preserve">
<style type="text/css">
	.st0{fill:#A0A0A0;}
</style>
<g>
	<path class="st0" d="M29.8,1.2c15.4,0,27.9,12.6,27.9,27.9c0,15.4-12.6,28-28.1,27.9c-15.9-0.1-28-13-27.9-28.2
		C1.9,13.6,14.4,1.2,29.8,1.2z M10.9,29.2c-0.3,3.9,0.5,7.6,2.6,11c1.9,3.2,4.6,5.5,8,6.9c2,0.8,3.8-0.4,3.6-2.4
		c-0.1-1-0.8-1.6-1.6-2.1c-3.3-1.9-5.1-4.8-5.1-8.6c0-3.3,0-6.6,0-9.8c0-3.8,1.7-6.7,5-8.5c1.6-0.9,2.1-2.1,1.4-3.4
		c-0.6-1.3-1.9-1.7-3.5-1c-2.9,1.2-5.3,3.1-7.1,5.7C11.7,20.6,10.6,24.7,10.9,29.2z M48.6,29.5c0-1.9,0-3.4-0.3-4.9
		c-1.2-6.1-4.5-10.7-10.2-13.3C37.6,11,37,10.8,36.3,11c-1,0.3-1.7,0.8-1.8,1.8c-0.2,1.2,0.3,2.2,1.4,2.8c3.6,1.9,5.3,5,5.3,9.1
		c0,3,0,6.1,0,9.1c0,4-1.7,7.1-5.3,9c-1.4,0.7-1.8,2-1.2,3.3c0.6,1.2,1.9,1.6,3.3,1c2.6-1.1,4.8-2.7,6.6-4.9
		C47.7,38.4,48.9,34,48.6,29.5z"/>
	<path class="st0" d="M158.3,38.7c0,4.2-0.1,8,0,11.9c0,1.2-0.3,1.6-1.5,1.5c-1.2-0.2-2.9,0.5-3.6-0.3c-0.6-0.7-0.2-2.3-0.2-3.5
		c0-8.8,0-17.5,0-26.3c0-1.5-0.4-2.8-2-3.3c-0.7-0.2-0.5-0.8-0.4-1.2c0-0.6,0.5-0.4,0.8-0.4c1.8,0,3.6,0.1,5.4,0
		c1.1,0,1.6,0.2,1.4,1.4c-0.1,0.3,0,0.6,0,1.1c2.8-2.6,5.9-3.2,9.3-2.6c4.3,0.8,7,3.4,8,7.6c0.8,3.2,0.8,6.4-0.3,9.6
		c-1.8,5.1-7.1,8.1-12.4,7.2C161.2,41,159.8,40.2,158.3,38.7z M158.3,29.3c0,1.5,0,3,0,4.4c-0.1,1.4,0.5,2.5,1.4,3.4
		c1.8,1.7,3.9,2.3,6.3,1.6c2.3-0.7,3.6-2.4,3.9-4.7c0.3-3.4,0.4-6.8,0-10.1c-0.4-3.2-2.9-4.9-6.3-4.6c-2.8,0.2-5.2,2.8-5.2,5.6
		C158.3,26.3,158.3,27.8,158.3,29.3z"/>
	<path class="st0" d="M244.7,34c4-5.4,7.8-10.5,11.6-15.6c0.3-0.5,0.5-1.2,1.2-1.3c1.1-0.1,2.2-0.1,3.2,0c0.6,0.1,0.3,0.7,0.3,1
		c0,4.8,0,9.6,0,14.4c0,2.6,0,5.1,0,7.7c0,0.7-0.2,0.9-0.9,0.9c-1.1-0.1-2.2-0.1-3.2,0c-0.8,0.1-1-0.2-1-1c0-4.8,0-9.5,0-14.3
		c0-0.3,0.1-0.7-0.1-1c-0.5,0.2-0.6,0.6-0.9,0.9c-3.5,4.7-7,9.3-10.5,14c-0.7,1-1.5,1.4-2.7,1.4c-2.1-0.1-2.1,0-2.1-2.1
		c0-5.6,0-11.3,0-16.9c0-1.6-0.4-2.9-2-3.5c-0.6-0.2-0.4-0.6-0.4-1c0-0.6,0.4-0.5,0.8-0.5c1.8,0,3.7,0,5.5,0c0.9,0,1.2,0.2,1.2,1.2
		c-0.1,4.7,0,9.4,0,14.2C244.7,32.8,244.7,33.2,244.7,34z"/>
	<path class="st0" d="M99.1,29.4c0.5,7-5.9,12.2-12.8,12.2c-7.4,0-13-5.9-12.8-12.4c0.3-7.3,5.2-12.3,12.7-12.4
		C93.6,16.7,99.4,22,99.1,29.4z M92.8,29.1C92.8,29.1,92.8,29.1,92.8,29.1c0-1.4,0.1-2.8,0-4.2c-0.2-3.4-3-5.8-6.6-5.8
		c-3.5,0.1-6.3,2.6-6.4,5.9c-0.1,2.7-0.1,5.4,0,8.1c0.1,3.5,2.9,6.1,6.4,6.1c3.6,0,6.4-2.5,6.6-6.1C92.9,31.8,92.8,30.4,92.8,29.1z"
		/>
	<path class="st0" d="M138.8,28.3c1.3,0.8,2,2,2.7,3.2c1.1,2,2.2,4,3.3,6c0.5,0.9,1,1.7,2,1.9c0.8,0.2,0.4,0.8,0.5,1.3
		c0.1,0.6-0.4,0.5-0.7,0.5c-1.7,0-3.4,0-5.2,0c-0.6,0-0.8-0.3-1.1-0.7c-1.3-2.6-2.7-5.2-4.1-7.7c-0.4-0.8-0.9-1.5-1.5-2.2
		c-0.9-1-2-1-3.1-0.9c-0.6,0-0.4,0.6-0.4,0.9c0,3.2,0,6.4,0,9.6c0,0.8-0.2,1.1-1,1c-1.1-0.1-2.2-0.1-3.2,0c-0.8,0.1-1-0.2-1-1
		c0-5.7,0-11.4,0-17.2c0-1.9,0-3.7-2.3-4.3c-0.5-0.2-0.3-0.7-0.3-1.1c0-0.5,0.4-0.4,0.7-0.4c2.1,0,4.2,0,6.2,0c0.8,0,0.8,0.4,0.8,1
		c0,2.6,0,5.3,0,7.9c0,0.8,0.1,1.1,1.1,1.2c1.9,0.1,3.1-0.8,4-2.3c1.2-1.9,2.3-3.9,3.3-6c0.6-1.3,1.4-2,3-1.8c1.1,0.1,2.2,0,3.4,0
		c0.4,0,0.8-0.1,0.8,0.5c0,0.4,0.3,1-0.4,1.2c-1.6,0.4-2.3,1.6-3.1,2.9c-0.6,1-1.1,2.1-1.7,3.2C140.8,26.1,140,27.3,138.8,28.3z"/>
	<path class="st0" d="M288.6,36c-3,5-9.9,6.9-15.5,4.5c-5.7-2.4-8.5-7.8-7.2-14.1c1.1-5.6,5.9-9.5,11.9-9.6
		c6.6-0.1,11.9,4.7,12.5,11.2c0.1,0.9-0.2,1.1-1,1.1c-5.4,0-10.8,0-16.2,0c-0.9,0-1.3,0.2-1.2,1.2c0.1,1,0,2,0.1,3
		c0.2,3.3,2.6,5.6,5.9,5.9c2.9,0.3,5.5-0.5,7.7-2.4C286.8,35.6,286.8,35.6,288.6,36z M278.1,26.7c1.8,0,3.6,0,5.4,0
		c0.7,0,0.9-0.2,0.9-0.9c0.1-3.7-2.6-6.6-6.2-6.6c-3.6,0-6.3,2.9-6.2,6.6c0,0.6,0.2,0.8,0.8,0.8C274.5,26.7,276.3,26.7,278.1,26.7z"
		/>
	<path class="st0" d="M182.1,30.8c0-3,0-6,0-9c0-1.4-0.4-2.5-1.8-3.1c-0.7-0.2-0.5-0.8-0.4-1.2c0-0.6,0.5-0.4,0.8-0.4
		c1.9,0,3.8,0,5.8,0c0.9,0,1,0.3,1,1c0,2.2,0,4.4,0,6.6c0,1.7-0.2,1.5,1.6,1.5c2.1,0,4.2-0.1,6.3,0.1c4.4,0.5,6.5,3.2,6.4,8.1
		c-0.1,3.6-2.9,6.4-6.8,6.5c-4,0.1-8.1,0-12.1,0.1c-0.8,0-0.8-0.5-0.8-1C182.1,37,182.1,33.9,182.1,30.8z M187.4,33.7
		c0,1.4,0,2.7,0,4.1c0,0.7,0.1,1,0.9,1c1.2-0.1,2.3,0,3.5,0c2.1-0.1,4-1.7,4.3-3.8c0.5-2.6-0.6-5-2.6-5.9c-0.4-0.2-0.9-0.3-1.4-0.3
		c-1.3-0.1-2.6,0-4-0.1c-0.6,0-0.7,0.3-0.7,0.8C187.4,30.9,187.4,32.3,187.4,33.7z"/>
	<path class="st0" d="M226.5,30.4c0,3.3,0,6.6,0,9.8c0,0.8-0.2,1-0.9,0.9c-1-0.1-2-0.1-3,0c-1,0.1-1.4-0.2-1.3-1.3
		c0.1-6.4,0-12.7,0.1-19.1c0-1-0.2-1.5-1.3-1.3c-0.7,0.1-1.4,0-2.2,0c-1.4-0.1-2.4,0.5-2.8,1.9c-0.2,0.8-0.8,0.5-1.2,0.5
		c-0.7,0-0.4-0.5-0.4-0.9c0-1.2-0.4-2.8,0.2-3.6c0.6-0.8,2.3-0.2,3.5-0.2c5.4,0,10.8,0,16.2,0c0.9,0,1.2,0.2,1.1,1.1
		c-0.1,0.9,0,1.8,0,2.8c0,0.4,0.2,0.9-0.5,0.9c-0.5,0-1,0.2-1.2-0.5c-0.4-1.4-1.5-1.9-2.9-1.8c-0.8,0-1.6,0.1-2.4,0
		c-0.8-0.1-0.9,0.2-0.9,0.9C226.5,23.7,226.5,27.1,226.5,30.4z"/>
	<path class="st0" d="M107.9,30.3c0-3.2,0-6.5,0-9.7c0-0.9-0.3-1.2-1.1-1.1c-0.7,0.1-1.4,0-2.2,0c-1.5-0.1-2.6,0.4-3,1.9
		c-0.2,0.7-0.8,0.4-1.2,0.5c-0.6,0.1-0.5-0.4-0.5-0.7c0-1.1,0-2.2,0-3.2c0-0.7,0.3-0.8,0.9-0.8c6.4,0,12.9,0,19.3,0
		c0.7,0,0.9,0.2,0.9,0.9c0,1,0,2.1,0,3.1c0,0.3,0.1,0.8-0.5,0.8c-0.4,0-1,0.3-1.2-0.4c-0.5-1.6-1.7-2.1-3.3-2
		c-0.9,0.1-2.2-0.4-2.7,0.2c-0.5,0.6-0.2,1.8-0.2,2.8c0,5.8,0,11.7,0,17.5c0,1-0.3,1.2-1.2,1.2c-1-0.1-2.1-0.1-3.1,0
		c-0.8,0.1-1-0.3-1-1C107.9,36.8,107.9,33.6,107.9,30.3z"/>
	<path class="st0" d="M209.7,29.2c0,3.7,0,7.4,0,11c0,0.7-0.1,1-0.9,1c-1.1-0.1-2.2-0.1-3.2,0c-0.8,0.1-1-0.3-1-1
		c0-5.8,0-11.6,0-17.4c0-1.8-0.2-3.4-2.2-4.1c-0.6-0.2-0.3-0.7-0.3-1.2c0-0.5,0.4-0.4,0.7-0.4c2,0,4.1,0,6.1,0c0.8,0,0.7,0.5,0.7,1
		C209.7,21.8,209.7,25.5,209.7,29.2z"/>
	<path class="st0" d="M306.2,29.2c0-8.9,0-17.8,0-26.7c0-0.3,0-0.6,0-0.8c0-0.4,0.2-0.4,0.5-0.4c0.3,0,0.6,0,0.6,0.4
		c0,0.3,0,0.6,0,1c0,17.7,0,35.4,0,53.1c0,0.3,0,0.6,0,1c0,0.4-0.2,0.5-0.6,0.5c-0.3,0-0.5-0.1-0.6-0.5c0-0.3,0-0.6,0-1
		C306.2,46.9,306.2,38.1,306.2,29.2z"/>
	<path class="st0" d="M345.4,29.3c0-1.7,0-3.4,0-5.2c0-0.7,0.2-0.9,0.9-0.9c0.7,0,0.8,0.3,0.8,0.9c0,1.1,0,2.2,0,3.2
		c0,0.6,0.2,0.8,0.8,0.8c1.4,0,2.9,0,4.3,0c0.7,0,0.9-0.3,0.8-0.9c0-1,0-2.1,0-3.1c0-0.7,0.2-0.9,0.9-0.9c0.6,0,0.8,0.2,0.8,0.8
		c0,3.4,0,6.9,0,10.3c0,0.7-0.4,0.7-0.9,0.7c-0.6,0-0.8-0.2-0.8-0.8c0-1.3,0-2.6,0-3.8c0-0.6-0.2-0.8-0.8-0.8c-1.4,0-2.8,0-4.2,0
		c-0.7,0-1,0.2-1,0.9c0.1,1.2,0,2.5,0,3.7c0,0.6-0.2,0.8-0.8,0.8c-0.6,0-0.9-0.1-0.8-0.8C345.4,32.7,345.4,31,345.4,29.3z"/>
	<path class="st0" d="M332.1,35c-0.1-0.1,0-0.1,0-0.2c1.5-3.8,2.8-7.3,4.2-10.9c0.2-0.5,0.5-0.7,1.1-0.7c0.6,0,0.9,0.1,1.2,0.7
		c1.3,3.4,2.7,6.8,4,10.3c0.1,0.2,0.2,0.4,0.2,0.5c0,0.3-0.6,0.3-0.9,0.4c-0.4,0.1-0.7,0-0.8-0.4c-0.2-0.5-0.4-1.1-0.6-1.6
		c-0.2-0.4-0.2-0.9-0.6-1.2c-0.8-0.6-1.9-0.6-2.8-0.5c-0.7,0.1-1.2-0.1-1.8,0.4c-0.7,0.6-1.2,1.8-1.3,2.6c-0.1,1-0.9,0.6-1.6,0.5
		C332.2,35,332.2,35,332.1,35z M337.5,25.2c-0.3,0.9-0.6,1.6-0.9,2.4c-1.1,2.9-1.1,2.9,2.1,2.6c0.6,0,0.7-0.2,0.4-0.7
		C338.5,28.1,338,26.8,337.5,25.2z"/>
	<path class="st0" d="M366.8,34.8c-1.2,0.6-1.9,0.4-2.7-0.6c-1.4-1.7-2.8-3.2-4.5-5.1c0,1.8,0,3.4,0,5c0,0.6,0,1-0.9,1
		c-0.7,0-0.8-0.3-0.8-0.9c0-3.4,0-6.7,0-10.1c0-0.7,0.2-0.9,0.9-0.9c0.7,0,0.8,0.2,0.8,0.8c0,1.4,0,2.8,0,4.5
		c1.4-1.6,2.7-2.8,3.9-4.2c0.8-0.9,1.6-1.3,2.9-0.9c-1.5,1.6-2.8,3.1-4.3,4.6c-0.6,0.6-0.7,1,0,1.7
		C363.8,31.3,365.3,33.1,366.8,34.8z"/>
	<path class="st0" d="M323.2,29.1c0-1.6,0-3.3,0-4.9c0-0.6,0.1-0.9,0.8-0.9c1.5,0.1,3,0.1,4.6,0c0.9,0,0.9,0.4,0.9,1
		c0,0.2,0,0.5-0.3,0.5c-1.3,0.1-2.5-0.3-3.8-0.1c-0.4,0.1-0.6,0.5-0.6,0.9c0,2.3-0.1,2.3,2.2,2.5c2,0.2,3.3,1.3,3.4,3.2
		c0.1,2-1.1,3.5-3.1,3.7c-1.1,0.1-2.3,0-3.5,0.1c-0.6,0-0.6-0.3-0.6-0.8C323.2,32.6,323.2,30.9,323.2,29.1z M326,29.5
		c-0.5,0-1.1,0-1.2,0.5c-0.1,1.1,0,2.2,0,3.2c0,0.1,0.1,0.3,0.2,0.4c1.1,0.8,3.5-0.4,3.7-1.8c0.1-0.5,0-1-0.3-1.5
		c-0.4-0.6-1.2-0.8-1.9-0.8C326.4,29.6,326.2,29.6,326,29.5z"/>
</g>
</svg>
