<?xml version="1.0" encoding="utf-8"?>
<!-- Generator: Adobe Illustrator 23.0.1, SVG Export Plug-In . SVG Version: 6.00 Build 0)  -->
<svg version="1.1" id="Layer_1" xmlns="http://www.w3.org/2000/svg" xmlns:xlink="http://www.w3.org/1999/xlink" x="0px" y="0px"
	 viewBox="0 0 200.6 60" style="enable-background:new 0 0 200.6 60;" xml:space="preserve">
<style type="text/css">
	.st0{fill:#4264A0;}
</style>
<g>
	<g>
		<rect y="57.2" class="st0" width="63.9" height="2.8"/>
		<g>
			<polygon class="st0" points="7.1,25.1 9.4,25.1 9.4,47.2 7.1,47.2 7.1,50 19.3,50 19.3,47.2 17.2,47.2 17.2,25.1 19.3,25.1 
				19.3,22.1 7.1,22.1 			"/>
			<polygon class="st0" points="25.9,25.1 27.9,25.1 27.9,47.2 25.9,47.2 25.9,50 38,50 38,47.2 36,47.2 36,25.1 38,25.1 38,22.1 
				25.9,22.1 			"/>
			<polygon class="st0" points="56.8,25.1 56.8,22.1 44.4,22.1 44.4,25.1 46.7,25.1 46.7,47.2 44.4,47.2 44.4,50 56.8,50 56.8,47.2 
				54.5,47.2 54.5,25.1 			"/>
		</g>
		<rect x="3.9" y="52.3" class="st0" width="56" height="2.8"/>
		<polygon class="st0" points="31.9,0 3.9,12.2 3.9,20.1 31.9,20.1 60,20.1 60,12.2 		"/>
	</g>
	<g>
		<path class="st0" d="M71.9,20h9.9v2.6h-6.6v1.9h3.1c1.4,0,2.5,0.3,3.3,0.9c0.8,0.6,1.1,1.5,1.1,2.6c0,1.2-0.4,2.1-1.3,2.8
			c-0.9,0.7-2.1,1-3.6,1h-5.9V20z M77.6,29.4c0.6,0,1-0.1,1.3-0.3c0.3-0.2,0.4-0.5,0.4-1c0-0.8-0.6-1.2-1.7-1.2h-2.4v2.5H77.6z"/>
		<path class="st0" d="M92.4,29.5h-5l-0.9,2.3h-3.4L88.3,20h3.3l5.2,11.8h-3.5L92.4,29.5z M91.4,27l-1.5-3.8L88.4,27H91.4z"/>
		<path class="st0" d="M109.4,20v11.8h-3.3v-4.6h-4.6v4.6h-3.3V20h3.3v4.4h4.6V20H109.4z"/>
		<path class="st0" d="M116.7,27.2h-1.5v4.5h-3.3V20h3.3v4.6h1.6l2.8-4.6h3.5l-3.7,5.7l3.7,6.1h-3.8L116.7,27.2z"/>
		<path class="st0" d="M126.6,31.2c-1-0.5-1.8-1.3-2.3-2.2s-0.9-2-0.9-3.2c0-1.2,0.3-2.2,0.9-3.2s1.3-1.7,2.3-2.2
			c1-0.5,2.1-0.8,3.4-0.8c1.2,0,2.4,0.3,3.4,0.8c1,0.5,1.8,1.3,2.3,2.2c0.6,0.9,0.9,2,0.9,3.2c0,1.2-0.3,2.2-0.9,3.2
			c-0.6,0.9-1.3,1.7-2.3,2.2c-1,0.5-2.1,0.8-3.4,0.8C128.7,32,127.6,31.7,126.6,31.2z M131.6,28.8c0.5-0.3,0.9-0.7,1.1-1.2
			c0.3-0.5,0.4-1.1,0.4-1.8c0-0.7-0.1-1.3-0.4-1.8c-0.3-0.5-0.7-0.9-1.1-1.2c-0.5-0.3-1-0.4-1.6-0.4c-0.6,0-1.1,0.1-1.6,0.4
			c-0.5,0.3-0.9,0.7-1.1,1.2c-0.3,0.5-0.4,1.1-0.4,1.8c0,0.7,0.1,1.3,0.4,1.8c0.3,0.5,0.7,0.9,1.1,1.2c0.5,0.3,1,0.4,1.6,0.4
			C130.6,29.2,131.1,29.1,131.6,28.8z"/>
		<path class="st0" d="M148.5,26.6c0.4,0.5,0.5,1.1,0.5,1.8c0,1-0.4,1.9-1.2,2.5c-0.8,0.6-2,0.9-3.5,0.9h-6.1V20h5.7
			c1.4,0,2.5,0.3,3.3,0.8c0.8,0.5,1.2,1.3,1.2,2.3c0,0.6-0.1,1.1-0.4,1.5s-0.7,0.8-1.2,1C147.6,25.8,148.1,26.2,148.5,26.6z
			 M141.6,24.7h2.1c0.9,0,1.4-0.4,1.4-1.2c0-0.8-0.5-1.2-1.4-1.2h-2.1V24.7z M145.7,28.1c0-0.8-0.5-1.2-1.5-1.2h-2.6v2.4h2.6
			C145.2,29.4,145.7,29,145.7,28.1z"/>
		<path class="st0" d="M153.3,31.2c-1-0.5-1.8-1.3-2.3-2.2c-0.6-0.9-0.8-2-0.8-3.2c0-1.2,0.3-2.2,0.8-3.2c0.6-0.9,1.3-1.7,2.3-2.2
			c1-0.5,2.1-0.8,3.3-0.8c1.1,0,2.1,0.2,2.9,0.6c0.9,0.4,1.6,0.9,2.2,1.7l-2.1,1.9c-0.8-0.9-1.7-1.4-2.8-1.4c-0.6,0-1.2,0.1-1.7,0.4
			c-0.5,0.3-0.9,0.7-1.2,1.2c-0.3,0.5-0.4,1.1-0.4,1.8c0,0.7,0.1,1.3,0.4,1.8c0.3,0.5,0.7,0.9,1.2,1.2c0.5,0.3,1.1,0.4,1.7,0.4
			c1.1,0,2-0.5,2.8-1.4l2.1,1.9c-0.6,0.7-1.3,1.3-2.2,1.7c-0.9,0.4-1.8,0.6-2.9,0.6C155.4,32,154.3,31.7,153.3,31.2z"/>
		<path class="st0" d="M168,27.2h-1.5v4.5h-3.3V20h3.3v4.6h1.6l2.8-4.6h3.5l-3.7,5.7l3.7,6.1h-3.8L168,27.2z"/>
		<path class="st0" d="M175.5,20h3.3v6.9l4.9-6.9h3.1v11.8h-3.3v-6.9l-4.9,6.9h-3.2V20z"/>
		<path class="st0" d="M189.3,20h3.3v6.9l4.9-6.9h3.1v11.8h-3.3v-6.9l-4.9,6.9h-3.2V20z M192.3,18.6c-0.6-0.5-0.8-1.1-0.8-2.1h2.2
			c0,0.4,0.1,0.7,0.3,0.9c0.2,0.2,0.5,0.3,0.9,0.3c0.4,0,0.7-0.1,0.9-0.3c0.2-0.2,0.3-0.5,0.3-0.9h2.2c0,0.9-0.3,1.6-0.8,2.1
			c-0.6,0.5-1.4,0.7-2.6,0.7C193.8,19.2,192.9,19,192.3,18.6z"/>
		<path class="st0" d="M83,40.2V52h-3.3v-9.2h-4.5V52h-3.3V40.2H83z"/>
		<path class="st0" d="M95,49.4V52h-9.5V40.2h9.3v2.6h-6v2h5.2v2.5h-5.2v2.2H95z"/>
		<path class="st0" d="M105.1,40.7c0.8,0.4,1.4,0.9,1.8,1.5c0.4,0.7,0.6,1.4,0.6,2.3c0,0.9-0.2,1.7-0.6,2.3c-0.4,0.7-1,1.2-1.8,1.5
			c-0.8,0.4-1.7,0.5-2.8,0.5h-2.1V52h-3.3V40.2h5.4C103.4,40.2,104.3,40.4,105.1,40.7z M103.6,45.8c0.3-0.3,0.5-0.7,0.5-1.3
			c0-0.6-0.2-1-0.5-1.3c-0.3-0.3-0.9-0.5-1.6-0.5h-1.9v3.5h1.9C102.8,46.3,103.3,46.1,103.6,45.8z"/>
		<path class="st0" d="M118.5,49.4V52H109V40.2h9.3v2.6h-6v2h5.2v2.5h-5.2v2.2H118.5z"/>
		<path class="st0" d="M130.6,46.9c0.4,0.5,0.5,1.1,0.5,1.8c0,1-0.4,1.9-1.2,2.5c-0.8,0.6-2,0.9-3.5,0.9h-6.1V40.2h5.7
			c1.4,0,2.5,0.3,3.3,0.8c0.8,0.5,1.2,1.3,1.2,2.3c0,0.6-0.1,1.1-0.4,1.5c-0.3,0.4-0.7,0.8-1.2,1C129.7,46.1,130.3,46.4,130.6,46.9z
			 M123.7,44.9h2.1c0.9,0,1.4-0.4,1.4-1.2c0-0.8-0.5-1.2-1.4-1.2h-2.1V44.9z M127.8,48.4c0-0.8-0.5-1.2-1.5-1.2h-2.6v2.4h2.6
			C127.3,49.6,127.8,49.2,127.8,48.4z"/>
		<path class="st0" d="M135.4,51.4c-1-0.5-1.8-1.3-2.3-2.2c-0.6-0.9-0.9-2-0.9-3.2c0-1.2,0.3-2.2,0.9-3.2c0.6-0.9,1.3-1.7,2.3-2.2
			c1-0.5,2.1-0.8,3.4-0.8c1.2,0,2.4,0.3,3.4,0.8c1,0.5,1.8,1.3,2.3,2.2c0.6,0.9,0.9,2,0.9,3.2c0,1.2-0.3,2.2-0.9,3.2
			c-0.6,0.9-1.3,1.7-2.3,2.2c-1,0.5-2.1,0.8-3.4,0.8C137.5,52.2,136.4,52,135.4,51.4z M140.4,49.1c0.5-0.3,0.9-0.7,1.1-1.2
			c0.3-0.5,0.4-1.1,0.4-1.8c0-0.7-0.1-1.3-0.4-1.8c-0.3-0.5-0.7-0.9-1.1-1.2c-0.5-0.3-1-0.4-1.6-0.4c-0.6,0-1.1,0.1-1.6,0.4
			c-0.5,0.3-0.9,0.7-1.1,1.2c-0.3,0.5-0.4,1.1-0.4,1.8c0,0.7,0.1,1.3,0.4,1.8c0.3,0.5,0.7,0.9,1.1,1.2c0.5,0.3,1,0.4,1.6,0.4
			C139.4,49.5,139.9,49.3,140.4,49.1z"/>
		<path class="st0" d="M159.5,49.4v5h-3.1V52h-7.6v2.4h-3.1v-5h0.4c0.7,0,1.2-0.5,1.5-1.4c0.3-0.9,0.5-2.3,0.5-4.1l0.1-3.6h9.5v9.2
			H159.5z M150.8,47.3c-0.2,0.9-0.4,1.6-0.7,2h4.5v-6.5h-3.4l-0.1,1.3C151.1,45.4,151,46.5,150.8,47.3z"/>
	</g>
</g>
</svg>
