<?xml version="1.0" encoding="utf-8"?>
<!-- Generator: Adobe Illustrator 23.0.1, SVG Export Plug-In . SVG Version: 6.00 Build 0)  -->
<svg version="1.1" id="Layer_1" xmlns="http://www.w3.org/2000/svg" xmlns:xlink="http://www.w3.org/1999/xlink" x="0px" y="0px"
	 viewBox="0 0 886.5 210.5" style="enable-background:new 0 0 886.5 210.5;" xml:space="preserve">
<style type="text/css">
	.st0{fill:#2A4695;}
	.st1{display:none;fill:#A6B2D2;}
	.st2{display:none;fill:#B8C2DB;}
	.st3{fill:#2B4695;}
	.st4{fill:#2B4795;}
	.st5{fill:#EA5E21;}
	.st6{fill:#294594;}
</style>
<g>
	<path class="st0" d="M313.3,152.1c0-0.4,0-0.8,0-1.3c0-21.1,0-42.2,0-63.3c0-0.4,0-0.8,0-1.4c1.7-0.3,3.4-0.7,5.1-1
		c4-0.7,8.1-1.3,12.2-1.4c4.7-0.2,9.4,0.1,14,1.6c7.2,2.4,11.5,7.4,12.8,14.8c1.1,6.3,0.7,12.4-1.7,18.4
		c-3.4,8.5-9.8,13.1-18.8,14.1c-3.1,0.3-6,0.1-9-0.7c-0.2,0-0.3,0-0.5-0.1c0,0.3-0.1,0.6-0.1,0.9c0,6.2,0,12.4,0,18.6
		c0,0.2,0,0.5,0.1,0.7C322.6,152.1,318,152.1,313.3,152.1z M327.2,123.2c2.2,0.7,4.4,1,6.7,0.9c3.3-0.2,6-1.7,7.7-4.6
		c0.7-1.1,1.2-2.3,1.6-3.6c1.3-4.1,1.3-8.4,0.9-12.6c-0.2-2.1-0.7-4.1-1.6-5.9c-1.1-2.1-2.6-3.8-4.8-4.9c-3.4-1.6-6.8-1.5-10.4-0.6
		C327.2,102.3,327.2,112.7,327.2,123.2z"/>
	<path class="st1" d="M255,202.8c-0.2,0-0.4,0.1-0.6,0.1c0-22.1,0-44.1,0-66.2c0.2,0,0.3,0,0.5,0c0,0.5-0.1,0.9-0.1,1.4
		c0,21.1,0,42.2,0,63.4C254.9,201.9,255,202.3,255,202.8z"/>
	<path class="st2" d="M627.2-108.2c0,0.1,0,0.1,0,0.2c-0.8,0-1.6,0-2.4,0c-24.1,0-48.3,0-72.4,0c-0.8,0-1.7,0-2.5,0
		c0-0.1,0-0.1,0-0.2C575.6-108.2,601.4-108.2,627.2-108.2z"/>
	<path class="st0" d="M255,132.8c-0.1-0.5-0.1-0.9-0.1-1.4c0-21.1,0-42.2,0-63.4c0-0.5,0.1-0.9,0.1-1.4c16.7,0,33.4,0,50.2,0
		c0,22.1,0,44,0,65.9c-0.9,0.2-13,0.3-14.6,0.1c0-18.8,0-37.7,0-56.6c-7.1,0-14,0-21.1,0c0,9.4,0,18.8,0,28.2c0,9.4,0,18.9,0,28.2
		c-0.1,0.1-0.2,0.1-0.2,0.2c0,0-0.1,0.1-0.1,0.1C264.5,132.8,259.8,132.8,255,132.8z"/>
	<path class="st3" d="M737,58.3c0.4,3.4,0.7,6.7,1.1,10.1c-0.4,0.1-0.7,0.2-1.1,0.3c-5.5,0.9-11,1.8-16.4,2.8
		c-1.6,0.3-3.2,0.7-4.7,1.3c-5,1.9-8.1,5.6-9.5,10.7c-0.7,2.4-1,4.9-1,7.5c0,0.2,0,0.4,0,0.8c0.4-0.5,0.7-0.8,0.9-1
		c3.1-3.9,7.2-6,12.2-6.7c3.2-0.4,6.4-0.1,9.5,0.7c7.1,1.9,11.2,6.7,13,13.6c1.2,4.7,1.6,9.4,1.1,14.3c-0.3,3.1-1,6.1-2.2,9
		c-2.4,5.4-6.3,9.1-11.9,10.9c-5.2,1.7-10.5,1.9-15.8,0.6c-4.9-1.2-8.7-3.8-11.7-7.9c-2.6-3.6-4.1-7.7-4.8-12.1
		c-1.3-8.2-1.3-16.5-0.5-24.8c0.4-3.6,1.1-7.1,2.6-10.5c3.7-8.6,10.2-13.9,19.2-16c6.3-1.4,12.6-2.4,19-3.6
		C736.1,58.3,736.5,58.3,737,58.3z M727.8,109.5c-0.3-2.3-0.4-4.7-0.8-7c-0.4-2.5-1.2-4.9-2.5-7.1c-3.1-5.2-10.2-4.8-13-0.1
		c-1,1.8-1.8,3.6-2.3,5.6c-1,4.2-0.9,8.5-0.2,12.8c0.5,2.7,1.1,5.3,2.4,7.7c0.6,1.2,1.4,2.4,2.5,3.3c3,2.6,7.5,2.2,10-0.9
		c1-1.3,1.8-2.9,2.3-4.5C727.3,116.1,727.6,112.8,727.8,109.5z"/>
	<path class="st4" d="M425.5,98.9c-0.8,11.2-1.7,22.5-2.5,33.8c-3.7,0-7.3,0-10.9,0c-0.2-0.9,4.5-46.6,4.9-47.8c5.2,0,10.4,0,15.8,0
		c3.2,10.7,6.5,21.5,9.7,32.2c0.1,0,0.1,0,0.2,0c3.3-10.7,6.5-21.4,9.8-32.2c5.3,0,10.5,0,15.8,0c1.5,15.9,3,31.7,4.6,47.6
		c-1,0.3-10.4,0.4-12.7,0.1c-0.9-11.2-1.7-22.4-2.6-33.6c-0.9,1.7-1.3,3.6-1.9,5.4c-0.6,1.9-1.2,3.8-1.7,5.7
		c-0.6,1.9-1.1,3.8-1.7,5.7c-0.6,1.9-1.1,3.7-1.7,5.6c-0.6,1.9-1.2,3.8-1.7,5.7c-0.6,1.9-1.1,3.8-1.7,5.7c-3.7,0-7.3,0-11,0
		c-3.4-11.3-6.9-22.6-10.3-33.8C425.7,98.9,425.6,98.9,425.5,98.9z"/>
	<path class="st0" d="M519.4,132.8c0-16,0-31.9,0-47.8c1.1-0.2,2.2-0.4,3.4-0.5c6.1-0.6,12.3-0.9,18.4-0.5c3.7,0.2,7.2,0.9,10.7,2.4
		c4,1.7,6.9,5.6,6.5,11c-0.3,4.6-2.7,7.6-6.9,9.4c-0.4,0.2-0.8,0.3-1.4,0.6c0.6,0.2,1,0.2,1.3,0.4c1.2,0.4,2.4,0.7,3.5,1.3
		c2.9,1.5,4.8,3.9,5.4,7.2c0.5,2.9,0.2,5.7-1.1,8.4c-1.1,2.3-2.9,4-5.1,5.3c-3,1.8-6.3,2.7-9.7,3.3c-4.3,0.7-8.5,0.9-12.8,0.6
		c-3.8-0.2-7.6-0.6-11.3-0.8C520,132.9,519.7,132.8,519.4,132.8z M532.7,125.8c3.3,0.4,6.4,0.4,9.4-0.7c4.3-1.5,5.2-5.3,4.2-8.7
		c-0.6-2.2-2.9-3.8-5.5-3.9c-2.4-0.1-4.9-0.1-7.3-0.2c-0.3,0-0.6,0.1-0.8,0.1C532.7,116.8,532.7,121.3,532.7,125.8z M532.8,104.8
		c1.2,0,2.2,0,3.3,0c0.8,0,1.5,0,2.3-0.1c1.1-0.2,2.2-0.3,3.2-0.7c2.8-1,4.1-3.2,3.9-6.5c-0.1-2.7-1.7-4.7-4.4-5.5
		c-2.7-0.8-5.5-0.5-8.3-0.3C532.8,96.1,532.8,100.4,532.8,104.8z"/>
	<path class="st4" d="M834.5,132.7c-4.6,0-9.1,0-13.7,0c0-7.1,0-14.1,0-21.2c-5.1,0-10.1,0-15.2,0c0,7.1,0,14.1,0,21.2
		c-4.6,0-9.1,0-13.7,0c0-15.9,0-31.8,0-47.6c0.9-0.2,12.1-0.3,13.6,0c0,5.8,0,11.6,0,17.3c1,0.3,13,0.4,15.2,0.1
		c0-5.8,0-11.6,0-17.5c4.6,0,9.1,0,13.6,0C834.7,85.8,834.8,129.9,834.5,132.7z"/>
	<path class="st3" d="M603.9,84.9c0,16,0,31.9,0,47.8c-4.5,0-8.9,0-13.4,0c0-6.3,0-12.6,0-19c-1.4,0-2.7,0-4.1,0
		c-1.4,2.7-2.9,5.3-4.3,8c-1.8,3.4-3.7,6.8-5.5,10.2c-0.3,0.5-0.5,0.8-1.2,0.8c-4.3,0-8.6,0-12.9,0c-0.1,0-0.2,0-0.4-0.1
		c2.1-3.6,4.2-7.2,6.3-10.7c2.1-3.6,4.2-7.1,6.3-10.7c-0.6-0.2-1-0.4-1.5-0.5c-5.5-1.9-8.4-5.9-8.4-11.7c0-1.5,0.1-3,0.4-4.5
		c0.7-3.3,2.7-5.8,5.7-7.5c2.4-1.4,4.9-2.1,7.6-2.5c3.7-0.6,7.4-0.8,11.1-0.6c4.1,0.2,8.1,0.5,12.2,0.8
		C602.5,84.7,603.1,84.8,603.9,84.9z M590.4,91.5c-1.5-0.1-3-0.3-4.4-0.2c-1.3,0-2.6,0.1-3.8,0.5c-2.5,0.7-4,2.4-4.3,5
		c-0.1,1-0.1,2,0,3c0.3,2.9,1.9,4.6,4.7,5.4c2.6,0.7,5.2,0.4,7.8,0.5C590.4,100.9,590.4,96.3,590.4,91.5z"/>
	<path class="st0" d="M362.7,108.6c0.1-3.3,0.4-6.9,1.6-10.3c2.4-7,7.1-11.5,14.2-13.4c5.2-1.4,10.5-1.6,15.7-0.1
		c6.9,1.9,11.4,6.2,13.3,13.2c1.9,7.1,2.1,14.3,0.1,21.4c-1.8,6.7-6,11.2-12.7,13.2c-1.5,0.5-3.1,0.8-4.7,1c-4,0.5-8,0.5-11.9-0.5
		c-7.7-1.9-12.3-6.9-14.4-14.4C363.1,115.9,362.7,112.3,362.7,108.6z M395.5,108.5c-0.2-2.2-0.3-4.4-0.6-6.5
		c-0.3-2.1-0.8-4.2-1.8-6.2c-2.6-5.5-9.4-6.1-13-1.3c-0.8,1.1-1.5,2.4-1.9,3.7c-2.2,6.9-1.9,13.9,0.1,20.9c0.5,1.7,1.3,3.4,2.6,4.7
		c3,3.4,7.9,3.3,10.8-0.1c1.2-1.4,1.9-3.1,2.4-4.9C395.1,115.3,395.4,111.9,395.5,108.5z"/>
	<path class="st4" d="M856.1,109.4c0,7.8,0,15.5,0,23.4c-4.6,0-9,0-13.5,0c0-15.9,0-31.8,0-47.8c4.5,0,8.9,0,13.5,0
		c0.1,3.6,0,7.1,0,10.7c0,3.6,0,7.2,0,10.8c0.6-0.2,0.7-0.6,1-1c4.6-6.5,9.2-13,13.7-19.5c0.6-0.8,1.2-1.1,2.2-1.1
		c3.9,0.1,7.7,0,11.7,0c0.2,0.6-0.3,0.9-0.6,1.3c-4.5,6.2-9,12.4-13.6,18.6c-0.3,0.5-0.7,0.9-1.1,1.5c2.8,4.4,5.7,8.8,8.5,13.2
		c2.8,4.4,5.7,8.7,8.6,13.3c-0.7,0-1,0.1-1.4,0.1c-4.2,0-8.3,0-12.5,0c-1,0-1.5-0.3-2-1.1c-4.5-7.2-9-14.3-13.5-21.5
		c-0.2-0.3-0.4-0.6-0.6-0.9C856.3,109.3,856.2,109.4,856.1,109.4z"/>
	<path class="st4" d="M771.7,101.7c0.1-1.7,0.2-3.4-0.2-5c-0.5-2.1-1.8-3.6-3.9-4.2c-2.3-0.7-4.7-0.7-7.1-0.4
		c-3.2,0.4-6.2,1.4-9.1,2.8c-0.4,0.2-0.8,0.4-1.3,0.6c-0.3-2.9-0.6-5.7-0.9-8.5c0.4-0.2,0.7-0.3,1.1-0.5c7-2.4,14.2-3.2,21.5-2.3
		c1.5,0.2,2.9,0.5,4.3,1c5.1,1.6,8.2,5.7,8.6,11c0.1,1.4,0.1,2.9,0.1,4.3c0,9.6,0,19.2,0,28.8c0,0.3,0,0.7,0,1.1
		c-0.5,0.2-0.9,0.4-1.4,0.5c-6.1,2-12.3,3-18.7,3c-3.5,0-7-0.5-10.4-1.6c-8.4-2.9-10.5-9.9-9.1-16.6c1-4.9,4.2-8,8.6-10
		c3.7-1.7,7.7-2.5,11.7-3C767.5,102.3,769.5,102,771.7,101.7z M771.8,108.3c-1.5,0.2-2.8,0.4-4.2,0.6c-2.2,0.4-4.4,1-6.4,2.3
		c-1.8,1.2-3.1,2.8-3.5,4.9c-0.4,1.8-0.4,3.5,0.1,5.2c0.6,2.3,2.1,3.8,4.3,4.5c1.8,0.6,3.7,0.6,5.6,0.4c1.4-0.2,2.7-0.4,4-1
		C771.8,119.6,771.8,114,771.8,108.3z"/>
	<path class="st0" d="M652.4,132.8c0-15.9,0-31.8,0-47.8c4.5,0,8.9,0,13.5,0c0,5,0,9.9,0,14.9c0.7,0,1.4,0,2,0
		c3.8-0.2,7.5-0.1,11.2,0.6c9.3,1.7,12.7,9.8,11.7,16.9c-1,7.2-5.3,11.7-11.9,14.2c-5.1,2-10.4,2.5-15.8,2.2
		c-3.4-0.2-6.7-0.6-10-0.9C652.9,132.9,652.7,132.8,652.4,132.8z M665.9,108.1c0,5.7,0,11.3,0,17c2.4,0.4,4.7,0.3,7-0.5
		c2.7-1,4.4-2.9,5.1-5.7c0.4-1.8,0.4-3.6,0.2-5.4c-0.4-3-2.1-4.6-5-5.2C670.8,107.9,668.4,108.1,665.9,108.1z"/>
	<path class="st4" d="M612.1,94.2c-0.3-2.6-0.5-5.1-0.8-7.8c0.4-0.2,0.8-0.3,1.1-0.4c6.5-2.1,13.2-2.7,20.1-1.8
		c2.6,0.4,4.9,1.3,7.2,2.7c6.1,3.9,6.2,12.7,1.4,17c-1.2,1.1-2.5,2-4,2.6c-0.3,0.1-0.6,0.3-1.1,0.5c1.1,0.3,2.1,0.6,3.1,0.9
		c4.6,1.7,7.2,5.4,7.3,10.3c0,6.1-2.8,10.3-8.2,12.9c-3,1.4-6.1,2.1-9.4,2.5c-4.9,0.5-9.8,0.4-14.6-0.7c-0.8-0.2-1.6-0.4-2.4-0.7
		c-0.3-0.1-0.5-0.2-0.9-0.4c0.4-2.7,0.7-5.4,1.1-8.3c0.5,0.2,0.9,0.4,1.2,0.6c4.2,2.2,8.6,2.7,13.2,1.6c0.6-0.1,1.1-0.3,1.7-0.6
		c3.8-1.7,5.1-4.7,4.1-8.8c-0.5-1.9-1.8-3-3.4-3.8c-1.4-0.7-2.9-0.9-4.4-1c-1.8-0.1-3.6-0.1-5.4-0.2c-0.4,0-0.8,0-1.3,0
		c0-2.4,0-4.8,0-7.1c1.9-0.1,3.8-0.2,5.7-0.3c1.6-0.1,3.3-0.4,4.8-1.2c2.9-1.3,4.1-4.1,3.3-7.1c-0.3-1.3-1.1-2.3-2.2-3
		c-1.6-1.1-3.5-1.5-5.4-1.5c-3.6,0-7,0.7-10.3,2.3c-0.4,0.2-0.8,0.4-1.3,0.6C612.4,94.2,612.4,94.2,612.1,94.2z"/>
	<path class="st3" d="M511,123.3c0.3,3,0.6,5.8,0.9,8.8c-1.6,0.4-3.2,0.8-4.8,1.1c-4.6,0.8-9.1,0.9-13.7-0.2
		c-8.5-2-13.9-7.2-16.2-15.6c-1.6-5.8-1.7-11.7,0-17.5c2.4-8.6,8.2-13.7,16.9-15.6c5.8-1.2,11.6-1,17.3,0.9c0.3,0.1,0.5,0.2,0.9,0.3
		c-0.5,2.8-1.1,5.6-1.6,8.6c-0.7-0.3-1.4-0.6-2-0.8c-2.8-1.2-5.6-1.5-8.5-0.9c-3.9,0.8-6.6,3.2-8.3,6.7c-0.9,1.9-1.5,3.9-1.7,6
		c-0.4,4.1-0.1,8.1,1.5,11.9c1.8,4.2,4.8,7.1,9.5,7.8c2.8,0.4,5.6,0,8.3-1C509.9,123.7,510.3,123.5,511,123.3z"/>
	<g>
		<path class="st5" d="M51.4,162.9c2.3,2.2,5.1,3.9,8,5.3c4.4,2.1,9.2,3.3,14,4c4.3,0.6,8.5,0.8,12.8,0.8c28.3,0,56.6,0,84.9,0
			c0.5,0,1.1,0,1.6,0c0.1,0,0.2,0,0.3,0l0,0c-4.6,17.3-18.9,31.4-36.4,35.9c-4.3,1.1-8.7,1.7-13.1,1.7c-24,0-48,0-72,0
			c-19.5,0-37-10.7-45.9-28c-3.7-7.2-5.5-14.9-5.5-23c0-24.3,0-48.7,0-73c0.1-22.1,14.8-41.9,35.9-48.5c0.5-0.1,1-0.2,1.6-0.4
			c0,0.7,0,1.2,0,1.8c0,27,0,54,0,81c0,5.7,0.3,11.4,1.3,17.1c1.1,6.4,2.9,12.6,6.4,18.2c1,1.6,2.2,2.9,3.3,4.4
			C49.5,161,50.4,161.9,51.4,162.9z"/>
		<path class="st6" d="M84.5,0c0.8,0,1.7,0,2.5,0c24.1,0,48.3,0,72.4,0c0.8,0,1.6,0,2.4,0c10.7,0.6,20.3,4.1,28.8,10.7
			c10.5,8.2,17,19,19.2,32.2c0.5,2.8,0.7,5.6,0.7,8.4c0.1,24.1,0,48.2,0,72.3c0,22.5-14.6,42.3-36.1,49c-0.5,0.2-1.1,0.3-1.6,0.4
			c0,0,0,0,0,0c0-0.1,0-0.2,0-0.3c0-2.8,0.1-5.6,0.1-8.5c0-24.5,0-49,0-73.5c0-5.7-0.2-11.4-1.2-17c-1.1-6.9-3-13.5-6.9-19.5
			c-0.8-1.2-1.7-2.3-2.6-3.4c-0.3-0.3-0.5-0.6-0.8-0.9c-0.6-0.6-1.2-1.2-1.8-1.8c-0.3-0.3-0.6-0.6-1-0.9c-2.6-2.4-5.6-4.1-8.7-5.4
			c-4.3-1.9-8.8-2.9-13.4-3.5c-4.3-0.6-8.7-0.7-13.1-0.7c-28.1,0-56.2,0-84.3,0c-0.5,0-1,0-1.6,0c0.1-0.5,0.2-0.8,0.3-1.1
			c5.2-17.4,19.7-31,37.4-35C78.4,0.6,81.4,0.2,84.5,0z"/>
		<path class="st0" d="M121.5,130.2c-0.5,0.5-0.9,0.9-1.4,1.4c-0.2,0.2-0.5,0.4-0.7,0.6c-3.1,2.2-6.5,3.6-10.2,4.1
			c-2.2,0.3-4.4,0.5-6.5,0.5c-10.4,0.1-20.8,0-31.2,0c-0.8,0-1.4-0.3-2-0.9c-1.1-1.1-2.3-2.2-3.4-3.3c-0.1-0.1-0.3-0.3-0.5-0.6
			c0,0.4,0,0.6,0.1,0.8c0,0.5-0.1,0.9-0.1,1.4c0,7.3,0,14.7,0,22c0,0.5,0,0.9,0,1.5c-4,0-7.9,0-11.8,0c0-19.7,0-39.4,0-59.1
			c0.4,0,0.8-0.1,1.2-0.1c5.5,0,11,0,16.6,0c3.8,0,7.6,0.5,11.1,2c6.5,2.7,10.1,7.7,11.1,14.7c0.1,0.6,0.2,1.2,0.2,1.7
			c0,0.5,0,1,0,1.5c-0.3,3-1,5.8-2.5,8.6c0.5,0,0.8,0.1,1,0.1c3.6,0,7.2,0.1,10.9,0c1.4,0,2.8-0.2,4.1-0.6c1-0.3,2-0.9,2.9-1.5
			c3.1-2.5,3.4-6.7,0.7-9.7c-1-1.1-2.3-2-3.6-2.7c-1.2-0.6-2.3-1.2-3.5-1.7c-3.9-1.8-7.7-3.7-11.2-6.3c-0.2-0.2-0.5-0.4-0.7-0.6
			c-0.5-0.5-0.9-1-1.4-1.4c-0.2-0.2-0.4-0.5-0.6-0.7c-1.2-1.8-2.2-3.7-2.4-5.9c-0.7-6.4,0.8-12,6.2-16.1c2.8-2.1,6-3.1,9.4-3.2
			c4.1-0.2,8.2-0.1,12.4-0.2c0.5,0,1-0.1,1.5-0.1c0.1-0.1,0.1-0.2,0.2-0.3c0-0.5,0.1-0.9,0.1-1.4c0-6.9,0-13.7,0-20.6
			c0-0.5,0-0.9,0-1.5c0.4,0,0.7-0.1,1-0.1c6.4,0,12.8-0.1,19.2,0c2.2,0,4.4,0.4,6.5,0.7c3,0.5,5.6,1.8,8,3.6c0.5,0.5,1,1,1.4,1.5
			c1.3,1.9,2.3,3.9,2.6,6.2c0.4,2.9,0.2,5.7-0.8,8.4c-1.2,3.2-3.4,5.4-6.5,6.9c-0.6,0.3-1.2,0.5-2.1,0.9c2.9,0.6,5.3,1.5,7.5,3.1
			c0.3,0.3,0.7,0.6,1,0.9c0,0,0.1,0.1,0.1,0.1c0.3,0.3,0.6,0.7,0.9,1c1.2,1.7,2.2,3.6,2.6,5.7c0.8,4.5,0.2,8.8-2.6,12.6
			c-0.1,0.1-0.2,0.3-0.2,0.4c-0.2,0.2-0.4,0.5-0.6,0.7c-0.3,0.3-0.6,0.6-0.9,0.9c-0.2,0.2-0.5,0.4-0.7,0.6
			c-4.5,3.2-9.7,4.4-15.1,4.6c-4.3,0.1-8.7,0.1-13,0.1c-0.5,0-1,0-1.7,0c0.2,0.6,0.3,1,0.4,1.4c1.4,4.3,1.6,8.6-0.1,12.8
			c-0.5,1.2-1.3,2.4-1.9,3.5C121.9,129.6,121.7,129.9,121.5,130.2z M65.6,127.1c2.6,0,5,0.2,7.4,0c3.5-0.4,6-2.3,7.3-5.6
			c0.4-1,0.7-2.1,0.8-3.2c0.4-4.7-1.7-9.3-7.4-10.1c-2.6-0.4-5.3-0.2-7.9-0.2c-0.1,0-0.1,0.1-0.2,0.2
			C65.6,114.4,65.6,120.7,65.6,127.1z M121.6,85.9c-0.3-0.1-0.4-0.1-0.4-0.1c-4.4,0-8.8,0-13.2,0c-1.6,0-3.3,0.2-4.8,0.9
			c-2.7,1.2-4,3.7-3.3,6.6c0.5,2.3,1.9,3.9,3.9,5c1.4,0.9,3,1.5,4.5,2.3c2.7,1.3,5.5,2.6,8.2,3.9c0.2,0.1,0.4,0.1,0.7,0.3
			c0-0.5,0-0.9,0-1.3c0-3.8,0-7.6,0-11.4c0-1,0.2-1.8,1-2.5C119.3,88.4,120.4,87.2,121.6,85.9z M129,102.3c3.3-0.1,6.6,0.2,9.8-0.3
			c1.6-0.3,3.1-0.8,4.4-1.8c2.6-2,3.4-4.7,2.9-7.8c-0.4-2.9-2.1-4.8-4.9-5.7c-0.5-0.2-1-0.3-1.6-0.4c-3.5-0.7-7-0.4-10.4-0.4
			c-0.1,0-0.1,0.1-0.2,0.2C129,91.3,129,96.7,129,102.3z M129,76.4c2.9,0,5.7,0.2,8.4-0.2c0.6-0.1,1.2-0.3,1.8-0.5
			c4.4-1.5,5.4-5.7,4.4-8.9c-0.8-2.7-2.8-4-5.4-4.6c-3-0.7-6.1-0.5-9.1-0.4c0,0-0.1,0-0.2,0.1C129,66.7,129,71.5,129,76.4z"/>
	</g>
</g>
</svg>
