<?xml version="1.0" encoding="utf-8"?>
<!-- Generator: Adobe Illustrator 23.0.1, SVG Export Plug-In . SVG Version: 6.00 Build 0)  -->
<svg version="1.1" id="Layer_1" xmlns="http://www.w3.org/2000/svg" xmlns:xlink="http://www.w3.org/1999/xlink" x="0px" y="0px"
	 viewBox="0 0 571.1 120.9" style="enable-background:new 0 0 571.1 120.9;" xml:space="preserve">
<style type="text/css">
	.st0{fill:#A0A0A0;}
</style>
<g>
	<path class="st0" d="M0.3,119.9c-0.1-1.2-0.3-2.3-0.3-3.5C0,79,0,41.5,0,4c0-0.8,0-1.7,0-2.5c3.6-0.9,115.3-1.1,120.9-0.2
		c0,39.6,0,79.1,0,119.1c-0.8,0.1-1.8,0.4-2.7,0.4c-38.5,0-77,0-115.4,0c-0.5,0-1-0.1-1.5-0.2C0.9,120.4,0.6,120.2,0.3,119.9z
		 M116.3,3.9c-1.8,0-3.7,0.1-5.5,0.1c-34,0-67.9,0-101.9,0c-1.8,0-3.5,0-5.3,0c0,38,0,75.4,0,112.9c38,0,75.7,0,113.6,0
		c0.1-0.9,0.2-1.5,0.2-2.1c0-36.8,0-73.6-0.1-110.4C117,4.2,116.6,4.1,116.3,3.9z"/>
	<path class="st0" d="M287.5,63.9c0-4.7,0-9,0-13.6c-6-0.7-11.7-1.8-15.5-6.9c-2.5-3.4-3.2-7.3-3.2-11.3c0.1-10,4.8-14.3,18.5-17.2
		c0-4.4,0-8.8,0-13.7c4,0,7.7,0,11.9,0c0,4.4,0,9,0,13.7c6.3,1.1,12.3,1.8,16.1,7.4c2.7,3.9,3.2,8.3,2.8,12.9
		c-0.8,9-6.7,13.9-18.6,15.1c0,4.5,0,9,0,13.7C295.3,63.9,291.7,63.9,287.5,63.9z M288.3,23.8c-6.2,1.2-8.9,4.9-7.8,10.8
		c0.4,2,1.6,3.9,2.8,5.6c1.1,1.4,2.8,2.2,5,1.4c0-1.6,0-3,0-4.5C288.3,32.9,288.3,28.6,288.3,23.8z M299.1,42
		c5.6-1.2,8.2-4.8,7.7-10c-0.6-5.1-3-7.6-7.7-7.6C299.1,30.1,299.1,35.8,299.1,42z"/>
	<path class="st0" d="M341.2,14.8c0-4.7,0-9.1,0-13.7c4,0,7.8,0,11.8,0c0,4.7,0,9.1,0,13.9c6.2,0.9,12.1,1.9,15.9,7.3
		c2.6,3.8,2.9,8.1,2.6,12.4c-0.6,9.3-5.7,13.7-18.4,15.6c0,4.3,0,8.7,0,13.4c-4,0-7.6,0-11.7,0c0-4.2,0-8.6,0-13.4
		c-6.5-0.7-12.6-1.9-16.4-7.5c-2.4-3.6-2.9-7.7-2.7-11.9C322.9,21.7,327.1,18,341.2,14.8z M341.9,41.9c0-5.5,0-10.7,0-15.8
		c0-0.6-0.1-1.3-0.2-1.9c-5.1,0.3-8,3.4-8.1,8.7C333.5,38,336.3,41.2,341.9,41.9z M352.4,42c5.7-1,8.1-4.2,7.8-9.7
		c-0.3-5.1-2.9-7.9-7.8-8C352.4,30,352.4,35.7,352.4,42z"/>
	<path class="st0" d="M252.7,70.3c4.4,0,8.4,0,13,0c-1.3,6.4-2.5,12.4-3.7,18.7c6.3,0,12.1,0,18.5,0c1.4-6.1,2.8-12.3,4.2-18.7
		c4.2,0,8.3,0,13,0c-3.6,16.6-7,32.9-10.6,49.5c-4.3,0-8.3,0-13,0c1.4-6.6,2.7-13,4-19.7c-6.1,0-12.2,0-18.6,0
		c-1.4,6.5-2.9,13.1-4.4,19.8c-4.4,0-8.5,0-13.1,0C245.6,103.2,249.1,86.9,252.7,70.3z"/>
	<path class="st0" d="M153.4,70.2c11.2,0,21.8,0,33.1,0c-0.8,3.7-1.5,7.2-2.2,10.8c-6.6,0-12.9,0-19.7,0c-0.6,2.2-1.1,4.4-1.8,7
		c2.9,0,5.2-0.1,7.5,0c2.3,0.2,4.7,0.3,6.9,0.9c5.5,1.6,8.5,5.9,7.9,11.7c-1.1,11.3-7.2,17.7-17.8,18.9c-7.8,0.9-15.9,0.2-24.4,0.2
		C146.4,103.1,149.8,86.8,153.4,70.2z M158.2,109c9.4,1.7,13.3-1,12.8-8.7c-3.1-2.1-6.7-2.3-10.6-1.5
		C159.7,102.3,158.9,105.7,158.2,109z"/>
	<path class="st0" d="M310.3,119.9c-4.5,0-8.5,0-13.1,0c3.5-16.5,7-32.8,10.5-49.3c4.2-1.1,8.2-0.3,12.6-0.5
		c0.1,6.6-2.6,12.4-3.2,19.9c7.1-7.1,13.3-13.4,19.6-19.7c5.1,0,10,0,15.4,0c-2.1,3.3-5,5.3-7.5,7.8c-2.7,2.7-5.5,5.3-8.3,7.9
		c-2.7,2.5-5.3,5-8.4,7.8c5.2,8.5,10.4,17.1,15.9,26.1c-6,0-11.3,0-16.9,0c-3.8-6.6-7.6-13.3-12-21.1c-1,4.3-1.8,7.5-2.5,10.7
		C311.8,112.8,311.1,116.2,310.3,119.9z"/>
	<path class="st0" d="M220.9,111.7c-6.1,0-11.9,0-17.8,0c-1.7,2.7-3.4,5.3-5.1,8.1c-4.5,0-8.9,0-13.9,0c10-16.7,19.8-33,29.8-49.5
		c4.6,0,9.2,0,14.4,0c2.7,16.3,5.4,32.7,8.2,49.4c-4.7,0-9.1,0-13.8,0C222,117.2,221.5,114.7,220.9,111.7z M217.9,87.1
		c-0.3-0.1-0.6-0.1-0.9-0.2c-2.6,4.6-5.2,9.3-8.1,14.4c3.8,0,7,0,10.7,0C219,96.4,218.4,91.8,217.9,87.1z"/>
	<path class="st0" d="M142.9,0.1c7.7,0,15-0.2,22.3,0.1c7,0.3,12.1,4.4,14.1,10.8c2.1,6.8,0.8,12.8-4.4,17.8c-3,2.9-6.9,3.8-11,4
		c-2.6,0.1-5.3,0-8.4,0c0,5.7,0,11.1,0,16.7c-4.4,0-8.3,0-12.6,0C142.9,33,142.9,16.8,142.9,0.1z M155.6,22.1
		c3.9-0.5,8,1.1,10.2-3.1c1-2,1-4.3-0.5-6.1c-2.7-3-6.2-2-9.6-1.8C155.6,14.8,155.6,18,155.6,22.1z"/>
	<path class="st0" d="M207.9,17.9c2.3-2.4,5.2-2.7,12.7-1.6c0,10.9,0,21.8,0,33c-3.8,0-7.4,0-11.3,0c-0.4-0.6-0.9-1.4-1.3-2.2
		c-7.8,5.3-15.7,4.6-21.6-1.8c-6-6.6-6.3-17.3-0.8-24.4C190.6,14.6,200.3,12.5,207.9,17.9z M201.6,40.1c4.6,0,7.6-2.8,7.6-7.2
		c0.1-4.5-3.4-7.9-7.8-7.8c-4.3,0.1-7.4,3.4-7.3,7.7C194.2,37.4,197,40.1,201.6,40.1z"/>
	<path class="st0" d="M400.7,18.1c0.4-0.8,0.6-1.3,1-2.1c3.5,0,7.1,0,10.8,0c0.9,3.4,1.2,24.5,0.4,33.3c-3.7,0-7.4,0-11.2,0
		c-0.3-0.8-0.5-1.6-0.7-2.3c-8.6,5.4-16.3,4.7-22.3-2.1c-5.8-6.6-5.9-17.4-0.3-24.4C382.7,15.2,392.4,12.1,400.7,18.1z M394.2,40.1
		c4.6,0,7.4-2.9,7.3-7.5c-0.1-4.3-3.4-7.5-7.7-7.5c-4.2,0.1-7.6,3.6-7.4,7.8C386.5,37.3,389.6,40.1,394.2,40.1z"/>
	<path class="st0" d="M455.9,49.5c-4.3,0-7.9,0-12.1,0c0-5.5,0-10.9,0-16.3c-0.4-0.1-0.7-0.2-1.1-0.3c-3.6,5.6-7.2,11.2-10.8,16.7
		c-3.8,0-7.3,0-10.7,0c-1-3.4-1.3-25.4-0.4-33.4c3.6,0,7.2,0,11.4,0c0.2,5.2,0,10.7,0.1,17.1c4.6-5.9,7.8-11.8,11.8-17.2
		c3.6,0,7.2,0,11.3,0C456.1,27.2,455.6,38.2,455.9,49.5z"/>
	<path class="st0" d="M251.7,16.1c4.1,0,7.5,0,11.3,0c0,11.1,0,22,0,33.2c-3.6,1-7.3,0.3-11.4,0.4c0-5.8,0-11.4,0-17
		c-0.3-0.1-0.6-0.2-0.9-0.3c-3.7,5.7-7.4,11.4-11.1,17.1c-3.8,0-7.4,0-11.2,0c0-11.1,0-22,0-33.3c3.7,0,7.4,0,11.6,0
		c0,5.4,0,10.8,0,17.4C244.5,26.9,248.2,21.3,251.7,16.1z"/>
	<path class="st0" d="M530.8,35.5c-8.3,0-16.2,0-24.4,0c-0.5,3.1,0.5,5.1,3,6.4c3.3,1.7,5.9,1.2,10-2c3.4,0,6.9,0,10.4,0
		c-0.7,5.5-4.5,9.3-10.6,10.8c-4.1,1-8.2,1-12.3-0.1c-7.3-2-13.4-7.8-12.7-18.9c0.6-8.4,6-14.4,14.5-15.9c3.9-0.7,7.6-0.4,11.3,0.8
		C527.3,19.2,531,25.4,530.8,35.5z M519.6,28.5c-2.1-4.3-4.4-5.7-7.5-5.2c-3.3,0.5-4.5,1.7-5.3,5.2C510.9,28.5,515,28.5,519.6,28.5z
		"/>
	<path class="st0" d="M536.8,16.1c4,0,7.6,0,11.6,0c0,3.8,0,7.4,0,11.3c3.8,0,7.1,0,10.9,0c0-3.7,0-7.3,0-11.2c4.1,0,7.8,0,11.8,0
		c0,10.9,0,21.9,0,33.1c-3.7,0-7.4,0-11.6,0c0-4.2,0-8.5,0-13c-3.7,0-6.9,0-10.7,0c0,4.2,0,8.4,0,12.8c-4.3,0-7.4,0.3-12,0.3
		C536.8,38.3,536.8,27.4,536.8,16.1z"/>
	<path class="st0" d="M460.3,46.5c1.1-2.7,2.1-5,2.9-6.9c3.8,0.8,7.2,1.9,10.7,2.3c3,0.3,3.5-0.5,4.4-4.1c-2.5-3.2-6.2-1.1-9.6-2.1
		c0-2.1,0-4.3,0-6.6c3-1,6.5,0.7,9.1-1.9c0.2-3.4-0.3-4.4-3-4.2c-3.2,0.1-6.4,1-10.4,1.7c-0.7-1.6-1.7-3.8-2.6-6
		c1.5-2.1,3.7-2.3,5.7-2.8c4.9-1.4,9.8-1.5,14.7-0.1c7.5,2.1,8.7,10.6,3.8,14.9c-0.3,0.3-0.6,0.7-1.3,1.6c0.5,0.2,0.9,0.4,1.3,0.6
		c6.9,4.6,6.3,12.4-1.1,16.1c-3.5,1.7-7.3,2.1-11.2,1.8C469.1,50.4,464.6,49.3,460.3,46.5z"/>
	<path class="st0" d="M260,3.9c-3,6-7.9,7.8-13.5,7.7c-5.6,0-10.4-1.8-13.2-7.8c2.5-1,4.9-1.9,7.2-2.8c3.4,5.2,8.2,5.5,12.3,0
		C255.1,1.9,257.5,2.9,260,3.9z"/>
	<path class="st0" d="M445,0.8c2.5,1,4.8,1.9,7.4,2.9c-2.4,5.6-7,7.6-12.3,7.8c-5.9,0.3-11.1-1.4-14.4-7.8c2.5-1,4.7-1.9,7.1-2.8
		c1.7,2,3.3,4.1,6.4,4C442,4.9,443.7,3.2,445,0.8z"/>
	<path class="st0" d="M0.3,119.9c0.3,0.3,0.7,0.5,1,0.8C0.9,120.4,0.6,120.2,0.3,119.9z"/>
	<path class="st0" d="M117.3,4.4c-0.3-0.2-0.7-0.3-1-0.5C116.6,4.1,117,4.2,117.3,4.4z"/>
	<path class="st0" d="M113,38.4c-1.9-1.2-3.4-2.1-5.3-3.3c-5.3,5.3-10.7,10.6-16.3,16.1c-2-1.5-3.8-2.9-5.8-4.4c0-3.2,0-6.3,0-10.1
		c-1.7,1-2.8,1.7-4.1,2.4c0,4.8,0,9.4,0,14.7c-2.1,1.7-4.3,3.6-7,5.9c12.1,12,23.7,23.6,35,34.9c-5,5-9.8,9.8-14.9,15.1
		C83.2,98.4,71.4,86.6,59.7,75c-11.7,11.6-23.1,23-35,34.7c-5.4-5.1-10.2-10.1-15.3-15.4c11.9-11.6,23.5-22.9,35.7-34.8
		c-2.7-2-5.1-3.8-6.8-5.2c0-5.8,0-10.2,0-15c-1.1-0.9-2.2-1.7-3.8-3c0,3.9,0,7,0,10.3c-1.8,1.5-3.5,3-5.7,4.8
		c-5.5-5.7-10.8-11.3-16.2-17c-1.7,1.3-3.1,2.3-5.3,3.9c0.3-7.2,2.5-13,5.9-18.3c2.1-3.3,4.8-5.9,8.4-7.6c4.6-2.3,9.4-2.2,13.2,0.8
		c7.6,5.9,14.3,12.8,21.2,19.8c-1.4,1.5-2.5,2.7-3.9,4.3c2.7,2.6,5.3,5.1,8.3,8c3-2.8,5.8-5.4,8.7-8.1c-1.1-1.4-2-2.7-3.2-4.3
		c0.8-1,1.6-2,2.5-2.9c4.5-4.5,9-8.9,13.5-13.4c7-6.8,13.9-7.3,21.2-1c6,5.1,9.9,11.6,10.3,19.8C113.4,36.5,113.2,37.2,113,38.4z"/>
</g>
</svg>
