<?xml version="1.0" encoding="utf-8"?>
<!-- Generator: Adobe Illustrator 23.0.1, SVG Export Plug-In . SVG Version: 6.00 Build 0)  -->
<svg version="1.1" id="Layer_1" xmlns="http://www.w3.org/2000/svg" xmlns:xlink="http://www.w3.org/1999/xlink" x="0px" y="0px"
	 viewBox="0 0 881.4 294.9" style="enable-background:new 0 0 881.4 294.9;" xml:space="preserve">
<style type="text/css">
	.st0{fill:#A0A0A0;}
</style>
<g>
	<path class="st0" d="M335,147.6c0-19.5,0-38.3,0-57.2c0-19.3,0.5-38.7-0.1-58c-0.6-20.7,11-31.2,29.8-31.6
		c30.1-0.7,60.3,0.1,90.4,0.6c5.2,0.1,10.5,1.7,15.5,3.4c13,4.6,19.7,14.2,20.6,27.8c0.3,4.5,0.3,9-0.1,13.5
		c-0.8,11-4.3,20.3-17.1,23.5c1.6,0.8,2.4,1.3,3.3,1.6c11.9,4.2,18.4,12.7,19.5,25.2c0.9,10,0.6,20-3.3,29.5
		c-5.3,13-16.2,18.3-29.2,20.3c-5.1,0.8-10.3,1.2-15.4,1.2c-36.8,0.1-73.6,0.1-110.5,0.1C337.5,147.6,336.5,147.6,335,147.6z
		 M370.2,132.6c5.7-10.4,14.3-13.5,25.5-13.2c17,0.5,34,0.1,51-0.1c4.7-0.1,9.9-0.4,12.5-4.8c4-6.8,3.8-14.5,1-21.6
		c-2.4-6-8.6-6.3-14.1-6.4c-18.8-0.2-37.6-0.3-56.5-0.2c-11.9,0-19,6.9-19.3,18.9C370,114.3,370.2,123.4,370.2,132.6z M370.2,72.4
		c8.1-11.2,10.8-12.6,23.9-12.6c16,0,32,0.1,48,0c8.6-0.1,13.8-6.2,14.1-16.1c0.3-8.8-4.4-14.9-13-15.1c-19-0.4-38-0.4-57,0
		c-10,0.2-16,7.3-16,17.4C370.2,54.4,370.2,62.9,370.2,72.4z"/>
	<path class="st0" d="M146.4,147.5c0-2.2,0-3.9,0-5.5c0-37-0.1-74,0.1-110.9c0-4.4,0.7-9,1.9-13.2c3.3-11.3,11.7-17.3,23.4-17.4
		c29.8,0,59.6-0.1,89.4,0.1c5.8,0,11.7,0.8,17.3,2c15.1,3.4,25,12.6,29.1,27.7c3.1,11.4,3.7,23,1.4,34.6
		c-3.3,16.3-12.3,26.6-29.2,34c10.9,15.9,21.7,31.8,32.5,47.7c-15.8,5.4-36.4-1.5-45-14.9c-3.3-5.2-6.8-10.3-9.9-15.5
		c-4.5-7.6-10.9-12-19.9-12c-18.3,0-36.6,0-55.7,0c0,2.7,0,5.2,0,7.8c-0.1,5,0.1,10-0.4,15c-1.2,13.7-7.8,20-21.4,20.5
		C155.6,147.6,151.3,147.5,146.4,147.5z M182,84.2c6.4-8.5,8.8-9.7,18.3-9.7c19.3,0,38.6,0.1,57.9-0.2c9.8-0.2,15-5.2,16-14.9
		c0.5-4.7,0.5-9.6,0-14.4c-1-9.6-5.9-14.4-15.6-14.7c-13.3-0.5-26.6-0.4-39.9-0.4c-7.6,0-15.3-0.1-22.9,0.5
		c-7.3,0.6-13.4,6.1-13.6,13C181.6,56.7,182,69.9,182,84.2z"/>
	<path class="st0" d="M683.8,0.8C658.5,24,633.9,46.6,609.5,69c25.7,26.1,51.3,52.1,77,78.3c-21,1.5-40.8,0.2-57.1-15.6
		c-12.5-12.2-25.6-23.8-38.4-35.7c-9.2-8.6-20.5-11-33-11.3c0,8.6,0,16.9,0,25.2c0,4.5,0.1,9,0,13.5c-0.5,15.6-8.8,23.9-24.4,24.2
		c-3.5,0.1-7,0-11.2,0c0-2,0-3.7,0-5.5c0-38,0-76,0-114c0-15,6-22.8,20.7-26.2c4.6-1.1,9.5-1.3,14.8-1.9c0,24.1,0,47.5,0,72
		c8.1-6.7,15.5-12.5,22.7-18.6c16.6-14.1,33.2-28.3,49.7-42.5c7.4-6.4,16.1-9.5,25.5-10C664.7,0.4,673.6,0.8,683.8,0.8z"/>
	<path class="st0" d="M281.3,264.7c0-12.8,0-25.6,0-38.4c0-15.6-6-21.9-21.5-22.1c-6.8-0.1-13.7-0.1-20.4,1
		c-10.2,1.8-15,8.2-15.2,18.6c-0.1,10.5,0,21,0,31.5c0,7.3-2,9.3-10.2,9.8c0-1.6,0-3.2,0-4.7c0-11.8,0-23.7,0-35.5
		s-4.9-18.5-16.6-19.9c-8.8-1-18-0.8-26.8,0.4c-9.1,1.3-13.2,6.7-13.6,15.8c-0.4,11.5-0.2,23-0.3,34.5c-0.1,6.9-2.9,9.4-10.4,9
		c0-7.8,0-15.6,0-23.4c0-5.7,0.3-11.4-0.1-17c-1.2-18.1,10.2-27.2,24.7-28.5c9.9-0.9,19.9-0.3,29.9,0.3c7.7,0.4,13.9,4.2,18.1,11.7
		c6.9-11.7,18.1-12.7,29.7-12.5c7,0.1,14,0.1,20.9,0.9c11.1,1.4,22.9,9.7,22.2,26.1c-0.5,11.3,0,22.7-0.1,34
		C291.7,262.8,288.5,265.4,281.3,264.7z"/>
	<path class="st0" d="M598.2,231.4c-26.6,0-52.3,0-78.6,0c0.3,4.3,0.2,8.3,0.8,12.2c1.3,7.6,7.3,12.5,15.7,12.7
		c12.6,0.2,25.3,0.2,38,0c5.4-0.1,10-2.4,12.6-7.6c2.2-4.6,6-6.4,10.9-6.1c1.5,7.9-2.9,16.3-10.7,19.9c-3,1.3-6.3,2.5-9.5,2.5
		c-15.5,0.1-31,0.4-46.4-0.7c-14-1-21.2-9.9-21.5-24c-0.1-5.8,0-11.7,0-17.5c0-15.2,10-26.6,25.3-27.3c12.9-0.6,26-0.7,38.9,0.1
		c15.2,0.9,25.8,11.4,24.7,26.8C598,225.2,598.2,228,598.2,231.4z M587.7,222.4c-1-12.5-6.8-18.2-18.8-18.4
		c-10.3-0.1-20.6-0.2-30.9,0c-12.4,0.2-19.5,8.9-17.9,20.4c4-0.7,7.9-1.8,11.8-1.9C550.5,222.3,568.9,222.4,587.7,222.4z"/>
	<path class="st0" d="M348.9,194.8c7.8,0.4,15.7,0.2,23.4,1.5c12.3,2,19.3,9.4,20.5,21.7c0.8,8.1,0.8,16.4,0,24.4
		c-1.5,13.7-9.9,21.5-25.5,22.5c-13.6,0.9-27.3,0.6-40.9-0.5c-13.8-1.1-21.3-9.9-22.1-23.8c-0.3-6.1-0.2-12.3-0.1-18.5
		c0.3-15.9,9.7-25.7,25.7-26.6c6.3-0.3,12.6-0.1,19-0.1C348.9,195.2,348.9,195,348.9,194.8z M348.6,256.4c5.3,0,10.7,0.2,16,0
		c11.5-0.4,17.8-6.8,18.1-18.2c0.1-5.5,0.2-11,0-16.5c-0.5-10.2-6.2-16.7-16.4-17.2c-11.9-0.6-24-0.5-35.9,0
		c-10.1,0.5-15.2,6.4-15.5,16.6c-0.2,5.7-0.1,11.3,0,17c0.1,11.6,6.6,18.1,18.3,18.4C338.3,256.5,343.4,256.4,348.6,256.4z"/>
	<path class="st0" d="M643.9,266.4c-13-23.5-25.9-47-39.2-70.9c7.2-0.2,12.2,1.9,15.4,8c7.9,14.8,15.9,29.5,24,44.3
		c1.4,2.5,3.1,4.9,5.3,8.2c6.9-16,13.3-30.9,19.7-45.7c0.9-2,1.6-4,2.5-6c2.9-6.7,6.4-8.9,14.6-8.6c-3.4,7.5-6.6,14.8-9.9,22.2
		c-8.3,18.7-16.5,37.4-24.8,56.1c-0.8,1.8-1.6,3.6-2.5,5.4c-6.3,12.6-14.3,16.7-29.4,15.4c-1-5.2,0.4-8.1,4.8-8.2
		c8.1-0.1,12.8-4.6,16.3-11.3c1.6-3.1,3-6.2,4.5-9.4C644.8,266,644.4,266.2,643.9,266.4z"/>
	<path class="st0" d="M484.2,265c0-12,0-23.9,0-35.9c0-2.3,0.1-4.7,0-7c-0.5-10-6.9-17.1-16.9-17.6c-11-0.5-22-0.5-33,0
		c-10.4,0.5-16.9,7.9-17,18.5c-0.1,10.7,0,21.3,0,32c0,7-2.1,9.2-10.2,10.2c0-1.6,0-3.2,0-4.8c0-12.2,0-24.3,0-36.5
		c0-16.4,8-26.5,24.3-27.9c13.5-1.1,27.3-0.8,40.9,0.4c13.5,1.2,21.7,11.2,22.1,24.7c0.3,12,0.1,24,0,36
		C494.3,262.7,491.5,264.9,484.2,265z"/>
	<path class="st0" d="M735.2,132.6c0,9.2-6.9,16-16.1,15.9c-8.8-0.1-15.8-7-15.9-15.8c0-9.1,7-16.3,16-16.3
		C728.2,116.4,735.2,123.5,735.2,132.6z"/>
</g>
</svg>
