<?xml version="1.0" encoding="utf-8"?>
<!-- Generator: Adobe Illustrator 23.0.1, SVG Export Plug-In . SVG Version: 6.00 Build 0)  -->
<svg version="1.1" id="Layer_1" xmlns="http://www.w3.org/2000/svg" xmlns:xlink="http://www.w3.org/1999/xlink" x="0px" y="0px"
	 viewBox="0 0 2500 294" style="enable-background:new 0 0 2500 294;" xml:space="preserve">
<style type="text/css">
	.st0{fill:#A0A0A0;}
</style>
<path class="st0" d="M24.9,3.7c-9.7,4.5-18.4,13.6-22,23.4C1,32,0,78.8,0,164.3V294h60.4v-81.4h80.3l21,40.7l20.7,40.7h34.9
	c18.9,0,34.6-0.8,34.6-1.6c0-1-10.8-22.6-24.1-47.8l-23.9-46.2l6.3-3.9c35.4-23.4,51.2-69.3,41.7-121.8c-6-32-21.5-54.6-45.4-65.1
	c-13.4-6-15.7-6.3-93.7-6.8C49.9,0.3,31.2,0.8,24.9,3.7z M177.2,63c4.2,1.6,8.4,6.3,10.8,12.3c5,11.8,5.5,42,1,50.9
	c-11.3,21.8-25.2,26-84.5,26H60.4V60.4h54.9C145.4,60.4,173.2,61.4,177.2,63z M341.2,2.4c-26,7.9-44.6,26.5-52.5,52
	c-6.3,20.5-13.1,68.8-13.1,92.1c0,22.6,6.3,68.5,11.8,87.1c9.7,32.3,26.2,48.8,56.7,56.7c13.1,3.4,27,3.9,71.7,3.1
	c51.2-0.8,56.4-1.6,69.3-7.1c37-16.5,53-58.5,53-139.4c-0.3-85-16.8-127-55.9-141.5c-13.9-5-19.9-5.5-74.8-5.2
	C374.5,0.3,344.9,1.3,341.2,2.4z M463.3,66.4c17.6,24.1,17.3,143-0.5,160.6c-5.2,5.5-106.3,5.8-110.8,0.5
	c-12.3-15-16.8-101.3-7.3-141.7c3.9-16,6-21,10.5-22.8c3.1-1.3,28.1-2.1,55.1-1.8C454.6,61.7,460.1,62.2,463.3,66.4z M594.8,5.8
	C589,9.2,581.9,16,579,21c-5.2,8.9-5.5,13.6-6.3,118.6c-0.5,73.2,0.3,112.9,2.1,120.2c4.5,16.3,16,28.1,31.8,31.2
	c16.3,3.7,132,3.7,152.8,0.3c40.4-6.6,61.2-30.2,64-73.5c1.8-24.4-2.1-42.5-12.3-58.8l-7.6-11.8l9.7-18.9
	c9.4-18.1,9.7-19.9,9.7-45.4c0-21.8-1.3-28.9-6-39.6c-7.6-16.5-16.8-26.2-33.3-34.9l-13.1-7.1l-82.7-0.8C605.8,0,605,0,594.8,5.8z
	 M757.2,63.5c3.7,3.7,6,21.3,3.7,29.4c-1.3,4.7-5.5,11.3-9.2,15c-6.6,6.3-7.6,6.3-61.7,7.1l-54.9,0.8V60.1l60.1,0.8
	C728.3,61.4,756.2,62.5,757.2,63.5z M745.7,180.6c10.5,4.2,16.3,15.5,16,30.4c-0.3,9.4-1.6,14.2-4.7,16.5
	c-3.4,2.6-19.9,3.4-63.3,3.4h-58.5v-55.6l52,1C715.5,177.2,742,179,745.7,180.6z M911.3,5.5c-25.5,10-38.3,27.8-48.3,67.2
	c-5,19.9-5.8,30.4-5.8,74.3c0,47.8,0.5,53,7.1,77.4c8.1,29.7,15.7,42.5,31,53.8c18.9,13.4,24.7,14.4,91.6,14.4s72.7-1,91.6-14.4
	c15.2-11.3,22.8-24.1,31-53.8c6.6-24.4,7.1-29.7,7.1-77.4c0-43.8-0.8-54.3-5.8-74.3c-10-39.9-22.8-57.5-49.1-67.2
	c-13.4-5-19.9-5.5-75.6-5.2C931.2,0.3,923.9,0.8,911.3,5.5z M1037.8,63c7.1,2.6,10.2,10.8,15.2,40.4c6.3,36.5,0.8,105.2-9.7,121.3
	c-3.9,6.3-4.2,6.3-56.4,6.3c-61.4,0-57.7,1.8-64.6-33.1C912.6,149.6,920.5,69,935.2,63C943,59.9,1029.4,59.9,1037.8,63z"/>
<g>
	<path class="st0" d="M1165.6,8.2l-8.1,8.1v259.8l7.6,7.6c6.8,6.6,9.7,7.6,23.1,7.6c12.9,0,16.5-1,21.3-6c9.2-9.7,11-21,11-66.7
		v-42.8h38.6l19.4,16.8c38.8,33.3,52.2,51.2,52.2,69c0,10,1.3,13.1,8.9,20.7c7.9,7.9,10.5,8.9,22.3,8.9c11,0,14.7-1.3,21.8-7.6
		c8.4-7.3,8.7-8.4,8.4-27.6c-0.3-16.5-1.6-22.6-8.4-36.5c-9.2-18.4-36-51.2-52.8-64.6l-11-8.7L1337,131
		c20.5-18.9,39.4-43.3,48.3-62.5c5-11,6.6-18.9,6.8-33.6c0.3-18.9,0-19.9-8.4-27.3c-7.6-6.8-10.5-7.6-25.2-7.6
		c-15.2,0-17.6,0.8-22.3,6.8c-3.7,4.7-5.5,10.8-5.5,18.6c0,6.3-1.6,15.2-3.7,19.9c-4.5,11-24.4,32.8-48.6,53.5l-19.4,16.5h-38.6
		V72.7c0-23.4-1.3-47-2.6-52.2C1213.9,6.3,1204.5,0,1187.4,0C1175.6,0,1172.4,1.1,1165.6,8.2z M1499.7,3.7
		c-35.4,11.3-54.9,36.5-68.5,87.9c-6.3,23.1-6.8,31-7.9,97.6c-1.6,78.7-0.5,87.4,11.5,96.9c8.7,6.8,31,7.1,39.1,0.5
		c9.4-7.6,11.5-15,11.5-42.3v-26.5H1622V247c0,28.6,0,29.1,7.6,36.7c6.8,6.6,9.7,7.6,22.6,7.6c13.4,0,15.7-0.8,22.8-8.4l7.6-8.4
		l-0.8-84c-1-77.7-1.6-85.8-6.8-103.4c-12.6-41.5-31-67.5-55.6-79c-13.6-6.3-17.3-6.8-61.7-7.3C1524.1,0.3,1507.3,1.1,1499.7,3.7z
		 M1590.3,63.3c14.4,5,26.8,36.7,30.2,76.4l1.3,17.8h-137l1.8-21c3.1-37,17.6-71.7,31-74.3C1530.4,59.9,1582.4,60.6,1590.3,63.3z
		 M1765.1,3.7c-25.7,8.1-40.2,20.7-49.1,43.6c-4.5,11.5-5.8,19.9-5.8,40.7c0,42,12.6,65.9,42.3,80.3c11.8,5.8,16.5,6.3,68.2,7.6
		c53.5,1.3,55.9,1.6,61.7,7.3c7.6,7.6,8.4,29.9,1.3,40.7l-4.5,7.1h-70.6c-66.7,0-70.9,0.3-77.2,5.2c-14.7,11.5-15.2,36.7-1.3,48.6
		l7.9,6.6h76.4c42.5,0,80.8-1.3,86.1-2.6c14.4-3.9,29.9-19.2,39.6-38.8c8.1-16.5,8.7-18.9,8.7-46.5c0-25.7-0.8-30.4-6.8-43.3
		c-8.7-18.4-20.5-32-33.3-38.3c-8.4-4.2-18.1-5.2-69.6-6.3c-69.6-1.6-67.5-0.5-67.5-27.6c0-27.3-3.9-26,79.8-27.6l72.4-1.3l7.1-7.1
		c6.3-6.3,7.1-9.4,8.1-29.4l1.3-22.6L1858,0.3C1799.2,0.3,1772.7,1.3,1765.1,3.7z M2024.9,3.7c-5.8,1.8-13.9,5.2-18.4,7.3
		c-33.9,17.8-48,77.7-28.6,120.2c8.1,17.8,17.1,27.3,33.9,36.2c12.6,6.8,14.7,7.1,65.6,7.9c28.9,0.3,55.6,2.1,59.6,3.4
		c9.2,3.7,13.6,17.1,11.3,32.8c-2.9,19.9-0.8,19.4-80.3,19.4h-71.1l-7.6,7.6c-6.6,6.8-7.6,9.7-7.6,22.6c0,12.9,1,15.7,7.6,22.6
		l7.6,7.6h79.3c88.2,0,90.3-0.3,108.7-17.8c16-15.5,23.4-33.9,24.7-64c1.6-34.9-5-55.4-24.4-74.5c-8.7-8.7-17.3-14.7-23.9-16.5
		c-5.8-1.6-32-2.9-59.1-2.9c-27,0-52.5-0.8-57-1.6c-9.4-1.8-13.6-10-13.6-26s4.2-24.1,13.6-26c4.5-0.8,36.2-1.6,70.9-1.6
		c81.6,0,83.5-1,83.5-40.7V0l-81.9,0.3C2059.1,0.3,2032.3,1.3,2024.9,3.7z M2312.6,5.3c-7.6,2.6-18.1,8.1-23.1,12.1
		c-21,16-39.9,58-45.1,100.8c-3.9,29.9-3.7,146.5,0,157.2c3.7,10.2,14.2,16,29.7,16c9.4,0,13.6-1.6,20.5-7.6l8.7-7.6l0.8-29.1
		l1-29.1h132.8l1,29.1l0.8,29.1l8.7,7.6c6.8,6.3,10.8,7.6,21.5,7.6c10.8,0,14.7-1.3,21.5-7.6l8.7-7.6l-0.3-82.4
		c-0.3-75.3-0.5-83.7-5.8-102.6c-11.8-43.3-29.4-69.6-54.9-82.2c-15-7.3-16.3-7.6-63.8-8.1C2332.5,0,2325.2,0.5,2312.6,5.3z
		 M2417.6,70.9c10.5,12.3,18.4,38.6,19.9,64.8l1.6,21.8h-134.6v-16c0-33.3,14.7-72.2,29.4-78.5c3.4-1.3,21.8-2.1,41.2-1.8l34.9,0.5
		L2417.6,70.9z"/>
</g>
</svg>
