<?xml version="1.0" encoding="utf-8"?>
<!-- Generator: Adobe Illustrator 23.0.1, SVG Export Plug-In . SVG Version: 6.00 Build 0)  -->
<svg version="1.1" id="Layer_1" xmlns="http://www.w3.org/2000/svg" xmlns:xlink="http://www.w3.org/1999/xlink" x="0px" y="0px"
	 viewBox="0 0 200 50" style="enable-background:new 0 0 200 50;" xml:space="preserve">
<style type="text/css">
	.st0{fill-rule:evenodd;clip-rule:evenodd;fill:#439B2E;}
</style>
<path class="st0" d="M192,7.2h4.6c-0.8,0.5-1.9,1.4-3.4,2.7l-4.6,4.8l2.6,3.6c2.7,3.8,5,6.7,7,8.7h-6.6c-0.8-1.9-1.9-3.9-3.3-5.9
	l-3-4.5l2.6-3.3C190.2,10.2,191.6,8.2,192,7.2z M184.9,9.4v15.3l0.2,1.1c0.1,0.2,0.4,0.4,0.9,0.5V27h-6.4v-0.6l0.9-0.5
	c0.1-0.2,0.2-0.6,0.2-1.1V9.4l-0.2-1.1c-0.1-0.2-0.4-0.4-0.9-0.4V7.2h6.4v0.7c-0.5,0.1-0.8,0.2-0.9,0.5L184.9,9.4z M175.4,9.4v15.3
	l0.2,1.1l0.9,0.5V27H170v-0.6c0.5-0.1,0.8-0.3,1-0.5l0.1-1.1v-8h-7.6v8l0.2,1.1c0.1,0.2,0.4,0.4,0.9,0.5V27H158v-0.6
	c0.5-0.1,0.9-0.3,1-0.5l0.2-1.1V9.4L159,8.3c-0.1-0.2-0.5-0.4-1-0.4V7.2h6.6v0.7c-0.5,0.1-0.8,0.2-0.9,0.5l-0.2,1.1v6.1h7.6V9.4
	L171,8.3c-0.2-0.2-0.5-0.4-1-0.4V7.2h6.5v0.7c-0.5,0.1-0.8,0.2-0.9,0.5L175.4,9.4z M173,40.1h3.1l-1.3,6.6H174l0.6-3H173l-2.1,3h-1
	l2.2-3.1c-0.9-0.3-1.4-0.8-1.4-1.7c0-0.5,0.2-0.9,0.6-1.2C171.7,40.3,172.3,40.1,173,40.1z M172.8,42.9h1.9l0.4-2.1H173
	c-0.5,0-0.8,0.1-1.1,0.4c-0.2,0.2-0.3,0.5-0.3,0.8C171.6,42.6,172,42.9,172.8,42.9z M165.1,41.8l-0.6,3.3c0.5,0.6,1.1,1,1.7,1
	c0.6,0,1.2-0.3,1.6-1c0.5-0.7,0.7-1.5,0.7-2.4c0-0.6-0.1-1.1-0.4-1.5c-0.3-0.3-0.6-0.5-1.1-0.5C166.2,40.7,165.6,41.1,165.1,41.8z
	 M165.4,40.1l-0.2,0.8l0.9-0.7l1.1-0.3c0.7,0,1.3,0.2,1.6,0.7c0.4,0.5,0.6,1.1,0.6,2c0,1.2-0.3,2.2-0.9,3c-0.6,0.8-1.4,1.1-2.3,1.1
	l-1.1-0.2l-0.8-0.6l-0.6,3.3h-0.9l1.8-9.3L165.4,40.1L165.4,40.1z M181.1,40.1l0.8,5.8h0.6l-0.4,2h-0.7l0.1-1.3h-4.4l-0.4,1.3h-0.6
	l0.4-2h0.6l2.8-5.8H181.1z M180.3,41l-2.3,5h2.9l-0.4-5H180.3z M183.4,44c0-1.1,0.3-2.1,1-2.9c0.6-0.8,1.3-1.1,2.2-1.1
	c0.7,0,1.3,0.3,1.7,0.8s0.6,1.2,0.6,2.1c0,1.1-0.3,2-0.9,2.8c-0.6,0.8-1.4,1.1-2.2,1.1c-0.7,0-1.3-0.3-1.8-0.8
	C183.6,45.5,183.4,44.8,183.4,44z M198.2,33.8H53.5v-1.9h144.7V33.8z M192.6,40.1l0.8,5.7l2.8-5.7h1.4l-1.3,6.6h-0.9l1.1-5.8
	l-2.9,5.8h-0.9l-0.9-5.8l-1.1,5.8h-0.9l1.3-6.6H192.6z M187.6,41.3c-0.3-0.4-0.7-0.5-1.1-0.5c-0.6,0-1.1,0.3-1.5,1
	c-0.5,0.7-0.7,1.5-0.7,2.4c0,0.6,0.1,1.1,0.4,1.5c0.3,0.3,0.6,0.5,1.1,0.5c0.6,0,1.1-0.3,1.6-1c0.4-0.7,0.6-1.5,0.6-2.4
	C188.1,42.1,187.9,41.6,187.6,41.3z M143.9,7.8V7.2h5.7c0.1,0.9,0.3,1.9,0.7,2.9l4.2,11.8c0.7,2.1,1.4,3.8,2.1,5h-5l-2.1-7.1H143
	l-1.4,4.7l-0.4,2.4h-3.6l6.4-14.8c0.6-1.6,0.9-2.6,0.9-3.2C145.1,8.3,144.7,7.9,143.9,7.8z M146.3,10.5l-2.7,8h5.4L146.3,10.5z
	 M136.1,11.5H135l-0.3-0.9c-0.3-1-0.7-1.6-1.2-1.9l-2.8-0.4h-2.6c-0.6,0-1,0.1-1.2,0.3s-0.3,0.5-0.3,0.9v4.7h1.1
	c3.2,0,5.4,0.3,6.7,0.9c1.8,0.9,2.6,2.6,2.6,5.1s-0.7,4.2-2.1,5.3c-1.2,0.9-3.1,1.3-5.8,1.3h-7.9v-0.6l0.9-0.5l0.2-1.1V9.4l-0.2-1.1
	c-0.1-0.2-0.4-0.4-0.9-0.4V7.2h14.7v4.3H136.1z M126.8,15.6V24c0,0.7,0.1,1.1,0.3,1.3c0.3,0.3,0.7,0.4,1.4,0.4h0.6
	c1.3,0,2.2-0.4,2.8-1.3c0.5-0.8,0.8-2.1,0.8-3.9c0-1.7-0.3-3-0.9-3.7c-0.6-0.9-1.7-1.3-3.4-1.3C128.5,15.5,126.8,15.5,126.8,15.6z
	 M128,38c0.4,0.4,0.6,1,0.6,1.6s-0.2,1.1-0.6,1.5c-0.3,0.4-0.9,0.7-1.6,0.9c1,0.4,1.5,1.1,1.5,2s-0.3,1.5-0.9,2s-1.4,0.7-2.6,0.7
	h-3.1l1.8-9.4h2.9C126.9,37.3,127.6,37.5,128,38z M123.9,38.2l-0.7,3.3h1.9c0.8,0,1.4-0.2,1.8-0.5c0.4-0.4,0.7-0.8,0.7-1.4
	c0-0.5-0.1-0.8-0.4-1s-0.8-0.3-1.3-0.3L123.9,38.2L123.9,38.2z M130.1,44c0,0.7,0.2,1.2,0.5,1.5c0.3,0.4,0.7,0.5,1.3,0.5l1.1-0.3
	l0.6-0.9l0.7,0.3l-1,1.3c-0.4,0.3-1,0.5-1.6,0.5c-0.8,0-1.4-0.3-1.9-0.8s-0.7-1.3-0.7-2.2c0-1.1,0.3-2,0.9-2.8
	c0.6-0.8,1.4-1.1,2.3-1.1c0.6,0,1.1,0.2,1.5,0.5s0.7,0.8,0.9,1.4l-0.8,0.2c-0.2-0.9-0.8-1.3-1.6-1.3c-0.6,0-1.1,0.3-1.6,0.9
	C130.3,42.2,130.1,43,130.1,44z M124.8,42.3h-1.7l-0.7,3.6h2.2c0.7,0,1.3-0.2,1.7-0.5c0.4-0.3,0.6-0.8,0.6-1.3
	c0-0.4-0.2-0.8-0.6-1.2C126,42.4,125.5,42.3,124.8,42.3z M141.1,43.4h-4.6l-0.1,0.5c0,0.7,0.2,1.2,0.5,1.5c0.3,0.4,0.7,0.5,1.3,0.5
	c0.5,0,0.9-0.1,1.2-0.5l0.9-1.1l0.8,0.4l-1.3,1.3c-0.5,0.4-1,0.5-1.7,0.5c-0.8,0-1.4-0.3-1.8-0.8c-0.4-0.5-0.6-1.2-0.6-2.1
	c0-1.2,0.3-2.1,0.9-2.9c0.6-0.8,1.4-1.1,2.4-1.1c0.8,0,1.4,0.2,1.8,0.7c0.4,0.4,0.6,1.1,0.6,1.9L141.1,43.4z M139.9,41.2
	c-0.3-0.3-0.7-0.5-1.1-0.5c-0.6,0-1.1,0.2-1.4,0.5c-0.3,0.3-0.6,0.8-0.8,1.4h3.6l0.1-0.4C140.3,41.8,140.2,41.5,139.9,41.2z
	 M142.1,46.7l1.3-6.6h3.7l-0.1,0.8h-2.8l-1.2,5.9h-0.9V46.7z M149.6,41l-2.3,5h2.9l-0.4-5H149.6z M150.4,40.1l0.8,5.8h0.6l-0.4,2
	h-0.6l0.1-1.3h-4.5L146,48h-0.6l0.4-2h0.6l2.8-5.8h1.2V40.1z M152.8,45c0-0.7,0.3-1.2,0.9-1.6c0.6-0.4,1.5-0.6,2.6-0.6h0.9l0.1-0.7
	c0-0.4-0.1-0.8-0.4-1c-0.3-0.2-0.6-0.3-1.1-0.3c-0.4,0-0.9,0.3-1.4,0.8l-0.6-0.5c0.7-0.6,1.4-1,2.1-1c0.7,0,1.2,0.2,1.6,0.5
	c0.4,0.4,0.6,0.8,0.6,1.4l-0.1,1l-0.4,2.2c-0.1,0.5-0.1,1-0.1,1.6h-0.9l-0.1-0.8l-0.9,0.6l-1.1,0.3c-0.5,0-1-0.2-1.3-0.5
	C153,45.9,152.8,45.5,152.8,45z M156.4,43.5c-1.8,0-2.8,0.5-2.8,1.4c0,0.3,0.1,0.6,0.3,0.9c0.2,0.2,0.5,0.3,0.9,0.3
	c0.5,0,1.1-0.3,1.9-0.8l0.4-1.8L156.4,43.5z M119.7,12.9c0,2.3-0.7,4-2.1,4.9c-1.2,0.9-3.1,1.3-5.6,1.3h-2v5.6l0.2,1.1
	c0.1,0.2,0.4,0.4,0.9,0.5v0.6h-6.5v-0.6l0.9-0.5l0.2-1.1V9.4l-0.2-1.1c-0.1-0.2-0.4-0.4-0.9-0.4V7.2h8.2c2.2,0,3.9,0.3,4.9,1
	C119,9.1,119.7,10.6,119.7,12.9z M110.3,8.6C110.1,8.7,110,9,110,9.5v8.4h2c1.2,0,2.1-0.5,2.6-1.4c0.4-0.8,0.7-2.1,0.7-3.8
	c0-2.8-1.2-4.3-3.6-4.3h-0.5L110.3,8.6z M101.6,11.5h-1.1l-0.3-0.9C100,9.7,99.5,9,99,8.8l-2.7-0.4h-2.2l-0.8,0.2l-0.2,0.8v6.1h2.6
	c1.8,0,3-0.2,3.6-0.6v2.5c-0.6-0.4-1.8-0.6-3.6-0.6h-2.6v7.4c0,0.6,0.2,1,0.6,1.3l2.5,0.3h0.6l2.7-0.4c0.5-0.3,0.8-1,1.1-2.2
	l0.2-0.8h1.3V27H87.8v-0.6c0.5-0.1,0.8-0.3,0.9-0.5l0.2-1.1V9.4l-0.2-1.1c-0.1-0.2-0.4-0.4-0.9-0.4V7.2h13.8
	C101.6,7.2,101.6,11.5,101.6,11.5z M84.6,11.5h-1.1l-0.3-0.9c-0.3-1-0.7-1.6-1.3-1.9l-2.7-0.4h-2.8c-0.6,0-1,0.1-1.2,0.3
	C75.1,8.8,75,9.1,75,9.5v4.7h1.1c3.2,0,5.4,0.3,6.7,0.9c1.7,0.9,2.6,2.6,2.6,5.1s-0.7,4.2-2.1,5.3c-1.2,0.9-3.1,1.3-5.8,1.3h-7.9
	v-0.6c0.5-0.1,0.9-0.3,1-0.5l0.2-1.1V9.4l-0.2-1.1c-0.1-0.2-0.5-0.4-1-0.4V7.2h14.8v4.3H84.6z M64.7,8.8c-0.6-0.4-1.5-0.6-2.8-0.6
	c-2,0-3.4,0.7-4.3,2.2c-0.7,1.3-1,3.3-1,6.2s0.4,5,1.2,6.4c0.9,1.7,2.5,2.5,4.8,2.5c1.7,0,3.3-0.4,5-1.2l0.6,1.3
	c-1.9,1.2-4.1,1.8-6.7,1.8c-6.3,0-9.4-3.3-9.4-9.9c0-7,3.3-10.4,9.8-10.4c2.5,0,4.4,0.3,5.8,0.9v4.1h-1.3l-0.3-1.2
	C65.6,9.8,65.2,9.2,64.7,8.8z M75.3,15.6V24c0,0.7,0.1,1.1,0.3,1.3c0.3,0.3,0.8,0.4,1.4,0.4h0.6c2.4,0,3.6-1.7,3.6-5.1
	c0-1.7-0.3-3-0.8-3.7c-0.6-0.9-1.8-1.3-3.4-1.3C76.9,15.5,75.3,15.5,75.3,15.6z"/>
<path class="st0" d="M34.8,4.1l1.8,1.6L14.4,18.4L3.7,12.2l1-2l9.7,5.6L34.8,4.1z M30.3,1.5l2.3,1.2L14.4,13.2L5.9,8.4l1.4-1.8l7,4
	L30.3,1.5z M38,7.3l1.3,1.8L14.4,23.4l-12-6.9l0.5-2.2l11.5,6.6L38,7.3z"/>
<path class="st0" d="M41.7,13.8c0.7,2.1,1.1,4.2,1.1,6.5s-0.4,4.5-1.1,6.6l-0.5,1.4c-1,2.4-2.5,4.6-4.3,6.5
	c-1.9,1.9-4.1,3.3-6.5,4.3c-2.6,1.1-5.2,1.7-8,1.7s-5.4-0.6-7.9-1.7C12,38,9.9,36.6,8,34.7c-1.9-1.9-3.3-4.1-4.3-6.5
	C2.5,25.6,2,23,2,20.3v-1.4L14.4,26l26.1-15L41.7,13.8z"/>
</svg>
