<?xml version="1.0" encoding="utf-8"?>
<!-- Generator: Adobe Illustrator 23.0.1, SVG Export Plug-In . SVG Version: 6.00 Build 0)  -->
<svg version="1.1" xmlns="http://www.w3.org/2000/svg" xmlns:xlink="http://www.w3.org/1999/xlink" x="0px" y="0px"
	 viewBox="0 0 235.1 72.2" style="enable-background:new 0 0 235.1 72.2;" xml:space="preserve">
<style type="text/css">
	.st0{fill:#FFFFFF;}
	.st1{fill:#A09F9F;}
</style>
<g id="Layer_1">
	<g>
		<g>
			<g>
				<path class="st0" d="M79.8,33.8l1-3.4l-3.5,0.1c-0.3,0-2.4-0.1-4.5-1.6c0.2,0,0.3,0,0.5,0c2.1,0,4.2-1.3,5-3.1l1.5-3.3
					c-1.9,0-3.6-0.2-3.6-0.2c0,0-1.4-0.2-2.9-1.8c-1.1-1.1-2.5-1.7-4-1.7c-0.7,0-1.2,0.1-1.7,0.3c0.1-0.3,0.2-0.5,0.2-0.8
					c0.5-3.1-1.5-5.5-1.5-5.5l-2.6-3.2l-1.6,3.8c0,0-0.4,0.9-1.1,1.3c-0.2-1.1-0.8-2.4-1.9-3.6c-2.2-2.3-4.8-2.6-6.2-2.6
					c-0.6,0-1.1,0.1-1.2,0.1l-3.2,0.6c0.2-0.7,0.6-1.9,1.3-3l1.7-2.7L47,4l-1.4-3l-2.7,1.4L40.4,0L38,2.5l-2.7-1.4l-1.4,3l-4.4-0.5
					l1.7,2.7c0.7,1.1,1.1,2.3,1.3,3l-3-0.6l-0.1,0c-0.2,0-0.6-0.1-1.3-0.1c-1.4,0-4,0.3-6.2,2.6c-1.2,1.2-1.7,2.5-1.9,3.6
					c-0.7-0.4-1.1-1.3-1.1-1.3l-1.6-3.8l-2.7,3.3c-0.3,0.4-1.9,2.6-1.5,5.4c0,0.3,0.1,0.5,0.2,0.8c-0.5-0.2-1.1-0.3-1.7-0.3
					c-1.5,0-2.9,0.6-4,1.7c-1.6,1.6-2.9,1.8-2.9,1.8c0,0-1.4,0.3-3.6,0.2l1.5,3.3c0.8,1.8,2.9,3.1,5,3.1c0.2,0,0.3,0,0.5,0
					c-2.1,1.5-4.2,1.6-4.5,1.6L0,30.4l1.1,3.4c0.5,1.7,2.3,4.6,5.8,4.9c-0.4,1.6-1.2,3.3-3,4.1l-2.6,1.1l1.4,2.5
					c0.8,1.3,2.7,2.9,5.4,2.9c0.6,0,1.2-0.1,1.7-0.2c0.1,0.6,0.3,1.2,0.5,1.8c0.8,2.4,0.1,4.1,0.1,4.1l-1.3,2.7l2.9,0.8
					c0,0,0.9,0.3,2,0.3c0.5,0,1-0.1,1.4-0.2c0.3-0.1,0.7-0.2,1-0.3c0.4,0.7,0.8,1.3,1.4,1.8c1.9,1.9,4.5,2.9,7.8,2.9h0l2.4,0l-4.9,2
					l3.7,1.8c1.4,0.7,3,1.4,4.6,2l-0.5,1.3l1.3,0.6c0.1,0.1,2.6,1.2,6.7,1.4c0,0,1,0,1.5,0c0.5,0,1.5,0,1.5,0
					c4.1-0.2,6.6-1.3,6.7-1.4l1.3-0.6l-0.5-1.3c1.7-0.6,3.4-1.4,4.7-2.1l3.7-1.8l-4.9-2l2.4,0c3.3,0,6-1,7.8-2.9
					c0.5-0.5,1-1.2,1.4-1.8c0.3,0.1,0.6,0.2,1,0.3c0.4,0.1,0.9,0.2,1.4,0.2c1.1,0,2-0.2,2-0.2l2.9-0.8l-1.3-2.7
					c0-0.1-0.7-1.7,0.1-4.1c0.2-0.6,0.4-1.2,0.5-1.8c0.5,0.1,1.1,0.2,1.7,0.2c3.5,0,5.1-2.4,5.4-3l1.4-2.5l-2.6-1.1
					c-1.8-0.8-2.7-2.5-3-4.1C77.4,38.4,79.3,35.5,79.8,33.8 M32.7,10.4L32.7,10.4L32.7,10.4L32.7,10.4z"/>
				<path class="st0" d="M40.4,10.3c-2.8,0-4.9,0.9-5.3,2l5.3,2.1l5.3-2.1C45.3,11.2,43.2,10.3,40.4,10.3"/>
				<path class="st0" d="M40.5,66L40.5,66L40.5,66h-0.1h0c-1.7,0-4-0.3-5.1-0.7L33.9,69c0.9,0.3,3.9,0.9,6.5,0.9
					c2.6,0,5.7-0.6,6.5-0.9l-1.3-3.7C44.5,65.7,42.2,66,40.5,66"/>
				<path class="st0" d="M50.7,62.4c-1,0.6-3.2,1.4-4.5,1.8l1.1,3c2-0.6,3.7-1.2,5.1-1.9L50,64.6L50.7,62.4z"/>
				<path class="st0" d="M30.2,62.4l0.7,2.2l-2.3,0.8c1.4,0.7,3,1.3,5.1,1.9l1.1-3C33.4,63.8,31.2,63,30.2,62.4"/>
				<path class="st0" d="M40.4,6.8c2.1,0,4.2,0.5,5.8,1.4c0.1-0.5,0.3-1.1,0.6-1.7l-0.6,0.1l-0.6,0.1l-0.3-0.6l-0.8-1.7l-1.5,0.8
					l-0.6,0.3L42,5l-1.6-1.6L38.9,5l-0.5,0.4l-0.6-0.3l-1.5-0.8l-0.8,1.7l-0.3,0.6l-0.6-0.1l-0.6-0.1c0.3,0.6,0.5,1.2,0.6,1.7
					C36.3,7.3,38.3,6.8,40.4,6.8"/>
				<path class="st0" d="M72.5,26.4c0.3,0.1,0.5,0.1,0.8,0.1c1.2,0,2.3-0.8,2.7-1.6c0,0-2.2-0.1-4.5-2.5c-0.7-0.8-1.5-1-2.2-1
					c-1.1,0-1.8,0.6-1.8,0.6C70.4,23.4,70.9,25.8,72.5,26.4"/>
				<path class="st0" d="M7.5,26.5c0.3,0,0.6,0,0.8-0.1c1.6-0.5,2.2-3,5-4.5c0,0-0.8-0.6-1.8-0.6c-0.7,0-1.5,0.2-2.2,1
					c-2.3,2.4-4.5,2.5-4.5,2.5C5.2,25.7,6.3,26.5,7.5,26.5"/>
				<path class="st0" d="M73.3,36.2c0,0,0.1,0,0.1,0c3,0,4-3.2,4-3.2h-0.1c-0.5,0-5-0.1-8.1-4.1c-2.1-2.6-3.7-4.9-7.1-5.8l-0.3-0.1
					l-0.1-0.3c-0.1-0.5,0.3-1,1-1.5c4.6-3,1.5-6.8,1.5-6.8s-1.3,3.1-4.2,3.1c-0.1,0-0.1,0-0.2,0c-0.3,0-0.7,0-1-0.1l-0.5-0.1
					c0,0,0.8-2.3-1.2-4.4c-1.5-1.6-3.4-1.8-4.4-1.8c-0.5,0-0.9,0.1-0.9,0.1c1,1.3,1.7,3.5,0.6,4.9c-1,1.2-3.5,1.2-3.5,3
					c0,0.7,0.7,1.6,1.9,2.4c3.7,2.3,7.4,5.4,8.9,9.6c1.9,5.2-0.2,8.6-3.3,10.6c0,0,1,0.9,2.4,1c0.3,0,0.6,0,0.8,0
					c3,0,4.5-1.4,4.5-1.4s-0.3,1.9-1.8,3.7c-1.4,1.6-3.3,2.6-6.1,2.6c0,0-0.1,1.3,1.2,2.5c0.8,0.7,2.7,1,2.7,1s-3.5,0.7-3.9,5.8
					c-0.2,2.8-0.9,3.8-0.9,3.8h0.1c8.1,0,7.9-6.9,7.9-6.9s0.6,2.1,2.8,2.6c0.3,0.1,0.6,0.1,0.8,0.1c0.7,0,1.4-0.2,1.4-0.2
					s-1.2-2.5,0-6c1-2.9,0.8-5,0.8-5s1.1,1.6,3.8,1.7h0c2.2,0,3.2-1.7,3.2-1.7c-5.4-2.2-4.9-9.5-4.9-9.5S71.9,36.2,73.3,36.2
					 M71.7,43.7c-2.2-1.1-3.6-3.9-3.9-5c-0.4,5.7-3.1,9.6-6.4,13.4c-1.7,2-2.3,3.9-2.3,3.9s0.3-2.2,1.8-3.9c3-3.6,5.9-8.2,6.1-13.4
					c0.1-3.7-0.8-6.6-2.3-9.1c0.8,2.5,0.7,5.7-2.1,8.6c0,0,5.5-6.6-2.2-13.5c-3.1-2.6-6.5-4.2-8.2-5.3c6.3,2.1,9.4-0.2,9.4-0.2
					c-2,1.7-4.6,1.7-6.2,1.5c0.4,0.2,0.9,0.4,1.4,0.7c5.3,2.9,10.1,7.7,10.9,14.2v-0.1C68.9,42.1,71.7,43.7,71.7,43.7"/>
				<path class="st0" d="M20.8,50.9c0,0,1.9-0.2,2.7-1c1.3-1.1,1.2-2.5,1.2-2.5c-2.8,0-4.7-1-6.1-2.6c-1.5-1.8-1.8-3.7-1.8-3.7
					s1.5,1.4,4.5,1.4c0.3,0,0.5,0,0.8,0c1.4-0.1,2.4-1,2.4-1c-3.1-2-5.2-5.4-3.3-10.6c1.5-4.2,5.2-7.3,8.9-9.6
					c1.2-0.8,1.9-1.6,1.9-2.4c0-1.7-2.5-1.8-3.5-3c-1.2-1.4-0.4-3.6,0.6-4.9c0,0-0.3-0.1-0.9-0.1c-1.1,0-2.9,0.3-4.4,1.8
					c-2,2.1-1.2,4.4-1.2,4.4L22,17.4c-0.3,0.1-0.6,0.1-1,0.1c-0.1,0-0.1,0-0.2,0c-2.9,0-4.2-3.1-4.2-3.1s-3.1,3.8,1.5,6.8
					c0.8,0.5,1.1,1,1,1.5L19,23.1l-0.3,0.1c-3.3,0.9-5,3.2-7.1,5.8c-3.1,4-7.5,4.1-8.1,4.1H3.5c0,0,1,3.2,4,3.2c0,0,0.1,0,0.1,0
					c1.4,0,2.1-0.6,2.1-0.6s0.5,7.2-4.9,9.5c0,0,1,1.7,3.2,1.7h0c2.7,0,3.8-1.7,3.8-1.7s-0.2,2.1,0.8,5c1.2,3.5,0,6,0,6
					s0.6,0.2,1.4,0.2c0.3,0,0.6,0,0.8-0.1c2.3-0.5,2.8-2.6,2.8-2.6s-0.2,6.9,7.9,6.9h0.1c0,0-0.7-1-0.9-3.8
					C24.3,51.7,20.8,50.9,20.8,50.9 M19.5,52.2c-3.2-3.8-6-7.7-6.4-13.4c-0.3,1-1.7,3.9-3.9,5c0,0,2.8-1.7,4-8.1v0.1
					c0.8-6.6,5.6-11.3,10.9-14.2c0.5-0.3,0.9-0.5,1.4-0.7c-1.6,0.3-4.2,0.3-6.2-1.5c0,0,3.1,2.3,9.4,0.2c-1.7,1.1-5.1,2.7-8.2,5.3
					c-7.8,6.8-2.2,13.5-2.2,13.5c-2.8-2.9-2.9-6-2.1-8.6c-1.5,2.4-2.4,5.4-2.3,9.1C14.1,44,17,48.5,20,52.2c1.5,1.8,1.8,3.9,1.8,3.9
					S21.2,54.2,19.5,52.2"/>
				<path class="st0" d="M34.5,25.6c0.1,0.1,0.3,0.3,0.4,0.5c0,0,0.1,0.1,0.1,0.1c0.1,0.2,0.2,0.3,0.3,0.5c0,0,0,0.1,0.1,0.1
					c0.1,0.2,0.3,0.4,0.4,0.6c1.2,2,3,3.2,4.7,3.2c1.7,0,3.5-1.2,4.7-3.2c0.1-0.2,0.3-0.4,0.4-0.6c0,0,0-0.1,0.1-0.1
					c0.1-0.2,0.2-0.3,0.4-0.5c0,0,0.1-0.1,0.1-0.1c0.1-0.2,0.3-0.3,0.4-0.5c0,0,0,0,0.1-0.1c0.6-0.6,1.3-1.1,2.2-1.3L48.3,24h0
					l-1.6-1l-1.7-1l-4.5,2.5l0,0l0,0l-4.5-2.5l-1.7,1l-1.6,1h0l-0.4,0.2C33.1,24.5,33.8,24.9,34.5,25.6
					C34.4,25.6,34.4,25.6,34.5,25.6 M38.6,25.4h1.9h1.9v1.3c-0.4-0.5-1.3-0.4-1.3-0.4v1.9c0,0,0,0.9,0.4,1.3h-0.9h-0.9
					c0.3-0.4,0.4-1.3,0.4-1.3v-1.9c0,0-0.9-0.1-1.3,0.4V25.4z"/>
				<path class="st0" d="M40.1,22.9v-7.7l-4.9-1.7l1.3,7.4L40.1,22.9z M39,17.1v1.2l-0.2-0.1c0,0-0.4-0.1-1-0.6c-1-0.8-1-1.5-1-1.5
					L39,17.1z"/>
				<path class="st0" d="M44.4,21l1.3-7.4l-4.9,1.7v7.7L44.4,21z M41.9,17.1l2.2-0.9c0,0,0,0.7-1,1.5c-0.6,0.5-0.9,0.6-1,0.6
					l-0.2,0.1V17.1z"/>
				<path class="st0" d="M33.2,40.6c0.5,0.2,1,0.2,1.3,0.2c0,0,0-0.1,0-0.1c0-0.1,0.1-0.2,0.1-0.3c0.1-0.4,0.1-0.9,0.1-1.2
					c-0.2-0.1-0.5-0.3-0.6-0.7c-0.2-0.4-0.4-0.6-0.8-0.6c-0.5,0-1,0.3-1.2,0.4C31.9,39.5,32.6,40.4,33.2,40.6"/>
				<path class="st0" d="M43.9,36.6c-0.9,1-2.7,2.7-2.8,2.8l-0.1,0.1l-5.6-0.1c0,0.6-0.1,1-0.2,1.4c0,0.1,0,0.1,0,0.2l6.7,1.2
					c0.7-0.5,2.6-1.9,3.3-2.4c-0.5-0.8-0.6-1.7-0.5-2.4C44.4,37.1,44.2,36.8,43.9,36.6"/>
				<path class="st0" d="M44.7,29.8c-1.3,1.3-2.5,1.8-3.6,1.9c-0.2,0-0.4,0-0.6,0h0h0c-0.2,0-0.4,0-0.6,0c-0.2,0-0.4,0-0.6-0.1
					c-0.1,0.3-0.2,0.9,0.1,1.5c0.2,0.5,0.7,0.9,1.4,1.2l0.2,0.1l0,0.3c0,0.1,0.1,1.7,1.8,2.2c0.3-0.3,0.6-0.6,0.7-0.8
					c-0.4-0.9-0.2-1.7,0.4-2.2c0,0.1-0.3,2.2,1.5,3l0.3,0.1l-0.1,0.3c0,0.1-0.6,2.2,1.5,2.9l0.4,0.1l-0.2,0.4c0,0.1-0.8,2,1.1,3h4.2
					v-3.3c-1.5-0.2-2.1-1.4-2.3-2.2c-0.7-0.1-1.2-0.4-1.6-0.9c-0.9-1.1-0.1-2.2-0.1-2.3c0,0,0,1.1,0.7,1.8c0.3,0.3,0.7,0.6,1.4,0.6
					l0.3,0l0,0.3c0,0.1,0.2,1.6,1.6,1.8l0-6.7c0-1,0.3-2.1,0.7-3.1H44.7z"/>
				<polygon class="st0" points="33.5,32.9 33.4,37.2 33.9,37.3 35.1,33.2 34.5,31.9 				"/>
				<path class="st0" d="M46.7,52.6c0,0,0.1,0,0.1,0c0.7,0.2,0.9,2.9,2.2,3.1c0.1,0,0.2,0,0.3,0c0.4,0,0.6-0.2,0.8-0.4
					c0,0-0.7-1-1.1-1.7c-0.7-0.9-1.2-2-2.4-2c0,0-0.1,0-0.1,0c-0.4,0-0.6,0.2-0.6,0.2c-0.5-0.3-0.9-0.4-1.4-0.4
					c-0.8,0-1.3,0.3-1.6,0.3h0l-2.7-0.3c-0.4,0-0.8-0.5-0.9-0.6c0,0,0-0.1,0-0.1c0-0.1,0-0.1,0-0.2c-0.1-2.2-1.8-3.2-2.4-3.2
					c0,0,0.1-0.4-0.1-0.6l-0.6,0.7l-2-1l1.4,1.6l-1.2,1.3c-0.1,0.2-0.1,0.4-0.1,0.4l0.5,0.5l0.6-0.4c0,0,0.1,0,0.2,0
					c0.2,0,0.4,0,0.7,0c0.3,0,0.5-0.1,0.5-0.3c-0.1,0.8-0.8,2.2-0.3,3.4l0.4,0.8l-2.4-0.3l-1.1,1.9c-0.3,0.6-0.4,1.3-0.1,1.7
					l0.4,0.5c0,0,0.6-0.6,0.7-1l-0.2-0.2c-0.2-0.2-0.2-0.3-0.1-0.5l0.7-1.2l2.8,0.7l0.1-0.3c0.2-0.3,0.5-0.4,0.8-0.4
					c0.1,0,0.3,0,0.4,0c0.5,0.1,1.4,0.2,2.2,0.2c0.9,0,1.9-0.2,2.4-0.7c1,1.5,3.1,1.8,2.9,2.5l-0.5,2.6c0.4,0,0.7,0,1-0.1l0.5-2.7
					c0.1-0.3,0.1-0.7,0.1-0.7c-0.2-0.2-0.7-0.6-1-1.2c-0.4-0.7-0.2-1.1-0.5-2C46.3,52.8,46.4,52.6,46.7,52.6 M36.1,48.8
					c-0.1,0-0.2-0.1-0.2-0.3c0-0.1,0.1-0.2,0.3-0.2c0.1,0,0.2,0.1,0.2,0.3C36.3,48.7,36.2,48.8,36.1,48.8"/>
				<path class="st0" d="M32.2,55c0,0,0.9-0.4,1-0.7l-0.1-0.3c-0.1-0.2-0.1-0.4,0.1-0.5l1-0.7l1.7,0.3c0,0-0.3-0.4-0.3-0.9L34,51.9
					l-1.5,0.9c-0.7,0.5-0.7,1.3-0.5,1.8L32.2,55z"/>
				<path class="st0" d="M44.2,59.4c0.3,0,0.6,0,1,0c0,0,0.9-2.5,0.9-2.6c-0.5-0.2-1.5-0.8-1.9-1c0.3,0.4,0.9,0.8,0.8,1.2L44.2,59.4
					z"/>
				<path class="st1" d="M52.4,44.4h-24v9c0,3.7,2.7,6,6.6,6c3.3,0,4.2,0.1,5.4,1.3c0.8-0.8,1.5-1.2,3-1.3l0-0.1l0.8-2.3
					c0-0.1-1.3-1.5-1.3-1.5c-0.5,0.2-0.9,0.2-1.6,0.2c-0.7,0-1.5-0.1-2.4-0.2c-0.1,0-0.2,0-0.3,0c-0.1,0-0.1,0-0.1,0.1l-0.1,0.2
					l-0.3,0.5l-0.5-0.1l-2.3-0.5L35,56.1l0,0.1l0.3,0.3l-0.1,0.4c-0.2,0.5-0.7,1.1-0.9,1.3l-0.6,0.6l-0.5-0.7l-0.4-0.5
					c-0.4-0.5-0.5-1.2-0.3-1.9c0,0,0,0,0,0L31.9,56l-0.3-0.6l-0.2-0.4c-0.4-0.8-0.2-1.9,0.7-2.6l1.9-1l1.8,0.3
					c0-0.2,0.1-0.8,0.2-0.9c0,0-0.1,0-0.1,0l-1,0.4l-1-0.7c0,0-0.4-0.4,0-0.7l0.9-1.4l-2.4-3l3.7,1.5l0.2-0.3l0.5-0.6l0.6,0.5
					c0.2,0.2,0.3,0.3,0.3,0.5c1,0.4,2.8,1.6,3,3.5L40,50.5v0c0.1,0.2,0.2,0.2,0.3,0.2l2.6,0.3c0.1,0,0.1,0,0.2-0.1
					c0.3-0.1,0.8-0.3,1.4-0.3c0.5,0,0.9,0.1,1.4,0.3c0.2-0.1,0.4-0.1,0.6-0.1l0.1,0c1.4,0,2.1,1.1,2.7,1.9c0.1,0.1,0.2,0.3,0.3,0.4
					c0.5,0.7,1.1,1.7,1.2,1.8l0.3,0.5l-0.4,0.4c-0.3,0.3-0.7,0.7-1.4,0.7c-0.1,0-0.3,0-0.5,0c-0.1,0-0.3-0.1-0.4-0.1
					c0,0.1,0,0.3-0.1,0.4l-0.5,2.4c2.8-0.7,4.5-2.8,4.5-5.8L52.4,44.4z"/>
				<path class="st1" d="M28.4,43.7h18.7c-0.9-1-0.9-2.2-0.7-3c-0.3-0.1-0.5-0.3-0.7-0.5c-0.7,0.5-3,2.2-3.5,2.6l-0.1,0.1l-7.3-1.3
					h-0.1c-0.2,0-0.4,0-0.7,0c-0.1,0.3-0.4,0.6-0.7,0.6c0,0-0.1,0-0.1,0c-0.2,0-0.4-0.1-0.5-0.3c-0.1-0.2-0.2-0.3-0.1-0.5l0-0.2
					c-0.8-0.5-1.5-1.7-1.1-3l0-0.1l0.1-0.1c0,0,0.1-0.1,0.3-0.2l-0.5-0.1c-0.2,0-0.3-0.2-0.3-0.4c0-0.2,0.2-0.3,0.4-0.3l1.3,0.2
					l0.1-4.5l1.9-2l1.2,2.5l-1.2,4.3l1.1,0.2c0.2,0,0.3,0.2,0.3,0.4c0,0.2-0.2,0.3-0.4,0.3c0,0,0,0-0.1,0l-0.9-0.1c0,0,0,0,0,0.1
					c0.1,0.2,0.3,0.3,0.4,0.4l5.6,0.1c0.2-0.2,0.8-0.8,1.4-1.4c-1.4-0.5-1.9-1.7-2-2.5c-0.8-0.3-1.3-0.8-1.6-1.5
					c-0.4-0.8-0.2-1.6-0.1-2c-0.7-0.3-1.5-0.8-2.3-1.6h-8.4c0.4,1,0.7,2,0.7,3.1V43.7z"/>
				<path class="st1" d="M36.1,48.3c-0.1,0-0.3,0.1-0.3,0.2c0,0.1,0.1,0.3,0.2,0.3c0.1,0,0.3-0.1,0.3-0.2
					C36.4,48.4,36.3,48.3,36.1,48.3"/>
				<path class="st1" d="M52.4,64.7L51,64.1l0.4-1.4l0.4-1.6c0,0-2.4,1.3-5.9,2.3c-1,0.3-1.7,0.4-1.7,0.4V65c0,0-1.8,0.3-3.7,0.3h0
					h0h0h0c-1.9,0-3.7-0.3-3.7-0.3v-1.1c0,0-0.7-0.1-1.7-0.4c-3.5-1-5.9-2.3-5.9-2.3l0.4,1.6l0.4,1.4l-1.4,0.5l-1.5,0.6
					c1.8,0.9,4.2,2.1,6.4,2.7l-0.5,1.4c0,0,2.8,1.3,7.6,1.3v0h0h0h0h0v0c4.7,0,7.6-1.3,7.6-1.3l-0.5-1.4c2.2-0.6,4.7-1.9,6.4-2.7
					L52.4,64.7z M28.6,65.3l2.3-0.8l-0.7-2.2c1,0.6,3.2,1.4,4.5,1.8l-1.1,3C31.6,66.7,30,66,28.6,65.3 M40.4,69.9
					c-2.6,0-5.7-0.6-6.5-0.9l1.3-3.7c1.1,0.3,3.4,0.7,5.1,0.7h0h0.1h0h0c1.7,0,4-0.3,5.1-0.7L47,69C46.1,69.3,43.1,69.9,40.4,69.9
					 M47.3,67.2l-1.1-3c1.3-0.4,3.5-1.3,4.6-1.8L50,64.6l2.3,0.8C50.9,66,49.3,66.7,47.3,67.2"/>
				<path class="st1" d="M40.4,7.7c2.8,0,5.1,0.9,6.3,1.9c0,0,0.4-2.2,1.6-4.2l-2.3,0.3l-1.2-2.5l-2.3,1.2l-2.2-2.2l-2.2,2.2L36,3.2
					l-1.2,2.5l-2.3-0.3c1.3,2,1.6,4.2,1.6,4.2C35.4,8.6,37.6,7.7,40.4,7.7 M34.7,6.6l0.6,0.1l0.3-0.6l0.8-1.7l1.5,0.8l0.6,0.3
					L38.9,5l1.6-1.6L42,5l0.5,0.4l0.6-0.3l1.5-0.8l0.8,1.7l0.3,0.6l0.6-0.1l0.6-0.1c-0.3,0.6-0.5,1.2-0.6,1.7
					c-1.6-0.9-3.6-1.4-5.8-1.4c-2.1,0-4.2,0.5-5.7,1.4c-0.1-0.5-0.3-1.1-0.6-1.7L34.7,6.6z"/>
				<path class="st1" d="M73.4,37.2c3.6,0,4.9-3.7,4.9-3.9l0.4-1.3l-1.4,0h0c-0.5,0-4.5-0.1-7.3-3.7L69.8,28
					c-1.9-2.4-3.6-4.6-6.8-5.6c0.1-0.1,0.2-0.2,0.4-0.3c1.7-1.1,2.6-2.4,2.9-4c0.4-2.3-1.1-4.2-1.2-4.3l-1-1.3L63.5,14
					c0,0.1-1.1,2.5-3.3,2.5h-0.2c-0.2,0-0.3,0-0.4,0c0.1-1.1-0.1-2.7-1.6-4.2c-1.8-1.9-4-2.1-5.1-2.1c-0.6,0-1,0.1-1.1,0.1l-1.5,0.3
					l0.9,1.2c0.7,1,1.4,2.7,0.6,3.7c-0.3,0.3-0.8,0.5-1.3,0.8c-1,0.5-2.4,1.1-2.4,2.8c0,1.1,0.8,2.2,2.4,3.2
					c4.5,2.8,7.3,5.8,8.5,9.1c1.9,5-0.6,7.9-2.9,9.4l-1.1,0.7l0.9,0.9c0.1,0.1,1.3,1.1,2.9,1.3c0.3,0,0.6,0,0.9,0
					c1.1,0,2-0.2,2.7-0.4c-0.2,0.4-0.5,0.7-0.8,1.1c-1.4,1.6-3,2.3-5.4,2.3l-0.9,0l-0.1,0.9c0,0.2-0.1,1.8,1.5,3.2
					c0.2,0.2,0.5,0.4,0.8,0.5c-1.1,1-2.1,2.6-2.3,5.5c-0.2,2.4-0.7,3.3-0.8,3.3l-1,1.5l1.8,0c2.9,0,5.2-0.8,6.7-2.4
					c0.9-0.9,1.4-2,1.8-3c0.5,0.4,1.2,0.8,2,1c0.3,0.1,0.7,0.1,1.1,0.1c0.8,0,1.5-0.2,1.6-0.2l1.1-0.3l-0.5-1.1c0-0.1-1-2.2,0-5.2
					c0.4-1.3,0.7-2.5,0.8-3.4c0.7,0.4,1.7,0.7,2.9,0.7c2.8,0,4-2.1,4.1-2.2l0.6-1l-1-0.4c-3.3-1.4-4.1-5.1-4.2-7.1
					c0.3,0.1,0.6,0.1,1,0.1L73.4,37.2z M76.1,45.1c0,0-1,1.7-3.2,1.7h0c-2.7,0-3.8-1.7-3.8-1.7s0.2,2.1-0.8,5c-1.2,3.5,0,6,0,6
					s-0.6,0.2-1.4,0.2c-0.3,0-0.6,0-0.8-0.1c-2.3-0.5-2.8-2.6-2.8-2.6s0.2,6.9-7.9,6.9h-0.1c0,0,0.7-1,0.9-3.8
					c0.4-5.1,3.9-5.8,3.9-5.8s-1.9-0.2-2.7-1c-1.3-1.1-1.2-2.5-1.2-2.5c2.8,0,4.7-1,6.1-2.6c1.5-1.8,1.8-3.7,1.8-3.7
					s-1.5,1.4-4.5,1.4c-0.3,0-0.5,0-0.8,0c-1.4-0.1-2.4-1-2.4-1c3.1-2,5.2-5.4,3.3-10.6c-1.5-4.2-5.2-7.3-8.9-9.6
					C49.7,20.6,49,19.7,49,19c0-1.7,2.5-1.8,3.5-3c1.2-1.4,0.4-3.6-0.6-4.9c0,0,0.3-0.1,0.9-0.1c1.1,0,2.9,0.3,4.4,1.8
					c2,2.1,1.2,4.4,1.2,4.4l0.5,0.1c0.3,0.1,0.6,0.1,1,0.1c0.1,0,0.1,0,0.2,0c2.9,0,4.2-3.1,4.2-3.1s3.1,3.8-1.5,6.8
					c-0.8,0.5-1.1,1-1,1.5l0.1,0.3l0.3,0.1c3.3,0.9,5,3.2,7.1,5.8c3.1,4,7.5,4.1,8.1,4.1h0.1c0,0-1,3.2-4,3.2c0,0-0.1,0-0.1,0
					c-1.4,0-2.1-0.6-2.1-0.6S70.7,42.9,76.1,45.1"/>
				<path class="st1" d="M67.1,22.8c1.4,0.7,2.1,1.7,2.8,2.6c0.7,0.8,1.3,1.6,2.3,2c0.4,0.1,0.7,0.2,1.1,0.2c1.5,0,3-0.9,3.6-2.2
					l0.6-1.3l-1.4-0.1c-0.1,0-1.9-0.2-3.9-2.2c-0.8-0.8-1.8-1.3-2.9-1.3c-1.3,0-2.3,0.7-2.4,0.7L65.7,22L67.1,22.8z M69.4,21.3
					c0.7,0,1.5,0.2,2.2,1c2.3,2.4,4.5,2.5,4.5,2.5c-0.4,0.9-1.5,1.6-2.7,1.6c-0.3,0-0.6,0-0.8-0.1c-1.6-0.5-2.2-3-5-4.5
					C67.5,21.9,68.3,21.3,69.4,21.3"/>
				<path class="st1" d="M67.7,35.6L67.7,35.6c-0.8-6.5-5.6-11.3-10.9-14.2c-0.5-0.3-0.9-0.5-1.4-0.7c1.6,0.3,4.2,0.3,6.2-1.5
					c0,0-3.1,2.3-9.4,0.2c1.7,1.1,5.1,2.7,8.2,5.3c7.8,6.8,2.2,13.5,2.2,13.5c2.8-2.9,2.9-6,2.1-8.6c1.5,2.4,2.4,5.4,2.3,9.1
					c-0.2,5.2-3.1,9.8-6.1,13.4c-1.5,1.8-1.8,3.9-1.8,3.9s0.6-1.9,2.3-3.9c3.2-3.8,6-7.7,6.4-13.4c0.3,1,1.7,3.9,3.9,5
					C71.7,43.7,68.9,42.1,67.7,35.6"/>
				<path class="st1" d="M26.4,60c0,0-0.6-0.9-0.7-3.3c-0.2-2.9-1.3-4.5-2.4-5.5c0.3-0.1,0.6-0.3,0.8-0.5c1.6-1.4,1.5-3.1,1.5-3.2
					l-0.1-0.9l-0.9,0c-2.4,0-4.1-0.8-5.4-2.3c-0.3-0.4-0.6-0.7-0.8-1.1c0.7,0.2,1.7,0.4,2.7,0.4c0.3,0,0.6,0,0.9,0
					c1.7-0.1,2.8-1.1,2.9-1.3l0.9-0.9l-1.1-0.7c-2.4-1.5-4.8-4.4-2.9-9.4c1.2-3.3,4-6.3,8.5-9.1c1.5-1,2.4-2.1,2.4-3.2
					c0-1.7-1.4-2.3-2.4-2.8c-0.5-0.2-1-0.5-1.3-0.8c-0.8-0.9-0.1-2.7,0.6-3.7l0.9-1.2l-1.5-0.3c0,0-0.4-0.1-1.1-0.1
					c-1.1,0-3.3,0.3-5.1,2.1c-1.5,1.5-1.7,3.2-1.6,4.2c-0.1,0-0.3,0-0.4,0h-0.2c-2.2,0-3.3-2.4-3.3-2.5l-0.6-1.5l-1,1.3
					c-0.1,0.1-1.6,1.9-1.2,4.3c0.2,1.6,1.2,2.9,2.9,4c0.2,0.1,0.3,0.2,0.4,0.3c-3.2,1-4.9,3.3-6.8,5.6l-0.3,0.3
					C8,32,4,32.1,3.5,32.1l-1.4,0l0.4,1.3c0,0.2,1.3,3.9,4.9,3.9l0.2,0c0.4,0,0.7-0.1,1-0.1c-0.2,2-0.9,5.7-4.2,7.1l-1,0.4l0.6,1
					C4,45.7,5.2,47.8,8,47.8c1.2,0,2.2-0.3,2.9-0.7c0.1,0.9,0.3,2.1,0.8,3.4c1,3,0.1,5.2,0,5.2l-0.5,1.1l1.1,0.3
					c0.1,0,0.8,0.2,1.6,0.2c0.4,0,0.7,0,1.1-0.1c0.9-0.2,1.5-0.6,2-1c0.3,0.9,0.8,2,1.8,3c1.6,1.6,3.8,2.4,6.7,2.4l1.8,0L26.4,60z
					 M25.5,60.5c-8.1,0-7.9-6.9-7.9-6.9s-0.6,2.1-2.8,2.6c-0.3,0.1-0.6,0.1-0.8,0.1c-0.7,0-1.4-0.2-1.4-0.2s1.2-2.5,0-6
					c-1-2.9-0.8-5-0.8-5s-1.1,1.6-3.8,1.7h0c-2.2,0-3.2-1.7-3.2-1.7c5.4-2.2,4.9-9.5,4.9-9.5s-0.7,0.5-2.1,0.6c0,0-0.1,0-0.1,0
					c-3,0-4-3.2-4-3.2h0.1c0.5,0,5-0.1,8.1-4.1c2.1-2.6,3.7-4.9,7.1-5.8l0.3-0.1l0.1-0.3c0.1-0.5-0.3-1-1-1.5
					c-4.6-3-1.5-6.8-1.5-6.8s1.3,3.1,4.2,3.1c0.1,0,0.1,0,0.2,0c0.3,0,0.7,0,1-0.1l0.5-0.1c0,0-0.8-2.3,1.2-4.4
					c1.5-1.6,3.4-1.8,4.4-1.8c0.5,0,0.9,0.1,0.9,0.1c-1,1.3-1.7,3.5-0.6,4.9c1,1.2,3.5,1.2,3.5,3c0,0.7-0.7,1.6-1.9,2.4
					c-3.7,2.3-7.4,5.4-8.9,9.6c-1.9,5.2,0.2,8.6,3.3,10.6c0,0-1,0.9-2.4,1c-0.3,0-0.6,0-0.8,0c-3,0-4.5-1.4-4.5-1.4s0.3,1.9,1.8,3.7
					c1.4,1.6,3.3,2.6,6.1,2.6c0,0,0.1,1.3-1.2,2.5c-0.8,0.7-2.7,1-2.7,1s3.5,0.7,3.9,5.8C24.9,59.6,25.6,60.5,25.5,60.5L25.5,60.5z"
					/>
				<path class="st1" d="M7.5,27.5c0.4,0,0.8-0.1,1.1-0.2c1-0.3,1.7-1.1,2.3-2c0.7-0.9,1.5-1.8,2.8-2.6l1.4-0.7l-1.3-0.9
					c-0.1-0.1-1.1-0.7-2.4-0.7c-1.1,0-2.1,0.4-2.9,1.3c-2,2.1-3.8,2.2-3.9,2.2L3.3,24l0.6,1.3C4.5,26.5,6,27.5,7.5,27.5 M9.3,22.4
					c0.7-0.8,1.5-1,2.2-1c1,0,1.8,0.6,1.8,0.6c-2.8,1.5-3.4,3.9-5,4.5c-0.3,0.1-0.5,0.1-0.8,0.1c-1.2,0-2.3-0.8-2.7-1.6
					C4.8,24.9,7,24.7,9.3,22.4"/>
				<path class="st1" d="M13.9,38.7c-0.2-3.7,0.8-6.6,2.3-9.1c-0.8,2.5-0.7,5.7,2.1,8.6c0,0-5.5-6.6,2.2-13.5
					c3.1-2.6,6.5-4.2,8.2-5.3c-6.3,2.1-9.4-0.2-9.4-0.2c2,1.7,4.6,1.7,6.2,1.5c-0.4,0.2-0.9,0.4-1.4,0.7
					c-5.3,2.9-10.1,7.7-10.9,14.2v-0.1c-1.2,6.5-4,8.1-4,8.1c2.2-1.1,3.6-3.9,3.9-5c0.4,5.7,3.1,9.6,6.4,13.4c1.7,2,2.3,3.9,2.3,3.9
					s-0.3-2.2-1.8-3.9C17,48.5,14.1,44,13.9,38.7"/>
				<path class="st1" d="M38.6,25.4v1.3c0.5-0.5,1.3-0.4,1.3-0.4v1.9c0,0,0,0.9-0.4,1.3h0.9h0.9c-0.3-0.4-0.4-1.3-0.4-1.3v-1.9
					c0,0,0.9-0.1,1.3,0.4v-1.3h-1.9H38.6z"/>
				<path class="st1" d="M37.8,17.7c0.6,0.5,1,0.6,1,0.6l0.2,0.1v-1.2l-2.2-0.9C36.8,16.2,36.8,16.9,37.8,17.7"/>
				<path class="st1" d="M43.1,17.7c1-0.8,1-1.5,1-1.5l-2.2,0.9v1.2l0.2-0.1C42.1,18.2,42.5,18.1,43.1,17.7"/>
				<path class="st1" d="M47.1,12.7c0-1.9-3.1-3.5-6.6-3.5h0h0h0c-3.5,0-6.6,1.7-6.6,3.5l0.1,0.5l1.4,8l-1.4,0.8L30.3,24h0
					c0,0-0.8,0.4-1.2,0.7c-1.4,1-1.7,2.3-0.9,2.9c0.2-1.1,1.1-2.3,2.8-2.3c1.2,0,2.1,0.6,2.9,1.6c0.2,0.2,0.4,0.5,0.5,0.8
					c0.2,0.3,0.4,0.6,0.6,0.9h-9.3c0.7,1.4,1.3,2.8,1.3,4.4v20.5c0,5,3.8,7.3,8,7.3c3.2,0,3.6-0.1,5.4,1.6c1.8-1.8,2.2-1.6,5.4-1.6
					c4.1,0,8-2.4,8-7.3V32.9c0-1.6,0.6-3,1.3-4.4h-9.3c0.2-0.3,0.4-0.6,0.6-0.9c0.2-0.3,0.4-0.5,0.5-0.8c0.7-0.9,1.7-1.6,2.9-1.6
					c1.7,0,2.6,1.2,2.8,2.3c0.8-0.6,0.5-2-0.9-2.9c-0.4-0.3-1.2-0.7-1.2-0.7h0L47,21.9l-1.4-0.8l1.4-8L47.1,12.7z M35.2,13.6
					l4.9,1.7v7.7L36.5,21L35.2,13.6z M36.2,29.8c0.8,0.8,1.6,1.3,2.3,1.6c-0.1,0.4-0.2,1.2,0.1,2c0.3,0.6,0.8,1.1,1.6,1.5
					c0.1,0.8,0.6,2,2,2.5c-0.6,0.6-1.2,1.2-1.4,1.4l-5.6-0.1c-0.1-0.1-0.3-0.2-0.4-0.4c0,0,0,0,0-0.1l0.9,0.1c0,0,0,0,0.1,0
					c0.2,0,0.3-0.1,0.4-0.3c0-0.2-0.1-0.4-0.3-0.4l-1.1-0.2l1.2-4.3l-1.2-2.5l-1.9,2l-0.1,4.5l-1.3-0.2c-0.2,0-0.4,0.1-0.4,0.3
					c0,0.2,0.1,0.4,0.3,0.4l0.5,0.1c-0.2,0.1-0.3,0.2-0.3,0.2L31.4,38l0,0.1c-0.3,1.3,0.4,2.4,1.1,3l0,0.2c0,0.2,0,0.4,0.1,0.5
					c0.1,0.2,0.3,0.3,0.5,0.3c0,0,0.1,0,0.1,0c0.3,0,0.6-0.2,0.7-0.6c0.3,0,0.5,0,0.7,0h0.1l7.3,1.3l0.1-0.1c0.6-0.4,2.8-2,3.5-2.6
					c0.2,0.2,0.4,0.3,0.7,0.5c-0.2,0.8-0.3,2,0.7,3H28.4V32.9c0-1-0.3-2.1-0.7-3.1H36.2z M45.2,39.7c-0.7,0.5-2.6,1.9-3.3,2.4
					l-6.7-1.2c0-0.1,0-0.1,0-0.2c0.1-0.3,0.2-0.8,0.2-1.4l5.6,0.1l0.1-0.1c0.1-0.1,1.9-1.8,2.8-2.8c0.2,0.3,0.5,0.5,0.8,0.8
					C44.7,38,44.7,38.9,45.2,39.7 M34.1,38.5c0.2,0.3,0.4,0.5,0.6,0.7c0,0.3,0,0.8-0.1,1.2c0,0.1,0,0.2-0.1,0.3c0,0.1,0,0.1,0,0.1
					c-0.3,0-0.9,0-1.3-0.2c-0.5-0.2-1.3-1.2-1.1-2.2c0.2-0.1,0.8-0.4,1.2-0.4C33.7,38,33.9,38.1,34.1,38.5 M33.4,37.2l0.1-4.3l1-1
					l0.6,1.3l-1.2,4.1L33.4,37.2z M45.2,59.4c-0.4,0-0.7,0-1,0L45,57c0.1-0.3-0.5-0.8-0.8-1.2c0.4,0.2,1.4,0.8,1.9,1
					C46,56.9,45.2,59.4,45.2,59.4 M47.7,56.6l-0.5,2.7c-0.3,0-0.7,0.1-1,0.1l0.5-2.6c0.2-0.8-1.9-1-2.9-2.5
					c-0.5,0.6-1.4,0.7-2.4,0.7c-0.9,0-1.7-0.1-2.2-0.2c-0.1,0-0.3,0-0.4,0c-0.3,0-0.6,0.1-0.8,0.4l-0.2,0.3L35,54.7l-0.7,1.2
					c-0.1,0.2-0.1,0.3,0.1,0.5l0.2,0.2c-0.1,0.4-0.7,1-0.7,1l-0.4-0.5c-0.3-0.4-0.3-1.1,0.1-1.7l1.1-1.9l2.4,0.3l-0.4-0.8
					c-0.5-1.1,0.3-2.5,0.3-3.4c0,0.2-0.3,0.3-0.5,0.3c-0.2,0-0.5,0-0.7,0c-0.1,0-0.1,0-0.2,0l-0.6,0.4l-0.5-0.5
					c-0.1-0.1-0.1-0.3,0.1-0.4l1.2-1.3l-1.4-1.6l2,1l0.6-0.7c0.2,0.2,0.1,0.6,0.1,0.6c0.6,0,2.3,1,2.4,3.2c0,0.1,0,0.1,0,0.2
					c0,0,0,0,0,0.1c0.1,0.2,0.5,0.6,0.9,0.6l2.7,0.3h0c0.3,0,0.9-0.3,1.6-0.3c0.4,0,0.9,0.1,1.4,0.4c0,0,0.2-0.2,0.6-0.2
					c0,0,0.1,0,0.1,0c1.2,0,1.7,1.1,2.4,2c0.5,0.7,1.1,1.7,1.1,1.7c-0.2,0.3-0.5,0.4-0.8,0.4c-0.1,0-0.2,0-0.3,0
					c-1.3-0.2-1.5-2.9-2.2-3.1c0,0-0.1,0-0.1,0c-0.2,0-0.3,0.2-0.3,0.2c0.3,0.9,0.1,1.3,0.5,2c0.3,0.5,0.8,0.9,1,1.2
					C47.8,55.9,47.7,56.3,47.7,56.6 M33.1,54.1l0.1,0.3c-0.1,0.3-1,0.7-1,0.7L32,54.6c-0.2-0.5-0.2-1.3,0.5-1.8l1.5-0.9l1.6,0.3
					c0,0.5,0.3,0.9,0.3,0.9l-1.7-0.3l-1,0.7C33.1,53.6,33.1,53.9,33.1,54.1 M47.9,59.2l0.5-2.4c0-0.1,0.1-0.3,0.1-0.4
					c0.1,0.1,0.3,0.1,0.4,0.1c0.2,0,0.3,0,0.5,0c0.7,0,1.1-0.4,1.4-0.7l0.4-0.4l-0.3-0.5c0,0-0.7-1.1-1.2-1.8
					c-0.1-0.1-0.2-0.3-0.3-0.4c-0.6-0.8-1.3-1.9-2.7-1.9l-0.1,0c-0.2,0-0.4,0.1-0.6,0.1c-0.4-0.2-0.9-0.3-1.4-0.3
					c-0.6,0-1.1,0.2-1.4,0.3C43.1,51,43,51,42.9,51l-2.6-0.3c0,0-0.1-0.1-0.3-0.2v0l0.6-0.2c-0.2-1.9-2-3.1-3-3.5
					c0-0.2-0.1-0.4-0.3-0.5l-0.6-0.5l-0.5,0.6L36,46.6l-3.7-1.5l2.4,3l-0.9,1.4c-0.3,0.4,0,0.7,0,0.7l1,0.7l1-0.4c0,0,0.1,0,0.1,0
					c0,0.2-0.1,0.8-0.2,0.9L34,51.2l-1.9,1c-1,0.7-1.1,1.9-0.7,2.6l0.2,0.4l0.3,0.6l0.6-0.3c0,0,0,0,0,0c-0.2,0.7-0.1,1.5,0.3,1.9
					l0.4,0.5l0.5,0.7l0.6-0.6c0.2-0.2,0.7-0.8,0.9-1.3l0.1-0.4l-0.3-0.3l0-0.1l0.3-0.5l2.3,0.5l0.5,0.1l0.3-0.5l0.1-0.2
					c0-0.1,0-0.1,0.1-0.1c0.1,0,0.2,0,0.3,0c0.9,0.2,1.7,0.2,2.4,0.2c0.7,0,1.1,0,1.6-0.2c0,0,1.2,1.4,1.3,1.5l-0.8,2.3l0,0.1
					c-1.4,0.1-2.1,0.4-3,1.3c-1.2-1.2-2.1-1.3-5.4-1.3c-3.9,0-6.6-2.3-6.6-6v-9h24l0,9C52.4,56.4,50.7,58.5,47.9,59.2 M53.1,29.8
					c-0.4,1-0.7,2-0.7,3.1l0,6.7c-1.4-0.2-1.6-1.8-1.6-1.8l0-0.3l-0.3,0c-0.6-0.1-1-0.3-1.4-0.6c-0.7-0.7-0.7-1.8-0.7-1.8
					c0,0.1-0.8,1.1,0.1,2.3c0.4,0.5,0.9,0.8,1.6,0.9c0.2,0.8,0.8,2,2.3,2.2v3.3h-4.2c-1.9-1.1-1.1-2.9-1.1-3l0.2-0.4L47,40.1
					c-2.1-0.8-1.5-2.8-1.5-2.9l0.1-0.3l-0.3-0.1c-1.7-0.8-1.5-2.9-1.5-3c-0.5,0.4-0.7,1.3-0.4,2.2c-0.2,0.2-0.5,0.5-0.7,0.8
					C41,36.3,41,34.6,41,34.6l0-0.3l-0.2-0.1c-0.7-0.3-1.2-0.6-1.4-1.2c-0.3-0.6-0.2-1.2-0.1-1.5c0.2,0,0.4,0.1,0.6,0.1
					c0.2,0,0.4,0,0.6,0h0h0c0.2,0,0.4,0,0.6,0c1.1-0.1,2.3-0.6,3.6-1.9H53.1z M46.6,23l1.6,1h0l0.4,0.2c-0.9,0.3-1.6,0.7-2.2,1.3
					c0,0,0,0-0.1,0.1c-0.1,0.1-0.3,0.3-0.4,0.5c0,0,0,0.1-0.1,0.1c-0.1,0.2-0.2,0.3-0.4,0.5c0,0,0,0.1-0.1,0.1
					c-0.1,0.2-0.3,0.4-0.4,0.6c-1.2,2-3,3.2-4.7,3.2c-1.7,0-3.5-1.2-4.7-3.2c-0.1-0.2-0.3-0.4-0.4-0.6c0,0-0.1-0.1-0.1-0.1
					c-0.1-0.2-0.2-0.3-0.3-0.5c0,0-0.1-0.1-0.1-0.1c-0.1-0.2-0.3-0.3-0.4-0.5c0,0,0,0-0.1-0.1c-0.6-0.6-1.3-1.1-2.2-1.3l0.4-0.2h0
					l1.6-1l1.7-1l4.5,2.5l0,0l0,0l4.5-2.5L46.6,23z M44.4,21l-3.6,1.9v-7.7l4.9-1.7L44.4,21z M40.4,14.4l-5.3-2.1
					c0.5-1.1,2.5-2,5.3-2c2.8,0,4.9,0.9,5.3,2L40.4,14.4z"/>
			</g>
		</g>
		<g>
			<path class="st1" d="M113.3,29.4c0.3-0.4,0.5-0.8,0.8-1.3h0.2v9.4h4.2V21.7h-4.2l-4.8,7.2c-0.3,0.4-0.5,0.8-0.8,1.2
				c-0.3,0.4-0.5,0.8-0.8,1.2h-0.2v-9.7h-4.2v15.9h4.2c0.8-1.1,1.6-2.2,2.3-3.4c0.8-1.2,1.5-2.3,2.3-3.4
				C112.7,30.3,113,29.9,113.3,29.4"/>
			<polygon class="st1" points="126.8,31 133.1,31 133.1,37.6 137.4,37.6 137.4,21.7 133.1,21.7 133.1,27.7 126.8,27.7 126.8,21.7 
				122.5,21.7 122.5,37.6 126.8,37.6 			"/>
			<path class="st1" d="M154.9,32.5c0-1.6-0.6-2.9-1.7-3.8c-1.1-0.9-2.6-1.3-4.5-1.3h-3.1v-5.6h-4.2v15.9h7.5c1.8,0,3.3-0.4,4.4-1.2
				C154.4,35.5,154.9,34.2,154.9,32.5 M150,33.9c-0.4,0.3-1,0.5-1.7,0.5h-2.7v-3.9h2.7c0.7,0,1.3,0.2,1.7,0.5
				c0.4,0.3,0.6,0.8,0.6,1.5C150.7,33.1,150.4,33.6,150,33.9"/>
			<path class="st1" d="M209.6,35.5c0.7-0.7,1.3-1.6,1.8-2.6c0.4-1,0.7-2.1,0.7-3.4c0-1.2-0.2-2.3-0.6-3.2c-0.4-1-1-1.8-1.7-2.5
				c-0.7-0.7-1.6-1.3-2.7-1.7c-1-0.4-2.1-0.6-3.3-0.7v-6l-4,1.5v4.4c-1.2,0.1-2.3,0.3-3.3,0.7c-1,0.4-1.9,1-2.7,1.7
				c-0.8,0.7-1.4,1.5-1.8,2.5c-0.4,1-0.7,2-0.7,3.2c0,1.3,0.2,2.4,0.6,3.4c0.4,1,1,1.9,1.7,2.6c0.7,0.7,1.6,1.3,2.7,1.7
				c1,0.4,2.2,0.6,3.5,0.7v6.7l4-1.5v-5.2c1.2-0.1,2.3-0.3,3.3-0.7C207.9,36.8,208.8,36.2,209.6,35.5 M199.6,34.8
				c-0.6,0-1.2-0.2-1.7-0.4c-0.5-0.2-1-0.6-1.4-1c-0.4-0.4-0.7-1-1-1.6c-0.2-0.6-0.4-1.3-0.4-2.2c0-1.4,0.4-2.5,1.2-3.5
				c0.8-0.9,1.9-1.5,3.3-1.6V34.8z M205.2,34.4c-0.5,0.2-1.1,0.4-1.6,0.4V24.5c1.4,0.1,2.5,0.6,3.2,1.6c0.8,0.9,1.1,2.1,1.1,3.5
				c0,0.8-0.1,1.6-0.4,2.2c-0.2,0.6-0.6,1.2-1,1.6C206.2,33.8,205.8,34.1,205.2,34.4"/>
			<path class="st1" d="M234.4,32.9c0.4-1,0.6-2.1,0.6-3.4c0-1.2-0.2-2.3-0.6-3.2c-0.4-1-1-1.8-1.7-2.5c-0.7-0.7-1.6-1.3-2.7-1.7
				c-1-0.4-2.2-0.6-3.3-0.7v-6l-4,1.5v4.4c-1.2,0.1-2.3,0.3-3.3,0.7c-1,0.4-1.9,1-2.7,1.7c-0.8,0.7-1.4,1.5-1.8,2.5
				c-0.4,1-0.7,2-0.7,3.2c0,1.3,0.2,2.4,0.6,3.4c0.4,1,1,1.9,1.7,2.6c0.7,0.7,1.6,1.3,2.7,1.7c1,0.4,2.2,0.6,3.5,0.7v6.7l4-1.5v-5.2
				c1.2-0.1,2.3-0.3,3.3-0.7c1-0.4,1.9-1,2.6-1.7C233.4,34.8,234,33.9,234.4,32.9 M222.7,34.8c-0.6,0-1.2-0.2-1.7-0.4
				c-0.5-0.2-1-0.6-1.4-1c-0.4-0.4-0.7-1-1-1.6c-0.2-0.6-0.4-1.3-0.4-2.2c0-1.4,0.4-2.5,1.2-3.5c0.8-0.9,1.9-1.5,3.3-1.6V34.8z
				 M230.6,31.8c-0.2,0.6-0.6,1.2-1,1.6c-0.4,0.4-0.9,0.8-1.4,1c-0.5,0.2-1.1,0.4-1.6,0.4V24.5c1.4,0.1,2.5,0.6,3.2,1.6
				c0.8,0.9,1.1,2.1,1.1,3.5C231,30.4,230.9,31.1,230.6,31.8"/>
			<polygon class="st1" points="86.3,18.6 92.5,18.6 92.5,37.6 96.9,37.6 96.9,18.6 102.9,18.6 102.9,14.9 86.3,14.9 			"/>
			<polygon class="st1" points="172.6,21.8 167.7,21.8 162.1,28.5 162.1,21.7 157.8,21.7 157.8,37.6 162.1,37.6 162.1,29.8 
				167.6,37.6 172.6,37.6 166.4,29.1 			"/>
			<path class="st1" d="M186.8,23.6c-0.7-0.7-1.5-1.3-2.5-1.6c-1-0.4-2-0.6-3.1-0.6c-1.1,0-2.2,0.2-3.1,0.6c-1,0.4-1.8,0.9-2.5,1.6
				c-0.7,0.7-1.2,1.6-1.6,2.6c-0.4,1-0.6,2.2-0.6,3.5c0,1.3,0.2,2.4,0.6,3.4c0.4,1,0.9,1.9,1.6,2.6c0.7,0.7,1.5,1.3,2.4,1.7
				c0.9,0.4,2,0.6,3.2,0.6c1.1,0,2.2-0.2,3.1-0.6c1-0.4,1.8-0.9,2.5-1.6c0.7-0.7,1.2-1.6,1.6-2.6c0.4-1,0.6-2.2,0.6-3.5
				c0-1.3-0.2-2.4-0.6-3.4C188,25.2,187.4,24.3,186.8,23.6 M184.4,31.6c-0.2,0.6-0.4,1.1-0.7,1.5c-0.3,0.4-0.7,0.8-1.1,1
				c-0.4,0.2-0.9,0.4-1.5,0.4c-1.1,0-2-0.4-2.6-1.3c-0.6-0.9-0.9-2.1-0.9-3.6c0-1.4,0.3-2.5,0.9-3.4c0.6-0.9,1.4-1.4,2.6-1.4
				c1.2,0,2.1,0.5,2.7,1.3c0.6,0.9,0.9,2.1,0.9,3.5C184.7,30.3,184.6,31,184.4,31.6"/>
		</g>
		<g>
			<path class="st1" d="M98.8,52.6c1.6,0,2.8,0.4,3.7,1.1c0.9,0.7,1.3,1.9,1.3,3.4c0,1.5-0.4,2.6-1.3,3.3s-2.1,1.2-3.7,1.2h-6.3
				V46.2h9.8v1.6h-8.1v4.8H98.8z M102,57.1c0-0.9-0.3-1.6-0.8-2.1c-0.6-0.5-1.3-0.8-2.3-0.8h-4.6V60h4.6c1,0,1.8-0.2,2.3-0.7
				C101.8,58.8,102,58.1,102,57.1z"/>
			<path class="st1" d="M110.6,49.8c1.3,0,2.4,0.3,3.1,0.9c0.7,0.6,1.1,1.6,1.1,2.8v8h-1.7v-1.1h0c-0.6,0.6-1.2,0.9-1.8,1.1
				c-0.6,0.2-1.2,0.3-1.7,0.3c-0.5,0-0.9-0.1-1.4-0.2c-0.5-0.1-0.9-0.3-1.2-0.6c-0.4-0.3-0.7-0.7-0.9-1.1c-0.2-0.5-0.3-1-0.3-1.7
				c0-0.6,0.1-1.1,0.3-1.5c0.2-0.5,0.5-0.8,0.9-1.2c0.4-0.3,0.8-0.6,1.4-0.7c0.5-0.2,1.1-0.3,1.7-0.3c0.5,0,1,0.1,1.5,0.2
				c0.5,0.1,1.1,0.3,1.6,0.6v-1.4c0-0.9-0.2-1.5-0.7-2c-0.4-0.4-1.1-0.6-2-0.6c-0.6,0-1.1,0.1-1.6,0.2c-0.5,0.1-1,0.3-1.5,0.6
				l-0.6-1.3c0.6-0.3,1.1-0.5,1.8-0.6C109.1,49.9,109.8,49.8,110.6,49.8z M113.1,56.7c-0.5-0.3-0.9-0.5-1.4-0.6
				c-0.5-0.2-1-0.2-1.7-0.2c-0.8,0-1.4,0.2-1.9,0.6c-0.5,0.4-0.8,1-0.8,1.7c0,0.8,0.2,1.3,0.7,1.7c0.4,0.4,1.1,0.6,1.9,0.6
				c0.6,0,1.2-0.2,1.8-0.5c0.6-0.3,1.1-0.7,1.5-1.1V56.7z"/>
			<path class="st1" d="M125.1,61.6v-5.3H119v5.3h-1.7V50h1.7v4.8h6.1V50h1.7v11.6H125.1z"/>
			<path class="st1" d="M138,50.1l-5.2,5.3l5.4,6.2h-2l-5-5.9v5.9h-1.7V50.1h1.7v5.1l5-5.1H138z"/>
		</g>
	</g>
</g>
<g id="Layer_2">
</g>
</svg>
