<?xml version="1.0" encoding="utf-8"?>
<!-- Generator: Adobe Illustrator 23.0.1, SVG Export Plug-In . SVG Version: 6.00 Build 0)  -->
<svg version="1.1" id="Layer_1" xmlns="http://www.w3.org/2000/svg" xmlns:xlink="http://www.w3.org/1999/xlink" x="0px" y="0px"
	 viewBox="0 0 208.2 58.1" style="enable-background:new 0 0 208.2 58.1;" xml:space="preserve">
<style type="text/css">
	.st0{fill-rule:evenodd;clip-rule:evenodd;fill:#009FDF;}
	.st1{fill-rule:evenodd;clip-rule:evenodd;fill:#0A2973;}
</style>
<title>Group 6</title>
<desc>Created with Sketch.</desc>
<g id="vtb_ru">
	<g id="Group-6">
		<g id="Group-Copy">
			<g id="Group-2">
				<path id="Fill-1" class="st0" d="M33.7,0l-2.8,7.6h38.5L72.2,0H33.7z M29.5,11.4L26.8,19h38.5l2.8-7.6H29.5z M25.4,22.8
					l-2.8,7.6h38.5l2.8-7.6H25.4z"/>
				<g id="Clip-3">
				</g>
				<path id="Fill-2" class="st1" d="M104.4,33.3v0.2c1.8,0.6,3.4,1.8,4.3,2.5c2.7,2.3,3.9,5.2,3.9,9.1c0,6.4-3.4,11-8.9,12.4
					c-1.7,0.5-3.4,0.6-6.7,0.6H80.3V11.5h14.8c3,0,5.1,0.2,7,0.6c5.4,1.5,8.9,5.2,8.9,11c0,3.1-1.1,5.8-3,7.6
					C107.2,31.6,106.1,32.6,104.4,33.3z M89.6,38.2v12.2H96c1.9,0,3.7-0.2,5-1.4s1.8-2.7,1.8-4.8c0-1.5-0.4-3-1.2-4
					c-1.4-1.7-3-2.1-5.9-2.1L89.6,38.2L89.6,38.2z M89.5,30.2h5.2c1.6,0,2.4,0,3.2-0.2c2.2-0.6,3.5-2.6,3.5-5.2
					c0-3.1-1.4-4.5-3.5-5.2c-0.9-0.2-1.8-0.3-3.5-0.3h-4.9C89.5,19.3,89.5,30.2,89.5,30.2z M126.5,58.1V19.4h-13.3v-7.8h37.1
					l-2.6,7.8h-11.8v38.8L126.5,58.1L126.5,58.1z M153.1,58.1V11.5h30.1l-2.6,7.8h-18.2v10.3h7.4c6,0,9.1,1.5,11.3,3.3
					c1.7,1.5,4.6,4.7,4.6,11s-3,9.7-5.4,11.5c-2.9,2-5.9,2.6-12.1,2.6h-15.1V58.1z M162.3,50.3h7c2.6,0,4.2-0.6,5.4-2.1
					c0.6-0.7,1.4-2,1.4-4.4s-0.8-4.1-2.4-5.3c-1-0.7-2.2-1.1-4.4-1.1h-6.9v12.9H162.3z"/>
			</g>
		</g>
	</g>
</g>
</svg>
