<?xml version="1.0" encoding="utf-8"?>
<!-- Generator: Adobe Illustrator 23.0.1, SVG Export Plug-In . SVG Version: 6.00 Build 0)  -->
<svg version="1.1" id="Layer_1" xmlns="http://www.w3.org/2000/svg" xmlns:xlink="http://www.w3.org/1999/xlink" x="0px" y="0px"
	 viewBox="0 0 594.4 247.9" style="enable-background:new 0 0 594.4 247.9;" xml:space="preserve">
<style type="text/css">
	.st0{fill:#A0A0A0;}
</style>
<g>
	<path class="st0" d="M193.2,247.1h-9l-5.3-19.6c-0.6-2.4-1-5.2-1-5.2h-0.1c0,0-0.4,2.8-1.1,5.2l-5.3,19.6h-9l-10-34.4h8.7l4.9,21.1
		c0.6,2.6,0.9,5.6,0.9,5.6h0.1c0,0,0.5-3,1.2-5.6l5.5-21.1h8l5.6,21.1c0.6,2.6,1.2,5.6,1.2,5.6h0.1c0,0,0.3-3,0.9-5.6l4.9-21.1h8.8
		L193.2,247.1z"/>
	<path class="st0" d="M220.5,247.9c-10.4,0-15.5-4.1-15.5-11.1c0-9.4,9.8-11.2,20.2-11.8v-1.8c0-3.6-2.5-4.9-6.5-4.9
		c-3.2,0-7.2,1-9.6,2l-2.2-5.9c2.9-1.2,7.8-2.5,12.8-2.5c8.8,0,13.7,3.5,13.7,12.3v21.2C230.8,246.7,225.6,247.9,220.5,247.9z
		 M225.1,230.5c-6.4,0.3-12,0.9-12,6.1c0,3.2,2.6,5.1,7.1,5.1c1.9,0,4-0.3,4.9-0.7V230.5z"/>
	<path class="st0" d="M239.9,247.1V197h8.7v50.2L239.9,247.1L239.9,247.1z"/>
	<path class="st0" d="M255.9,247.1V197h8.7v50.2L255.9,247.1L255.9,247.1z"/>
	<path class="st0" d="M300.7,230.5l-22.2,3c0.8,5,4.5,7.6,9.5,7.6c3.5,0,7.1-0.9,9.6-2.2l2.5,6.5c-2.9,1.5-7.7,2.5-12.7,2.5
		c-11.4,0-17.4-7.4-17.4-18c0-10.5,5.9-18,16-18c9.5,0,14.8,6.3,14.8,15.7C300.8,228.5,300.8,229.5,300.7,230.5z M285.8,218.2
		c-4.5,0-7.7,3.3-7.9,9.8l14.5-2C292.4,220.9,289.8,218.2,285.8,218.2z"/>
	<path class="st0" d="M317.7,247.6c-6.6,0-9.8-3.6-9.8-10.9v-17.6h-4.4v-6.5h4.4V205l8.5-2.5v10.1h6.5v6.5h-6.5v17
		c0,2.8,1.7,3.8,4,3.8c0.9,0,1.9-0.3,2.5-0.5v7.2C321.9,247.2,319.8,247.6,317.7,247.6z"/>
	<path class="st0" d="M356.8,247.9c-10,0-15.6-7.7-15.6-18s5.6-18,15.6-18s15.6,7.7,15.6,18C372.4,240.2,366.8,247.9,356.8,247.9z
		 M356.8,218.8c-4.6,0-6.9,4.2-6.9,11c0,6.9,2.3,11,6.9,11c4.6,0,6.9-4.1,6.9-11C363.7,222.9,361.4,218.8,356.8,218.8z"/>
	<path class="st0" d="M397.6,247.1v-22.7c0-3.5-2.1-5.6-6.1-5.6c-2,0-4,0.4-5.2,0.8V247h-8.7v-32.7c3.6-1.5,8-2.5,13.7-2.5
		c10.2,0,15,4.2,15,11.6V247L397.6,247.1L397.6,247.1z"/>
	<path class="st0" d="M442.3,230.5l-22.2,3c0.8,5,4.5,7.6,9.5,7.6c3.5,0,7.1-0.9,9.6-2.2l2.5,6.5c-2.9,1.5-7.7,2.5-12.7,2.5
		c-11.4,0-17.4-7.4-17.4-18c0-10.5,5.9-18,16-18c9.5,0,14.8,6.3,14.8,15.7C442.4,228.5,442.4,229.5,442.3,230.5z M427.4,218.2
		c-4.5,0-7.7,3.3-7.9,9.8l14.4-2C434,220.9,431.4,218.2,427.4,218.2z"/>
	<path class="st0" d="M385.3,56.7c-8.6-8.6-23.2-8.1-32.5,1.1l-33.6,33.5V23.8c0-13.1-10-23.8-22.2-23.8c-5.2,0-10,2-13.8,5.3
		c-1.3,0.9-2.6,1.9-3.8,3.1l-83,83.1V23.8c0-13.1-10-23.8-22.2-23.8S152,10.7,152,23.8v118.8c0,5,1.5,9.6,3.9,13.4
		c0.9,1.5,1.9,3,3.2,4.3c2.7,2.7,6.1,4.4,9.6,5.3h0.1c7.7,2,16.5-0.2,22.8-6.5l83.3-83.3v66.7c0,3.5,0.8,6.9,2.1,9.9
		c1,2.8,2.7,5.5,4.9,7.8c8.6,8.6,23.3,8.1,32.5-1.1l69.9-69.9C393.4,80,393.9,65.4,385.3,56.7z"/>
	<path class="st0" d="M440.2,23.8c0.3-6-1.7-11.9-6.1-16.3c-4.6-4.6-10.9-6.6-17.1-6.1c-2.7,0.1-5.2,0.8-7.5,1.9
		c-2.9,1.2-5.5,3-7.9,5.3l-44.8,44.9c-9.3,9.3-9.8,23.9-1.2,32.5s23.2,8.1,32.5-1.1l7.8-7.8v66.8c0,13.1,10,23.8,22.2,23.8
		c12.2,0,22.2-10.7,22.2-23.8V25.1C440.2,24.7,440.2,24.2,440.2,23.8z"/>
</g>
</svg>
