<svg width="63" height="62" viewBox="0 0 63 62" fill="none" xmlns="http://www.w3.org/2000/svg">
<g clip-path="url(#clip0)">
<path d="M31.233 48.9127V48.9325C29.0843 48.9296 26.9536 48.532 24.95 47.7585C22.7953 46.9267 20.8315 45.677 19.1745 44.0838C17.5175 42.4907 16.2008 40.5863 15.3019 38.4831C14.403 36.3799 13.94 34.1205 13.94 31.838C13.94 29.5556 14.403 27.2958 15.3019 25.1926C16.2008 23.0894 17.5175 21.1851 19.1745 19.5919C20.8315 17.9987 22.7953 16.7491 24.95 15.9172C27.1048 15.0854 29.4067 14.6883 31.7198 14.7494L31.733 14.2496V14.7496H31.7432C36.3379 14.7496 40.7432 16.5522 43.9903 19.7588C47.1175 22.847 48.9238 26.9937 49.0526 31.3442H49.0496L49.0498 31.8444C49.051 34.0875 48.604 36.309 47.7344 38.3816C46.8648 40.4541 45.5896 42.3373 43.9814 43.9232C42.3732 45.509 40.4637 46.7662 38.362 47.6226C36.2603 48.4791 34.0079 48.918 31.7339 48.9136L31.233 48.9127ZM44.4623 31.3442H44.4406C44.3823 29.8654 44.0588 28.4072 43.4841 27.0379C42.8447 25.5143 41.9069 24.1309 40.725 22.9671L40.7244 22.9677C39.2479 21.5078 37.4301 20.4307 35.4324 19.8311C33.4346 19.2315 31.3181 19.1277 29.2701 19.5291C27.2222 19.9304 25.3056 20.8245 23.6903 22.1327C22.075 23.441 20.8107 25.1231 20.0103 27.0302C19.2098 28.9373 18.898 31.0105 19.1027 33.0655C19.3073 35.1205 20.0222 37.0933 21.1833 38.8095C22.3443 40.5256 23.9157 41.932 25.7577 42.9041C27.4523 43.7984 29.3281 44.3001 31.2432 44.3744V44.3979L31.7444 44.3966C35.11 44.388 38.3366 43.0646 40.7194 40.7139C43.1026 38.363 44.4482 35.1752 44.4604 31.846L44.4623 31.3442ZM40.3742 23.322L40.6841 23.0086L40.3742 23.3233V23.322Z" fill="#7BBE4D" stroke="white"/>
<path fill-rule="evenodd" clip-rule="evenodd" d="M37.4361 26.0695L32.0255 24.3645C31.9235 24.3276 31.8117 24.3276 31.7097 24.3645L26.2992 26.0695C26.1948 26.0999 26.1031 26.1629 26.0375 26.2493C25.972 26.3357 25.9361 26.4409 25.9352 26.5492V33.2511C25.9352 34.6535 26.8143 36.0632 28.7932 37.4509C29.6937 38.0786 30.6504 38.6221 31.6512 39.0746C31.7185 39.1039 31.7912 39.119 31.8647 39.119C31.9381 39.119 32.0108 39.1039 32.0781 39.0746C33.0789 38.6221 34.0356 38.0786 34.9361 37.4509C36.915 36.0632 37.7941 34.6535 37.7941 33.2511V26.5492C37.7936 26.4417 37.7586 26.3371 37.6942 26.2508C37.6298 26.1645 37.5393 26.101 37.4361 26.0695Z" fill="#7BBE4D"/>
<path fill-rule="evenodd" clip-rule="evenodd" d="M11.8588 42.8096C14.4138 42.8112 16.8636 43.8227 18.6703 45.6218C20.4769 47.4209 21.4925 49.8605 21.4941 52.4048H21.4882C21.4895 53.6649 21.241 54.9128 20.7572 56.0771C20.2733 57.2414 19.5635 58.2992 18.6684 59.1899C17.7734 60.0805 16.7106 60.7866 15.5411 61.2676C14.3715 61.7485 13.1182 61.9949 11.8529 61.9927C10.5656 62.0283 9.28416 61.8064 8.08438 61.3404C6.8846 60.8743 5.79079 60.1736 4.86763 59.2794C3.94447 58.3853 3.21067 57.3158 2.7096 56.1344C2.20854 54.953 1.95038 53.6837 1.95038 52.4012C1.95038 51.1188 2.20854 49.8493 2.7096 48.6679C3.21067 47.4865 3.94447 46.417 4.86763 45.5229C5.79079 44.6287 6.8846 43.9279 8.08438 43.4619C9.28416 42.9959 10.5656 42.774 11.8529 42.8096H11.8588Z" fill="#878786"/>
<path fill-rule="evenodd" clip-rule="evenodd" d="M32.0248 61.1513C31.6083 60.7419 31.3231 60.2185 31.2054 59.6477C31.0877 59.0769 31.1427 58.4842 31.3634 57.9445C31.5842 57.4047 31.9607 56.9423 32.4455 56.6159C32.9302 56.2894 33.5013 56.1135 34.0865 56.1104C34.6717 56.1073 35.2446 56.277 35.7328 56.5984C36.221 56.9197 36.6025 57.3781 36.829 57.9154C37.0555 58.4528 37.1169 59.045 37.0052 59.6171C36.8936 60.1891 36.6141 60.7153 36.202 61.1291C35.9304 61.4059 35.6064 61.626 35.2486 61.7771C34.8909 61.9282 34.5066 62.0071 34.118 62.0092C33.7295 62.0113 33.3444 61.9365 32.985 61.7892C32.6257 61.6419 32.2993 61.4251 32.0248 61.1513Z" fill="#7BBE4D"/>
<path fill-rule="evenodd" clip-rule="evenodd" d="M49.9509 49.231C49.1174 48.4096 48.5472 47.3604 48.3125 46.2163C48.0777 45.0721 48.1889 43.8844 48.6319 42.8031C49.075 41.7219 49.8301 40.7959 50.8017 40.142C51.7733 39.4881 52.9177 39.1358 54.0904 39.1296C55.263 39.1234 56.4112 39.4636 57.3897 40.1072C58.3682 40.7508 59.1331 41.6688 59.5876 42.7453C60.0422 43.8218 60.166 45.0083 59.9435 46.1548C59.7209 47.3014 59.1619 48.3565 58.3373 49.1867C57.2268 50.2922 55.7233 50.917 54.1532 50.9253C52.5831 50.9335 51.073 50.3247 49.9509 49.231Z" fill="#DADADA"/>
<path fill-rule="evenodd" clip-rule="evenodd" d="M45.2118 11.0714C45.505 11.0714 45.7916 11.1581 46.0353 11.3203C46.2791 11.4825 46.4691 11.7129 46.5813 11.9827C46.6935 12.2524 46.7229 12.5492 46.6657 12.8356C46.6085 13.1219 46.4673 13.385 46.26 13.5915C46.0527 13.7979 45.7885 13.9385 45.501 13.9955C45.2134 14.0525 44.9154 14.0231 44.6445 13.9113C44.3736 13.7996 44.1421 13.6104 43.9793 13.3677C43.8164 13.1249 43.7294 12.8396 43.7294 12.5476C43.7294 12.1561 43.8856 11.7805 44.1636 11.5037C44.4416 11.2269 44.8186 11.0714 45.2118 11.0714Z" fill="#DADADA"/>
<path fill-rule="evenodd" clip-rule="evenodd" d="M59.2978 19.9286C60.0309 19.9296 60.7471 20.1471 61.3561 20.5535C61.965 20.96 62.4391 21.5372 62.7186 22.2121C62.9981 22.8869 63.0703 23.6292 62.9261 24.3449C62.7819 25.0607 62.4278 25.7177 61.9086 26.233C61.3894 26.7483 60.7284 27.0988 60.0091 27.24C59.2899 27.3811 58.5448 27.3067 57.8681 27.0261C57.1914 26.7455 56.6134 26.2712 56.2073 25.6634C55.8012 25.0557 55.5853 24.3417 55.5867 23.6117C55.5887 22.6333 55.9807 21.6958 56.6766 21.0051C57.3725 20.3145 58.3153 19.9272 59.2978 19.9286Z" fill="#7BBE4D"/>
<path fill-rule="evenodd" clip-rule="evenodd" d="M4.81763 25.0952C5.3307 25.0952 5.83224 25.2467 6.25884 25.5306C6.68544 25.8144 7.01794 26.2179 7.21428 26.69C7.41063 27.162 7.46199 27.6814 7.36189 28.1826C7.2618 28.6837 7.01475 29.1439 6.65195 29.5052C6.28916 29.8665 5.82694 30.1126 5.32373 30.2123C4.82052 30.312 4.29892 30.2608 3.82491 30.0653C3.35089 29.8698 2.94573 29.5387 2.66069 29.1138C2.37564 28.689 2.22351 28.1895 2.22351 27.6785C2.22351 26.9934 2.49681 26.3363 2.9833 25.8519C3.46979 25.3674 4.12963 25.0952 4.81763 25.0952V25.0952Z" fill="#7BBE4D"/>
<path fill-rule="evenodd" clip-rule="evenodd" d="M10.6597 0.00369155C13.4117 0.00369155 16.051 1.09244 17.997 3.03031C19.943 4.96819 21.0362 7.59645 21.0362 10.337H21.0302C21.0309 11.6935 20.7629 13.0369 20.2415 14.2901C19.7201 15.5432 18.9555 16.6816 17.9917 17.6401C17.0278 18.5986 15.8835 19.3582 14.6244 19.8757C13.3652 20.3931 12.0159 20.6582 10.6538 20.6556V20.663C9.26828 20.6999 7.88939 20.46 6.59852 19.9575C5.30766 19.455 4.13096 18.6999 3.1379 17.7371C2.14484 16.7742 1.35555 15.6231 0.816611 14.3515C0.277669 13.0799 0 11.7137 0 10.3334C0 8.95319 0.277669 7.58678 0.816611 6.31516C1.35555 5.04355 2.14484 3.89243 3.1379 2.92958C4.13096 1.96674 5.30766 1.2117 6.59852 0.709171C7.88939 0.206643 9.26828 -0.0331935 10.6538 0.00369155H10.6597ZM15.6856 5.33272C14.8598 4.50927 13.8427 3.90141 12.7246 3.56298C11.6064 3.22455 10.4217 3.16597 9.27543 3.39251C8.12913 3.61906 7.05663 4.12367 6.153 4.86168C5.24937 5.59968 4.54249 6.5483 4.09502 7.62341C3.64754 8.69851 3.47328 9.867 3.58768 11.0252C3.70207 12.1834 4.10159 13.2955 4.75083 14.2632C5.40007 15.2309 6.27899 16.0243 7.30969 16.5728C8.34039 17.1213 9.49105 17.4082 10.6597 17.408V17.4154C12.544 17.4106 14.3499 16.6634 15.683 15.3372C17.0161 14.011 17.7682 12.2135 17.775 10.337H17.7691C17.77 9.4074 17.5865 8.48671 17.2291 7.62791C16.8717 6.76912 16.3474 5.98913 15.6864 5.33272H15.6856Z" fill="#7BBE4D"/>
</g>
<defs>
<clipPath id="clip0">
<rect width="63" height="62" fill="white"/>
</clipPath>
</defs>
</svg>
