<svg width="63" height="62" viewBox="0 0 63 62" fill="none" xmlns="http://www.w3.org/2000/svg">
<g clip-path="url(#clip0)">
<path d="M31.733 48.5875L31.733 48.5757L31.733 48.5875ZM31.733 48.5875L31.7327 48.5757L31.7198 48.0885C31.5575 48.0928 31.3952 48.0948 31.233 48.0946M31.733 48.5875L49.5498 31.0063H49.06C49.06 30.8393 49.0575 30.6727 49.0526 30.5063M31.233 48.0946V48.0748L31.7339 48.0757C34.0079 48.0801 36.2603 47.6412 38.362 46.7848C40.4637 45.9283 42.3732 44.6711 43.9814 43.0853C45.5896 41.4994 46.8648 39.6162 47.7344 37.5437C48.604 35.4711 49.051 33.2496 49.0498 31.0065L49.0496 30.5063H49.0526M31.233 48.0946C29.0843 48.0917 26.9536 47.6941 24.95 46.9206C22.7953 46.0888 20.8315 44.8391 19.1745 43.2459C17.5175 41.6528 16.2008 39.7484 15.3019 37.6452C14.403 35.542 13.94 33.2826 13.94 31.0001C13.94 28.7177 14.403 26.4579 15.3019 24.3547C16.2008 22.2515 17.5175 20.3472 19.1745 18.754C20.8315 17.1608 22.7953 15.9112 24.95 15.0794C27.1048 14.2475 29.4067 13.8504 31.7198 13.9115L31.7198 13.9117H31.733H31.7432C36.3379 13.9117 40.7432 15.7143 43.9903 18.9209C47.1175 22.0091 48.9238 26.1558 49.0526 30.5063M31.233 48.0946V48.5757V48.5883L49.5528 30.5063M49.0526 30.5063H49.5498H49.5528M49.5528 30.5063C49.4238 26.0212 47.5634 21.7467 44.3416 18.5651C41.0003 15.2655 36.4685 13.4117 31.7432 13.4117H31.733L49.5528 30.5063ZM44.4623 30.5063H44.4406C44.3823 29.0275 44.0588 27.5693 43.4841 26.2C42.8447 24.6764 41.9069 23.293 40.725 22.1292L40.579 21.9854H40.5759C39.1268 20.5988 37.3637 19.5729 35.4324 18.9932C33.4346 18.3936 31.3181 18.2898 29.2701 18.6912C27.2222 19.0925 25.3056 19.9866 23.6903 21.2948C22.075 22.6031 20.8107 24.2852 20.0103 26.1923C19.2098 28.0995 18.898 30.1726 19.1027 32.2276C19.3073 34.2826 20.0222 36.2554 21.1833 37.9716C22.3443 39.6877 23.9157 41.0941 25.7577 42.0662C27.4523 42.9605 29.3281 43.4622 31.2432 43.5365V43.56L31.7444 43.5587C35.11 43.5501 38.3366 42.2267 40.7194 39.876C43.1026 37.5251 44.4482 34.3373 44.4604 31.0081L44.4623 30.5063Z" fill="#7BBE4D" stroke="white"/>
<path fill-rule="evenodd" clip-rule="evenodd" d="M27.2679 39.1191H36.8736C36.9948 39.1199 37.115 39.0968 37.2273 39.0512C37.3396 39.0055 37.4417 38.9384 37.5278 38.8533C37.6139 38.7683 37.6823 38.6671 37.729 38.5556C37.7757 38.4442 37.7998 38.3246 37.8 38.2039V30.2398C37.7992 30.1496 37.7806 30.0604 37.7451 29.9774C37.7096 29.8944 37.6581 29.8192 37.5934 29.7561C37.5286 29.6931 37.452 29.6434 37.3679 29.6098C37.2838 29.5763 37.1939 29.5596 37.1034 29.5608H33.101C32.9173 29.5614 32.7408 29.4894 32.6102 29.3608C32.4797 29.2321 32.4056 29.0573 32.4042 28.8744V25.0436C32.405 24.9532 32.3877 24.8636 32.3534 24.78C32.319 24.6963 32.2683 24.6204 32.2041 24.5565C32.1399 24.4926 32.0636 24.4421 31.9796 24.4078C31.8956 24.3736 31.8057 24.3564 31.715 24.3572H27.2679C27.0234 24.3568 26.7886 24.4529 26.615 24.6244C26.4413 24.796 26.343 25.0289 26.3415 25.2724V26.4387L32.5525 32.5206C32.7172 32.6815 32.8415 32.8788 32.9157 33.0963L33.6495 35.3032C33.7086 35.4866 33.7237 35.6813 33.6939 35.8716C33.663 36.0512 33.5894 36.2207 33.479 36.366C33.3661 36.5189 33.2188 36.6432 33.0489 36.7291C32.879 36.815 32.6911 36.86 32.5006 36.8605C32.4031 36.8596 32.3061 36.8472 32.2115 36.8236L29.825 36.2332C29.5708 36.169 29.3381 36.0392 29.1505 35.8568L26.3415 33.1111V38.2039C26.3417 38.3246 26.3658 38.4442 26.4125 38.5556C26.4592 38.6671 26.5276 38.7683 26.6137 38.8533C26.6998 38.9384 26.8019 39.0055 26.9142 39.0512C27.0264 39.0968 27.1467 39.1199 27.2679 39.1191V39.1191ZM37.4961 28.52C37.5561 28.5197 37.6146 28.5018 37.6644 28.4684C37.7142 28.4351 37.753 28.3879 37.776 28.3328C37.7989 28.2776 37.805 28.2169 37.7934 28.1583C37.7819 28.0997 37.7533 28.0458 37.7111 28.0034L34.1016 24.4459C34.0584 24.4038 34.0038 24.3752 33.9445 24.3637C33.8852 24.3522 33.8238 24.3581 33.7679 24.3808C33.712 24.4036 33.6639 24.4421 33.6297 24.4916C33.5955 24.5412 33.5767 24.5996 33.5754 24.6598V28.2174C33.5775 28.2983 33.6111 28.3752 33.6693 28.4317C33.7274 28.4882 33.8054 28.5198 33.8866 28.52H37.4961ZM24.7553 26.4828C24.5628 26.4759 24.3747 26.5418 24.229 26.6674L23.1692 27.7156C23.0463 27.8537 22.9778 28.0314 22.9764 28.216C22.975 28.4005 23.0409 28.5794 23.1618 28.7193L24.0883 29.6271L26.1783 27.568L25.2519 26.6601C25.115 26.5403 24.9375 26.4768 24.7553 26.4828V26.4828ZM29.321 34.7423L31.4111 32.6829L26.8306 28.2027L26.3415 28.6899L24.7405 30.262L26.3415 31.8268L29.321 34.7423ZM32.4339 35.9453C32.4561 35.9453 32.4784 35.9527 32.5006 35.9527C32.5453 35.9523 32.5894 35.9417 32.6292 35.9215C32.6691 35.9013 32.7037 35.8722 32.7303 35.8364C32.7569 35.8006 32.7748 35.759 32.7825 35.7151C32.7902 35.6713 32.7876 35.6263 32.7748 35.5836L32.0411 33.3767C32.0411 33.3693 32.0336 33.3693 32.0336 33.3619L30.0177 35.34C30.0282 35.3434 30.0383 35.3484 30.0473 35.3548L32.4339 35.9453Z" fill="#7BBE4D"/>
<path fill-rule="evenodd" clip-rule="evenodd" d="M11.8588 42.8096C14.4138 42.8112 16.8637 43.8227 18.6703 45.6218C20.4769 47.4209 21.4925 49.8605 21.4941 52.4048H21.4867C21.4883 53.6644 21.2403 54.9119 20.757 56.0759C20.2737 57.2398 19.5646 58.2973 18.6703 59.1879C17.7759 60.0785 16.7139 60.7847 15.5451 61.266C14.3763 61.7472 13.1236 61.9942 11.8588 61.9927C10.5715 62.0283 9.29011 61.8064 8.09033 61.3404C6.89055 60.8743 5.79672 60.1736 4.87356 59.2794C3.9504 58.3853 3.2166 57.3158 2.71553 56.1344C2.21447 54.953 1.95635 53.6837 1.95635 52.4012C1.95635 51.1188 2.21447 49.8493 2.71553 48.6679C3.2166 47.4865 3.9504 46.417 4.87356 45.5229C5.79672 44.6287 6.89055 43.9279 8.09033 43.4619C9.29011 42.9959 10.5715 42.774 11.8588 42.8096Z" fill="#878786"/>
<path fill-rule="evenodd" clip-rule="evenodd" d="M32.0262 61.1514C31.6096 60.7423 31.3243 60.2193 31.2064 59.6487C31.0884 59.078 31.1432 58.4853 31.3637 57.9456C31.5843 57.406 31.9606 56.9437 32.4452 56.6172C32.9297 56.2907 33.5007 56.1148 34.0857 56.1117C34.6707 56.1086 35.2436 56.2786 35.7316 56.5999C36.2196 56.9212 36.6009 57.3793 36.8272 57.9166C37.0535 58.4539 37.1146 59.046 37.0028 59.6179C36.891 60.1897 36.6112 60.7158 36.199 61.1292C35.9279 61.4059 35.6042 61.6261 35.2469 61.7772C34.8895 61.9283 34.5055 62.0072 34.1173 62.0093C33.729 62.0114 33.3443 61.9365 32.9853 61.7893C32.6264 61.642 32.3003 61.4252 32.0262 61.1514Z" fill="#7BBE4D"/>
<path fill-rule="evenodd" clip-rule="evenodd" d="M49.9479 49.231C49.115 48.4094 48.5453 47.3603 48.3109 46.2163C48.0766 45.0723 48.1882 43.8848 48.6314 42.8039C49.0746 41.723 49.8297 40.7971 50.8012 40.1434C51.7727 39.4898 52.9169 39.1376 54.0893 39.1314C55.2618 39.1252 56.4097 39.4653 57.3881 40.1086C58.3665 40.752 59.1313 41.6699 59.586 42.746C60.0407 43.8222 60.1649 45.0085 59.9427 46.1549C59.7206 47.3013 59.1621 48.3563 58.338 49.1867C57.2267 50.2921 55.7228 50.9168 54.1521 50.9251C52.5815 50.9334 51.0709 50.3246 49.9479 49.231Z" fill="#DADADA"/>
<path fill-rule="evenodd" clip-rule="evenodd" d="M45.2118 11.0714C45.505 11.0714 45.7915 11.1581 46.0353 11.3203C46.2791 11.4825 46.4691 11.7129 46.5813 11.9827C46.6935 12.2524 46.7228 12.5492 46.6656 12.8356C46.6084 13.1219 46.4672 13.3851 46.2599 13.5915C46.0526 13.798 45.7885 13.9385 45.5009 13.9955C45.2134 14.0525 44.9154 14.0231 44.6445 13.9114C44.3736 13.7996 44.1421 13.6105 43.9792 13.3677C43.8163 13.1249 43.7294 12.8396 43.7294 12.5476C43.7287 12.3536 43.7666 12.1614 43.8409 11.982C43.9151 11.8026 44.0243 11.6395 44.1621 11.5023C44.2999 11.3651 44.4635 11.2564 44.6437 11.1824C44.8238 11.1085 45.0169 11.0707 45.2118 11.0714Z" fill="#DADADA"/>
<path fill-rule="evenodd" clip-rule="evenodd" d="M59.2941 19.9286C60.0274 19.9286 60.7442 20.1452 61.3538 20.551C61.9634 20.9568 62.4383 21.5337 62.7186 22.2085C62.9989 22.8832 63.0718 23.6258 62.9283 24.3418C62.7847 25.0579 62.431 25.7154 61.9119 26.2312C61.3929 26.7471 60.7319 27.0979 60.0126 27.2394C59.2932 27.381 58.5478 27.3069 57.8708 27.0264C57.1937 26.746 56.6155 26.2718 56.2092 25.664C55.8029 25.0561 55.5868 24.3419 55.5882 23.6117C55.5902 22.6342 55.9815 21.6974 56.6763 21.0069C57.3711 20.3164 58.3125 19.9286 59.2941 19.9286Z" fill="#7BBE4D"/>
<path fill-rule="evenodd" clip-rule="evenodd" d="M4.81764 25.0952C5.33071 25.0952 5.83223 25.2467 6.25883 25.5306C6.68543 25.8144 7.01791 26.2179 7.21425 26.69C7.4106 27.162 7.462 27.6814 7.36191 28.1826C7.26181 28.6837 7.01474 29.1439 6.65195 29.5052C6.28915 29.8665 5.82697 30.1126 5.32376 30.2123C4.82055 30.312 4.29896 30.2608 3.82494 30.0653C3.35093 29.8698 2.94575 29.5387 2.6607 29.1138C2.37566 28.689 2.22353 28.1895 2.22353 27.6785C2.2247 26.9938 2.49837 26.3373 2.98461 25.8531C3.47084 25.3689 4.13 25.0964 4.81764 25.0952Z" fill="#7BBE4D"/>
<path fill-rule="evenodd" clip-rule="evenodd" d="M10.6538 0.841582C13.4058 0.841582 16.0451 1.93033 17.9911 3.86821C19.937 5.80608 21.0303 8.43435 21.0303 11.1749H21.0228C21.0244 12.531 20.7572 13.8741 20.2366 15.1272C19.716 16.3803 18.9521 17.5187 17.9888 18.4773C17.0256 19.4359 15.8818 20.1958 14.6231 20.7134C13.3644 21.231 12.0156 21.496 10.6538 21.4935V21.5009C9.26828 21.5377 7.88944 21.2979 6.59857 20.7954C5.3077 20.2929 4.13093 19.5378 3.13788 18.575C2.14482 17.6121 1.35558 16.461 0.816633 15.1894C0.277691 13.9178 0 12.5515 0 11.1713C0 9.79108 0.277691 8.42467 0.816633 7.15305C1.35558 5.88144 2.14482 4.73032 3.13788 3.76747C4.13093 2.80463 5.3077 2.04959 6.59857 1.54706C7.88944 1.04453 9.26828 0.804697 10.6538 0.841582ZM15.679 6.17061C14.8532 5.34634 13.8358 4.73771 12.7173 4.39871C11.5987 4.05971 10.4133 4.00076 9.26643 4.22716C8.11951 4.45356 7.04644 4.9584 6.1423 5.69669C5.23816 6.43498 4.5309 7.38402 4.08326 8.45968C3.63562 9.53533 3.46147 10.7043 3.57614 11.8631C3.69081 13.0219 4.09077 14.1346 4.74065 15.1025C5.39053 16.0705 6.27019 16.8636 7.30166 17.412C8.33312 17.9603 9.48455 18.2468 10.6538 18.2459V18.2533C12.5379 18.2479 14.3435 17.5006 15.6764 16.1745C17.0094 14.8485 17.7616 13.0512 17.7691 11.1749H17.7616C17.7616 10.2454 17.5776 9.325 17.2202 8.46634C16.8629 7.60769 16.3392 6.82762 15.679 6.17061Z" fill="#7BBE4D"/>
</g>
<defs>
<clipPath id="clip0">
<rect width="63" height="62" fill="white"/>
</clipPath>
</defs>
</svg>
