<svg width="63" height="62" viewBox="0 0 63 62" fill="none" xmlns="http://www.w3.org/2000/svg">
<g clip-path="url(#clip0)">
<path fill-rule="evenodd" clip-rule="evenodd" d="M35.3986 28.7192C35.3289 28.6078 35.234 28.5144 35.1214 28.4462C35.1205 28.2337 35.1044 28.0215 35.0732 27.8113C35.0984 27.5087 35.1874 25.8259 34.146 25.073C33.5515 24.619 32.8258 24.3679 32.0767 24.3571C31.5251 24.349 30.9842 24.5087 30.5261 24.8148C30.2387 25.0098 29.9994 25.2671 29.8264 25.5675C29.531 25.5749 29.2454 25.6754 29.0108 25.8544C28.7761 26.0334 28.6045 26.2818 28.5205 26.564C28.4085 26.8089 28.3603 27.0779 28.3803 27.3462C28.4002 27.6146 28.4877 27.8735 28.6346 28.0993C28.6235 28.2322 28.6198 28.3502 28.6198 28.4462C28.5072 28.5144 28.4123 28.6078 28.3426 28.7192C28.2459 28.8908 28.1874 29.0811 28.171 29.2773C28.1546 29.4734 28.1808 29.6707 28.2477 29.8559C28.284 30.1296 28.4072 30.3846 28.5991 30.5837C28.7911 30.7828 29.0419 30.9157 29.315 30.963C29.5618 31.4883 29.8866 31.9734 30.2785 32.4023C30.4578 32.5576 30.6634 32.6801 30.8856 32.7639C31.5185 33.01 32.2212 33.01 32.8542 32.7639C33.0764 32.6801 33.2819 32.5576 33.4612 32.4023C33.8531 31.9734 34.1779 31.4883 34.4247 30.963C34.6978 30.9157 34.9486 30.7828 35.1406 30.5837C35.3325 30.3846 35.4557 30.1296 35.492 29.8559C35.5591 29.6708 35.5855 29.4736 35.5694 29.2774C35.5533 29.0813 35.4951 28.8909 35.3986 28.7192V28.7192ZM37.0292 34.196L34.0341 33.0149C33.992 32.9967 33.9466 32.9874 33.9007 32.9874C33.8548 32.9874 33.8094 32.9967 33.7673 33.0149C33.6834 33.0561 33.6183 33.1273 33.5849 33.2142L32.8326 35.2662L32.6844 34.838L32.9216 34.2697C32.9426 34.2181 32.9505 34.1623 32.9449 34.107C32.9392 34.0516 32.92 33.9986 32.889 33.9523C32.8577 33.906 32.8153 33.8682 32.7655 33.8424C32.7158 33.8166 32.6604 33.8038 32.6044 33.8048H31.1413C31.0853 33.8037 31.03 33.8166 30.9804 33.8424C30.9308 33.8682 30.8885 33.906 30.8574 33.9523C30.826 33.9984 30.8066 34.0516 30.801 34.107C30.7953 34.1623 30.8034 34.2182 30.8248 34.2697L31.0612 34.838L30.913 35.2662L30.1607 33.2142C30.1279 33.127 30.0626 33.0556 29.9784 33.0149C29.9363 32.9967 29.8909 32.9874 29.845 32.9874C29.7991 32.9874 29.7536 32.9967 29.7115 33.0149L26.7165 34.196C26.2711 34.3681 25.8883 34.6703 25.6182 35.0627C25.3482 35.4552 25.2035 35.9197 25.203 36.3955V38.7795C25.2027 38.8243 25.2113 38.8687 25.2285 38.9102C25.2456 38.9516 25.2708 38.9892 25.3027 39.0208C25.3346 39.0524 25.3724 39.0773 25.4141 39.0941C25.4558 39.111 25.5004 39.1195 25.5454 39.119H38.2017C38.2467 39.1195 38.2913 39.111 38.333 39.0941C38.3747 39.0773 38.4125 39.0524 38.4444 39.0208C38.4763 38.9892 38.5015 38.9516 38.5187 38.9102C38.5358 38.8687 38.5445 38.8243 38.5442 38.7795V36.3955C38.5435 35.9194 38.3983 35.4545 38.1277 35.062C37.8571 34.6695 37.4736 34.3677 37.0277 34.196H37.0292ZM36.9247 37.3696C36.925 37.4144 36.9163 37.4589 36.8992 37.5003C36.8821 37.5417 36.8568 37.5793 36.825 37.6109C36.7931 37.6425 36.7552 37.6676 36.7135 37.6844C36.6719 37.7013 36.6272 37.7098 36.5823 37.7093H34.2846C34.2396 37.7098 34.1949 37.7013 34.1532 37.6844C34.1115 37.6676 34.0736 37.6427 34.0417 37.6111C34.0097 37.5795 33.9844 37.5419 33.9672 37.5005C33.95 37.459 33.9413 37.4145 33.9415 37.3696V36.3216C33.9413 36.2768 33.95 36.2324 33.9672 36.191C33.9844 36.1495 34.0097 36.1119 34.0417 36.0803C34.0736 36.0487 34.1115 36.0238 34.1532 36.007C34.1949 35.9901 34.2396 35.9816 34.2846 35.9821H36.5823C36.6272 35.9816 36.6719 35.9901 36.7135 36.007C36.7552 36.0238 36.7931 36.0487 36.825 36.0803C36.8568 36.1119 36.8821 36.1495 36.8992 36.191C36.9163 36.2324 36.925 36.2768 36.9247 36.3216V37.3696Z" fill="#7BBE4D"/>
<path fill-rule="evenodd" clip-rule="evenodd" d="M11.8588 42.8096C14.4138 42.8112 16.8637 43.8227 18.6703 45.6218C20.4769 47.4209 21.4925 49.8605 21.4941 52.4048H21.4882C21.4895 53.6649 21.2411 54.9128 20.7572 56.0771C20.2733 57.2414 19.5635 58.2992 18.6685 59.1899C17.7734 60.0805 16.7106 60.7866 15.5411 61.2676C14.3716 61.7485 13.1182 61.9949 11.8529 61.9927C10.5656 62.0282 9.28414 61.8064 8.08436 61.3404C6.88458 60.8743 5.79079 60.1736 4.86763 59.2794C3.94447 58.3852 3.21067 57.3158 2.7096 56.1344C2.20854 54.953 1.95038 53.6837 1.95038 52.4012C1.95038 51.1188 2.20854 49.8493 2.7096 48.6679C3.21067 47.4865 3.94447 46.417 4.86763 45.5229C5.79079 44.6287 6.88458 43.9279 8.08436 43.4619C9.28414 42.9959 10.5656 42.774 11.8529 42.8096H11.8588Z" fill="#878786"/>
<path fill-rule="evenodd" clip-rule="evenodd" d="M32.024 61.1513C31.6076 60.7419 31.3226 60.2185 31.2049 59.6477C31.0873 59.0769 31.1424 58.4841 31.3631 57.9445C31.5839 57.4048 31.9605 56.9427 32.4452 56.6162C32.9299 56.2898 33.501 56.1139 34.0861 56.1108C34.6713 56.1077 35.2442 56.2775 35.7323 56.5987C36.2205 56.92 36.602 57.3784 36.8285 57.9156C37.0551 58.4529 37.1165 59.045 37.0049 59.6171C36.8934 60.1891 36.614 60.7153 36.202 61.1291C35.9303 61.4059 35.6062 61.6262 35.2484 61.7773C34.8906 61.9284 34.5063 62.0072 34.1176 62.0092C33.729 62.0113 33.3439 61.9365 32.9845 61.7892C32.6251 61.6419 32.2986 61.4252 32.024 61.1513Z" fill="#7BBE4D"/>
<path fill-rule="evenodd" clip-rule="evenodd" d="M49.9509 49.231C49.1174 48.4096 48.5472 47.3604 48.3125 46.2163C48.0777 45.0721 48.1889 43.8844 48.632 42.8031C49.0751 41.7219 49.8301 40.7959 50.8017 40.142C51.7733 39.4881 52.9177 39.1358 54.0904 39.1296C55.263 39.1234 56.4112 39.4636 57.3897 40.1072C58.3682 40.7508 59.1331 41.6688 59.5876 42.7453C60.0422 43.8218 60.1661 45.0083 59.9435 46.1548C59.7209 47.3014 59.162 48.3565 58.3373 49.1867C57.2268 50.2922 55.7234 50.917 54.1532 50.9253C52.5831 50.9335 51.073 50.3247 49.9509 49.231Z" fill="#DADADA"/>
<path fill-rule="evenodd" clip-rule="evenodd" d="M45.2118 11.0714C45.5049 11.0714 45.7915 11.1581 46.0353 11.3203C46.2791 11.4825 46.4691 11.7129 46.5813 11.9827C46.6935 12.2524 46.7228 12.5492 46.6656 12.8356C46.6084 13.1219 46.4672 13.385 46.2599 13.5915C46.0526 13.7979 45.7885 13.9385 45.501 13.9955C45.2134 14.0525 44.9153 14.0231 44.6445 13.9113C44.3736 13.7996 44.1421 13.6104 43.9792 13.3677C43.8163 13.1249 43.7294 12.8396 43.7294 12.5476C43.7294 12.1561 43.8856 11.7805 44.1636 11.5037C44.4416 11.2269 44.8186 11.0714 45.2118 11.0714Z" fill="#DADADA"/>
<path fill-rule="evenodd" clip-rule="evenodd" d="M59.2941 19.9286C60.0272 19.9295 60.7435 20.1468 61.3525 20.5532C61.9615 20.9595 62.4359 21.5367 62.7155 22.2115C62.9951 22.8864 63.0673 23.6288 62.9232 24.3445C62.7791 25.0603 62.4251 25.7175 61.9059 26.2329C61.3867 26.7482 60.7257 27.0986 60.0065 27.2398C59.2873 27.381 58.5421 27.3067 57.8653 27.0261C57.1886 26.7455 56.6105 26.2714 56.2044 25.6636C55.7983 25.0558 55.5823 24.3417 55.5838 23.6117C55.5858 22.6334 55.9777 21.6959 56.6734 21.0053C57.3691 20.3147 58.3118 19.9274 59.2941 19.9286Z" fill="#7BBE4D"/>
<path fill-rule="evenodd" clip-rule="evenodd" d="M4.81764 25.0952C5.33071 25.0952 5.83228 25.2467 6.25888 25.5306C6.68548 25.8144 7.01796 26.2179 7.2143 26.69C7.41064 27.162 7.462 27.6814 7.36191 28.1826C7.26181 28.6837 7.01474 29.1439 6.65195 29.5052C6.28915 29.8665 5.82693 30.1126 5.32372 30.2123C4.82051 30.312 4.29891 30.2608 3.8249 30.0653C3.35089 29.8698 2.94575 29.5387 2.6607 29.1138C2.37566 28.689 2.22353 28.1895 2.22353 27.6785C2.22353 26.9934 2.49685 26.3363 2.98334 25.8519C3.46983 25.3674 4.12964 25.0952 4.81764 25.0952Z" fill="#7BBE4D"/>
<path fill-rule="evenodd" clip-rule="evenodd" d="M10.6604 0.00369155C13.4124 0.00369155 16.0517 1.09244 17.9977 3.03031C19.9437 4.96819 21.0369 7.59645 21.0369 10.337H21.0303C21.0311 11.6936 20.7632 13.037 20.2419 14.2902C19.7206 15.5435 18.956 16.682 17.9921 17.6405C17.0282 18.599 15.8838 19.3588 14.6246 19.8762C13.3653 20.3936 12.016 20.6584 10.6538 20.6556V20.663C9.26828 20.6999 7.88939 20.46 6.59853 19.9575C5.30766 19.455 4.13093 18.6999 3.13788 17.7371C2.14482 16.7742 1.35553 15.6231 0.816588 14.3515C0.277646 13.0799 0 11.7137 0 10.3334C0 8.95319 0.277646 7.58678 0.816588 6.31516C1.35553 5.04355 2.14482 3.89243 3.13788 2.92958C4.13093 1.96674 5.30766 1.2117 6.59853 0.709171C7.88939 0.206643 9.26828 -0.0331935 10.6538 0.00369155H10.6604ZM15.6864 5.33272C14.8605 4.50927 13.8435 3.90141 12.7253 3.56298C11.6072 3.22455 10.4225 3.16597 9.27615 3.39251C8.12985 3.61906 7.05738 4.12367 6.15375 4.86168C5.25012 5.59968 4.54322 6.5483 4.09574 7.62341C3.64827 8.69851 3.47401 9.867 3.5884 11.0252C3.7028 12.1834 4.10232 13.2955 4.75156 14.2632C5.4008 15.2309 6.27973 16.0243 7.31043 16.5728C8.34113 17.1213 9.49178 17.4082 10.6604 17.408V17.4154C12.5447 17.4106 14.3506 16.6634 15.6837 15.3372C17.0168 14.011 17.7689 12.2135 17.7757 10.337H17.7691C17.7701 9.40744 17.5868 8.48689 17.2295 7.62809C16.8722 6.7693 16.348 5.98916 15.6871 5.33272H15.6864Z" fill="#7BBE4D"/>
<path d="M31.733 49.4253L31.733 49.4136L31.733 49.4253ZM31.733 49.4253L31.7327 49.4136L31.7198 48.9264C31.5575 48.9307 31.3952 48.9327 31.233 48.9325M31.733 49.4253L49.5498 31.8442H49.06C49.06 31.6772 49.0575 31.5106 49.0526 31.3442M31.233 48.9325V48.9127L31.7339 48.9136C34.0079 48.918 36.2603 48.4791 38.362 47.6226C40.4637 46.7662 42.3732 45.509 43.9814 43.9232C45.5896 42.3373 46.8648 40.4541 47.7344 38.3816C48.604 36.309 49.051 34.0875 49.0498 31.8444L49.0496 31.3442H49.0526M31.233 48.9325C29.0843 48.9296 26.9536 48.532 24.95 47.7585C22.7953 46.9267 20.8315 45.677 19.1745 44.0838C17.5175 42.4907 16.2008 40.5863 15.3019 38.4831C14.403 36.3799 13.94 34.1205 13.94 31.838C13.94 29.5556 14.403 27.2958 15.3019 25.1926C16.2008 23.0894 17.5175 21.1851 19.1745 19.5919C20.8315 17.9987 22.7953 16.7491 24.95 15.9172C27.1048 15.0854 29.4067 14.6883 31.7198 14.7494L31.7198 14.7496H31.733H31.7432C36.3379 14.7496 40.7432 16.5522 43.9903 19.7588C47.1175 22.847 48.9238 26.9937 49.0526 31.3442M31.233 48.9325V49.4136V49.4262L49.5528 31.3442M49.0526 31.3442H49.5498H49.5528M49.5528 31.3442C49.4238 26.8591 47.5634 22.5846 44.3416 19.403C41.0003 16.1034 36.4685 14.2496 31.7432 14.2496H31.733L49.5528 31.3442ZM44.4623 31.3442H44.4406C44.3823 29.8654 44.0588 28.4072 43.4841 27.0379C42.8447 25.5143 41.9069 24.1309 40.725 22.9671L40.579 22.8233H40.5759C39.1268 21.4367 37.3637 20.4108 35.4324 19.8311C33.4346 19.2315 31.3181 19.1277 29.2701 19.5291C27.2222 19.9304 25.3056 20.8245 23.6903 22.1327C22.075 23.441 20.8107 25.1231 20.0103 27.0302C19.2098 28.9373 18.898 31.0105 19.1027 33.0655C19.3073 35.1205 20.0222 37.0933 21.1833 38.8095C22.3443 40.5256 23.9157 41.932 25.7577 42.9041C27.4523 43.7984 29.3281 44.3001 31.2432 44.3744V44.3979L31.7444 44.3966C35.11 44.388 38.3366 43.0646 40.7194 40.7139C43.1026 38.363 44.4482 35.1752 44.4604 31.846L44.4623 31.3442Z" fill="#7BBE4D" stroke="white"/>
</g>
<defs>
<clipPath id="clip0">
<rect width="63" height="62" fill="white"/>
</clipPath>
</defs>
</svg>
